<svg xmlns="http://www.w3.org/2000/svg" xmlns:xlink="http://www.w3.org/1999/xlink" width="260.639" height="260.63" viewBox="0 0 260.639 260.63">
  <defs>
    <clipPath id="clip-path">
      <path id="Trazado_2286" data-name="Trazado 2286" d="M1769.758,5004.265a130.319,130.319,0,1,1,130.32,130.32,130.316,130.316,0,0,1-130.32-130.32" fill="none"/>
    </clipPath>
  </defs>
  <g id="Grupo_10044" data-name="Grupo 10044" transform="translate(5111.143 -1713.955)">
    <g id="Grupo_9768" data-name="Grupo 9768" transform="translate(-6880.901 -3160)" clip-path="url(#clip-path)">
      <path id="Trazado_2278" data-name="Trazado 2278" d="M1743.248,5007.615a157.76,157.76,0,1,1,157.76,157.76,157.756,157.756,0,0,1-157.76-157.76Z" fill="#9bd7f5"/>
      <path id="Trazado_2279" data-name="Trazado 2279" d="M1932.478,5017.825s60.5,23.21,74.449,12.85,7.331-19.91-35.709-77.3l-9.771,4.74,20.931,48.56-39.53-15.16-10.37,26.31Z" fill="#fca19f"/>
      <path id="Trazado_2280" data-name="Trazado 2280" d="M1920.937,4982.385s14.22,2.99,20.86,3.81,35.461,17.5,36.581,18.34l-7.721,34.51s-19.169-2.96-20.51-2.24c-4.98,2.7,2.841,70.42,2.841,70.42l5.949,47.99s-33.979,34.69-107.339,1.12l-.561-37.95-1.12-75.53s-34.97-42.79-2.23-56.93c15.83-6.83,53.46-3.86,53.46-3.86l19.79.32Z" fill="#242638"/>
      <path id="Trazado_2281" data-name="Trazado 2281" d="M1840.888,5000.515l-43.17,57.99a9.006,9.006,0,0,0-1.521,7.64c1.33,5.17,4.531,13.25,11.781,15.22,10.86,2.96,84.74-12.86,84.74-12.86l-4.98-14.17-51.671-1.1,32.041-26.02-27.22-26.7Z" fill="#fca19f"/>
      <path id="Trazado_2282" data-name="Trazado 2282" d="M1837.638,4993.375l-27.16,38.69,34.61,18.6,29.16-26.83-36.61-30.46Z" fill="#242638"/>
      <path id="Trazado_2283" data-name="Trazado 2283" d="M1835.527,5052.935c-16.49-.89-15.01-.76-21.97.07" fill="none" stroke="#f97070" stroke-linecap="round" stroke-linejoin="round" stroke-width="0.621"/>
      <path id="Trazado_2284" data-name="Trazado 2284" d="M1879.5,4981.475s5.689-2.56,8.25-4.67c5-4.12,11.159-25.26,11.159-25.26l27.91,9.1s-4.41,20.56-2.939,21.74,1.76,11.74-11.16,13.51-33.22-14.42-33.22-14.42Z" fill="#fca19f"/>
      <path id="Trazado_2285" data-name="Trazado 2285" d="M1899.917,4948.285s-1.15,3.59-1.92,6.34c3.56,30.06,20.831,26.49,25.53,25.3.361-5.84,3.191-19.03,3.191-19.03l-26.8-12.61Z" fill="#f97070"/>
    </g>
    <g id="Grupo_9770" data-name="Grupo 9770" transform="translate(-6880.901 -3160)">
      <path id="Trazado_2287" data-name="Trazado 2287" d="M1954.937,4924.4a30.1,30.1,0,0,0-8.1-13.01c-6.21-6.02-14.09-9.04-22.66-6.81-7.04,1.83-11.881,6.76-15.131,11.88a47.177,47.177,0,0,0-5.969,14.57c-.73,3.33-1.46,6.65-2.19,9.98-2.96,11.63-1.071,21.06,7.35,27.65,5.079,3.99,13.429,5.64,17.159,3.96,10.42-4.32,21-19.32,26.691-29.51,3.28-5.89,4.76-12.09,2.849-18.71Z" fill="#fca19f"/>
    </g>
    <g id="Grupo_9772" data-name="Grupo 9772" transform="translate(-6880.901 -3160)">
      <g id="Grupo_9771" data-name="Grupo 9771" clip-path="url(#clip-path)">
        <path id="Trazado_2288" data-name="Trazado 2288" d="M1905.608,4931.465s9.809-2.64,19-15.12c0,0,6.88,1.96,10.329,4.9s5.63,9.14,13.22,13.88a16.117,16.117,0,0,0,14.6,1.47,27.588,27.588,0,0,1-2.351-1.58,55.444,55.444,0,0,0,9.51-3.67s-2.069-.9-8.419-6.81a17.365,17.365,0,0,0,5.88-1.68,47.333,47.333,0,0,1-12.951-8.84c-6.41-6.12-14.89-14.01-21.51-13.99s-7.26.5-7.26.5,5.15-4.21,7.931-3.93c0,0-6.391-1.23-10.1,3.49a45.546,45.546,0,0,0-4.86-2.05c-1.76-.54,3.269,2.66,3.269,2.66s-17.7,7.44-20.37,32.98l4.081-2.21Z" fill="#242638"/>
        <path id="Trazado_2289" data-name="Trazado 2289" d="M1932.3,4941.235a16.978,16.978,0,0,0-3.959,9.51,3.347,3.347,0,0,1-.24,1.17,1.97,1.97,0,0,1-1.931.89,7.5,7.5,0,0,1-2.14-.67c-.4-.16-.86-.53-1.24-.33a1.323,1.323,0,0,0-.88,1.38" fill="none" stroke="#242638" stroke-linecap="round" stroke-linejoin="round" stroke-width="0.587"/>
        <path id="Trazado_2290" data-name="Trazado 2290" d="M1908.508,4930.275s-1.321-5.32-4.67-5.32-8.11,6.51-1.421,12.38a14.634,14.634,0,0,0,6.091-7.06Z" fill="#fd9997"/>
        <path id="Trazado_2291" data-name="Trazado 2291" d="M1945.3,4952.275s4.51-.45,4.811,2.15-4.64,8.1-10.091,4.54a16.4,16.4,0,0,1,5.28-6.69Z" fill="#fc9e9c"/>
        <path id="Trazado_2292" data-name="Trazado 2292" d="M1925.657,4900.525s7.221-3.5,14.24-1.79,16.721,10.91,21.971,12.22c0,0-5.821,1.86-13.721-.88a88.567,88.567,0,0,0-14.84-3.74l-7.65-5.81Z" fill="#242638"/>
        <path id="Trazado_2293" data-name="Trazado 2293" d="M1952.718,4936.445s-3.691,10.73-6.39,15.84c0,0,10.189-12.32,10.739-17.13s-4.349,1.29-4.349,1.29Z" fill="#242638"/>
        <path id="Trazado_2294" data-name="Trazado 2294" d="M1918.328,4929.415c-.921,1.22,1.879,1.42,3.65,1.36s5.2,1.84,6.63,2,2.539-2.64.289-3.64-8.12-2.96-10.569.28Z" fill="#242638"/>
        <path id="Trazado_2295" data-name="Trazado 2295" d="M1946.057,4945.065c-.569,1.43-2.189-.87-3.049-2.41s-4.28-3.49-5.16-4.63.949-3.54,2.969-2.13,6.74,5.39,5.24,9.17Z" fill="#242638"/>
        <path id="Trazado_2296" data-name="Trazado 2296" d="M1926.638,4922.845a12.386,12.386,0,0,0,.629-3.71c-.24-.13-2.48,1.9-2.82,2.5a1.252,1.252,0,0,0,2.191,1.21Z" fill="#ebf1ff"/>
        <path id="Trazado_2297" data-name="Trazado 2297" d="M1949.138,4941.145a10.4,10.4,0,0,0,.549-3.26,8.777,8.777,0,0,0-2.459,2.19,1.095,1.095,0,0,0,1.91,1.07Z" fill="#ebf1ff"/>
        <path id="Trazado_2298" data-name="Trazado 2298" d="M1906.138,4941.265a8.736,8.736,0,0,0,.45-2.69,7.2,7.2,0,0,0-2.041,1.81.909.909,0,0,0,1.591.88Z" fill="#ebf1ff"/>
        <path id="Trazado_2299" data-name="Trazado 2299" d="M1915.348,4930.285a6.994,6.994,0,0,0,.359-2.1c-.14-.08-1.41,1.07-1.6,1.42a.707.707,0,0,0,1.24.68Z" fill="#ebf1ff"/>
        <path id="Trazado_2300" data-name="Trazado 2300" d="M1922.317,4938.345c1-1.8,1.161-3.62.361-4.06s-2.241.66-3.241,2.46-1.16,3.61-.359,4.05,2.25-.66,3.239-2.45Z" fill="#242638"/>
        <path id="Trazado_2301" data-name="Trazado 2301" d="M1939.738,4947.625c1-1.79,1.2-3.58.459-3.99s-2.15.71-3.14,2.51-1.209,3.58-.459,4,2.15-.72,3.14-2.52Z" fill="#242638"/>
        <path id="Trazado_2302" data-name="Trazado 2302" d="M1910.358,4955.275s16.209.48,14.52,8.15a84.848,84.848,0,0,1-14.52-8.15Z" fill="#242638"/>
        <path id="Trazado_2303" data-name="Trazado 2303" d="M1920.008,4942.725s-3.351.84-4.231-2m17.76,9.11s1.071,3.17,4.191,2.7" fill="none" stroke="#242638" stroke-linecap="round" stroke-linejoin="round" stroke-width="0.558"/>
        <path id="Trazado_2304" data-name="Trazado 2304" d="M1887.738,5054.335s7.569-9.43,9.62-12.04,16.37-10.14,18.419-8.09-14.33,10.14-11.72,12.56,15.161-2.98,17.3-4.93c1.049-.96,5.85-9.64,6.98-9.49,2.14.28.179,9.12-2.141,12.09-4.43,5.67-4.469,4.75-4.469,4.75s3.91-1.68,5.77.18-3.16,4.28-3.16,4.28a4.489,4.489,0,0,1,2.229,2.79c.21,1.34-1.86,4.09-1.86,4.09a4.413,4.413,0,0,1-1.03,5.68c-2.25,1.83-32.27,2.51-32.27,2.51l-3.669-14.38Z" fill="#fca19f"/>
        <path id="Trazado_2305" data-name="Trazado 2305" d="M1934.008,5019.445l-26.14,22.7a2.841,2.841,0,0,0-.63.8l-2.1,4.13a3.3,3.3,0,0,1-.821,1.06l-4.29,3.72a.9.9,0,0,0-.169,1.18.864.864,0,0,0,1.27.15l4.309-3.75a3.789,3.789,0,0,1,1.171-.67l4.38-1.49a2.585,2.585,0,0,0,.88-.51l26.149-22.7a3.058,3.058,0,1,0-4.009-4.62Z" fill="#b4c9ff"/>
        <path id="Trazado_2306" data-name="Trazado 2306" d="M1934.7,5025.675l-2.75-3.16-23.67,20.54,2.75,3.17,23.67-20.55Z" fill="#fff"/>
        <path id="Trazado_2307" data-name="Trazado 2307" d="M1933.417,5024.195l-.18-.21-32.42,28.15.18.2,32.42-28.14Z" fill="#d64d4d"/>
        <path id="Trazado_2308" data-name="Trazado 2308" d="M1904.017,5048.4l-3.99,3.46a.9.9,0,0,0-.169,1.18.864.864,0,0,0,1.27.15l4.019-3.49-1.13-1.3Z" fill="#999"/>
        <path id="Trazado_2309" data-name="Trazado 2309" d="M1932.628,5024.205l-1.13-1.3-.13.12,1.13,1.3.13-.12Z" fill="#525354"/>
        <path id="Trazado_2310" data-name="Trazado 2310" d="M1931.968,5023.925l-.71-.82-.13.12.71.81.13-.11Z" fill="#525354"/>
        <path id="Trazado_2311" data-name="Trazado 2311" d="M1931.747,5024.115l-.71-.81-.13.11.7.82.14-.12Z" fill="#525354"/>
        <path id="Trazado_2312" data-name="Trazado 2312" d="M1931.537,5024.295l-.71-.81-.13.12.7.81.14-.12Z" fill="#525354"/>
        <path id="Trazado_2313" data-name="Trazado 2313" d="M1931.328,5024.475l-.7-.81-.14.11.71.82.13-.12Z" fill="#525354"/>
        <path id="Trazado_2314" data-name="Trazado 2314" d="M1931.188,5025.455l-1.13-1.3-.13.11,1.13,1.31.13-.12Z" fill="#525354"/>
        <path id="Trazado_2315" data-name="Trazado 2315" d="M1930.527,5025.175l-.7-.82-.14.12.71.81.13-.11Z" fill="#525354"/>
        <path id="Trazado_2316" data-name="Trazado 2316" d="M1930.307,5025.365l-.71-.81-.13.11.71.82.13-.12Z" fill="#525354"/>
        <path id="Trazado_2317" data-name="Trazado 2317" d="M1930.1,5025.545l-.71-.81-.13.12.71.81.13-.12Z" fill="#525354"/>
        <path id="Trazado_2318" data-name="Trazado 2318" d="M1929.9,5025.725l-.71-.81-.13.11.7.82.14-.12Z" fill="#525354"/>
        <path id="Trazado_2319" data-name="Trazado 2319" d="M1929.718,5026.745l-1.14-1.31-.13.12,1.13,1.3.14-.11Z" fill="#525354"/>
        <path id="Trazado_2320" data-name="Trazado 2320" d="M1929.047,5026.455l-.7-.81-.14.11.71.82.13-.12Z" fill="#525354"/>
        <path id="Trazado_2321" data-name="Trazado 2321" d="M1928.828,5026.645l-.71-.81-.13.12.71.81.13-.12Z" fill="#525354"/>
        <path id="Trazado_2322" data-name="Trazado 2322" d="M1928.618,5026.835l-.71-.82-.13.12.71.81.13-.11Z" fill="#525354"/>
        <path id="Trazado_2323" data-name="Trazado 2323" d="M1928.417,5027l-.71-.81-.13.12.7.81.14-.12Z" fill="#525354"/>
        <path id="Trazado_2324" data-name="Trazado 2324" d="M1927.968,5028.265l-1.14-1.31-.13.12,1.13,1.3.14-.11Z" fill="#525354"/>
        <path id="Trazado_2325" data-name="Trazado 2325" d="M1927.3,5027.975l-.7-.81-.14.11.71.82.13-.12Z" fill="#525354"/>
        <path id="Trazado_2326" data-name="Trazado 2326" d="M1927.078,5028.165l-.71-.81-.13.12.71.81.13-.12Z" fill="#525354"/>
        <path id="Trazado_2327" data-name="Trazado 2327" d="M1926.868,5028.355l-.71-.82-.13.12.71.81.13-.11Z" fill="#525354"/>
        <path id="Trazado_2328" data-name="Trazado 2328" d="M1926.667,5028.525l-.71-.81-.13.12.7.81.14-.12Z" fill="#525354"/>
        <path id="Trazado_2329" data-name="Trazado 2329" d="M1926.527,5029.5l-1.13-1.3-.14.12,1.13,1.3.14-.12Z" fill="#525354"/>
        <path id="Trazado_2330" data-name="Trazado 2330" d="M1925.868,5029.225l-.71-.82-.13.12.7.81.14-.11Z" fill="#525354"/>
        <path id="Trazado_2331" data-name="Trazado 2331" d="M1925.638,5029.415l-.7-.81-.14.11.71.82.13-.12Z" fill="#525354"/>
        <path id="Trazado_2332" data-name="Trazado 2332" d="M1925.427,5029.595l-.7-.81-.14.12.71.81.13-.12Z" fill="#525354"/>
        <path id="Trazado_2333" data-name="Trazado 2333" d="M1925.228,5029.775l-.71-.81-.13.11.7.82.14-.12Z" fill="#525354"/>
        <path id="Trazado_2334" data-name="Trazado 2334" d="M1925.047,5030.795l-1.13-1.31-.14.12,1.13,1.3.14-.11Z" fill="#525354"/>
        <path id="Trazado_2335" data-name="Trazado 2335" d="M1924.388,5030.5l-.71-.81-.13.12.7.81.14-.12Z" fill="#525354"/>
        <path id="Trazado_2336" data-name="Trazado 2336" d="M1924.157,5030.705l-.7-.82-.14.12.71.81.13-.11Z" fill="#525354"/>
        <path id="Trazado_2337" data-name="Trazado 2337" d="M1923.948,5030.885l-.7-.81-.14.11.71.81.13-.11Z" fill="#525354"/>
        <path id="Trazado_2338" data-name="Trazado 2338" d="M1923.748,5031.065l-.71-.82-.13.12.7.81.14-.11Z" fill="#525354"/>
        <path id="Trazado_2339" data-name="Trazado 2339" d="M1923.358,5032.255l-1.13-1.3-.13.11,1.13,1.31.13-.12Z" fill="#525354"/>
        <path id="Trazado_2340" data-name="Trazado 2340" d="M1922.7,5031.975l-.71-.82-.13.12.71.81.13-.11Z" fill="#525354"/>
        <path id="Trazado_2341" data-name="Trazado 2341" d="M1922.478,5032.165l-.71-.81-.13.11.7.82.14-.12Z" fill="#525354"/>
        <path id="Trazado_2342" data-name="Trazado 2342" d="M1922.267,5032.345l-.71-.81-.13.12.7.81.14-.12Z" fill="#525354"/>
        <path id="Trazado_2343" data-name="Trazado 2343" d="M1922.057,5032.525l-.7-.81-.14.11.71.82.13-.12Z" fill="#525354"/>
        <path id="Trazado_2344" data-name="Trazado 2344" d="M1921.917,5033.5l-1.13-1.3-.13.11,1.13,1.31.13-.12Z" fill="#525354"/>
        <path id="Trazado_2345" data-name="Trazado 2345" d="M1921.258,5033.215l-.7-.81-.14.12.71.81.13-.12Z" fill="#525354"/>
        <path id="Trazado_2346" data-name="Trazado 2346" d="M1921.037,5033.415l-.71-.81-.13.11.7.81.14-.11Z" fill="#525354"/>
        <path id="Trazado_2347" data-name="Trazado 2347" d="M1920.828,5033.595l-.71-.81-.13.11.7.82.14-.12Z" fill="#525354"/>
        <path id="Trazado_2348" data-name="Trazado 2348" d="M1920.618,5033.775l-.7-.82-.14.12.71.81.13-.11Z" fill="#525354"/>
        <path id="Trazado_2349" data-name="Trazado 2349" d="M1920.438,5034.785l-1.13-1.3-.13.12,1.13,1.3.13-.12Z" fill="#525354"/>
        <path id="Trazado_2350" data-name="Trazado 2350" d="M1919.777,5034.5l-.7-.81-.14.11.71.81.13-.11Z" fill="#525354"/>
        <path id="Trazado_2351" data-name="Trazado 2351" d="M1919.557,5034.695l-.71-.81-.13.12.71.81.13-.12Z" fill="#525354"/>
        <path id="Trazado_2352" data-name="Trazado 2352" d="M1919.348,5034.885l-.71-.82-.13.12.7.81.14-.11Z" fill="#525354"/>
        <path id="Trazado_2353" data-name="Trazado 2353" d="M1919.138,5035.055l-.7-.81-.14.12.71.81.13-.12Z" fill="#525354"/>
        <path id="Trazado_2354" data-name="Trazado 2354" d="M1918.878,5036.145l-1.13-1.3-.14.12,1.14,1.3.13-.12Z" fill="#525354"/>
        <path id="Trazado_2355" data-name="Trazado 2355" d="M1918.218,5035.865l-.71-.82-.13.12.7.81.14-.11Z" fill="#525354"/>
        <path id="Trazado_2356" data-name="Trazado 2356" d="M1917.988,5036.055l-.7-.81-.14.11.71.82.13-.12Z" fill="#525354"/>
        <path id="Trazado_2357" data-name="Trazado 2357" d="M1917.777,5036.235l-.7-.81-.14.12.71.81.13-.12Z" fill="#525354"/>
        <path id="Trazado_2358" data-name="Trazado 2358" d="M1917.578,5036.415l-.71-.81-.13.11.71.82.13-.12Z" fill="#525354"/>
        <path id="Trazado_2359" data-name="Trazado 2359" d="M1917.438,5037.4l-1.13-1.3-.13.11,1.13,1.31.13-.12Z" fill="#525354"/>
        <path id="Trazado_2360" data-name="Trazado 2360" d="M1916.777,5037.115l-.71-.82-.13.12.71.81.13-.11Z" fill="#525354"/>
        <path id="Trazado_2361" data-name="Trazado 2361" d="M1916.557,5037.305l-.71-.81-.13.11.7.82.14-.12Z" fill="#525354"/>
        <path id="Trazado_2362" data-name="Trazado 2362" d="M1916.348,5037.485l-.71-.81-.13.12.7.81.14-.12Z" fill="#525354"/>
        <path id="Trazado_2363" data-name="Trazado 2363" d="M1916.138,5037.665l-.7-.81-.14.11.71.82.13-.12Z" fill="#525354"/>
        <path id="Trazado_2364" data-name="Trazado 2364" d="M1915.958,5038.685l-1.13-1.31-.13.12,1.13,1.3.13-.11Z" fill="#525354"/>
        <path id="Trazado_2365" data-name="Trazado 2365" d="M1915.3,5038.4l-.71-.81-.13.11.71.82.13-.12Z" fill="#525354"/>
        <path id="Trazado_2366" data-name="Trazado 2366" d="M1915.078,5038.585l-.71-.81-.13.12.7.81.14-.12Z" fill="#525354"/>
        <path id="Trazado_2367" data-name="Trazado 2367" d="M1914.868,5038.775l-.71-.82-.13.12.7.81.14-.11Z" fill="#525354"/>
        <path id="Trazado_2368" data-name="Trazado 2368" d="M1914.657,5038.945l-.7-.81-.14.12.71.81.13-.12Z" fill="#525354"/>
        <path id="Trazado_2369" data-name="Trazado 2369" d="M1914.118,5040.285l-1.13-1.31-.14.12,1.14,1.3.13-.11Z" fill="#525354"/>
        <path id="Trazado_2370" data-name="Trazado 2370" d="M1913.457,5040l-.71-.81-.13.11.7.82.14-.12Z" fill="#525354"/>
        <path id="Trazado_2371" data-name="Trazado 2371" d="M1913.228,5040.185l-.7-.81-.14.12.71.81.13-.12Z" fill="#525354"/>
        <path id="Trazado_2372" data-name="Trazado 2372" d="M1913.017,5040.375l-.7-.82-.14.12.71.81.13-.11Z" fill="#525354"/>
        <path id="Trazado_2373" data-name="Trazado 2373" d="M1912.818,5040.545l-.71-.81-.13.12.71.81.13-.12Z" fill="#525354"/>
        <path id="Trazado_2374" data-name="Trazado 2374" d="M1912.677,5041.525l-1.13-1.3-.13.12,1.13,1.3.13-.12Z" fill="#525354"/>
        <path id="Trazado_2375" data-name="Trazado 2375" d="M1912.017,5041.245l-.71-.81-.13.11.71.81.13-.11Z" fill="#525354"/>
        <path id="Trazado_2376" data-name="Trazado 2376" d="M1911.8,5041.435l-.71-.81-.13.12.7.81.14-.12Z" fill="#525354"/>
        <path id="Trazado_2377" data-name="Trazado 2377" d="M1911.588,5041.615l-.71-.811-.13.12.7.81.14-.12Z" fill="#525354"/>
        <path id="Trazado_2378" data-name="Trazado 2378" d="M1911.378,5041.795l-.7-.81-.14.12.71.81.13-.12Z" fill="#525354"/>
        <path id="Trazado_2379" data-name="Trazado 2379" d="M1911.2,5042.815l-1.13-1.3-.13.11,1.13,1.31.13-.12Z" fill="#525354"/>
        <path id="Trazado_2380" data-name="Trazado 2380" d="M1910.537,5042.525l-.71-.81-.13.12.71.81.13-.12Z" fill="#525354"/>
        <path id="Trazado_2381" data-name="Trazado 2381" d="M1910.318,5042.725l-.71-.82-.13.12.7.81.14-.11Z" fill="#525354"/>
        <path id="Trazado_2382" data-name="Trazado 2382" d="M1910.108,5042.9l-.71-.81-.13.11.7.82.14-.12Z" fill="#525354"/>
        <path id="Trazado_2383" data-name="Trazado 2383" d="M1909.9,5043.085l-.7-.82-.14.12.71.81.13-.11Z" fill="#525354"/>
        <path id="Trazado_2384" data-name="Trazado 2384" d="M1873.508,4957.375a8.09,8.09,0,1,0-8.091,8.09,8.087,8.087,0,0,0,8.091-8.09Z" fill="#b4c9ff"/>
        <path id="Trazado_2385" data-name="Trazado 2385" d="M1865.777,4908.915h-.73a2.751,2.751,0,0,0-2.74,2.74v42.89a2.757,2.757,0,0,0,2.74,2.74h.73a2.751,2.751,0,0,0,2.74-2.74v-42.89a2.744,2.744,0,0,0-2.74-2.74Z" fill="#b4c9ff"/>
        <path id="Trazado_2386" data-name="Trazado 2386" d="M1865.417,4911.6h0a1.69,1.69,0,0,0-1.679,1.68v40.04a1.675,1.675,0,1,0,3.35,0v-40.04a1.682,1.682,0,0,0-1.671-1.68Z" fill="#f96767"/>
        <path id="Trazado_2387" data-name="Trazado 2387" d="M1872.208,4957.465a6.79,6.79,0,1,0-6.791,6.79,6.791,6.791,0,0,0,6.791-6.79Z" fill="#f96767"/>
        <path id="Trazado_2388" data-name="Trazado 2388" d="M1865.547,4945.235h-3.49v-.7h3.49v.7Z" fill="#fff"/>
        <path id="Trazado_2389" data-name="Trazado 2389" d="M1862.057,4937.375h3.49v.7h-3.49v-.7Z" fill="#fff"/>
        <path id="Trazado_2390" data-name="Trazado 2390" d="M1862.057,4930.785h3.49v.69h-3.49v-.69Z" fill="#fff"/>
        <path id="Trazado_2391" data-name="Trazado 2391" d="M1862.057,4924.745h3.49v.7h-3.49v-.7Z" fill="#fff"/>
        <path id="Trazado_2392" data-name="Trazado 2392" d="M1862.057,4918.745h3.49v.7h-3.49v-.7Z" fill="#fff"/>
        <path id="Trazado_2393" data-name="Trazado 2393" d="M1862.057,4913.415h3.49v.69h-3.49v-.69Z" fill="#fff"/>
        <path id="Trazado_2394" data-name="Trazado 2394" d="M1853.537,4903.365l6.23,4.75a.3.3,0,0,0,.41-.05.29.29,0,0,0-.059-.41l-6.23-4.75a.286.286,0,0,0-.4.05.3.3,0,0,0,.049.41Z" fill="#242638"/>
        <path id="Trazado_2395" data-name="Trazado 2395" d="M1859.968,4898.515l3.67,6.93a.288.288,0,1,0,.509-.27l-3.669-6.93a.284.284,0,0,0-.39-.12.291.291,0,0,0-.12.39Z" fill="#242638"/>
        <path id="Trazado_2396" data-name="Trazado 2396" d="M1850.777,4909.215l7.3,2.85a.3.3,0,0,0,.38-.17.294.294,0,0,0-.171-.37l-7.3-2.84a.285.285,0,1,0-.211.53Z" fill="#242638"/>
        <path id="Trazado_2397" data-name="Trazado 2397" d="M1876.4,4901.615l-5.38,5.69a.286.286,0,0,0,.01.41.3.3,0,0,0,.41-.01l5.38-5.69a.29.29,0,1,0-.42-.4Z" fill="#242638"/>
        <path id="Trazado_2398" data-name="Trazado 2398" d="M1880.547,4908.525l-7.28,2.91a.276.276,0,0,0-.159.37.283.283,0,0,0,.37.16l7.28-2.91a.285.285,0,1,0-.211-.53Z" fill="#242638"/>
        <path id="Trazado_2399" data-name="Trazado 2399" d="M1870.868,4898.245l-3.6,6.96a.293.293,0,0,0,.52.27l3.6-6.97a.291.291,0,0,0-.52-.26Z" fill="#242638"/>
        <path id="Trazado_2400" data-name="Trazado 2400" d="M1962.468,4959.055s-5.521-5.7-10.64-18.2c0,0-11.32-7.59-10.75-8.88s8.28,2.02,8.28,2.02-8.671-9.66-7.091-11.05,10.16,6.43,10.16,6.43-10.13-10.79-8.059-12.11,14.569,12.11,14.569,12.11-7.309-10.52-5.63-11.77,12.35,11.41,14.561,15.86,4.61,22.09,4.61,22.09l-10.01,3.5Z" fill="#fca19f"/>
      </g>
    </g>
  </g>
</svg>
