<?xml version="1.0" encoding="utf-8"?>
<!-- Generator: Adobe Illustrator 22.1.0, SVG Export Plug-In . SVG Version: 6.00 Build 0)  -->
<svg version="1.1" id="Layer_1" xmlns="http://www.w3.org/2000/svg" xmlns:xlink="http://www.w3.org/1999/xlink" x="0px" y="0px"
	 width="97.1px" height="90.5px" viewBox="0 0 97.1 90.5" style="enable-background:new 0 0 97.1 90.5;" xml:space="preserve">
<style type="text/css">
	.st0{fill-rule:evenodd;clip-rule:evenodd;fill:#FFDCD5;}
	.st1{fill-rule:evenodd;clip-rule:evenodd;fill:#FF9EB1;}
	.st2{fill-rule:evenodd;clip-rule:evenodd;fill:#FFDA8F;}
	.st3{fill:#4D4D4D;}
</style>
<g>
	<g>
		<path class="st0" d="M1.9,48.3c-0.2,6.3,1.8,8.1,5.5,11.5C10.6,62.7,18,68,18,73.8V76h20.9v-5.5c-0.1-3-0.1-5.8-0.9-8.7
			C36.4,56,33.3,52,25.4,49.9c-1.1-0.3-1.5-0.4-2.2-1.5l-4.9-8c-0.9-1.5-2.6-2.3-4.2-2.2l-1.3-16.9c-0.2-2.5-2-4.5-4.5-4.5
			c-2.5,0-4.4,2-4.5,4.5L1.9,48.3z M1.9,48.3"/>
		<path class="st1" d="M38.9,76H17.5c-1.6,0-2.9,1.3-2.9,2.9v6.9c0,1.6,1.3,2.9,2.9,2.9h21.8c1.6,0,2.9-1.3,2.9-2.9v-6.9
			c0-1.6-1.3-2.9-2.9-2.9H38.9z M38.9,76"/>
		<path class="st1" d="M54.9,78.8v6.9c0,1.6,1.3,2.9,2.9,2.9h21.8c1.6,0,2.9-1.3,2.9-2.9v-6.9c0-1.6-1.3-2.9-2.9-2.9H57.8
			C56.2,76,54.9,77.2,54.9,78.8L54.9,78.8z M54.9,78.8"/>
		<path class="st0" d="M59.1,61.8c-0.8,2.9-0.8,5.7-0.9,8.7V76h20.9v-2.2c0-5.8,7.3-11.1,10.5-14c3.7-3.4,5.7-5.2,5.5-11.5l-1.8-27
			c-0.2-2.5-2-4.5-4.5-4.5c-2.5,0-4.3,2-4.5,4.5L83,38.1c-1.7-0.1-3.3,0.7-4.2,2.2l-4.9,8c-0.7,1.2-1,1.2-2.2,1.5
			C63.8,52,60.7,56,59.1,61.8L59.1,61.8z M59.1,61.8"/>
		<path class="st1" d="M46.2,6c-5.4-5-13.8-5.7-18.9-0.4c-5.9,6.1-5.9,16,0,22.1L38,38c0-4.2,2.6-7.9,6.2-9.6
			c-1.6-1.3-2.6-3.2-2.6-5.3c0-3.8,3.1-6.9,6.9-6.9c3.8,0,6.9,3.1,6.9,6.9c0,2.2-1,4.1-2.6,5.3c3.6,1.7,6.2,5.3,6.2,9.6l10.8-10.4
			c5.9-6.1,5.9-16,0-22.1C64.7,0.3,56.3,1,50.9,6C48.5,8.3,48.6,8.3,46.2,6L46.2,6z M46.2,6"/>
		<path class="st2" d="M44.2,28.5C40.6,30.1,38,33.8,38,38l10.5,10.1L59.1,38c0-4.2-2.6-7.9-6.2-9.6c-1.2,0.9-2.7,1.5-4.3,1.5
			C46.9,30,45.4,29.4,44.2,28.5L44.2,28.5z M44.2,28.5"/>
		<path class="st0" d="M48.5,16.2c-3.8,0-6.9,3.1-6.9,6.9c0,2.2,1,4.1,2.6,5.3c1.2,1,2.7,1.5,4.3,1.5s3.1-0.6,4.3-1.5
			c1.6-1.3,2.6-3.2,2.6-5.3C55.4,19.3,52.4,16.2,48.5,16.2L48.5,16.2z M48.5,16.2"/>
	</g>
	<g>
		<path class="st3" d="M40.8,74.3v-3.8c0,0,0,0,0,0c-0.1-2.9-0.1-6-1-9.1c-1.9-7.2-6.1-11.2-13.9-13.3l-0.1,0
			c-0.2-0.1-0.5-0.1-0.6-0.2c0,0-0.1-0.2-0.3-0.5l-4.9-8c-0.9-1.5-2.4-2.6-4.1-2.9l-1.2-15.3c-0.3-3.6-3-6.3-6.4-6.3
			c-3.4,0-6.2,2.7-6.4,6.3L0,48.2c0,0,0,0,0,0.1c-0.3,7.2,2.3,9.4,6.1,12.9l0.1,0.1c0.5,0.4,1,0.9,1.6,1.4c3.3,2.8,8.3,7.1,8.3,11.2
			v0.5c-1.9,0.6-3.3,2.4-3.3,4.5v6.9c0,2.6,2.1,4.8,4.8,4.8h2.4c1,0,1.9-0.8,1.9-1.9c0-1-0.8-1.9-1.9-1.9h-2.4c-0.5,0-1-0.4-1-1
			v-6.9c0-0.5,0.4-1,1-1h21.8c0.5,0,1,0.4,1,1v6.9c0,0.5-0.4,1-1,1h-2.4c-1,0-1.9,0.8-1.9,1.9c0,1,0.8,1.9,1.9,1.9h2.4
			c2.6,0,4.8-2.1,4.8-4.8v-6.9C44.1,76.7,42.7,74.9,40.8,74.3L40.8,74.3z M37,74.1H19.9v-0.3c0-5.8-5.8-10.8-9.6-14.1
			c-0.6-0.5-1.1-1-1.6-1.4l-0.1-0.1c-3.5-3.2-5-4.5-4.8-9.9l1.8-27c0.1-1.6,1.2-2.7,2.6-2.7c1.6,0,2.5,1.4,2.6,2.8L12,36.6
			c-0.4,0.1-0.8,0.3-1.2,0.6c-3.1,1.9-4,6-2.2,9l8,13c0.5,0.9,1.7,1.2,2.6,0.6c0.9-0.5,1.2-1.7,0.6-2.6l-8-13
			c-0.8-1.3-0.4-3,0.9-3.8c1.3-0.8,3-0.4,3.8,0.9l4.9,8c1,1.6,1.7,2,3.2,2.3l0.1,0c7.5,2,9.9,5.7,11.2,10.6c0.7,2.7,0.8,5.5,0.9,8.2
			L37,74.1L37,74.1z M37,74.1"/>
		<path class="st3" d="M97.1,48.2C97.1,48.2,97.1,48.2,97.1,48.2l-1.8-27.1c-0.2-3.6-3-6.3-6.4-6.3c-3.4,0-6.1,2.7-6.4,6.3
			l-1.2,15.3c-1.6,0.4-3.1,1.4-4.1,2.9l-4.9,8c-0.2,0.3-0.3,0.5-0.3,0.5c-0.1,0-0.4,0.1-0.6,0.2l-0.1,0c-7.8,2.1-12,6.1-13.9,13.3
			c-0.8,3.2-0.9,6.2-1,9.1c0,0,0,0,0,0v3.8c-1.9,0.6-3.3,2.4-3.3,4.5v6.9c0,2.6,2.1,4.8,4.8,4.8h21.8c2.6,0,4.8-2.1,4.8-4.8v-6.9
			c0-2.1-1.4-3.9-3.3-4.5v-0.5c0-4.1,5-8.4,8.3-11.2c0.6-0.5,1.2-1,1.6-1.4l0.1-0.1C94.8,57.7,97.3,55.4,97.1,48.2L97.1,48.2z
			 M80.5,85.7c0,0.5-0.4,1-1,1H57.8c-0.5,0-1-0.4-1-1v-6.9c0-0.5,0.4-1,1-1h21.8c0.5,0,1,0.4,1,1V85.7z M88.5,58.3L88.5,58.3
			c-0.5,0.5-1.1,0.9-1.6,1.4c-3.8,3.3-9.6,8.2-9.6,14.1v0.3H60.1v-3.5c0.1-2.7,0.1-5.5,0.9-8.2c1.3-4.9,3.7-8.6,11.2-10.6l0.1,0
			c1.4-0.4,2.2-0.7,3.2-2.3l4.9-8C81,40.4,82,40,82.9,40c0,0,0,0,0,0c0.4,0,0.9,0.2,1.3,0.4c0.6,0.4,1.1,1,1.2,1.7
			c0.2,0.7,0.1,1.5-0.3,2.1l-8,13c-0.5,0.9-0.3,2.1,0.6,2.6c0.9,0.5,2.1,0.3,2.6-0.6l8-13c0.9-1.5,1.2-3.2,0.8-5
			c-0.4-1.7-1.5-3.2-2.9-4.1c-0.4-0.2-0.8-0.4-1.2-0.6l1.2-15.2c0.1-1.4,1-2.8,2.6-2.8c1.4,0,2.5,1.2,2.6,2.7l1.8,27
			C93.5,53.8,92,55.1,88.5,58.3L88.5,58.3z M88.5,58.3"/>
		<path class="st3" d="M71.2,28.9c6.6-6.8,6.6-17.9,0-24.7C68.4,1.3,64.6-0.2,60.4,0c-4,0.2-7.8,1.8-10.8,4.6l-0.2,0.2
			c-0.3,0.3-0.6,0.6-0.9,0.8c-0.3-0.2-0.6-0.5-0.9-0.8l-0.2-0.2c-3-2.8-6.8-4.4-10.8-4.6c-4.2-0.2-8,1.3-10.8,4.2
			c-6.6,6.8-6.6,17.9,0,24.7c0,0,0,0,0,0l21.3,20.6c0.4,0.4,0.8,0.5,1.3,0.5s0.9-0.2,1.3-0.5L71.2,28.9C71.2,29,71.2,29,71.2,28.9
			L71.2,28.9z M48.5,45.5L40,37.3c0.2-2.7,1.8-5.2,4.1-6.6c1.3,0.8,2.8,1.2,4.4,1.2c1.6,0,3.1-0.4,4.4-1.2c2.3,1.4,3.9,3.9,4.1,6.6
			L48.5,45.5z M43.6,23.1c0-2.7,2.2-5,5-5c2.7,0,5,2.2,5,5c0,2.7-2.2,5-5,5C45.8,28.1,43.6,25.9,43.6,23.1L43.6,23.1z M60.3,34.2
			c-0.8-2.5-2.4-4.6-4.5-6.2c0.9-1.4,1.5-3.1,1.5-4.9c0-4.8-3.9-8.8-8.8-8.8s-8.8,3.9-8.8,8.8c0,1.8,0.6,3.5,1.5,4.9
			c-2.1,1.5-3.7,3.7-4.5,6.2l-8.2-7.9c-5.2-5.4-5.1-14,0-19.4C32.7,2.6,40,2.8,44.9,7.4l0.2,0.2c1.3,1.2,2.2,2,3.5,2s2.2-0.8,3.5-2
			l0.2-0.2c4.9-4.5,12.2-4.8,16.3-0.5c5.2,5.3,5.2,14,0,19.4L60.3,34.2z M60.3,34.2"/>
	</g>
	<path d="M28.4,86.7c-1,0-1.9,0.8-1.9,1.9c0,1,0.8,1.9,1.9,1.9h0c1,0,1.9-0.8,1.9-1.9C30.3,87.5,29.5,86.7,28.4,86.7L28.4,86.7z
		 M28.4,86.7"/>
</g>
</svg>
