<svg xmlns="http://www.w3.org/2000/svg" width="203.016" height="179.863" viewBox="0 0 203.016 179.863">
  <g id="Grupo_3725" data-name="Grupo 3725" transform="translate(-248 -3123.137)">
    <circle id="Elipse_581" data-name="Elipse 581" cx="86.5" cy="86.5" r="86.5" transform="translate(248 3130)" fill="#ffe3e2"/>
    <g id="Grupo_3508" data-name="Grupo 3508" transform="translate(68 3068)">
      <path id="Trazado_2307" data-name="Trazado 2307" d="M213,138l9.739,60.87h92.522L325,138" fill="none" stroke="#dd726a" stroke-miterlimit="10" stroke-width="3"/>
      <path id="Trazado_2308" data-name="Trazado 2308" d="M214,148.887l4.845-4.237a14.816,14.816,0,0,1,19.5.024,14.812,14.812,0,0,0,19.478,0,14.756,14.756,0,0,1,19.478,0,14.812,14.812,0,0,0,19.478,0,14.816,14.816,0,0,1,19.5-.024l4.845,4.237" transform="translate(1.435 4.306)" fill="none" stroke="#dd726a" stroke-miterlimit="10" stroke-width="3"/>
      <path id="Trazado_2309" data-name="Trazado 2309" d="M0,0" transform="translate(293 160)" fill="none" stroke="#dd726a" stroke-width="3"/>
    </g>
    <g id="Grupo_3509" data-name="Grupo 3509" transform="translate(367.021 3007.387)">
      <line id="Línea_78" data-name="Línea 78" x2="7.63" y2="8.998" transform="translate(54.987 127.96)" fill="none" stroke="#dd726a" stroke-miterlimit="10" stroke-width="2.5"/>
      <path id="Trazado_2303" data-name="Trazado 2303" d="M51.934,129.687l6.107-4.58V119H32.088l-5.414,6.316a2.647,2.647,0,0,0,2.009,4.371Z" transform="translate(0 1.053)" fill="none" stroke="#dd726a" stroke-miterlimit="10" stroke-width="2.5"/>
      <path id="Trazado_2304" data-name="Trazado 2304" d="M46.847,126v16.7a9.265,9.265,0,0,0,5.32,8.383l5.789,2.725a4.581,4.581,0,0,1,2.63,4.145v19.952a4.58,4.58,0,0,1-4.58,4.58H31.58a4.58,4.58,0,0,1-4.58-4.58V166.989a70.859,70.859,0,0,1,6.107-28.776V126" transform="translate(0.508 4.74)" fill="none" stroke="#dd726a" stroke-miterlimit="10" stroke-width="2.5"/>
      <line id="Línea_79" data-name="Línea 79" x2="6.107" transform="translate(58.041 123.107)" fill="none" stroke="#dd726a" stroke-miterlimit="10" stroke-width="2.5"/>
      <line id="Línea_80" data-name="Línea 80" x2="13.74" transform="translate(33.614 142.953)" fill="none" stroke="#dd726a" stroke-miterlimit="10" stroke-width="2.5"/>
      <line id="Línea_81" data-name="Línea 81" x2="13.74" transform="translate(33.614 136.847)" fill="none" stroke="#dd726a" stroke-miterlimit="10" stroke-width="2.5"/>
      <line id="Línea_82" data-name="Línea 82" x2="3.053" transform="translate(68.727 120.053)" fill="none" stroke="#dd726a" stroke-miterlimit="10" stroke-width="2.5"/>
      <line id="Línea_83" data-name="Línea 83" x2="3.053" transform="translate(68.727 126.16)" fill="none" stroke="#dd726a" stroke-miterlimit="10" stroke-width="2.5"/>
      <line id="Línea_84" data-name="Línea 84" x2="3.053" transform="translate(74.834 123.107)" fill="none" stroke="#dd726a" stroke-miterlimit="10" stroke-width="2.5"/>
      <line id="Línea_85" data-name="Línea 85" x2="3.053" transform="translate(74.834 117)" fill="none" stroke="#dd726a" stroke-miterlimit="10" stroke-width="2.5"/>
      <line id="Línea_86" data-name="Línea 86" x2="3.053" transform="translate(74.834 129.213)" fill="none" stroke="#dd726a" stroke-miterlimit="10" stroke-width="2.5"/>
      <line id="Línea_87" data-name="Línea 87" x2="3.053" transform="translate(80.941 123.107)" fill="none" stroke="#dd726a" stroke-miterlimit="10" stroke-width="2.5"/>
      <line id="Línea_88" data-name="Línea 88" x2="3.053" transform="translate(80.941 117)" fill="none" stroke="#dd726a" stroke-miterlimit="10" stroke-width="2.5"/>
      <line id="Línea_89" data-name="Línea 89" x2="3.053" transform="translate(80.941 129.213)" fill="none" stroke="#dd726a" stroke-miterlimit="10" stroke-width="2.5"/>
      <circle id="Elipse_580" data-name="Elipse 580" cx="9.16" cy="9.16" r="9.16" transform="translate(35.141 161.273)" fill="none" stroke="#dd726a" stroke-miterlimit="10" stroke-width="2.5"/>
    </g>
  </g>
</svg>
