<svg xmlns="http://www.w3.org/2000/svg" width="185" height="140" viewBox="0 0 185 140">
  <g id="Grupo_3532" data-name="Grupo 3532" transform="translate(-713 -637)">
    <circle id="Elipse_564" data-name="Elipse 564" cx="60" cy="60" r="60" transform="translate(746 650)" fill="#fff"/>
    <g id="Grupo_3436" data-name="Grupo 3436" transform="translate(-9 -3.178)">
      <g id="Grupo_3408" data-name="Grupo 3408" transform="translate(778.878 696.395)">
        <path id="Trazado_2066" data-name="Trazado 2066" d="M1342.041,574.6a8.45,8.45,0,0,1-8.441-8.441V518.687a1.065,1.065,0,0,1,1.065-1.065h14.751a1.065,1.065,0,0,1,1.065,1.065v47.473A8.45,8.45,0,0,1,1342.041,574.6Zm-6.31-54.849v46.408a6.31,6.31,0,1,0,12.62,0V519.752Z" transform="translate(-1333.6 -517.622)" fill="#0e737b"/>
      </g>
      <g id="Grupo_3409" data-name="Grupo 3409" transform="translate(775.709 682.912)">
        <path id="Trazado_2067" data-name="Trazado 2067" d="M1343.413,451.072h-21.089l1.052,15.9h19.158Z" transform="translate(-1321.26 -450.007)" fill="#f3f7fa"/>
        <path id="Trazado_2068" data-name="Trazado 2068" d="M1337.893,463.4h-19.158a1.065,1.065,0,0,1-1.063-.995l-1.052-15.9a1.065,1.065,0,0,1,1.063-1.136h21.089a1.066,1.066,0,0,1,1.063,1.124l-.878,15.9A1.065,1.065,0,0,1,1337.893,463.4Zm-18.161-2.13h17.153l.761-13.772H1318.82Z" transform="translate(-1316.618 -445.364)" fill="#0e737b"/>
      </g>
      <g id="Grupo_3410" data-name="Grupo 3410" transform="translate(778.943 704.577)">
        <path id="Trazado_2069" data-name="Trazado 2069" d="M1339.657,567.18h0Z" transform="translate(-1338.592 -566.115)" fill="#0e737b"/>
        <path id="Trazado_2070" data-name="Trazado 2070" d="M1349.634,563.6h-14.62a1.065,1.065,0,0,1,0-2.13h14.62a1.065,1.065,0,0,1,0,2.13Z" transform="translate(-1333.949 -561.471)" fill="#0e737b"/>
      </g>
      <g id="Grupo_3415" data-name="Grupo 3415" transform="translate(780.693 682.912)">
        <g id="Grupo_3413" data-name="Grupo 3413">
          <g id="Grupo_3411" data-name="Grupo 3411">
            <path id="Trazado_2071" data-name="Trazado 2071" d="M1349.038,451.072v0Z" transform="translate(-1347.973 -450.007)" fill="#0e737b"/>
            <path id="Trazado_2072" data-name="Trazado 2072" d="M1344.394,463.4a1.065,1.065,0,0,1-1.065-1.065v-15.9a1.065,1.065,0,0,1,2.13,0v15.9A1.065,1.065,0,0,1,1344.394,463.4Z" transform="translate(-1343.329 -445.364)" fill="#0e737b"/>
          </g>
          <g id="Grupo_3412" data-name="Grupo 3412" transform="translate(5.64)">
            <path id="Trazado_2073" data-name="Trazado 2073" d="M1379.262,451.072v0Z" transform="translate(-1378.197 -450.007)" fill="#0e737b"/>
            <path id="Trazado_2074" data-name="Trazado 2074" d="M1374.619,463.4a1.065,1.065,0,0,1-1.065-1.065v-15.9a1.065,1.065,0,0,1,2.13,0v15.9A1.065,1.065,0,0,1,1374.619,463.4Z" transform="translate(-1373.554 -445.364)" fill="#0e737b"/>
          </g>
        </g>
        <g id="Grupo_3414" data-name="Grupo 3414" transform="translate(11.279)">
          <path id="Trazado_2075" data-name="Trazado 2075" d="M1409.485,451.072v0Z" transform="translate(-1408.42 -450.007)" fill="#0e737b"/>
          <path id="Trazado_2076" data-name="Trazado 2076" d="M1404.841,463.4a1.065,1.065,0,0,1-1.065-1.065v-15.9a1.065,1.065,0,0,1,2.13,0v15.9A1.065,1.065,0,0,1,1404.841,463.4Z" transform="translate(-1403.776 -445.364)" fill="#0e737b"/>
        </g>
      </g>
      <g id="Grupo_3416" data-name="Grupo 3416" transform="translate(806.074 696.395)">
        <path id="Trazado_2077" data-name="Trazado 2077" d="M1487.793,574.6a8.45,8.45,0,0,1-8.441-8.441V518.687a1.065,1.065,0,0,1,1.065-1.065h14.751a1.065,1.065,0,0,1,1.065,1.065v47.473A8.45,8.45,0,0,1,1487.793,574.6Zm-6.31-54.849v46.408a6.31,6.31,0,1,0,12.62,0V519.752Z" transform="translate(-1479.352 -517.622)" fill="#0e737b"/>
      </g>
      <g id="Grupo_3417" data-name="Grupo 3417" transform="translate(802.905 682.912)">
        <path id="Trazado_2078" data-name="Trazado 2078" d="M1489.165,451.072h-21.089l1.052,15.9h19.158Z" transform="translate(-1467.011 -450.007)" fill="#f3f7fa"/>
        <path id="Trazado_2079" data-name="Trazado 2079" d="M1483.643,463.4h-19.158a1.065,1.065,0,0,1-1.063-.995l-1.052-15.9a1.065,1.065,0,0,1,1.063-1.136h21.089a1.066,1.066,0,0,1,1.064,1.124l-.878,15.9A1.065,1.065,0,0,1,1483.643,463.4Zm-18.162-2.13h17.154l.761-13.772h-18.825Z" transform="translate(-1462.368 -445.364)" fill="#0e737b"/>
      </g>
      <g id="Grupo_3418" data-name="Grupo 3418" transform="translate(806.139 732.58)">
        <path id="Trazado_2080" data-name="Trazado 2080" d="M1485.409,717.255h0Z" transform="translate(-1484.344 -716.19)" fill="#0e737b"/>
        <path id="Trazado_2081" data-name="Trazado 2081" d="M1495.386,713.676h-14.62a1.065,1.065,0,0,1,0-2.13h14.62a1.065,1.065,0,0,1,0,2.13Z" transform="translate(-1479.701 -711.546)" fill="#0e737b"/>
      </g>
      <g id="Grupo_3423" data-name="Grupo 3423" transform="translate(807.889 682.912)">
        <g id="Grupo_3421" data-name="Grupo 3421">
          <g id="Grupo_3419" data-name="Grupo 3419">
            <path id="Trazado_2082" data-name="Trazado 2082" d="M1494.79,451.072v0Z" transform="translate(-1493.725 -450.007)" fill="#0e737b"/>
            <path id="Trazado_2083" data-name="Trazado 2083" d="M1490.146,463.4a1.065,1.065,0,0,1-1.065-1.065v-15.9a1.065,1.065,0,0,1,2.13,0v15.9A1.065,1.065,0,0,1,1490.146,463.4Z" transform="translate(-1489.081 -445.364)" fill="#0e737b"/>
          </g>
          <g id="Grupo_3420" data-name="Grupo 3420" transform="translate(5.64)">
            <path id="Trazado_2084" data-name="Trazado 2084" d="M1525.014,451.072v0Z" transform="translate(-1523.949 -450.007)" fill="#0e737b"/>
            <path id="Trazado_2085" data-name="Trazado 2085" d="M1520.371,463.4a1.065,1.065,0,0,1-1.065-1.065v-15.9a1.065,1.065,0,0,1,2.13,0v15.9A1.065,1.065,0,0,1,1520.371,463.4Z" transform="translate(-1519.306 -445.364)" fill="#0e737b"/>
          </g>
        </g>
        <g id="Grupo_3422" data-name="Grupo 3422" transform="translate(11.279)">
          <path id="Trazado_2086" data-name="Trazado 2086" d="M1555.237,451.072v0Z" transform="translate(-1554.172 -450.007)" fill="#0e737b"/>
          <path id="Trazado_2087" data-name="Trazado 2087" d="M1550.594,463.4a1.065,1.065,0,0,1-1.065-1.065v-15.9a1.065,1.065,0,0,1,2.13,0v15.9A1.065,1.065,0,0,1,1550.594,463.4Z" transform="translate(-1549.529 -445.364)" fill="#0e737b"/>
        </g>
      </g>
      <g id="Grupo_3424" data-name="Grupo 3424" transform="translate(833.199 696.395)">
        <path id="Trazado_2088" data-name="Trazado 2088" d="M1633.159,574.6a8.45,8.45,0,0,1-8.44-8.441V518.687a1.065,1.065,0,0,1,1.065-1.065h14.75a1.065,1.065,0,0,1,1.065,1.065v47.473A8.45,8.45,0,0,1,1633.159,574.6Zm-6.31-54.849v46.408a6.31,6.31,0,1,0,12.62,0V519.752Z" transform="translate(-1624.719 -517.622)" fill="#0e737b"/>
      </g>
      <g id="Grupo_3425" data-name="Grupo 3425" transform="translate(830.029 682.912)">
        <path id="Trazado_2089" data-name="Trazado 2089" d="M1634.531,451.072h-21.089l1.052,15.9h19.158Z" transform="translate(-1612.377 -450.007)" fill="#f3f7fa"/>
        <path id="Trazado_2090" data-name="Trazado 2090" d="M1629.01,463.4h-19.159a1.066,1.066,0,0,1-1.063-.995l-1.052-15.9a1.066,1.066,0,0,1,1.063-1.136h21.089a1.065,1.065,0,0,1,1.064,1.124l-.878,15.9A1.066,1.066,0,0,1,1629.01,463.4Zm-18.161-2.13H1628l.761-13.772h-18.825Z" transform="translate(-1607.734 -445.364)" fill="#0e737b"/>
      </g>
      <g id="Grupo_3426" data-name="Grupo 3426" transform="translate(833.264 715.179)">
        <path id="Trazado_2091" data-name="Trazado 2091" d="M1630.775,624h0Z" transform="translate(-1629.71 -622.933)" fill="#0e737b"/>
        <path id="Trazado_2092" data-name="Trazado 2092" d="M1640.753,620.419h-14.62a1.065,1.065,0,0,1,0-2.13h14.62a1.065,1.065,0,0,1,0,2.13Z" transform="translate(-1625.068 -618.289)" fill="#0e737b"/>
      </g>
      <g id="Grupo_3431" data-name="Grupo 3431" transform="translate(835.014 682.912)">
        <g id="Grupo_3429" data-name="Grupo 3429">
          <g id="Grupo_3427" data-name="Grupo 3427">
            <path id="Trazado_2093" data-name="Trazado 2093" d="M1640.156,451.072v0Z" transform="translate(-1639.091 -450.007)" fill="#0e737b"/>
            <path id="Trazado_2094" data-name="Trazado 2094" d="M1635.514,463.4a1.065,1.065,0,0,1-1.065-1.065v-15.9a1.065,1.065,0,0,1,2.131,0v15.9A1.065,1.065,0,0,1,1635.514,463.4Z" transform="translate(-1634.449 -445.364)" fill="#0e737b"/>
          </g>
          <g id="Grupo_3428" data-name="Grupo 3428" transform="translate(5.639)">
            <path id="Trazado_2095" data-name="Trazado 2095" d="M1670.38,451.072v0Z" transform="translate(-1669.315 -450.007)" fill="#0e737b"/>
            <path id="Trazado_2096" data-name="Trazado 2096" d="M1665.736,463.4a1.065,1.065,0,0,1-1.065-1.065v-15.9a1.065,1.065,0,0,1,2.13,0v15.9A1.065,1.065,0,0,1,1665.736,463.4Z" transform="translate(-1664.671 -445.364)" fill="#0e737b"/>
          </g>
        </g>
        <g id="Grupo_3430" data-name="Grupo 3430" transform="translate(11.279)">
          <path id="Trazado_2097" data-name="Trazado 2097" d="M1700.6,451.072v0Z" transform="translate(-1699.538 -450.007)" fill="#0e737b"/>
          <path id="Trazado_2098" data-name="Trazado 2098" d="M1695.959,463.4a1.065,1.065,0,0,1-1.065-1.065v-15.9a1.065,1.065,0,0,1,2.13,0v15.9A1.065,1.065,0,0,1,1695.959,463.4Z" transform="translate(-1694.894 -445.364)" fill="#0e737b"/>
        </g>
      </g>
      <g id="Grupo_3434" data-name="Grupo 3434" transform="translate(770.674 722.606)">
        <path id="Trazado_2100" data-name="Trazado 2100" d="M1376.18,694.935H1290.7a1.065,1.065,0,0,1-1.065-1.065V665.582a7.5,7.5,0,0,1,7.489-7.489h72.63a7.5,7.5,0,0,1,7.489,7.489V693.87A1.065,1.065,0,0,1,1376.18,694.935Zm-84.412-2.13h83.347V665.582a5.365,5.365,0,0,0-5.359-5.359h-72.63a5.365,5.365,0,0,0-5.359,5.359Z" transform="translate(-1289.637 -658.093)" fill="#0e737b"/>
      </g>
      <g id="Grupo_3435" data-name="Grupo 3435" transform="translate(766 757.318)">
        <path id="Trazado_2101" data-name="Trazado 2101" d="M1360.478,854.992h-94.827a1.065,1.065,0,0,1-1.065-1.065v-8.739a1.065,1.065,0,0,1,1.065-1.065h94.827a1.065,1.065,0,0,1,1.065,1.065v8.739A1.065,1.065,0,0,1,1360.478,854.992Zm-93.761-2.13h92.7v-6.608h-92.7Z" transform="translate(-1264.586 -844.123)" fill="#0e737b"/>
      </g>
    </g>
    <rect id="Rectángulo_961" data-name="Rectángulo 961" width="185" height="140" transform="translate(713 637)" fill="none"/>
  </g>
</svg>
