<svg xmlns="http://www.w3.org/2000/svg" width="413" height="328" viewBox="0 0 413 328">
  <g id="Grupo_787" data-name="Grupo 787" transform="translate(-9579 -1987)">
    <rect id="Rectángulo_150" data-name="Rectángulo 150" width="413" height="328" transform="translate(9579 1987)" fill="#2b4e6a"/>
    <g id="photo" transform="translate(9711 2053.176)">
      <path id="Trazado_526" data-name="Trazado 526" d="M194.872,160.972A14.086,14.086,0,1,0,180.8,146.9,14.1,14.1,0,0,0,194.872,160.972Zm0-19.911a5.825,5.825,0,1,1-5.811,5.838A5.841,5.841,0,0,1,194.872,141.062Z" transform="translate(-131.009 -69.418)" fill="#f3f7fa"/>
      <path id="Trazado_527" data-name="Trazado 527" d="M135.85,37H5.15A5.16,5.16,0,0,0,0,42.15V152.774a5.16,5.16,0,0,0,5.15,5.15h130.7a5.16,5.16,0,0,0,5.15-5.15V42.15A5.16,5.16,0,0,0,135.85,37Zm-3.112,8.262v65.378l-26-26a4.372,4.372,0,0,0-6.141,0L63.863,121.407,40.4,97.944a4.285,4.285,0,0,0-3.084-1.267,4.332,4.332,0,0,0-3.084,1.267L8.262,123.913V45.262ZM8.262,149.662V135.59l29.054-29.054L60.779,130a4.285,4.285,0,0,0,3.084,1.267A4.332,4.332,0,0,0,66.947,130l36.737-36.737,29.054,29.054v27.346H8.262Z" fill="#f3f7fa"/>
    </g>
  </g>
</svg>
