<svg xmlns="http://www.w3.org/2000/svg" width="185" height="140" viewBox="0 0 185 140">
  <g id="Grupo_3535" data-name="Grupo 3535" transform="translate(-242 -637)">
    <circle id="Elipse_563" data-name="Elipse 563" cx="60" cy="60" r="60" transform="translate(275 650)" fill="#fff"/>
    <g id="Grupo_3438" data-name="Grupo 3438" transform="translate(0 -6)">
      <g id="Grupo_3403" data-name="Grupo 3403" transform="translate(-1467.208 209.818)">
        <g id="Grupo_3401" data-name="Grupo 3401" transform="translate(1728.208 456.14)">
          <line id="Línea_22" data-name="Línea 22" x1="5.198" y2="17.661" transform="translate(13.125 80.674)" fill="none" stroke="#0e737b" stroke-linecap="round" stroke-linejoin="round" stroke-width="2"/>
          <g id="Grupo_3400" data-name="Grupo 3400">
            <path id="Trazado_2051" data-name="Trazado 2051" d="M1821.625,472.545s.259,16.173-8.851,23.192a11.119,11.119,0,0,1-13.646,0c-9.111-7.019-8.851-23.192-8.851-23.192a15.691,15.691,0,1,1,31.349,0Z" transform="translate(-1760.241 -456.14)" fill="none" stroke="#0e737b" stroke-linecap="round" stroke-linejoin="round" stroke-width="2"/>
            <path id="Trazado_2052" data-name="Trazado 2052" d="M1728.208,594.82l6.073-37.1a9.356,9.356,0,0,1,7-7.8l17.938-4.492a6.7,6.7,0,0,0,4.242-3.247c1.018-1.841,2.156-4.326,2.187-6.28" transform="translate(-1728.208 -497.31)" fill="none" stroke="#0e737b" stroke-linecap="round" stroke-linejoin="round" stroke-width="2"/>
            <path id="Trazado_2053" data-name="Trazado 2053" d="M1766.075,622.867a9.783,9.783,0,0,0,2.344,2.933c3.107,2.606,7.269,2.59,10.838,2.577,1.27,0,2.3-.087,2.956-.152" transform="translate(-1747.752 -542.193)" fill="none" stroke="#0e737b" stroke-linecap="round" stroke-linejoin="round" stroke-width="2"/>
            <line id="Línea_23" data-name="Línea 23" y2="16.182" transform="translate(19.991 83.152)" fill="none" stroke="#0e737b" stroke-linecap="round" stroke-linejoin="round" stroke-width="2"/>
            <path id="Trazado_2054" data-name="Trazado 2054" d="M1876.59,594.82l-6.073-37.1a9.357,9.357,0,0,0-7-7.8l-17.938-4.492a6.7,6.7,0,0,1-4.243-3.247c-1.018-1.841-2.156-4.326-2.187-6.28" transform="translate(-1785.471 -497.31)" fill="none" stroke="#0e737b" stroke-linecap="round" stroke-linejoin="round" stroke-width="2"/>
            <line id="Línea_24" data-name="Línea 24" x2="5.198" y2="17.661" transform="translate(72.797 80.674)" fill="none" stroke="#0e737b" stroke-linecap="round" stroke-linejoin="round" stroke-width="2"/>
            <path id="Trazado_2055" data-name="Trazado 2055" d="M1861.443,622.867a9.8,9.8,0,0,1-2.344,2.933c-3.108,2.606-7.27,2.59-10.838,2.577-1.27,0-2.3-.087-2.956-.152" transform="translate(-1788.646 -542.193)" fill="none" stroke="#0e737b" stroke-linecap="round" stroke-linejoin="round" stroke-width="2"/>
            <line id="Línea_25" data-name="Línea 25" y2="16.182" transform="translate(71.128 83.152)" fill="none" stroke="#0e737b" stroke-linecap="round" stroke-linejoin="round" stroke-width="2"/>
          </g>
        </g>
      </g>
      <g id="Grupo_3407" data-name="Grupo 3407" transform="translate(-790.998 544.728)">
        <g id="Grupo_3405" data-name="Grupo 3405" transform="translate(1153.118 145.042)">
          <g id="Grupo_3404" data-name="Grupo 3404">
            <path id="Trazado_2056" data-name="Trazado 2056" d="M1189.665,172.754a3.877,3.877,0,0,1-3.152-2.293s0-.01-.005-.015" transform="translate(-1174.939 -161.105)" fill="none" stroke="#0e737b" stroke-linecap="round" stroke-linejoin="round" stroke-width="2"/>
            <path id="Trazado_2057" data-name="Trazado 2057" d="M1217.764,154.79a3.2,3.2,0,0,1,2.892.706,2.928,2.928,0,0,1,.819,2.3,4.279,4.279,0,0,1-.957,2.121,9.588,9.588,0,0,0-1.814,2.959,21.941,21.941,0,0,0-1.162,4.328,2.569,2.569,0,0,1,1.429.9" transform="translate(-1194.561 -151.148)" fill="none" stroke="#0e737b" stroke-linecap="round" stroke-linejoin="round" stroke-width="2"/>
            <path id="Trazado_2058" data-name="Trazado 2058" d="M1230,166.618a2.722,2.722,0,0,1,2.271,3.035,4.2,4.2,0,0,1-.708,1.939c-.947,1.609-1.742,1.8-2.5,2.987a6.041,6.041,0,0,0-.9,3,1.75,1.75,0,0,1,.884,1.027" transform="translate(-1201.271 -158.684)" fill="none" stroke="#0e737b" stroke-linecap="round" stroke-linejoin="round" stroke-width="2"/>
            <path id="Trazado_2059" data-name="Trazado 2059" d="M1239.5,181.407a2.456,2.456,0,0,1,1.271,1.027,2.51,2.51,0,0,1,.3,1.044c.14,1.328-.729,2.282-1.575,3.181a9.1,9.1,0,0,0-2.089,3.5,1.4,1.4,0,0,1,.252.206,1.417,1.417,0,0,1,.331.56" transform="translate(-1207.118 -168.035)" fill="none" stroke="#0e737b" stroke-linecap="round" stroke-linejoin="round" stroke-width="2"/>
            <path id="Trazado_2060" data-name="Trazado 2060" d="M1185.607,157.575a4.749,4.749,0,0,0,.361-3.05c-.011-.049-.022-.093-.028-.141a7.575,7.575,0,0,1-.207-1.6,11.175,11.175,0,0,1,1.1-5.674,4.563,4.563,0,0,1,6.27-1.4c2.786,1.563,2.557,4.968,1.629,7.591a9.989,9.989,0,0,1-1.048,2.163c-.851,1.555-1.505,2.326-1.22,2.759.216.327.724.1,1.5.58a2.956,2.956,0,0,1,.779.7" transform="translate(-1174.369 -145.042)" fill="none" stroke="#0e737b" stroke-linecap="round" stroke-linejoin="round" stroke-width="2"/>
            <path id="Trazado_2061" data-name="Trazado 2061" d="M1190.126,195.628a2.331,2.331,0,0,1,.731,1.026,2.385,2.385,0,0,1-.02,1.529,3.84,3.84,0,0,1-1.444,1.965c-.6.449-1.378,1.222-1.109,2.092l.018.041a10.062,10.062,0,0,1-.466,8.2.015.015,0,0,0-.008.012c-1.721,3.294-1.575,3.01-3.1,6.406,0,0-3.919,8.724-5.929,14.04s-2.364,7.811-4.244,13.142c-.95,2.695-2.007,5.1-4.379,6.79a8.423,8.423,0,0,1-6.619,1.451c-.284-.059-5.158-.74-7.49-4.918a7.168,7.168,0,0,1-1-3.059c-.321-5.54,2.579-10.459,4.684-15.356a23.861,23.861,0,0,0,1.5-4.986" transform="translate(-1155.044 -177.027)" fill="none" stroke="#0e737b" stroke-linecap="round" stroke-linejoin="round" stroke-width="2"/>
          </g>
        </g>
        <g id="Grupo_3406" data-name="Grupo 3406" transform="translate(1151.998 152.977)">
          <path id="Trazado_2062" data-name="Trazado 2062" d="M1161,182.182a2.676,2.676,0,0,1,1.395.4l6.42,3.962a2.453,2.453,0,0,1,1.165,2.086l.012,20.929a3.083,3.083,0,0,1-3.081,3.085l-11.814.007a3.083,3.083,0,0,1-3.084-3.081L1152,188.64a2.454,2.454,0,0,1,1.162-2.088l3.041-1.882" transform="translate(-1151.998 -176.46)" fill="none" stroke="#0e737b" stroke-linecap="round" stroke-linejoin="round" stroke-width="2"/>
          <path id="Trazado_2063" data-name="Trazado 2063" d="M1172.793,201.682a5.077,5.077,0,0,1-10.155.007" transform="translate(-1158.725 -188.79)" fill="none" stroke="#0e737b" stroke-linecap="round" stroke-linejoin="round" stroke-width="2"/>
          <path id="Trazado_2064" data-name="Trazado 2064" d="M1173.432,195.93a2.509,2.509,0,1,1-3.809,2.148" transform="translate(-1163.142 -185.153)" fill="none" stroke="#0e737b" stroke-linecap="round" stroke-linejoin="round" stroke-width="2"/>
          <path id="Trazado_2065" data-name="Trazado 2065" d="M1170.221,179.211l-3.355-9.336a2.431,2.431,0,0,1,2.286-3.253h2.275" transform="translate(-1161.307 -166.621)" fill="none" stroke="#0e737b" stroke-linecap="round" stroke-linejoin="round" stroke-width="2"/>
        </g>
      </g>
    </g>
    <rect id="Rectángulo_960" data-name="Rectángulo 960" width="185" height="140" transform="translate(242 637)" fill="none"/>
  </g>
</svg>
