<svg xmlns="http://www.w3.org/2000/svg" width="185" height="140" viewBox="0 0 185 140">
  <g id="Grupo_3534" data-name="Grupo 3534" transform="translate(-242 -939)">
    <circle id="Elipse_565" data-name="Elipse 565" cx="60" cy="60" r="60" transform="translate(276 952)" fill="#fff"/>
    <g id="Grupo_3437" data-name="Grupo 3437" transform="translate(13)">
      <path id="Trazado_2102" data-name="Trazado 2102" d="M3669.736,2618.779h-72.845a.978.978,0,0,1-.978-.978v-93.152a.978.978,0,0,1,.978-.978h72.845a.978.978,0,0,1,.978.978V2617.8A.978.978,0,0,1,3669.736,2618.779Zm-71.867-1.956h70.889v-91.2h-70.889Z" transform="translate(-3309.913 -1548.505)" fill="#0e737b"/>
      <path id="Trazado_2103" data-name="Trazado 2103" d="M3721.479,2446.113h-14.264a8.991,8.991,0,1,0-17.62,0h-14.264a.871.871,0,0,0-.872.872v10.551a.871.871,0,0,0,.872.871h46.147a.872.872,0,0,0,.872-.871v-10.551A.872.872,0,0,0,3721.479,2446.113Z" transform="translate(-3375.005 -1475.289)" fill="#f3f7fa"/>
      <path id="Trazado_2104" data-name="Trazado 2104" d="M3716.75,2454.652H3670.6a1.852,1.852,0,0,1-1.85-1.85v-10.551a1.851,1.851,0,0,1,1.85-1.849h13.138q-.034-.411-.034-.823a9.969,9.969,0,1,1,19.938,0c0,.274-.012.549-.034.823h13.139a1.851,1.851,0,0,1,1.849,1.849V2452.8A1.852,1.852,0,0,1,3716.75,2454.652Zm-46.042-1.956h45.935v-10.338h-14.157a.978.978,0,0,1-.958-1.172,8.131,8.131,0,0,0,.161-1.606,8.013,8.013,0,1,0-15.865,1.605.978.978,0,0,1-.958,1.173h-14.158Zm46.042-10.338h0Z" transform="translate(-3370.275 -1470.557)" fill="#0e737b"/>
      <path id="Trazado_2105" data-name="Trazado 2105" d="M3788.952,2467.74a5.229,5.229,0,1,1,5.228-5.229A5.235,5.235,0,0,1,3788.952,2467.74Zm0-8.5a3.273,3.273,0,1,0,3.273,3.273A3.277,3.277,0,0,0,3788.952,2459.239Z" transform="translate(-3465.551 -1493.489)" fill="#0e737b"/>
      <path id="Trazado_2109" data-name="Trazado 2109" d="M3901.954,2671.969h-10.979a.978.978,0,0,1-.978-.978v-10.979a.978.978,0,0,1,.978-.978h10.979a.978.978,0,0,1,.978.978v10.979A.978.978,0,0,1,3901.954,2671.969Zm-10-1.956h9.024v-9.023h-9.024Z" transform="translate(-3553.62 -1660.68)" fill="#0e737b"/>
      <path id="Trazado_2110" data-name="Trazado 2110" d="M3880.714,2642.074c-.042,0-.084,0-.127,0a1.955,1.955,0,0,1-1.476-.831l-5.06-7.237a1.956,1.956,0,1,1,3.206-2.241l3.661,5.236,8.8-9.632a1.956,1.956,0,0,1,2.888,2.639l-10.451,11.434A1.959,1.959,0,0,1,3880.714,2642.074Z" transform="translate(-3540.114 -1633.91)" fill="#f3f7fa"/>
      <path id="Trazado_2111" data-name="Trazado 2111" d="M3885.446,2645.824l-.064,0a.981.981,0,0,1-.738-.416l-5.06-7.237a.978.978,0,1,1,1.6-1.12l4.36,6.236,9.627-10.533a.978.978,0,0,1,1.444,1.319l-10.451,11.434A.977.977,0,0,1,3885.446,2645.824Z" transform="translate(-3544.845 -1638.637)" fill="#0e737b"/>
      <path id="Trazado_2112" data-name="Trazado 2112" d="M3901.954,2788.209h-10.979a.978.978,0,0,1-.978-.978v-10.979a.978.978,0,0,1,.978-.978h10.979a.978.978,0,0,1,.978.978v10.979A.978.978,0,0,1,3901.954,2788.209Zm-10-1.956h9.024v-9.023h-9.024Z" transform="translate(-3553.62 -1757.009)" fill="#0e737b"/>
      <path id="Trazado_2113" data-name="Trazado 2113" d="M3880.714,2758.316c-.042,0-.084,0-.127,0a1.955,1.955,0,0,1-1.476-.831l-5.06-7.237a1.956,1.956,0,1,1,3.206-2.241l3.661,5.236,8.8-9.632a1.956,1.956,0,0,1,2.888,2.64l-10.451,11.434A1.959,1.959,0,0,1,3880.714,2758.316Z" transform="translate(-3540.114 -1730.239)" fill="#f3f7fa"/>
      <path id="Trazado_2114" data-name="Trazado 2114" d="M3885.446,2762.067l-.064,0a.981.981,0,0,1-.738-.416l-5.06-7.237a.978.978,0,1,1,1.6-1.121l4.36,6.236,9.627-10.532a.978.978,0,1,1,1.444,1.319l-10.451,11.434A.976.976,0,0,1,3885.446,2762.067Z" transform="translate(-3544.845 -1734.968)" fill="#0e737b"/>
      <path id="Trazado_2115" data-name="Trazado 2115" d="M3703.793,2911.481h-55.221a.978.978,0,1,1,0-1.956h55.221a.978.978,0,1,1,0,1.956Z" transform="translate(-3352.742 -1868.263)" fill="#0e737b"/>
      <path id="Trazado_2116" data-name="Trazado 2116" d="M3703.793,2947.915h-55.221a.978.978,0,1,1,0-1.956h55.221a.978.978,0,1,1,0,1.956Z" transform="translate(-3352.742 -1898.455)" fill="#0e737b"/>
      <path id="Trazado_2117" data-name="Trazado 2117" d="M3673.283,2984.344h-24.71a.978.978,0,0,1,0-1.956h24.71a.978.978,0,0,1,0,1.956Z" transform="translate(-3352.742 -1928.644)" fill="#0e737b"/>
      <path id="Trazado_2117-2" data-name="Trazado 2117" d="M3673.283,2984.344h-24.71a.978.978,0,0,1,0-1.956h24.71a.978.978,0,0,1,0,1.956Z" transform="translate(-3352.742 -1983.644)" fill="#0e737b"/>
      <path id="Trazado_2117-3" data-name="Trazado 2117" d="M3673.283,2984.344h-24.71a.978.978,0,0,1,0-1.956h24.71a.978.978,0,0,1,0,1.956Z" transform="translate(-3352.742 -1976.644)" fill="#0e737b"/>
      <path id="Trazado_2117-4" data-name="Trazado 2117" d="M3673.283,2984.344h-24.71a.978.978,0,0,1,0-1.956h24.71a.978.978,0,0,1,0,1.956Z" transform="translate(-3352.742 -1969.644)" fill="#0e737b"/>
      <path id="Trazado_2117-5" data-name="Trazado 2117" d="M3673.283,2984.344h-24.71a.978.978,0,0,1,0-1.956h24.71a.978.978,0,0,1,0,1.956Z" transform="translate(-3352.742 -1958.644)" fill="#0e737b"/>
    </g>
    <rect id="Rectángulo_962" data-name="Rectángulo 962" width="185" height="140" transform="translate(242 939)" fill="none"/>
  </g>
</svg>
