<svg xmlns="http://www.w3.org/2000/svg" width="185" height="140" viewBox="0 0 185 140">
  <g id="Grupo_3533" data-name="Grupo 3533" transform="translate(-713 -939)">
    <g id="Grupo_3531" data-name="Grupo 3531" transform="translate(-12)">
      <circle id="Elipse_566" data-name="Elipse 566" cx="60" cy="60" r="60" transform="translate(757 952)" fill="#fff"/>
      <g id="Grupo_3440" data-name="Grupo 3440" transform="translate(5 5.792)">
        <g id="Grupo_3439" data-name="Grupo 3439" transform="translate(747 992.249)">
          <rect id="Rect치ngulo_955" data-name="Rect치ngulo 955" width="2.056" height="0.019" transform="translate(33.495 28.462)" fill="#0e737b"/>
          <path id="Trazado_2118" data-name="Trazado 2118" d="M297.966,124.443l-.05,0a2.6,2.6,0,0,0,1.409-.1l-.075.005Z" transform="translate(-241.293 -117.954)" fill="#0e737b"/>
          <path id="Trazado_2119" data-name="Trazado 2119" d="M459.867,159.619a.986.986,0,0,0,.991.122,9.6,9.6,0,0,1-1.069-.184C459.816,159.577,459.84,159.6,459.867,159.619Z" transform="translate(-344.388 -140.377)" fill="#0e737b"/>
          <path id="Trazado_2121" data-name="Trazado 2121" d="M447.586,126.1a9.666,9.666,0,0,0,10.4-6.934,9.673,9.673,0,0,0,.394-2.716c0-.1-.012-.205-.016-.308a9.708,9.708,0,1,0-11.844,9.775A9.59,9.59,0,0,0,447.586,126.1Zm1.078-1.962a7.684,7.684,0,1,1,7.687-7.688c0,.007,0,.013,0,.019A7.7,7.7,0,0,1,448.664,124.138Z" transform="translate(-331.116 -106.737)" fill="#0e737b"/>
          <path id="Trazado_2122" data-name="Trazado 2122" d="M267.042,130.54H247.049v-7.2A10.63,10.63,0,0,0,235.5,112.759l-31.765,2.451-30.269,2.418-16.957,1.224a6.594,6.594,0,0,0-4.888,10.371l-9.347,9.347a1.012,1.012,0,0,0-.044,1.387l9.31,10.577a1.021,1.021,0,0,0,.7.341h.058a1.019,1.019,0,0,0,.683-.265l7-6.4v26.921a1.013,1.013,0,0,0,1.013,1.013h4.005a1.013,1.013,0,0,0,1.013-1.013v-30.08h90.695v30.08a1.013,1.013,0,0,0,1.013,1.013h4a1.013,1.013,0,0,0,1.013-1.013v-30.08h4.3a5.256,5.256,0,1,0,0-10.512Zm-110.379-9.666,38.054-2.752a.981.981,0,0,0,.4-.116l7.713-.694,32.84-2.535a8.477,8.477,0,0,1,5.577,1.46,8.959,8.959,0,0,1,.984.766,8.551,8.551,0,0,1,2.792,6.34v7.295H201.028a1,1,0,0,0-.766-.356,2.643,2.643,0,0,1-.269-5.272l33.385-3.453a1.013,1.013,0,0,0-.207-2.015l-33.388,3.453a4.662,4.662,0,0,0-3.773,6.558,4.4,4.4,0,0,0,.45.784c.073.105.149.2.229.3H161.972c-.022,0-.04,0-.062,0l-.53-.57.062-.073a6.072,6.072,0,0,0,.516-6.718,6.164,6.164,0,0,0-1.1-1.409c-.025-.025-.062-.033-.087-.054a1,1,0,0,0-1.347.084.2.2,0,0,1-.018.029,1.046,1.046,0,0,0,.051,1.405,4.038,4.038,0,0,1,.527,5.225L157,125.33a1.007,1.007,0,0,0-.723-.323.972.972,0,0,0-.737.294l-1.478,1.482-.977.977a3.932,3.932,0,0,1-.272-.537,4.56,4.56,0,0,1,3.849-6.347ZM164,170.12h-1.979V142.363l1.434-1.311H164Zm-11.616-21.7-8-9.092h0l11.848-11.848,8.718,9.437.015.015Zm108.338,21.7h-1.975V141.052h1.975Zm6.322-31.093H165.672l.022-.018,1.387-1.267a1.009,1.009,0,0,0,.33-.7.987.987,0,0,0-.16-.588,1.048,1.048,0,0,0-.109-.142l-2-2.168-1.365-1.474h83.418a.986.986,0,0,0,.425-.1h19.423a3.227,3.227,0,0,1,2.665,1.413l.022.033a3.222,3.222,0,0,1-2.687,5.015Z" transform="translate(-141.979 -110.547)" fill="#0e737b"/>
        </g>
      </g>
    </g>
    <rect id="Rect치ngulo_963" data-name="Rect치ngulo 963" width="185" height="140" transform="translate(713 939)" fill="none"/>
  </g>
</svg>
