<svg xmlns="http://www.w3.org/2000/svg" width="290" height="250" viewBox="0 0 290 250">
  <g id="Grupo_3540" data-name="Grupo 3540" transform="translate(-178 -2181)">
    <circle id="Elipse_577" data-name="Elipse 577" cx="86.5" cy="86.5" r="86.5" transform="translate(248 2225)" fill="#ffe3e2"/>
    <g id="Grupo_3497" data-name="Grupo 3497" transform="translate(-238 -57)">
      <g id="Elipse_568" data-name="Elipse 568" transform="translate(432 2327)" fill="#59bfd6" stroke="#227d84" stroke-width="3">
        <circle cx="20" cy="20" r="20" stroke="none"/>
        <circle cx="20" cy="20" r="18.5" fill="none"/>
      </g>
      <text id="_3" data-name="3" transform="translate(446 2353)" fill="#fff" font-size="21" font-family="OpenSans-Bold, Open Sans" font-weight="700"><tspan x="0" y="0">3</tspan></text>
    </g>
    <g id="Grupo_3499" data-name="Grupo 3499" transform="translate(160.316 2133.141)">
      <line id="Línea_42" data-name="Línea 42" y2="4.783" transform="translate(197.31 205.178)" fill="none" stroke="#dd726a" stroke-miterlimit="10" stroke-width="3"/>
      <line id="Línea_43" data-name="Línea 43" y2="4.783" transform="translate(197.31 214.744)" fill="none" stroke="#dd726a" stroke-miterlimit="10" stroke-width="3"/>
      <line id="Línea_44" data-name="Línea 44" x1="4.783" transform="translate(199.701 212.353)" fill="none" stroke="#dd726a" stroke-miterlimit="10" stroke-width="3"/>
      <line id="Línea_45" data-name="Línea 45" x1="4.783" transform="translate(190.136 212.353)" fill="none" stroke="#dd726a" stroke-miterlimit="10" stroke-width="3"/>
      <line id="Línea_46" data-name="Línea 46" y2="4.783" transform="translate(223.616 205.178)" fill="none" stroke="#dd726a" stroke-miterlimit="10" stroke-width="3"/>
      <line id="Línea_47" data-name="Línea 47" y2="4.783" transform="translate(223.616 214.744)" fill="none" stroke="#dd726a" stroke-miterlimit="10" stroke-width="3"/>
      <line id="Línea_48" data-name="Línea 48" x1="4.783" transform="translate(226.008 212.353)" fill="none" stroke="#dd726a" stroke-miterlimit="10" stroke-width="3"/>
      <line id="Línea_49" data-name="Línea 49" x1="4.783" transform="translate(216.442 212.353)" fill="none" stroke="#dd726a" stroke-miterlimit="10" stroke-width="3"/>
      <line id="Línea_50" data-name="Línea 50" y2="4.783" transform="translate(214.05 186.047)" fill="none" stroke="#dd726a" stroke-miterlimit="10" stroke-width="3"/>
      <line id="Línea_51" data-name="Línea 51" y2="4.783" transform="translate(199.701 193.221)" fill="none" stroke="#dd726a" stroke-miterlimit="10" stroke-width="3"/>
      <line id="Línea_52" data-name="Línea 52" y2="4.783" transform="translate(228.399 195.612)" fill="none" stroke="#dd726a" stroke-miterlimit="10" stroke-width="3"/>
      <line id="Línea_55" data-name="Línea 55" y2="4.783" transform="translate(214.05 195.612)" fill="none" stroke="#dd726a" stroke-miterlimit="10" stroke-width="3"/>
      <line id="Línea_56" data-name="Línea 56" x1="4.783" transform="translate(216.442 193.221)" fill="none" stroke="#dd726a" stroke-miterlimit="10" stroke-width="3"/>
      <line id="Línea_57" data-name="Línea 57" x1="4.783" transform="translate(206.876 193.221)" fill="none" stroke="#dd726a" stroke-miterlimit="10" stroke-width="3"/>
      <line id="Línea_58" data-name="Línea 58" x2="114.791" transform="translate(116 226.702)" fill="none" stroke="#dd726a" stroke-miterlimit="10" stroke-width="3"/>
      <path id="Trazado_2274" data-name="Trazado 2274" d="M176.943,158.056l-6.5,11.264L126.77,144.09l6.5-11.24Z" transform="translate(14.986 21.749)" fill="none" stroke="#dd726a" stroke-miterlimit="10" stroke-width="3"/>
      <path id="Trazado_2275" data-name="Trazado 2275" d="M172.666,122l-27.5,47.59-8.275-4.783,27.5-47.59" transform="translate(29.068 0)" fill="none" stroke="#dd726a" stroke-miterlimit="10" stroke-width="3"/>
      <path id="Trazado_2276" data-name="Trazado 2276" d="M141,183.733a70.635,70.635,0,0,1,9.446-35.3l.191-.335" transform="translate(34.787 42.969)" fill="none" stroke="#dd726a" stroke-miterlimit="10" stroke-width="3"/>
      <path id="Trazado_2277" data-name="Trazado 2277" d="M135.5,183.747a79.78,79.78,0,0,1,8.418-35.657" transform="translate(27.134 42.955)" fill="none" stroke="#dd726a" stroke-miterlimit="10" stroke-width="3"/>
      <path id="Trazado_2278" data-name="Trazado 2278" d="M130,187.434a88.745,88.745,0,0,1,10.57-41.994" transform="translate(19.481 39.267)" fill="none" stroke="#dd726a" stroke-miterlimit="10" stroke-width="3"/>
      <path id="Trazado_2279" data-name="Trazado 2279" d="M124.5,191.122a97.808,97.808,0,0,1,12.77-48.332" transform="translate(11.827 35.58)" fill="none" stroke="#dd726a" stroke-miterlimit="10" stroke-width="3"/>
      <path id="Trazado_2280" data-name="Trazado 2280" d="M119,198.413a107.118,107.118,0,0,1,14.349-53.545l4.233-7.318" transform="translate(4.174 28.289)" fill="none" stroke="#dd726a" stroke-miterlimit="10" stroke-width="3"/>
    </g>
    <g id="Grupo_3500" data-name="Grupo 3500" transform="translate(355 2100.191)">
      <path id="Trazado_2281" data-name="Trazado 2281" d="M66.662,120.727c-.168-.05-.352-.1-.52-.134C52.511,117,47.425,117,45.931,117c-9.417,0-13.446,10.777-14.671,16.786" transform="translate(7.641)" fill="none" stroke="#dd726a" stroke-miterlimit="10" stroke-width="3"/>
      <path id="Trazado_2282" data-name="Trazado 2282" d="M40.581,119c-9.417,0-13.446,10.777-14.671,16.786" transform="translate(4.011 1.357)" fill="none" stroke="#dd726a" stroke-miterlimit="10" stroke-width="3"/>
      <path id="Trazado_2283" data-name="Trazado 2283" d="M50.922,118.27a16.533,16.533,0,0,0-5.942,6.782" transform="translate(16.951 0.862)" fill="none" stroke="#dd726a" stroke-miterlimit="10" stroke-width="3"/>
      <path id="Trazado_2284" data-name="Trazado 2284" d="M79.717,119.719C68.638,117,64.291,117,62.931,117a11.5,11.5,0,0,0-8.326,3.592c-3.676,3.676-5.573,9.4-6.345,13.194" transform="translate(19.177)" fill="none" stroke="#dd726a" stroke-miterlimit="10" stroke-width="3"/>
      <path id="Trazado_2285" data-name="Trazado 2285" d="M20,117a103.044,103.044,0,0,1,25.766,3.727" transform="translate(0)" fill="none" stroke="#dd726a" stroke-miterlimit="10" stroke-width="3"/>
      <path id="Trazado_2286" data-name="Trazado 2286" d="M35.65,145.06c.168.05.353.1.52.134,13.63,3.592,18.716,3.592,20.21,3.592,9.417,0,13.446-10.777,14.671-16.786" transform="translate(10.62 10.179)" fill="none" stroke="#dd726a" stroke-miterlimit="10" stroke-width="3"/>
      <path id="Trazado_2287" data-name="Trazado 2287" d="M53.35,146.786c9.417,0,13.446-10.777,14.671-16.786" transform="translate(22.631 8.822)" fill="none" stroke="#dd726a" stroke-miterlimit="10" stroke-width="3"/>
      <path id="Trazado_2288" data-name="Trazado 2288" d="M21,146.067c11.079,2.719,15.426,2.719,16.786,2.719a11.5,11.5,0,0,0,8.326-3.592c3.676-3.676,5.573-9.4,6.345-13.194" transform="translate(0.679 10.179)" fill="none" stroke="#dd726a" stroke-miterlimit="10" stroke-width="3"/>
      <path id="Trazado_2289" data-name="Trazado 2289" d="M78.416,143.507A103.044,103.044,0,0,1,52.65,139.78" transform="translate(22.156 15.458)" fill="none" stroke="#dd726a" stroke-miterlimit="10" stroke-width="3"/>
      <path id="Trazado_2290" data-name="Trazado 2290" d="M45.4,136.69a16.675,16.675,0,0,1-5.925,6.765" transform="translate(13.212 13.362)" fill="none" stroke="#dd726a" stroke-miterlimit="10" stroke-width="3"/>
      <path id="Trazado_2291" data-name="Trazado 2291" d="M39,146v15.107a3.357,3.357,0,0,0,6.714,0v-8.393" transform="translate(12.893 19.679)" fill="none" stroke="#dd726a" stroke-miterlimit="10" stroke-width="3"/>
      <path id="Trazado_2292" data-name="Trazado 2292" d="M35,145v8.393a3.357,3.357,0,1,0,6.714,0" transform="translate(10.179 19.001)" fill="none" stroke="#dd726a" stroke-miterlimit="10" stroke-width="3"/>
      <path id="Trazado_2293" data-name="Trazado 2293" d="M49,145.679V155.75a3.357,3.357,0,1,0,6.714,0V144" transform="translate(19.679 18.322)" fill="none" stroke="#dd726a" stroke-miterlimit="10" stroke-width="3"/>
      <path id="Trazado_2295" data-name="Trazado 2295" d="M53,147.357a3.357,3.357,0,0,0,6.714,0V144" transform="translate(22.394 18.322)" fill="none" stroke="#dd726a" stroke-miterlimit="10" stroke-width="3"/>
      <line id="Línea_64" data-name="Línea 64" y1="5" transform="translate(59 163.809)" fill="none" stroke="#dd726a" stroke-miterlimit="10" stroke-width="3"/>
    </g>
    <rect id="Rectángulo_966" data-name="Rectángulo 966" width="290" height="250" transform="translate(178 2181)" fill="none"/>
  </g>
</svg>
