<svg xmlns="http://www.w3.org/2000/svg" width="290" height="250" viewBox="0 0 290 250">
  <g id="Grupo_3539" data-name="Grupo 3539" transform="translate(-178 -2595)">
    <circle id="Elipse_579" data-name="Elipse 579" cx="86.5" cy="86.5" r="86.5" transform="translate(248 2639)" fill="#ffe3e2"/>
    <g id="Grupo_3504" data-name="Grupo 3504" transform="translate(-238 357)">
      <g id="Elipse_568" data-name="Elipse 568" transform="translate(432 2327)" fill="#59bfd6" stroke="#227d84" stroke-width="3">
        <circle cx="20" cy="20" r="20" stroke="none"/>
        <circle cx="20" cy="20" r="18.5" fill="none"/>
      </g>
      <text id="_5" data-name="5" transform="translate(446 2353)" fill="#fff" font-size="21" font-family="OpenSans-Bold, Open Sans" font-weight="700"><tspan x="0" y="0">5</tspan></text>
    </g>
    <g id="Grupo_3505" data-name="Grupo 3505" transform="translate(271.021 2552.413)">
      <line id="Línea_78" data-name="Línea 78" x2="12.408" y2="14.633" transform="translate(73.116 134.824)" fill="none" stroke="#dd726a" stroke-miterlimit="10" stroke-width="3"/>
      <path id="Trazado_2303" data-name="Trazado 2303" d="M68.151,136.378l9.93-7.448V119h-42.2l-8.8,10.271a4.3,4.3,0,0,0,3.267,7.108Z" transform="translate(0 2.965)" fill="none" stroke="#dd726a" stroke-miterlimit="10" stroke-width="3"/>
      <path id="Trazado_2304" data-name="Trazado 2304" d="M59.274,126v27.16a15.066,15.066,0,0,0,8.652,13.632l9.414,4.431a7.449,7.449,0,0,1,4.278,6.74v32.445a7.447,7.447,0,0,1-7.448,7.448H34.448A7.447,7.447,0,0,1,27,210.409V192.656a115.229,115.229,0,0,1,9.93-46.795V126" transform="translate(1.429 13.344)" fill="none" stroke="#dd726a" stroke-miterlimit="10" stroke-width="3"/>
      <line id="Línea_79" data-name="Línea 79" x2="9.93" transform="translate(78.081 126.93)" fill="none" stroke="#dd726a" stroke-miterlimit="10" stroke-width="3"/>
      <line id="Línea_80" data-name="Línea 80" x2="22.344" transform="translate(38.359 159.204)" fill="none" stroke="#dd726a" stroke-miterlimit="10" stroke-width="3"/>
      <line id="Línea_81" data-name="Línea 81" x2="22.344" transform="translate(38.359 149.274)" fill="none" stroke="#dd726a" stroke-miterlimit="10" stroke-width="3"/>
      <line id="Línea_82" data-name="Línea 82" x2="4.965" transform="translate(95.459 121.965)" fill="none" stroke="#dd726a" stroke-miterlimit="10" stroke-width="3"/>
      <line id="Línea_83" data-name="Línea 83" x2="4.965" transform="translate(95.459 131.896)" fill="none" stroke="#dd726a" stroke-miterlimit="10" stroke-width="3"/>
      <line id="Línea_84" data-name="Línea 84" x2="4.965" transform="translate(105.39 126.93)" fill="none" stroke="#dd726a" stroke-miterlimit="10" stroke-width="3"/>
      <line id="Línea_85" data-name="Línea 85" x2="4.965" transform="translate(105.39 117)" fill="none" stroke="#dd726a" stroke-miterlimit="10" stroke-width="3"/>
      <line id="Línea_86" data-name="Línea 86" x2="4.965" transform="translate(105.39 136.861)" fill="none" stroke="#dd726a" stroke-miterlimit="10" stroke-width="3"/>
      <line id="Línea_87" data-name="Línea 87" x2="4.965" transform="translate(115.32 126.93)" fill="none" stroke="#dd726a" stroke-miterlimit="10" stroke-width="3"/>
      <line id="Línea_88" data-name="Línea 88" x2="4.965" transform="translate(115.32 117)" fill="none" stroke="#dd726a" stroke-miterlimit="10" stroke-width="3"/>
      <line id="Línea_89" data-name="Línea 89" x2="4.965" transform="translate(115.32 136.861)" fill="none" stroke="#dd726a" stroke-miterlimit="10" stroke-width="3"/>
      <circle id="Elipse_580" data-name="Elipse 580" cx="14.896" cy="14.896" r="14.896" transform="translate(40.842 188.996)" fill="none" stroke="#dd726a" stroke-miterlimit="10" stroke-width="3"/>
    </g>
    <g id="Grupo_3506" data-name="Grupo 3506" transform="translate(77 2552)">
      <path id="Trazado_2305" data-name="Trazado 2305" d="M319.95,158.605l2.322,2.322a3,3,0,0,0,4.253.015l10.088-9.953" transform="translate(5.562 17.266)" fill="none" stroke="#dd726a" stroke-miterlimit="10" stroke-width="3"/>
      <path id="Trazado_2306" data-name="Trazado 2306" d="M366.669,152.131a9.047,9.047,0,0,0,2.649-6.4v-9.146l8.143-8.053a3.025,3.025,0,0,0,.89-2.141,3.075,3.075,0,0,0-.875-2.141l-6.379-6.379a3.075,3.075,0,0,0-2.141-.875,3.025,3.025,0,0,0-2.141.89l-8.053,8.143h-9.146a9.047,9.047,0,0,0-6.4,2.65l-3.051,3.051L338.028,136l-4.268,2.126-4.268,4.268-2.126,4.268-4.268,2.126-12.335,12.335a6.043,6.043,0,0,0,0,8.535l14.929,14.929a6.043,6.043,0,0,0,8.535,0l12.335-12.335,2.126-4.268,4.268-2.126,4.268-4.268,2.126-4.268,4.268-2.141Z" fill="none" stroke="#dd726a" stroke-miterlimit="10" stroke-width="3"/>
      <line id="Línea_90" data-name="Línea 90" x2="10.663" y2="10.663" transform="translate(363.621 121.067)" fill="none" stroke="#dd726a" stroke-miterlimit="10" stroke-width="3"/>
      <line id="Línea_91" data-name="Línea 91" x2="10.714" y2="10.715" transform="translate(348.623 146.625)" fill="none" stroke="#dd726a" stroke-miterlimit="10" stroke-width="3"/>
      <line id="Línea_92" data-name="Línea 92" x2="5.333" y2="5.33" transform="translate(327.366 146.659)" fill="none" stroke="#dd726a" stroke-miterlimit="10" stroke-width="3"/>
      <line id="Línea_93" data-name="Línea 93" x2="13.861" y2="13.862" transform="translate(334.831 154.123)" fill="none" stroke="#dd726a" stroke-miterlimit="10" stroke-width="3"/>
      <line id="Línea_94" data-name="Línea 94" y1="4.265" x2="4.265" transform="translate(348.693 157.321)" fill="none" stroke="#dd726a" stroke-miterlimit="10" stroke-width="3"/>
      <line id="Línea_95" data-name="Línea 95" x2="9" transform="translate(360 141)" fill="none" stroke="#dd726a" stroke-miterlimit="10" stroke-width="3"/>
      <line id="Línea_96" data-name="Línea 96" x2="27" transform="translate(330 141)" fill="none" stroke="#dd726a" stroke-miterlimit="10" stroke-width="3"/>
    </g>
    <rect id="Rectángulo_968" data-name="Rectángulo 968" width="290" height="250" transform="translate(178 2595)" fill="none"/>
  </g>
</svg>
