<svg xmlns="http://www.w3.org/2000/svg" width="290" height="250" viewBox="0 0 290 250">
  <g id="Grupo_3536" data-name="Grupo 3536" transform="translate(-178 -3432)">
    <g id="Grupo_3530" data-name="Grupo 3530" transform="translate(-237 -798)">
      <circle id="Elipse_585" data-name="Elipse 585" cx="86.5" cy="86.5" r="86.5" transform="translate(486 4272)" fill="#ffe3e2"/>
      <g id="Grupo_3514" data-name="Grupo 3514" transform="translate(0 1990)">
        <g id="Elipse_568" data-name="Elipse 568" transform="translate(432 2327)" fill="#59bfd6" stroke="#227d84" stroke-width="3">
          <circle cx="20" cy="20" r="20" stroke="none"/>
          <circle cx="20" cy="20" r="18.5" fill="none"/>
        </g>
        <text id="_8" data-name="8" transform="translate(446 2353)" fill="#fff" font-size="21" font-family="OpenSans-Bold, Open Sans" font-weight="700"><tspan x="0" y="0">8</tspan></text>
      </g>
      <g id="Grupo_3515" data-name="Grupo 3515" transform="translate(-1016.353 2775.204)">
        <path id="Trazado_2315" data-name="Trazado 2315" d="M1635.9,1606.639l-3.26-4.483c4.053-4.981,4.885-12.122,2.332-20.17-2.518-7.938-8.062-15.878-15.611-22.359a59.65,59.65,0,0,0-6.214-4.669l-.042-.026-2.7-1.654q-.044-.027-.09-.051a30.324,30.324,0,0,0-3.125-1.435l9.147-17.415a1.712,1.712,0,0,0-.046-1.674c-.122-.2-.244-.411-.367-.619-1.285-2.182-2.615-4.438-4.8-4.92-1.851-.409-3.638.366-5.367,1.116a8.143,8.143,0,0,1-3.366.978c-.64-.067-1.818-1.261-2.678-2.134-1.506-1.528-3.214-3.26-5.36-3.26s-3.854,1.732-5.36,3.26c-.86.872-2.038,2.067-2.677,2.134a8.134,8.134,0,0,1-3.366-.978c-1.729-.749-3.517-1.524-5.368-1.116-2.179.481-3.508,2.737-4.794,4.918-.123.208-.245.416-.367.621a1.711,1.711,0,0,0-.047,1.674l9.147,17.414a30.265,30.265,0,0,0-3.2,1.474c-.03.016-.059.033-.087.05l-2.616,1.606-.039.025a59.6,59.6,0,0,0-6.23,4.68c-7.55,6.48-13.094,14.421-15.611,22.359-2.552,8.048-1.72,15.189,2.332,20.17l-3.26,4.483c-.6.763-8.561,11.243-4.112,20.43,3.924,8.1,16.134,12.213,36.294,12.213h18.722c20.158,0,32.37-4.109,36.294-12.213C1644.457,1617.883,1636.492,1607.4,1635.9,1606.639Zm-54.307-75.219a10.411,10.411,0,0,0,5.081,1.242c1.86-.194,3.334-1.689,4.759-3.135.932-.945,2.208-2.24,2.923-2.24s1.991,1.295,2.923,2.24c1.426,1.446,2.9,2.942,4.76,3.135a10.42,10.42,0,0,0,5.081-1.242c1.229-.533,2.5-1.083,3.268-.914.69.153,1.735,1.876,2.473,3.125l-8.963,17.064a36.671,36.671,0,0,0-19.086,0l-8.962-17.062c.737-1.249,1.782-2.973,2.472-3.125C1579.088,1530.337,1580.359,1530.888,1581.589,1531.42Zm55.339,94.157c-3.257,6.727-14.743,10.282-33.215,10.282h-18.721c-18.46,0-29.946-3.552-33.21-10.272-3.6-7.4,3.662-16.764,3.735-16.856q.022-.027.042-.055l2.978-4.094a19.1,19.1,0,0,0,9.94,3.823l.181-1.7.181-1.7a15.675,15.675,0,0,1-8.287-3.192,12.245,12.245,0,0,1-1.617-1.559,12.384,12.384,0,0,1-.762-.988c-2.81-4.033-3.236-9.741-1.173-16.244,2.328-7.339,7.505-14.725,14.579-20.8a56.087,56.087,0,0,1,5.851-4.4l2.552-1.567a27.088,27.088,0,0,1,3.14-1.42q.8-.3,1.636-.563a31.423,31.423,0,0,1,6.492-1.28c1.021-.093,2.057-.143,3.1-.143s2.08.049,3.1.143a31.425,31.425,0,0,1,6.494,1.281q.831.259,1.636.564a27.054,27.054,0,0,1,3.074,1.384l2.635,1.614a56.253,56.253,0,0,1,5.835,4.387c7.073,6.072,12.25,13.457,14.578,20.8,2.063,6.5,1.637,12.211-1.173,16.244a11.926,11.926,0,0,1-2.379,2.547,15.675,15.675,0,0,1-8.287,3.192l.181,1.7.181,1.7a19.1,19.1,0,0,0,9.94-3.823l2.978,4.094c.013.019.027.037.042.055C1633.262,1608.825,1640.525,1618.151,1636.929,1625.578Z" fill="#dd726a"/>
        <path id="Trazado_2316" data-name="Trazado 2316" d="M1683,1708.343c-5.51.545-12.291.811-20.724.811h-.2c-8.527,0-15.372-.277-20.924-.832a1.711,1.711,0,0,0-1.882,1.7l-.005,21.07a1.711,1.711,0,0,0,1.54,1.7c6.331.633,13.684.97,21.263.974h.137c7.531,0,14.834-.329,21.127-.952a1.711,1.711,0,0,0,1.542-1.7l.005-21.069a1.711,1.711,0,0,0-1.879-1.7Zm-1.547,21.214c-5.823.518-12.435.791-19.248.791h-.135c-6.859,0-13.522-.283-19.383-.811l0-17.638c5.307.45,11.674.672,19.382.676s14.076-.211,19.384-.656Z" transform="translate(-67.719 -135.898)" fill="#dd726a"/>
      </g>
    </g>
    <rect id="Rectángulo_971" data-name="Rectángulo 971" width="290" height="250" transform="translate(178 3432)" fill="none"/>
  </g>
</svg>
