<svg xmlns="http://www.w3.org/2000/svg" width="118" height="118" viewBox="0 0 118 118">
  <g id="Grupo_3893" data-name="Grupo 3893" transform="translate(-120 -3749.97)">
    <g id="Grupo_3803" data-name="Grupo 3803" transform="translate(45 3556.192)">
      <g id="Grupo_1173" data-name="Grupo 1173">
        <circle id="Elipse_520" data-name="Elipse 520" cx="59" cy="59" r="59" transform="translate(75 193.778)" fill="#57b8e8"/>
        <circle id="Elipse_521" data-name="Elipse 521" cx="53" cy="53" r="53" transform="translate(81 199.778)" fill="#fff"/>
      </g>
    </g>
    <g id="Grupo_3812" data-name="Grupo 3812" transform="translate(-1764.342 1608.48)">
      <path id="Trazado_9832" data-name="Trazado 9832" d="M1955.017,2178.409h0c0-.012,0-.025,0-.038v0a3.2,3.2,0,1,0-6.374,0h0v-6a3.957,3.957,0,1,0-7.868-.027v-3.833a3.957,3.957,0,1,0-7.867,0v3.847a3.957,3.957,0,1,0-7.868,0v12.64l.019-.005v3.21l-3.387-3.365a4.68,4.68,0,0,0-6.588,0,4.605,4.605,0,0,0,0,6.543l7.4,7.352a8.775,8.775,0,0,1,2.045,3.144c.944,2.522.855,4.892,2.619,6.927l1.416,1.635a2.794,2.794,0,0,1,.682,1.829v21.2a4.546,4.546,0,0,0,4.546,4.546h12.576a4.546,4.546,0,0,0,4.546-4.546V2212.54a2.8,2.8,0,0,1,.523-1.628l1.563-2.177a10.786,10.786,0,0,0,2.02-6.284v-3.119h0v-20.924Z" transform="translate(-0.043 -0.035)" fill="#ffbb98"/>
      <path id="Trazado_9833" data-name="Trazado 9833" d="M1955.929,2199.682h0v3.118a10.767,10.767,0,0,1-2.022,6.282l-1.562,2.18a2.781,2.781,0,0,0-.523,1.626v20.93a4.544,4.544,0,0,1-4.546,4.546h-4.568a4.544,4.544,0,0,0,4.546-4.546v-20.93a2.782,2.782,0,0,1,.524-1.626l1.562-2.18a10.765,10.765,0,0,0,2.021-6.282v-3.118h0v-20.924h0c0-.012,0-.024,0-.04a3.786,3.786,0,0,0-.9-2.442,2.96,2.96,0,0,1,4.525-.046,3.763,3.763,0,0,1,.944,2.488c0,.016,0,.027,0,.04h0Z" transform="translate(-0.956 -0.384)" fill="#ffaa80"/>
      <path id="Trazado_9834" data-name="Trazado 9834" d="M1938.358,2238.645h-4.568a4.544,4.544,0,0,1-4.546-4.546v-21.2a2.8,2.8,0,0,0-.682-1.831l-1.416-1.635c-1.766-2.034-1.675-4.406-2.618-6.927a8.822,8.822,0,0,0-2.047-3.143l-7.4-7.353a4.606,4.606,0,0,1,0-6.543,4.68,4.68,0,0,1,5.579-.758,4.651,4.651,0,0,0-1.011.758,4.606,4.606,0,0,0,0,6.543l7.4,7.353a8.806,8.806,0,0,1,2.045,3.143c.944,2.521.853,4.893,2.619,6.927l1.416,1.635a2.8,2.8,0,0,1,.682,1.831v21.2a4.544,4.544,0,0,0,4.546,4.546Z" transform="translate(-0.043 -0.665)" fill="#ffcaa6"/>
      <circle id="Elipse_575" data-name="Elipse 575" cx="4.034" cy="4.034" r="4.034" transform="translate(1933.691 2220.126)" fill="#ff4a73"/>
      <path id="Trazado_9835" data-name="Trazado 9835" d="M1940.4,2229.533a4.034,4.034,0,1,1,0-7.033,4.036,4.036,0,0,0,0,7.033Z" transform="translate(-0.694 -1.857)" fill="#f973a3"/>
      <path id="Trazado_9836" data-name="Trazado 9836" d="M1944.652,2219.933l-.262-.263a3.044,3.044,0,0,1,0-4.306l6.143-6.144,4.569,4.569-6.143,6.144A3.045,3.045,0,0,1,1944.652,2219.933Z" transform="translate(-0.981 -1.455)" fill="#5fcdff"/>
      <path id="Trazado_9837" data-name="Trazado 9837" d="M1952.817,2211.5l-7.438,7.438a3.008,3.008,0,0,0-.679,1.038l-.046-.045-.265-.265a3.047,3.047,0,0,1,0-4.305l6.145-6.144Z" transform="translate(-0.981 -1.455)" fill="#73d7f9"/>
      <path id="Trazado_9838" data-name="Trazado 9838" d="M1950.276,2213.965l-.527-.527a6.09,6.09,0,0,1,0-8.612l19.374-19.375,9.139,9.139-19.374,19.375a6.091,6.091,0,0,1-8.612,0Z" transform="translate(-1.121 -0.707)" fill="#5fcdff"/>
      <path id="Trazado_9839" data-name="Trazado 9839" d="M1980.889,2176.714l6.552,6.552-9.746,9.746-6.552-6.552Z" transform="translate(-1.851 -0.432)" fill="#5fcdff"/>
      <path id="Trazado_9840" data-name="Trazado 9840" d="M1971.139,2186.474l9.745-9.745,2.283,2.284-9.745,9.745Z" transform="translate(-1.851 -0.432)" fill="#73d7f9"/>
      <path id="Trazado_9841" data-name="Trazado 9841" d="M1975.546,2190.882l9.744-9.745,2.284,2.283-9.745,9.745Z" transform="translate(-1.989 -0.571)" fill="#30b6ff"/>
      <path id="Trazado_9842" data-name="Trazado 9842" d="M1971.407,2187.734l-23.177,23.178a6.091,6.091,0,0,1,1.52-6.086l19.374-19.375Z" transform="translate(-1.121 -0.707)" fill="#73d7f9"/>
      <path id="Trazado_9843" data-name="Trazado 9843" d="M1978.4,2194.813l-19.374,19.375a6.1,6.1,0,0,1-6.593,1.343,6.084,6.084,0,0,0,2.025-1.343l21.658-21.658Z" transform="translate(-1.262 -0.929)" fill="#30b6ff"/>
      <path id="Trazado_9844" data-name="Trazado 9844" d="M1989.115,2184.78l-11.942-11.942a1.219,1.219,0,0,0-1.723,1.724l1.832,1.833-8.023,8.026-4.5-4.5a1.218,1.218,0,0,0-1.723,1.723l3.2,3.2-10.088,10.087c0-.021,0-16.54,0-16.561-.07-3.5-3.494-5.743-6.376-4.163v-1.778c0-4.44-4.529-7.1-7.931-4.738a5.106,5.106,0,0,0-10.179.007c-3.388-2.37-7.929.259-7.929,4.719,0,13.249.018,12.916.018,12.916l-1.309-1.3c-5.488-5.444-13.793,2.816-8.306,8.273l7.4,7.353a7.505,7.505,0,0,1,1.763,2.7c.91,2.427.843,5,2.838,7.3,1.468,1.689,1.8,1.917,1.8,2.664v21.2a5.77,5.77,0,0,0,5.764,5.764h12.575a5.77,5.77,0,0,0,5.765-5.764v-17.307a7.294,7.294,0,0,0,6.539-2.007l18.513-18.512,3.2,3.2a1.219,1.219,0,0,0,1.724-1.724l-4.495-4.494,8.023-8.026,1.833,1.833a1.219,1.219,0,0,0,1.723-1.724Zm-39.568,30.473-2.466,2.466a1.826,1.826,0,0,1-2.585,0l-.262-.261a1.826,1.826,0,0,1,0-2.585l2.47-2.467A10.61,10.61,0,0,0,1949.547,2215.253Zm.067,18.284a3.33,3.33,0,0,1-3.328,3.328H1933.71a3.33,3.33,0,0,1-3.328-3.328v-21.2c0-1.823-1.028-2.682-2.4-4.26-1.521-1.756-1.422-3.968-2.4-6.561a9.969,9.969,0,0,0-2.326-3.578l-7.4-7.354c-3.2-3.173,1.666-8,4.872-4.813l3.386,3.365a1.22,1.22,0,0,0,2.076-.865s-.018-4.483-.018-15.842c0-4.112,5.311-4.238,5.43-.11v13.724a1.218,1.218,0,0,0,2.436,0c0-1.956,0-15.507,0-17.462,0-4.176,5.432-4.2,5.432,0,0,8.6,0-2.943,0,17.462a1.218,1.218,0,0,0,2.436,0c0-14.045,0-13.629,0-13.629,0-4.191,5.432-4.164,5.432.027v13.6a1.218,1.218,0,0,0,2.436,0c0-7.845,0-7.589,0-7.589.03-3.055,3.908-3.03,3.937-.011v18.936c-6.517,6.517-6.151,6.133-6.476,6.528a7.305,7.305,0,0,0-1.519,6.039l-3.213,3.209a4.258,4.258,0,0,0-.639,5.209l-1.434,1.434a5.2,5.2,0,0,0-2.75-.78,5.252,5.252,0,1,0,5.252,5.252,5.2,5.2,0,0,0-.78-2.75l1.434-1.433a4.26,4.26,0,0,0,5.21-.64l.81-.81Zm-11.926-6.455a2.817,2.817,0,1,1,.935-5.474l-1.638,1.638a1.218,1.218,0,0,0,1.723,1.723l1.639-1.638A2.822,2.822,0,0,1,1937.687,2227.082Zm33.618-29.017-3.709-3.709a1.216,1.216,0,0,0-1.72,1.72l3.709,3.708-4.321,4.321-3.708-3.708a1.219,1.219,0,0,0-1.724,1.723l3.708,3.708-4.318,4.318-3.708-3.708a1.219,1.219,0,0,0-1.723,1.724l3.708,3.708-.63.631a4.882,4.882,0,0,1-6.89,0l-.527-.527a4.864,4.864,0,0,1,0-6.888l18.512-18.512,7.418,7.417Zm12.53-15.118-8.023,8.026-4.832-4.832,8.026-8.023Z"/>
    </g>
  </g>
</svg>
