<svg xmlns="http://www.w3.org/2000/svg" xmlns:xlink="http://www.w3.org/1999/xlink" width="356" height="261.511" viewBox="0 0 356 261.511">
  <defs>
    <linearGradient id="linear-gradient" x1="-261.99" y1="1.303" x2="-261.99" y2="2.265" gradientUnits="objectBoundingBox">
      <stop offset="0" stop-color="#ffd958"/>
      <stop offset="1" stop-color="#ffa156"/>
    </linearGradient>
    <linearGradient id="linear-gradient-2" x1="-336.367" y1="4.694" x2="-335.368" y2="4.694" gradientUnits="objectBoundingBox">
      <stop offset="0" stop-color="#000310"/>
      <stop offset="1" stop-color="#001a4a"/>
    </linearGradient>
    <linearGradient id="linear-gradient-3" x1="0.513" y1="1.883" x2="0.678" y2="32.544" gradientUnits="objectBoundingBox">
      <stop offset="0" stop-color="#003e96"/>
      <stop offset="1" stop-color="#000e2c"/>
    </linearGradient>
  </defs>
  <g id="Grupo_3802" data-name="Grupo 3802" transform="translate(-1305.395 -2106.798)">
    <g id="Grupo_3775" data-name="Grupo 3775" transform="translate(1345.247 2132.479)">
      <g id="Grupo_3756" data-name="Grupo 3756" transform="translate(9.817 156.773)">
        <path id="Trazado_9705" data-name="Trazado 9705" d="M1380.943,2332.6l57.111.24a1.711,1.711,0,1,0,.015-3.421l-57.111-.24a1.711,1.711,0,1,0-.014,3.421Z" transform="translate(-1366.422 -2323.473)" fill="#4159c9"/>
        <g id="Grupo_3755" data-name="Grupo 3755">
          <path id="Trazado_9706" data-name="Trazado 9706" d="M1378.918,2400.79l7.122.039,52.819-73.85-7.553.084Z" transform="translate(-1366.379 -2323.134)" fill="#010c4f"/>
          <path id="Trazado_9707" data-name="Trazado 9707" d="M1439.458,2401.041l-6.832-.041-52.1-74.4,7.494.171Z" transform="translate(-1366.626 -2323.075)" fill="#010c4f"/>
          <path id="Trazado_9708" data-name="Trazado 9708" d="M1367.7,2322.435l79.017.333a3.583,3.583,0,0,1,3.568,3.593l0,.876a4.621,4.621,0,0,1-4.639,4.6l-76.942-.324a4.622,4.622,0,0,1-4.6-4.634l0-.876A3.585,3.585,0,0,1,1367.7,2322.435Z" transform="translate(-1364.098 -2322.435)" fill="#8cc6f3"/>
        </g>
      </g>
      <g id="Grupo_3758" data-name="Grupo 3758" transform="translate(62.605 132.212)">
        <path id="Trazado_9709" data-name="Trazado 9709" d="M1443.742,2402.227l-1.663,5.237-11.4-.048,1.326-5.486Z" transform="translate(-1427.131 -2310.107)" fill="#ffbca3"/>
        <path id="Trazado_9710" data-name="Trazado 9710" d="M1430.383,2407.157s-1.052,3.516-.781,4.96a.565.565,0,0,0,.559.456l25.807.108a3.049,3.049,0,0,0-2.431-3.188c-1.259-.275-5.086-1.155-5.858-1.3C1441.413,2407.029,1436.98,2406.109,1430.383,2407.157Z" transform="translate(-1426.959 -2310.841)" fill="#010c4f"/>
        <g id="Grupo_3757" data-name="Grupo 3757">
          <path id="Trazado_9711" data-name="Trazado 9711" d="M1426.486,2293.407s25.2,2.119,32.923,3.589,17.3,8.031,10.486,22.264c-8,16.713-26.3,67.569-26.3,67.569l-14.138-.059s-2.861-53.211,10.461-62.879c0,0-.092-2.361-3.049-7.85C1432.368,2307.687,1426.486,2293.407,1426.486,2293.407Z" transform="translate(-1426.486 -2293.407)" fill="#007575"/>
        </g>
      </g>
      <g id="Grupo_3761" data-name="Grupo 3761" transform="translate(22.06 127.141)">
        <g id="Grupo_3759" data-name="Grupo 3759" transform="translate(81.546 94.318)">
          <path id="Trazado_9712" data-name="Trazado 9712" d="M1485.5,2398.93l1.586,5.285-10.589.15-1.555-5.48Z" transform="translate(-1474.944 -2398.885)" fill="#ffbca3"/>
          <path id="Trazado_9713" data-name="Trazado 9713" d="M1476.437,2404.891s-1.033,3.358-.766,4.738a.551.551,0,0,0,.549.435l25.34.107a2.914,2.914,0,0,0-2.388-3.045c-1.236-.263-4.994-1.1-5.752-1.242C1487.267,2404.77,1482.915,2403.891,1476.437,2404.891Z" transform="translate(-1475.049 -2399.742)" fill="#010c4f"/>
        </g>
        <g id="Grupo_3760" data-name="Grupo 3760">
          <path id="Trazado_9714" data-name="Trazado 9714" d="M1380.584,2291.521s-3.216,9.421-1.527,16.871,3.545,9.668,8.25,9.524c.7-.022,2,.008,2.777.011l40.213-.47s-1.575,18.785,12.324,40.108c4.66,7.15,10.812,14.143,13.05,17.856,2.741,4.548,4.288,7.2,4.288,7.2l12.317.052-20.969-78.343c-1.227-3.848-11.476-8-15.579-9.021-9.29-2.317-18.556-5.556-17.647-7.9Z" transform="translate(-1378.567 -2287.414)" fill="#0098a0"/>
        </g>
      </g>
      <g id="Grupo_3764" data-name="Grupo 3764" transform="translate(56.673 52.608)">
        <g id="Grupo_3762" data-name="Grupo 3762">
          <path id="Trazado_9715" data-name="Trazado 9715" d="M1419.476,2203.167l5.979-3.842s9.818,18.421,19.707,29.267a13.887,13.887,0,0,0,1.72.348l.459.075.483.036.975.077c.669,0,1.35,0,2.037-.011a31.615,31.615,0,0,0,8.616-1.751l1.094-.366.549-.181.542-.231,2.174-.919c.735-.276,1.435-.688,2.153-1.042l2.151-1.1c1.4-.843,2.808-1.671,4.208-2.539l4.107-2.843.348-.24a6.177,6.177,0,0,1,8.319,1.421,6.568,6.568,0,0,1-.684,9.081l-4.368,3.7c-1.524,1.171-3.085,2.31-4.644,3.457l-2.467,1.585c-.833.519-1.629,1.082-2.52,1.535l-2.621,1.425-.658.354-.69.314-1.384.625a45.585,45.585,0,0,1-12,3.65q-1.638.217-3.316.354l-1.716.051c-.287,0-.571.017-.862.014l-.886-.039a29.688,29.688,0,0,1-3.638-.359c-.657-.132-1.257-.222-1.96-.411-.354-.1-.679-.178-1.057-.293l-.613-.207-.332-.119-.545-.229a8.942,8.942,0,0,1-5.047-7.4c-2.8-3.26-6.977-8.509-9.008-13.035C1420.864,2216.2,1419.476,2203.167,1419.476,2203.167Z" transform="translate(-1419.476 -2199.325)" fill="#d6dce2"/>
        </g>
        <g id="Grupo_3763" data-name="Grupo 3763" transform="translate(52.819 13.738)">
          <path id="Trazado_9716" data-name="Trazado 9716" d="M1500.1,2228.908a10.166,10.166,0,0,0-5.654-12.64,8.965,8.965,0,0,0-11.994,5.379,10.165,10.165,0,0,0,5.654,12.64A8.964,8.964,0,0,0,1500.1,2228.908Z" transform="translate(-1481.902 -2215.562)" fill="#f7c9b2"/>
        </g>
      </g>
      <g id="Grupo_3769" data-name="Grupo 3769" transform="translate(17.836 44.822)">
        <g id="Grupo_3765" data-name="Grupo 3765" transform="translate(5.111 0.738)">
          <path id="Trazado_9717" data-name="Trazado 9717" d="M1424.27,2277.887s-.583-12.734-1.256-25.567c-.981-18.684.839-44.972-2.961-52.237-4.9-9.368-19.025-10.22-30.874-8.171s-10.974,27.506-6.519,85.754C1388.668,2275.854,1424.27,2277.887,1424.27,2277.887Z" transform="translate(-1379.616 -2190.996)" fill="#9ecbd6"/>
        </g>
        <g id="Grupo_3767" data-name="Grupo 3767">
          <path id="Trazado_9718" data-name="Trazado 9718" d="M1401.427,2293.165s-3.232-53.9-4.461-63.285c0,0-7.474-28.211-7.634-38.721,0,0-8.222.1-13.528,6.065s7.125,71.432.961,89.006-1.5,13.407-1.5,13.407l26.731-1.36Z" transform="translate(-1373.576 -2190.283)" fill="#eff3f4"/>
          <g id="Grupo_3766" data-name="Grupo 3766" transform="translate(12.514)">
            <path id="Trazado_9719" data-name="Trazado 9719" d="M1398.975,2230.771c-.278-.492-6.833-12.107-7.905-15.656-.2-.666-.443-1.366-.69-2.074-1.12-3.229-2.279-6.567-.218-8.255.7-.576-.428-4.344-.855-5.187a16.374,16.374,0,0,1-.884-5.966c.3-1.814,2.877-3.384,2.987-3.449a.425.425,0,0,1,.641.314c.02.167,1.993,16.849,4.275,25.571,1.015,3.877,3.411,14.294,3.434,14.4a.425.425,0,0,1-.26.491.443.443,0,0,1-.156.028A.423.423,0,0,1,1398.975,2230.771Z" transform="translate(-1388.366 -2190.124)" fill="#fff"/>
          </g>
        </g>
        <g id="Grupo_3768" data-name="Grupo 3768" transform="translate(31.412 0.818)">
          <path id="Trazado_9720" data-name="Trazado 9720" d="M1411.2,2191.592s6.921,19.63,5.367,36.821c-.68,7.536,3.1,33.846,4.832,45.3.513,3.384,2.094,2.5,5.158,4.027l4.807.245s-3.148-50.048-2.415-59.016c.726-8.865-4.038-18.8-4.038-18.8S1422.027,2193.016,1411.2,2191.592Z" transform="translate(-1410.777 -2191.167)" fill="#eff3f4"/>
          <path id="Trazado_9721" data-name="Trazado 9721" d="M1410.732,2191.673a106.1,106.1,0,0,1,5.145,23.614,90.415,90.415,0,0,1,.194,14.55.424.424,0,0,0,.309.443.4.4,0,0,0,.114.016.426.426,0,0,0,.382-.234c1.825-3.615,3.456-14.019,3.421-21.827a6.012,6.012,0,0,0-1.586-4.2,4.393,4.393,0,0,1-1.036-1.864,8.282,8.282,0,0,1-.1-2.384,13.09,13.09,0,0,0-.286-4.064c-.77-3.435-5.856-4.575-6.072-4.622a.427.427,0,0,0-.415.141A.423.423,0,0,0,1410.732,2191.673Z" transform="translate(-1410.7 -2191.09)" fill="#fff"/>
        </g>
      </g>
      <g id="Grupo_3772" data-name="Grupo 3772" transform="translate(27.019)">
        <g id="Grupo_3770" data-name="Grupo 3770" transform="translate(6.444 31.558)">
          <path id="Trazado_9722" data-name="Trazado 9722" d="M1392.182,2176.951a108.8,108.8,0,0,0,.076,11.961c.589,6.149,2.818,8.219,9.1,8.216,11-.006,4.722-16.218,8.438-22.682C1405.1,2174.679,1392.182,2176.951,1392.182,2176.951Z" transform="translate(-1392.044 -2174.447)" fill="#f7c9b2"/>
          <path id="Trazado_9723" data-name="Trazado 9723" d="M1392.192,2176.951s-.047.542-.084,1.452c.08.278.161.551.242.815,1.677,5.479,5.858,9.954,11.477,11.111,0,0,2.47.506,4.181.676.991-6-.294-12.925,1.795-16.559C1405.112,2174.679,1392.192,2176.951,1392.192,2176.951Z" transform="translate(-1392.054 -2174.447)" fill="#ff9981" opacity="0.65" style="mix-blend-mode: multiply;isolation: isolate"/>
        </g>
        <g id="Grupo_3771" data-name="Grupo 3771" transform="translate(0.967 11.419)">
          <path id="Trazado_9724" data-name="Trazado 9724" d="M1394.473,2173.155a4.5,4.5,0,0,0-4.318-4.619,4.4,4.4,0,0,0-4.582,4.273,4.5,4.5,0,0,0,4.317,4.618A4.4,4.4,0,0,0,1394.473,2173.155Z" transform="translate(-1385.572 -2153.397)" fill="#f7c9b2"/>
          <path id="Trazado_9725" data-name="Trazado 9725" d="M1405.564,2182.506l-4.022-.156a11.427,11.427,0,0,1-10.963-11.729l.257-8.611c.195-6.529,3.137-11.521,12.186-11.361l12.056.47-.691,23.162A8.476,8.476,0,0,1,1405.564,2182.506Z" transform="translate(-1386.341 -2150.645)" fill="#f7c9b2"/>
          <path id="Trazado_9726" data-name="Trazado 9726" d="M1391.635,2171.629c.668-.643,1.03-3.139,1.658-3.815-1.052-2.842-1.521-3.593-.623-6.767-2.65-3.742-.96-2.691-1.931-1.624s-.072,7.514-.072,7.514S1391.384,2170.005,1391.635,2171.629Z" transform="translate(-1386.297 -2151.842)" fill="#000b34"/>
        </g>
        <path id="Trazado_9727" data-name="Trazado 9727" d="M1414.776,2139.333c-4.958-5.159-13.922.443-16.526.432a53.86,53.86,0,0,0-5.606.463,7.546,7.546,0,0,0-4.983,2.852,15.049,15.049,0,0,0-2.459,4.321c-2.34,6.339,1.367,17.713,1.367,17.713a5.243,5.243,0,0,1,1.476-1.045c1.052-.318,1.493-.2,1.818.064l3.829,1.558s-1.253-12.643,3.24-12.982c.861-.065,6.714,0,9.614.1.549.019,1.1.012,1.645-.022l5.878-.365S1419.949,2144.716,1414.776,2139.333Z" transform="translate(-1384.428 -2137.149)" fill="#000b34"/>
        <path id="Trazado_9728" data-name="Trazado 9728" d="M1415.393,2167.556a61.578,61.578,0,0,1,.2,7.831,11.1,11.1,0,0,1-1.577,5.252,9.268,9.268,0,0,1-2.641,2.8c-2.537,1.736-6.564,1.816-8.614,1.344a18.218,18.218,0,0,1-4.942-1.5c-2.04-.982-4.3-2.652-5.023-5.113l-.167-.565a15.115,15.115,0,0,1-.6-3.579l-.388-8.48,3.09-4.667s-.107,6.386.678,7.918c.511,1,1.28,2.234,4.023,2.706a33.418,33.418,0,0,0,7.537.211c3.278-.171,6.081-.751,7.309-2.3.689-.869.39-3.783.485-8.61.1-4.891.234-10.827-.5-12.918-.669-1.905.905.01,1.068.483.642,1.87-.012,7.712-.223,12.438A51.417,51.417,0,0,0,1415.393,2167.556Z" transform="translate(-1385.539 -2138.675)" fill="#000b34"/>
        <path id="Trazado_9729" data-name="Trazado 9729" d="M1414.415,2178.922c-.139-2.346-2.124.313-4.757.468s-4.918-2.251-4.779.095a4.808,4.808,0,0,0,9.536-.562Z" transform="translate(-1387.574 -2143.429)" fill="#fff"/>
      </g>
      <g id="Grupo_3774" data-name="Grupo 3774" transform="translate(0 48.745)">
        <g id="Grupo_3773" data-name="Grupo 3773">
          <path id="Trazado_9730" data-name="Trazado 9730" d="M1379.936,2194.882c-9.734-1.89-22.833,18.625-25.6,28.525-3.217,11.512-4.242,49.19,14.436,42.361,9.25-3.382,5.067-4.284,1.122-10.458-3.737-5.849-5.418-16.149-2.9-22.582a36.657,36.657,0,0,1,6.266-10.62,45.684,45.684,0,0,0,5.105-7.98C1379.573,2211.99,1382.526,2194.383,1379.936,2194.882Z" transform="translate(-1352.495 -2194.76)" fill="#eff3f4"/>
          <path id="Trazado_9731" data-name="Trazado 9731" d="M1370.027,2282.555c3.9,3.348,8.864,1.985,12.209-1.641s3.511-8.366-.647-11.634-8.69-3.312-12.5.522S1366.123,2279.207,1370.027,2282.555Z" transform="translate(-1354.67 -2205.857)" fill="#f7c9b2"/>
        </g>
      </g>
    </g>
    <g id="Grupo_3784" data-name="Grupo 3784" transform="translate(1566.183 2106.798)">
      <g id="Grupo_3783" data-name="Grupo 3783" transform="translate(0)">
        <g id="Grupo_3782" data-name="Grupo 3782">
          <g id="Grupo_3776" data-name="Grupo 3776" transform="translate(0.765 45.058)">
            <path id="Trazado_9732" data-name="Trazado 9732" d="M1614.751,2201.612c6.729,12.186,29.77-19.343,29.77-19.343s14.941-19.652,12.792-21.34C1638.181,2153.435,1611.765,2196.205,1614.751,2201.612Z" transform="translate(-1614.518 -2160.051)" fill="#f7c9b2"/>
            <path id="Trazado_9733" data-name="Trazado 9733" d="M1658.435,2160.929c2.149,1.688-12.792,21.34-12.792,21.34A130.334,130.334,0,0,1,1634.808,2195a4.812,4.812,0,0,1-3.311-.332c-5.787-2.9-8.455-6.133-9.687-8.447C1630.291,2172.632,1645.92,2156.027,1658.435,2160.929Z" transform="translate(-1615.64 -2160.051)" fill="#e64663"/>
          </g>
          <g id="Grupo_3778" data-name="Grupo 3778" transform="translate(32.17 109.9)">
            <path id="Trazado_9734" data-name="Trazado 9734" d="M1658.96,2409.983l16.243,0a1.623,1.623,0,0,0,1.566-1.4l.161-1.316a1.077,1.077,0,0,0-1.091-1.242l-12.443,0c-2.184,0-7.266,1.769-7.533,3.953Z" transform="translate(-1652.286 -2262.746)" fill="#000c2c"/>
            <path id="Trazado_9735" data-name="Trazado 9735" d="M1653.821,2249.855c.728,23.878,46.23,121.518,46.23,121.518l7.519-2.8c-8.026-25.148-5.112-51.061-21.93-61.481-4.8-2.975-1.411-42.436-3.652-49.176s-8.306-18.979-8.306-18.979S1653.543,2240.767,1653.821,2249.855Z" transform="translate(-1651.971 -2237.032)" fill="#f7c9b2"/>
            <path id="Trazado_9736" data-name="Trazado 9736" d="M1667.655,2304.26c-9.138-22.376-16.619-44.138-15.982-54.139.6-9.414,26.625-13.435,26.625-13.435s6.49,12.082,8.656,18.849c1.581,4.943-1.807,27.64-2,41.039Z" transform="translate(-1651.635 -2236.686)" fill="#185a7c"/>
            <rect id="Rectángulo_827" data-name="Rectángulo 827" width="20.627" height="7.14" transform="translate(15.015 61.37) rotate(-15.83)" fill="#006295"/>
            <g id="Grupo_3777" data-name="Grupo 3777" transform="translate(39.832 131.067)">
              <path id="Trazado_9737" data-name="Trazado 9737" d="M1701.773,2400.953l15.223-5.667a1.233,1.233,0,0,0,.683-1.744l-.59-1.185a1.416,1.416,0,0,0-1.721-.686l-11.661,4.341c-2.047.762-5.814,4.054-4.836,6.019Z" transform="translate(-1698.712 -2391.591)" fill="#000c2c"/>
            </g>
            <path id="Trazado_9738" data-name="Trazado 9738" d="M1663.762,2252.185l3.991,129.6h7.7c1.891-25.312,14.14-42.662,4.007-60.854-2.911-5.226,8.261-43.147,8.3-50.636s-1.79-21.821-1.79-21.821Z" transform="translate(-1653.501 -2238.5)" fill="#f7c9b2"/>
            <path id="Trazado_9739" data-name="Trazado 9739" d="M1663.936,2309.165l-2.427-56.981,28.789-2.451s3.268,9.82,2.623,19.621-8.073,27.326-10.57,39.814Z" transform="translate(-1653.155 -2238.694)" fill="#196593"/>
            <rect id="Rectángulo_828" data-name="Rectángulo 828" width="20.627" height="7.14" transform="translate(9.845 66.509)" fill="#1d74b1"/>
          </g>
          <path id="Trazado_9740" data-name="Trazado 9740" d="M1686.856,2235.185s-12.77,5.454-19.79,6.573-17.292-.125-17.292-.125-9.2-64.685-9.267-67.2,1.556-12.175,13.589-14.091l19.452-3.1Z" transform="translate(-1617.752 -2114.56)" fill="url(#linear-gradient)"/>
          <path id="Trazado_9741" data-name="Trazado 9741" d="M1679.238,2157.231s1.367-.4,4.319,1.052-.442,10.259-.442,10.259l-5.193-.47-.443-4.457Z" transform="translate(-1623.442 -2114.552)" fill="#e64663"/>
          <path id="Trazado_9742" data-name="Trazado 9742" d="M1686.856,2235.185s-12.77,5.454-19.79,6.573-17.292-.125-17.292-.125-9.2-64.685-9.267-67.2,1.556-12.175,13.589-14.091l19.452-3.1Z" transform="translate(-1617.752 -2114.56)" fill="#e64663"/>
          <g id="Grupo_3780" data-name="Grupo 3780" transform="translate(23.485 10.907)">
            <path id="Trazado_9743" data-name="Trazado 9743" d="M1667.138,2134.074a3.808,3.808,0,1,0,3.161-4.358A3.807,3.807,0,0,0,1667.138,2134.074Z" transform="translate(-1645.328 -2121.224)" fill="#f7c9b2"/>
            <path id="Trazado_9744" data-name="Trazado 9744" d="M1673.319,2155.126s-1.8,7.826-8.622,8.913-8.658-6.156-8.658-6.156l-.736-4.617,12.072-12.359Z" transform="translate(-1643.514 -2122.955)" fill="#f7c9b2"/>
            <path id="Trazado_9745" data-name="Trazado 9745" d="M1664.968,2143.616l2.894-1.492,3.066,7.334c-2.157,6-12.626,7.829-14.9,8.159l-.35-2.2.1-2.385Z" transform="translate(-1643.571 -2123.141)" opacity="0.5" style="mix-blend-mode: overlay;isolation: isolate"/>
            <g id="Grupo_3779" data-name="Grupo 3779">
              <path id="Trazado_9746" data-name="Trazado 9746" d="M1656.5,2151.64a12.6,12.6,0,0,0,10.46-14.424l-2.792-17.527-22.8,3.631,3.125,19.617A10.484,10.484,0,0,0,1656.5,2151.64Z" transform="translate(-1641.37 -2119.689)" fill="#f7c9b2"/>
              <path id="Trazado_9747" data-name="Trazado 9747" d="M1655.7,2147.233a6.093,6.093,0,0,0-4.862.418,2.1,2.1,0,0,0-.786,2.984,3.194,3.194,0,0,0,3.541,1.386c1.841-.293,2.522-.684,3.26-1.735A2.012,2.012,0,0,0,1655.7,2147.233Z" transform="translate(-1642.657 -2123.878)" fill="#fff"/>
            </g>
          </g>
          <path id="Trazado_9748" data-name="Trazado 9748" d="M1662.169,2122.055a6.835,6.835,0,0,0-5.072-1.85,19.137,19.137,0,0,0-5.337,1.645,23.161,23.161,0,0,1-8.476,1.447,12.565,12.565,0,0,1-6.312-1.55,6.64,6.64,0,0,1-3.359-5.331,7.412,7.412,0,0,1,1.735-4.531,12.287,12.287,0,0,1,7.156-4.476c5.327-1.106,10.929,1.412,16.236.217a23.062,23.062,0,0,1,3.662-.818,6.577,6.577,0,0,1,4.867,1.9,8.43,8.43,0,0,1,2.36,4.728,19.62,19.62,0,0,1-.7,7.32,21.706,21.706,0,0,1-.784,2.831q-.536,1.445-1.021,2.906c-.647,1.949-1.508,4.25-2.017,6.239a5.6,5.6,0,0,1-.547-2.579c-.1-.8-.087-1.615-.151-2.42A8.643,8.643,0,0,0,1662.169,2122.055Z" transform="translate(-1616.692 -2106.798)" fill="url(#linear-gradient-2)"/>
          <g id="Grupo_3781" data-name="Grupo 3781" transform="translate(0 34.343)">
            <path id="Trazado_9749" data-name="Trazado 9749" d="M1633.7,2155.622s-5.291,31.728-6.637,35.812-5.5,11.761-11.094,10.351c-8.17-2.057,7.582-42.011,7.582-42.011Z" transform="translate(-1613.614 -2148.655)" fill="#f7c9b2"/>
            <path id="Trazado_9750" data-name="Trazado 9750" d="M1635.9,2161.012a7.413,7.413,0,1,1,2.223-10.6A7.664,7.664,0,0,1,1635.9,2161.012Z" transform="translate(-1615.198 -2147.388)" fill="#f7c9b2"/>
          </g>
          <path id="Trazado_9751" data-name="Trazado 9751" d="M1691.418,2163.759c4.842,4.215,10.177,11.555,13.84,24.271a431.107,431.107,0,0,1,11.253,49.083l-8.476,1.349s-9.559-27.419-17.816-43.4a110.494,110.494,0,0,1-7.884-21.536A11.8,11.8,0,0,0,1691.418,2163.759Z" transform="translate(-1624.189 -2115.564)" fill="#f7c9b2"/>
          <path id="Trazado_9752" data-name="Trazado 9752" d="M1711.629,2257.123c.7,4.367,3.974,7.476,7.324,6.943s5.5-4.507,4.8-8.875-3.975-7.476-7.324-6.943S1710.933,2252.754,1711.629,2257.123Z" transform="translate(-1628.677 -2128.556)" fill="#f7c9b2"/>
          <path id="Trazado_9753" data-name="Trazado 9753" d="M1682.654,2157.882c5.314,1.635,16.221,7.837,22.386,29.242.313,1.088.614,2.153.911,3.209.036.133.073.265.11.4q.428,1.531.837,3.035c-2.224,2.881-7.549,7.536-13.986,6.358a34.593,34.593,0,0,0-5.22-8.5,25.232,25.232,0,0,1-2.048-2.748,36.4,36.4,0,0,1-2.652-5.032C1679.59,2176.2,1681.051,2157.387,1682.654,2157.882Z" transform="translate(-1623.972 -2114.658)" fill="#e64663"/>
        </g>
      </g>
    </g>
    <g id="Grupo_3785" data-name="Grupo 3785" transform="translate(1434.819 2209.526)">
      <path id="Trazado_9754" data-name="Trazado 9754" d="M1492.817,2266.619l53.677.226,15.388-33.914a2.885,2.885,0,0,0-2.615-4.077l-47.355-.2a2.884,2.884,0,0,0-2.639,1.692Z" transform="translate(-1463.661 -2228.278)" fill="#3a3a3a"/>
      <path id="Rectángulo_829" data-name="Rectángulo 829" d="M0,0H32.9a0,0,0,0,1,0,0V0a2.912,2.912,0,0,1-2.912,2.912H0a0,0,0,0,1,0,0V0A0,0,0,0,1,0,0Z" transform="translate(32.899 38.329) rotate(-179.759)" fill="url(#linear-gradient-3)"/>
      <path id="Trazado_9755" data-name="Trazado 9755" d="M1496.716,2266.635l53.677.226,15.388-33.914a2.885,2.885,0,0,0-2.615-4.077l-47.354-.2a2.885,2.885,0,0,0-2.639,1.693Z" transform="translate(-1464.261 -2228.281)" fill="#3a3a3a"/>
      <path id="Trazado_9756" data-name="Trazado 9756" d="M1512.709,2230.132a3.279,3.279,0,0,1,3-1.922l47.355.2a3.274,3.274,0,0,1,2.967,4.627l-15.491,34.143-54.531-.23Zm52.608,2.583a2.494,2.494,0,0,0-2.261-3.526l-47.355-.2a2.5,2.5,0,0,0-2.283,1.465l-16.208,35.723,52.824.222Z" transform="translate(-1464.151 -2228.21)" fill="#fff"/>
      <path id="Trazado_9757" data-name="Trazado 9757" d="M1534.618,2250.459a5.943,5.943,0,0,1,5.593-4.169c2.51.011,4.075,1.895,3.5,4.207a5.941,5.941,0,0,1-5.594,4.169C1535.6,2254.656,1534.038,2252.772,1534.618,2250.459Z" transform="translate(-1470.075 -2230.992)" fill="#fff"/>
    </g>
    <g id="Grupo_3788" data-name="Grupo 3788" transform="translate(1305.395 2246.16)">
      <g id="Grupo_3786" data-name="Grupo 3786" transform="translate(0 8.481)">
        <path id="Trazado_9758" data-name="Trazado 9758" d="M1323.719,2291.531l5.4.023a1.921,1.921,0,0,0,1.847-1.6l1.237-8.386-8.619-.036-1.237,8.386A1.363,1.363,0,0,0,1323.719,2291.531Z" transform="translate(-1308.001 -2281.529)" fill="#161f4d"/>
        <path id="Trazado_9759" data-name="Trazado 9759" d="M1308,2394.945l2.333.01,16.656-104.28-4.884-.021Z" transform="translate(-1305.796 -2282.933)" fill="#161f4d"/>
        <path id="Trazado_9760" data-name="Trazado 9760" d="M1305.4,2414.015a.5.5,0,0,1-.008-.087c.112-.76,3.758-3.094,3.758-3.094s2.954,2.363,2.842,3.122a.72.72,0,0,1-.034.087Z" transform="translate(-1305.395 -2301.427)" fill="#161f4d"/>
        <path id="Trazado_9761" data-name="Trazado 9761" d="M1380.937,2291.772l5.4.023a1.922,1.922,0,0,0,1.847-1.6l1.237-8.388-8.619-.035-1.237,8.387A1.362,1.362,0,0,0,1380.937,2291.772Z" transform="translate(-1316.806 -2281.566)" fill="#161f4d"/>
        <path id="Trazado_9762" data-name="Trazado 9762" d="M1365.222,2395.186l2.333.01,16.656-104.28-4.884-.021Z" transform="translate(-1314.601 -2282.97)" fill="#161f4d"/>
        <path id="Trazado_9763" data-name="Trazado 9763" d="M1362.621,2414.256a.6.6,0,0,1-.008-.087c.112-.76,3.759-3.094,3.759-3.094s2.954,2.362,2.841,3.122a.6.6,0,0,1-.034.087Z" transform="translate(-1314.199 -2301.465)" fill="#161f4d"/>
      </g>
      <g id="Grupo_3787" data-name="Grupo 3787" transform="translate(185.105 9.194)">
        <path id="Trazado_9764" data-name="Trazado 9764" d="M1589.782,2292.65l-5.4-.022a1.923,1.923,0,0,1-1.833-1.618l-1.167-8.4,8.619.036,1.167,8.4A1.362,1.362,0,0,1,1589.782,2292.65Z" transform="translate(-1532.97 -2282.409)" fill="#161f4d"/>
        <path id="Trazado_9765" data-name="Trazado 9765" d="M1602.969,2396.176l-2.333-.01-15.778-104.417,4.884.021Z" transform="translate(-1533.505 -2283.815)" fill="#161f4d"/>
        <path id="Trazado_9766" data-name="Trazado 9766" d="M1607.656,2415.287a.6.6,0,0,0,.009-.087c-.106-.761-3.732-3.125-3.732-3.125s-2.974,2.337-2.868,3.1a.639.639,0,0,0,.033.087Z" transform="translate(-1535.998 -2302.332)" fill="#161f4d"/>
        <path id="Trazado_9767" data-name="Trazado 9767" d="M1532.564,2292.41l-5.4-.023a1.922,1.922,0,0,1-1.833-1.618l-1.166-8.4,8.619.036,1.167,8.4A1.362,1.362,0,0,1,1532.564,2292.41Z" transform="translate(-1524.165 -2282.372)" fill="#161f4d"/>
        <path id="Trazado_9768" data-name="Trazado 9768" d="M1545.751,2395.935l-2.333-.01-15.778-104.417,4.884.021Z" transform="translate(-1524.7 -2283.778)" fill="#161f4d"/>
        <path id="Trazado_9769" data-name="Trazado 9769" d="M1550.439,2415.045a.572.572,0,0,0,.009-.087c-.106-.761-3.733-3.125-3.733-3.125s-2.973,2.338-2.868,3.1a.585.585,0,0,0,.034.087Z" transform="translate(-1527.193 -2302.294)" fill="#161f4d"/>
      </g>
      <path id="Trazado_9770" data-name="Trazado 9770" d="M1322.283,2282.861l233.861.984,6.364-6.061-246.538-1.038Z" transform="translate(-1307.022 -2272.312)" fill="#8cc6f3"/>
      <path id="Trazado_9771" data-name="Trazado 9771" d="M1317.561,2282.841l63.038.265,1.643-6.081-66.272-.279Z" transform="translate(-1307.022 -2272.312)" fill="#7dbde9"/>
      <rect id="Rectángulo_830" data-name="Rectángulo 830" width="5.785" height="247.113" transform="translate(8.656 5.785) rotate(-89.759)" fill="#8cc6f3"/>
      <rect id="Rectángulo_831" data-name="Rectángulo 831" width="5.785" height="69.279" transform="translate(8.656 5.785) rotate(-89.759)" fill="#7dbde9"/>
    </g>
    <g id="Grupo_3792" data-name="Grupo 3792" transform="translate(1365.742 2176.63)">
      <g id="Grupo_3789" data-name="Grupo 3789" transform="translate(0)">
        <path id="Trazado_9772" data-name="Trazado 9772" d="M1389.765,2240.055a.728.728,0,0,1-.478-.181c-14.159-12.385-13.611-30.4-11.342-38.194,3.221-11.07,11.232-12.3,11.572-12.342a.731.731,0,0,1,.2,1.448c-.307.045-7.426,1.188-10.37,11.3-2.178,7.485-2.7,24.785,10.9,36.685a.731.731,0,0,1-.485,1.281Z" transform="translate(-1376.718 -2189.331)"/>
      </g>
      <g id="Grupo_3790" data-name="Grupo 3790" transform="translate(32.167 2.275)">
        <path id="Trazado_9773" data-name="Trazado 9773" d="M1426.371,2211.852a.731.731,0,0,1-.7-.546c-3.289-12.563-10.554-17.909-10.627-17.961a.731.731,0,1,1,.854-1.186c.316.227,7.766,5.709,11.188,18.777a.731.731,0,0,1-.711.916Z" transform="translate(-1414.735 -2192.02)"/>
      </g>
      <g id="Grupo_3791" data-name="Grupo 3791" transform="translate(38.921 20.891)">
        <path id="Trazado_9774" data-name="Trazado 9774" d="M1428.2,2237.06a.731.731,0,0,1-.6-.316c-5.352-7.77-5.97-16.459-3.476-20.372a4.825,4.825,0,0,1,5.13-2.266c7.414,1.254,5.508,19.742,5.266,21.846a.732.732,0,0,1-1.453-.167c.613-5.335,1.076-19.368-4.056-20.237a3.354,3.354,0,0,0-3.653,1.61c-2.19,3.434-1.494,11.582,3.448,18.755a.732.732,0,0,1-.188,1.017A.721.721,0,0,1,1428.2,2237.06Z" transform="translate(-1422.718 -2214.022)"/>
      </g>
      <path id="Trazado_9775" data-name="Trazado 9775" d="M1395.724,2248.607a2.711,2.711,0,1,1-2.7-2.723A2.712,2.712,0,0,1,1395.724,2248.607Z" transform="translate(-1378.808 -2198.034)" fill="#5e5e5e"/>
      <circle id="Elipse_572" data-name="Elipse 572" cx="1.075" cy="1.075" r="1.075" transform="translate(43.509 42.712)" fill="#5e5e5e"/>
      <circle id="Elipse_573" data-name="Elipse 573" cx="1.075" cy="1.075" r="1.075" transform="translate(48.924 41.664)" fill="#5e5e5e"/>
    </g>
    <g id="Grupo_3797" data-name="Grupo 3797" transform="translate(1531.997 2135.223)">
      <g id="Grupo_3793" data-name="Grupo 3793" transform="translate(12.99 6.695)">
        <path id="Trazado_9776" data-name="Trazado 9776" d="M1589.217,2149.7a.7.7,0,0,1,.049-1.393l21.047.182a.7.7,0,1,1-.013,1.395l-21.047-.182Z" transform="translate(-1588.562 -2148.306)" fill="#d6d6d6"/>
      </g>
      <g id="Grupo_3794" data-name="Grupo 3794" transform="translate(14.337 12.791)">
        <path id="Trazado_9777" data-name="Trazado 9777" d="M1590.808,2160.177a.7.7,0,0,1-.074-1.383l19.34-3.274a.7.7,0,0,1,.233,1.376l-19.34,3.273A.672.672,0,0,1,1590.808,2160.177Z" transform="translate(-1590.154 -2155.51)" fill="#d6d6d6"/>
      </g>
      <g id="Grupo_3795" data-name="Grupo 3795" transform="translate(17.306 19.269)">
        <path id="Trazado_9778" data-name="Trazado 9778" d="M1594.319,2172.08a.7.7,0,0,1-.218-1.343l18.721-7.519a.7.7,0,0,1,.52,1.294l-18.72,7.519A.7.7,0,0,1,1594.319,2172.08Z" transform="translate(-1593.663 -2163.167)" fill="#d6d6d6"/>
      </g>
      <g id="Grupo_3796" data-name="Grupo 3796" transform="translate(0 0)">
        <path id="Trazado_9779" data-name="Trazado 9779" d="M1586.2,2177.761a5.97,5.97,0,0,1-1.548-.3,4.865,4.865,0,0,1-3.215-3.57c-.749-3.146.715-6.421,1.736-8.2-2.634.3-7.725.3-9.017-3.9-1.233-4.011,2.855-7.23,5.377-8.781-2.323-.545-5.808-1.972-6.274-5.665a4.965,4.965,0,0,1,1.652-4.422c2.493-2.3,7.524-3.135,12.516-2.086a.7.7,0,0,1-.286,1.365c-4.505-.947-9.143-.229-11.285,1.746a3.583,3.583,0,0,0-1.214,3.223c.548,4.33,6.98,4.77,7.054,4.774h0a.7.7,0,0,1,.252,1.328c-.079.037-7.816,3.695-6.459,8.109,1.344,4.375,8.877,2.708,8.954,2.689a.7.7,0,0,1,.715,1.1c-.033.045-3.294,4.5-2.365,8.4a3.452,3.452,0,0,0,2.3,2.572c1.442.487,4.715.611,10.375-4.036a.7.7,0,1,1,.886,1.078C1591.719,2176.99,1588.414,2177.9,1586.2,2177.761Z" transform="translate(-1573.21 -2140.393)" fill="#d6d6d6"/>
      </g>
    </g>
    <circle id="Elipse_574" data-name="Elipse 574" cx="37.197" cy="37.197" r="37.197" transform="translate(1445.095 2119.045)" fill="#fff" stroke="#0f92bf" stroke-miterlimit="10" stroke-width="3"/>
    <g id="Grupo_3798" data-name="Grupo 3798" transform="translate(1458.42 2134.709)">
      <path id="Trazado_9780" data-name="Trazado 9780" d="M1503.177,2144.254c-.052.022-.054.154-.013.348.016.079.04.168.069.265a4.76,4.76,0,0,1-2.639,1.228,6.3,6.3,0,0,0-1.37-1.663,3.972,3.972,0,0,1,1.235-2.056c.255.151.457.225.494.172.05-.07-.206-.336-.571-.593s-.7-.41-.751-.339c-.024.036.027.119.13.227a2.022,2.022,0,0,0,.15.139c-.018.6-.738,1.411-1.322,1.969a6.319,6.319,0,0,0-1.74-.8,6.167,6.167,0,0,1,.531-2.785c.392.052.679.038.7-.047.024-.112-.429-.3-1.011-.429s-1.074-.135-1.1-.024c-.012.057.095.133.278.21.074.031.16.062.256.094a4.639,4.639,0,0,1-.466,2.8,6.308,6.308,0,0,0-1.85,0c-.164.025-.325.057-.484.093a4.453,4.453,0,0,1-.826-2.037c.27-.123.446-.247.424-.308-.03-.082-.393-.022-.813.131s-.736.344-.707.424c.014.041.113.046.26.022.059-.009.127-.025.2-.043a3.526,3.526,0,0,1,.827,1.99,6.255,6.255,0,0,0-1.886,1.034,6.777,6.777,0,0,1-1.714-1.867c.266-.292.417-.536.358-.6-.079-.083-.494.179-.928.586s-.723.805-.645.889c.039.042.163,0,.33-.109.069-.043.144-.1.224-.157a4.154,4.154,0,0,1,1.858,1.717,6.324,6.324,0,0,0-1.456,2.252,5.238,5.238,0,0,1-1.762-.5c.052-.291.051-.507-.013-.524-.083-.021-.242.311-.354.743s-.138.8-.054.823c.042.011.1-.067.166-.2q.039-.083.079-.189a2.986,2.986,0,0,1,1.783.313,6.272,6.272,0,0,0-.216,2.389,7.411,7.411,0,0,1-2.2.236c-.088-.385-.2-.649-.289-.636-.113.017-.134.509-.047,1.1s.25,1.053.364,1.037c.057-.009.09-.135.1-.333,0-.08,0-.174,0-.274a3.7,3.7,0,0,1,2.158-.543A6.269,6.269,0,0,0,1490,2152.9a7.524,7.524,0,0,1-1.767,1.2c-.26-.3-.487-.475-.556-.422-.092.068.124.511.48.987s.721.808.812.74c.047-.034.015-.163-.072-.341a2.592,2.592,0,0,0-.132-.239,3.614,3.614,0,0,1,1.59-1.476,6.336,6.336,0,0,0,2.364,1.7,5.558,5.558,0,0,1-.654,1.515c-.283-.084-.5-.107-.522-.046-.031.08.282.275.7.435s.781.225.812.144c.015-.041-.055-.109-.182-.187-.051-.031-.112-.065-.178-.1a2.771,2.771,0,0,1,.439-1.609,6.265,6.265,0,0,0,2.41.3,7.359,7.359,0,0,1,0,2.258c-.393.046-.667.129-.664.217,0,.115.491.189,1.086.168s1.074-.132,1.07-.246c0-.058-.125-.1-.321-.135-.08-.012-.171-.022-.272-.028a3.838,3.838,0,0,1-.294-2.3,6.272,6.272,0,0,0,2.528-1.017,5.044,5.044,0,0,1,1.071,1.6c-.231.185-.371.348-.335.4.048.071.387-.075.756-.327s.629-.513.581-.584c-.024-.035-.121-.017-.257.042-.055.024-.118.056-.183.092a3.2,3.2,0,0,1-1.206-1.543,6.338,6.338,0,0,0,1.431-1.668,6.679,6.679,0,0,1,2.178,1.409c-.187.348-.274.622-.2.669.1.062.435-.295.757-.8s.5-.959.407-1.021c-.048-.03-.157.043-.294.187-.055.058-.115.129-.177.207a4.372,4.372,0,0,1-2.334-1.306,6.249,6.249,0,0,0,.539-2.3,4.3,4.3,0,0,1,2.261-.088c.021.3.074.5.14.505.086,0,.159-.361.162-.808s-.063-.81-.149-.811c-.043,0-.083.09-.113.236-.011.059-.021.128-.029.2a3.729,3.729,0,0,1-2.286.053c-.011-.157-.026-.313-.05-.471a6.314,6.314,0,0,0-.384-1.419,6.1,6.1,0,0,1,2.609-1.165c.18.351.355.579.436.546.106-.044.005-.525-.224-1.075S1503.282,2144.209,1503.177,2144.254Z" transform="translate(-1486.251 -2139.786)" fill="#0f92bf"/>
      <path id="Trazado_9781" data-name="Trazado 9781" d="M1492.717,2146.1a.232.232,0,1,1,.263.195A.232.232,0,0,1,1492.717,2146.1Z" transform="translate(-1487.246 -2140.717)" fill="#19b6db"/>
      <path id="Trazado_9782" data-name="Trazado 9782" d="M1492.623,2154.566a.332.332,0,1,1-.377-.279A.332.332,0,0,1,1492.623,2154.566Z" transform="translate(-1487.13 -2142.017)" fill="#19b6db"/>
      <path id="Trazado_9783" data-name="Trazado 9783" d="M1499.276,2155.319c.062.413-.8.884-1.932,1.051s-2.093-.031-2.153-.445.8-.883,1.932-1.051S1499.216,2154.906,1499.276,2155.319Z" transform="translate(-1487.627 -2142.099)" fill="#19b6db"/>
      <path id="Trazado_9784" data-name="Trazado 9784" d="M1494.109,2149.665c.573,1.327.59,2.595.039,2.833s-1.461-.646-2.033-1.973-.589-2.6-.039-2.833S1493.537,2148.338,1494.109,2149.665Z" transform="translate(-1487.086 -2140.996)" fill="#19b6db"/>
      <path id="Trazado_9785" data-name="Trazado 9785" d="M1502.608,2153.646a.5.5,0,1,1-.565-.419A.5.5,0,0,1,1502.608,2153.646Z" transform="translate(-1488.616 -2141.853)" fill="#19b6db"/>
      <path id="Trazado_9786" data-name="Trazado 9786" d="M1500.839,2150.653c-.052,1.04-.641,1.854-1.316,1.82s-1.178-.9-1.125-1.945.642-1.854,1.317-1.82S1500.893,2149.614,1500.839,2150.653Z" transform="translate(-1488.12 -2141.159)" fill="#19b6db"/>
      <path id="Trazado_9787" data-name="Trazado 9787" d="M1495.931,2146.505a1.279,1.279,0,0,1-1.553-.865c-.087-.591.465-1.164,1.234-1.278a1.279,1.279,0,0,1,1.552.865C1497.253,2145.818,1496.7,2146.391,1495.931,2146.505Z" transform="translate(-1487.501 -2140.487)" fill="#19b6db"/>
      <path id="Trazado_9788" data-name="Trazado 9788" d="M1501.742,2147.485c-.266.388-.949.382-1.526-.014s-.829-1.031-.564-1.418.949-.382,1.526.014S1502.007,2147.1,1501.742,2147.485Z" transform="translate(-1488.297 -2140.706)" fill="#19b6db"/>
    </g>
    <g id="Grupo_3799" data-name="Grupo 3799" transform="translate(1454.854 2159.479)">
      <path id="Trazado_9789" data-name="Trazado 9789" d="M1494.388,2172.321c-.039.016-.04.112-.01.254.012.058.029.123.051.193a3.476,3.476,0,0,1-1.926.9,4.614,4.614,0,0,0-1-1.214,2.9,2.9,0,0,1,.9-1.5c.185.11.333.164.36.126s-.151-.245-.417-.434-.512-.3-.547-.248c-.019.026.019.087.095.166.03.031.068.065.109.1-.013.437-.539,1.03-.964,1.438a4.616,4.616,0,0,0-1.27-.586,4.482,4.482,0,0,1,.388-2.031c.285.038.495.027.508-.035.018-.082-.313-.222-.738-.313s-.784-.1-.8-.017c-.009.041.069.1.2.153.054.023.118.046.187.068a3.384,3.384,0,0,1-.34,2.045,4.61,4.61,0,0,0-1.35,0c-.119.018-.237.042-.354.067a3.252,3.252,0,0,1-.6-1.486c.2-.09.325-.18.309-.225s-.287-.016-.593.1-.537.25-.516.31c.011.03.083.034.19.016.043-.007.092-.018.146-.031a2.565,2.565,0,0,1,.6,1.452,4.55,4.55,0,0,0-1.376.755,4.96,4.96,0,0,1-1.251-1.362c.194-.213.3-.391.261-.437s-.36.131-.678.428-.528.588-.47.649c.029.03.118,0,.241-.08.05-.031.1-.07.163-.115a3.037,3.037,0,0,1,1.356,1.253,4.607,4.607,0,0,0-1.063,1.643,3.861,3.861,0,0,1-1.286-.363c.038-.213.037-.371-.009-.382-.061-.016-.177.227-.259.542s-.1.584-.04.6c.031.009.074-.049.122-.147.019-.039.038-.086.057-.137a2.177,2.177,0,0,1,1.3.228,4.576,4.576,0,0,0-.157,1.744,5.391,5.391,0,0,1-1.6.172c-.064-.28-.147-.473-.21-.463-.083.012-.1.371-.035.8s.183.769.266.757c.041-.006.065-.1.072-.244,0-.058,0-.126,0-.2a2.7,2.7,0,0,1,1.575-.4,4.583,4.583,0,0,0,.784,1.8,5.535,5.535,0,0,1-1.289.875c-.19-.217-.355-.346-.406-.308-.067.05.09.372.351.72s.525.59.593.54c.033-.025.01-.118-.053-.249-.025-.053-.058-.112-.1-.175a2.644,2.644,0,0,1,1.16-1.076,4.628,4.628,0,0,0,1.725,1.237,4.047,4.047,0,0,1-.477,1.1c-.207-.061-.364-.078-.381-.033s.206.2.511.317.569.164.591.106c.012-.03-.04-.08-.133-.137-.037-.023-.081-.047-.13-.072a2.023,2.023,0,0,1,.321-1.175,4.583,4.583,0,0,0,1.759.221,5.358,5.358,0,0,1,0,1.646c-.287.033-.487.095-.485.158,0,.084.358.138.792.123s.784-.1.781-.18c0-.042-.091-.076-.234-.1-.058-.009-.125-.015-.2-.021a2.789,2.789,0,0,1-.215-1.68,4.6,4.6,0,0,0,1.844-.742,3.672,3.672,0,0,1,.782,1.165c-.169.135-.272.255-.245.294s.282-.055.552-.239.459-.374.424-.427c-.018-.025-.088-.012-.188.031-.041.017-.085.041-.134.066a2.34,2.34,0,0,1-.88-1.125,4.628,4.628,0,0,0,1.045-1.217,4.87,4.87,0,0,1,1.589,1.027c-.136.254-.2.454-.146.489.07.045.317-.215.552-.582s.367-.7.3-.744c-.036-.022-.115.031-.215.136-.041.043-.084.094-.13.151a3.19,3.19,0,0,1-1.7-.952,4.578,4.578,0,0,0,.393-1.681,3.131,3.131,0,0,1,1.65-.064c.015.216.055.368.1.368.063,0,.116-.263.118-.59s-.047-.591-.109-.591c-.031,0-.06.065-.081.172a1.468,1.468,0,0,0-.022.148,2.729,2.729,0,0,1-1.668.038c-.008-.114-.019-.229-.036-.343a4.636,4.636,0,0,0-.28-1.036,4.461,4.461,0,0,1,1.9-.851c.131.256.26.423.318.4.077-.032,0-.383-.163-.785S1494.465,2172.289,1494.388,2172.321Z" transform="translate(-1482.037 -2169.061)" fill="#0f92bf"/>
      <path id="Trazado_9790" data-name="Trazado 9790" d="M1486.755,2173.669a.169.169,0,1,1,.192.142A.169.169,0,0,1,1486.755,2173.669Z" transform="translate(-1482.763 -2169.74)" fill="#19b6db"/>
      <path id="Trazado_9791" data-name="Trazado 9791" d="M1486.685,2179.846a.242.242,0,1,1-.275-.2A.241.241,0,0,1,1486.685,2179.846Z" transform="translate(-1482.678 -2170.688)" fill="#19b6db"/>
      <path id="Trazado_9792" data-name="Trazado 9792" d="M1491.542,2180.4c.045.3-.586.645-1.41.767s-1.527-.023-1.571-.324.586-.645,1.41-.767S1491.5,2180.094,1491.542,2180.4Z" transform="translate(-1483.041 -2170.749)" fill="#19b6db"/>
      <path id="Trazado_9793" data-name="Trazado 9793" d="M1487.771,2176.269c.417.968.43,1.894.028,2.067s-1.066-.471-1.483-1.439-.431-1.895-.029-2.067S1487.353,2175.3,1487.771,2176.269Z" transform="translate(-1482.646 -2169.944)" fill="#19b6db"/>
      <path id="Trazado_9794" data-name="Trazado 9794" d="M1493.973,2179.174a.364.364,0,1,1-.413-.305A.365.365,0,0,1,1493.973,2179.174Z" transform="translate(-1483.762 -2170.569)" fill="#19b6db"/>
      <path id="Trazado_9795" data-name="Trazado 9795" d="M1492.682,2176.99c-.038.759-.468,1.354-.96,1.329s-.859-.66-.821-1.419.469-1.353.96-1.328S1492.721,2176.232,1492.682,2176.99Z" transform="translate(-1483.4 -2170.063)" fill="#19b6db"/>
      <path id="Trazado_9796" data-name="Trazado 9796" d="M1489.1,2173.964a.934.934,0,0,1-1.133-.631c-.064-.433.339-.851.9-.933a.932.932,0,0,1,1.133.631C1490.065,2173.463,1489.661,2173.88,1489.1,2173.964Z" transform="translate(-1482.948 -2169.572)" fill="#19b6db"/>
      <path id="Trazado_9797" data-name="Trazado 9797" d="M1493.34,2174.679c-.195.283-.693.279-1.114-.01s-.6-.752-.411-1.036.693-.278,1.114.011S1493.534,2174.4,1493.34,2174.679Z" transform="translate(-1483.53 -2169.732)" fill="#19b6db"/>
    </g>
    <g id="Grupo_3800" data-name="Grupo 3800" transform="translate(1484.628 2136.501)">
      <path id="Trazado_9798" data-name="Trazado 9798" d="M1525.129,2143.99c-.025.01-.026.072-.006.163.008.037.019.079.032.124a2.22,2.22,0,0,1-1.232.573,2.948,2.948,0,0,0-.64-.777,1.864,1.864,0,0,1,.576-.96c.119.071.214.106.231.081s-.1-.157-.267-.278-.327-.191-.351-.158c-.011.016.013.056.061.105.019.021.044.042.07.065-.009.278-.344.658-.618.919a2.958,2.958,0,0,0-.812-.375,2.87,2.87,0,0,1,.248-1.3c.183.024.317.018.325-.022s-.2-.141-.472-.2-.5-.063-.513-.011c-.005.026.045.062.13.1.035.015.074.029.119.043a2.164,2.164,0,0,1-.217,1.309,2.97,2.97,0,0,0-.864,0c-.077.011-.152.026-.227.043a2.082,2.082,0,0,1-.385-.951c.126-.057.208-.115.2-.144s-.185-.01-.38.062-.344.16-.33.2c.007.019.052.021.121.01.028-.005.06-.012.094-.02a1.645,1.645,0,0,1,.387.929,2.906,2.906,0,0,0-.881.483,3.164,3.164,0,0,1-.8-.871c.124-.136.195-.251.167-.28s-.23.084-.433.274-.338.375-.3.415c.019.02.076,0,.155-.052a1.274,1.274,0,0,0,.1-.074,1.944,1.944,0,0,1,.867.8,2.958,2.958,0,0,0-.68,1.052,2.448,2.448,0,0,1-.823-.233c.024-.136.024-.237-.006-.244s-.113.146-.166.347-.064.374-.026.384c.02.005.047-.031.078-.094.012-.025.024-.055.036-.088a1.388,1.388,0,0,1,.833.146,2.938,2.938,0,0,0-.1,1.116,3.459,3.459,0,0,1-1.025.11c-.041-.179-.094-.3-.135-.3s-.062.237-.022.513.117.491.17.484c.026,0,.042-.064.046-.157,0-.037,0-.081,0-.128a1.736,1.736,0,0,1,1.008-.254,2.934,2.934,0,0,0,.5,1.155,3.514,3.514,0,0,1-.824.559c-.122-.138-.228-.221-.26-.2s.058.239.224.461.337.378.379.345c.022-.016.008-.075-.033-.159q-.025-.051-.062-.112a1.69,1.69,0,0,1,.742-.688,2.958,2.958,0,0,0,1.1.791,2.6,2.6,0,0,1-.306.707c-.133-.039-.233-.049-.244-.021s.132.129.327.2.365.105.379.068c.007-.019-.026-.051-.085-.087a.847.847,0,0,0-.083-.046,1.288,1.288,0,0,1,.2-.752,2.924,2.924,0,0,0,1.125.14,3.416,3.416,0,0,1,0,1.054c-.184.021-.312.06-.31.1s.229.089.507.079.5-.062.5-.115c0-.027-.058-.049-.15-.063a1.226,1.226,0,0,0-.127-.013,1.794,1.794,0,0,1-.137-1.075,2.934,2.934,0,0,0,1.18-.475,2.349,2.349,0,0,1,.5.746c-.107.086-.173.163-.156.188s.181-.036.354-.153.294-.239.271-.272c-.011-.017-.057-.007-.12.02-.025.011-.055.026-.085.043a1.5,1.5,0,0,1-.563-.721,2.988,2.988,0,0,0,.668-.779,3.107,3.107,0,0,1,1.017.657c-.087.163-.128.29-.094.312s.2-.138.353-.371.235-.448.19-.477c-.023-.014-.074.02-.137.088a1.063,1.063,0,0,0-.083.1,2.051,2.051,0,0,1-1.09-.61,2.922,2.922,0,0,0,.251-1.075,2,2,0,0,1,1.056-.042c.01.138.036.235.066.236s.074-.169.075-.377-.03-.378-.069-.378c-.02,0-.039.042-.052.11-.006.028-.01.059-.015.095a1.742,1.742,0,0,1-1.067.024c-.005-.073-.012-.146-.023-.219a2.978,2.978,0,0,0-.179-.663,2.847,2.847,0,0,1,1.218-.544c.084.164.166.27.2.254s0-.245-.105-.5S1525.179,2143.97,1525.129,2143.99Z" transform="translate(-1517.226 -2141.904)" fill="#0f92bf"/>
      <path id="Trazado_9799" data-name="Trazado 9799" d="M1520.245,2144.854a.108.108,0,1,1,.123.09A.107.107,0,0,1,1520.245,2144.854Z" transform="translate(-1517.69 -2142.339)" fill="#19b6db"/>
      <path id="Trazado_9800" data-name="Trazado 9800" d="M1520.2,2148.806a.155.155,0,1,1-.176-.13A.155.155,0,0,1,1520.2,2148.806Z" transform="translate(-1517.636 -2142.946)" fill="#19b6db"/>
      <path id="Trazado_9801" data-name="Trazado 9801" d="M1523.308,2149.157c.029.193-.376.413-.9.491s-.977-.015-1.006-.208.376-.413.9-.49S1523.279,2148.964,1523.308,2149.157Z" transform="translate(-1517.868 -2142.984)" fill="#19b6db"/>
      <path id="Trazado_9802" data-name="Trazado 9802" d="M1520.9,2146.517c.266.619.275,1.212.018,1.323s-.682-.3-.949-.92-.276-1.213-.019-1.324S1520.628,2145.9,1520.9,2146.517Z" transform="translate(-1517.615 -2142.469)" fill="#19b6db"/>
      <path id="Trazado_9803" data-name="Trazado 9803" d="M1524.863,2148.376a.232.232,0,1,1-.264-.2A.232.232,0,0,1,1524.863,2148.376Z" transform="translate(-1518.33 -2142.869)" fill="#19b6db"/>
      <path id="Trazado_9804" data-name="Trazado 9804" d="M1524.037,2146.979c-.025.485-.3.865-.614.849s-.55-.423-.526-.908.3-.865.614-.85S1524.062,2146.493,1524.037,2146.979Z" transform="translate(-1518.098 -2142.545)" fill="#19b6db"/>
      <path id="Trazado_9805" data-name="Trazado 9805" d="M1521.745,2145.042a.6.6,0,0,1-.725-.4c-.041-.277.218-.544.577-.6a.6.6,0,0,1,.724.4C1522.363,2144.721,1522.105,2144.989,1521.745,2145.042Z" transform="translate(-1517.809 -2142.231)" fill="#19b6db"/>
      <path id="Trazado_9806" data-name="Trazado 9806" d="M1524.459,2145.5c-.124.181-.443.177-.713-.007s-.387-.481-.263-.663.443-.178.712.007S1524.583,2145.319,1524.459,2145.5Z" transform="translate(-1518.181 -2142.334)" fill="#19b6db"/>
    </g>
    <g id="Grupo_3801" data-name="Grupo 3801" transform="translate(1480.646 2150.211)">
      <path id="Trazado_9807" data-name="Trazado 9807" d="M1539.643,2165.267c-.085.035-.087.246-.022.558.026.126.064.269.111.424-.657.977-2.6,1.606-4.229,1.968a10.106,10.106,0,0,0-2.195-2.665c.081-1.327,1.5-2.823,1.979-3.295.409.243.733.362.793.277.079-.113-.331-.538-.916-.951s-1.124-.656-1.2-.543c-.04.056.043.19.209.363.066.069.149.144.239.222-.027.957-1.182,2.26-2.117,3.155a10.093,10.093,0,0,0-2.789-1.286,9.87,9.87,0,0,1,.851-4.463c.628.084,1.087.06,1.117-.075.038-.18-.687-.487-1.62-.688s-1.722-.217-1.76-.037c-.02.09.152.211.446.336a4.36,4.36,0,0,0,.41.15c.42,1.072-.137,2.967-.749,4.493a10.082,10.082,0,0,0-2.964,0c-.263.04-.521.092-.777.149a7.142,7.142,0,0,1-1.322-3.264c.432-.2.715-.4.679-.493-.047-.129-.631-.036-1.3.211s-1.18.55-1.132.679c.024.064.181.073.417.035.1-.015.2-.039.321-.069.7.518,1.107,1.968,1.326,3.189a10.016,10.016,0,0,0-3.021,1.657,10.881,10.881,0,0,1-2.747-2.991c.426-.468.669-.859.574-.96-.125-.135-.792.287-1.487.94s-1.159,1.291-1.034,1.425c.063.067.261-.005.531-.175.109-.069.23-.154.358-.253,1.005.24,2.108,1.5,2.977,2.752a10.168,10.168,0,0,0-2.333,3.609,8.4,8.4,0,0,1-2.823-.8c.084-.468.082-.813-.019-.84-.133-.035-.388.5-.569,1.191s-.22,1.283-.087,1.318c.067.017.163-.107.267-.323.042-.086.085-.189.126-.3a4.772,4.772,0,0,1,2.857.5,10.056,10.056,0,0,0-.345,3.829,11.893,11.893,0,0,1-3.519.377c-.142-.617-.325-1.039-.463-1.018-.181.027-.215.814-.075,1.758s.4,1.688.583,1.661c.09-.014.145-.217.158-.535.005-.13,0-.278,0-.439a5.927,5.927,0,0,1,3.459-.871,10.053,10.053,0,0,0,1.723,3.963,12.132,12.132,0,0,1-2.83,1.921c-.418-.476-.78-.76-.891-.677-.147.11.2.819.77,1.583s1.155,1.294,1.3,1.185c.073-.055.024-.26-.116-.547-.056-.116-.128-.245-.212-.384a5.789,5.789,0,0,1,2.548-2.363,10.159,10.159,0,0,0,3.788,2.716,8.919,8.919,0,0,1-1.047,2.428c-.455-.134-.8-.171-.836-.074-.05.129.452.441,1.121.7s1.25.36,1.3.232c.024-.064-.089-.174-.292-.3-.081-.052-.178-.1-.286-.159a4.431,4.431,0,0,1,.7-2.579,10.034,10.034,0,0,0,3.864.483,11.749,11.749,0,0,1,0,3.617c-.629.073-1.069.209-1.064.347.007.184.785.3,1.74.269s1.722-.212,1.715-.4c0-.092-.2-.168-.515-.216-.127-.02-.274-.035-.435-.045a6.143,6.143,0,0,1-.471-3.691,10.061,10.061,0,0,0,4.051-1.63,8.084,8.084,0,0,1,1.716,2.559c-.37.3-.6.559-.537.645.077.115.62-.121,1.212-.524s1.009-.822.931-.936c-.039-.057-.194-.026-.413.069-.088.038-.188.089-.293.145a5.13,5.13,0,0,1-1.932-2.472,10.138,10.138,0,0,0,2.293-2.672,10.709,10.709,0,0,1,3.49,2.257c-.3.558-.438,1-.321,1.072.154.1.7-.473,1.212-1.277s.807-1.536.652-1.635c-.077-.049-.251.069-.471.3-.088.093-.184.206-.283.332-1.088.016-2.557-1.041-3.741-2.092a10.027,10.027,0,0,0,.863-3.692,6.891,6.891,0,0,1,3.625-.14c.033.473.12.808.224.809.138,0,.254-.579.26-1.294s-.1-1.3-.239-1.3c-.069,0-.132.144-.179.378-.019.095-.035.2-.047.324-.774.5-2.409.329-3.662.084-.019-.25-.043-.5-.08-.755a10.171,10.171,0,0,0-.615-2.273,9.8,9.8,0,0,1,4.179-1.867c.288.563.569.928.7.875.17-.071.009-.843-.358-1.724S1539.812,2165.2,1539.643,2165.267Z" transform="translate(-1512.52 -2158.107)" fill="#0f92bf"/>
      <path id="Trazado_9808" data-name="Trazado 9808" d="M1522.881,2168.228a.371.371,0,1,1,.422.313A.372.372,0,0,1,1522.881,2168.228Z" transform="translate(-1514.114 -2159.599)" fill="#19b6db"/>
      <path id="Trazado_9809" data-name="Trazado 9809" d="M1522.731,2181.792a.532.532,0,1,1-.6-.448A.531.531,0,0,1,1522.731,2181.792Z" transform="translate(-1513.929 -2161.682)" fill="#19b6db"/>
      <path id="Trazado_9810" data-name="Trazado 9810" d="M1533.393,2183c.1.662-1.288,1.416-3.1,1.684s-3.353-.051-3.451-.712,1.288-1.416,3.1-1.684S1533.3,2182.337,1533.393,2183Z" transform="translate(-1514.724 -2161.813)" fill="#19b6db"/>
      <path id="Trazado_9811" data-name="Trazado 9811" d="M1525.112,2173.938c.917,2.127.945,4.159.063,4.54s-2.341-1.035-3.259-3.161-.945-4.159-.063-4.539S1524.2,2171.812,1525.112,2173.938Z" transform="translate(-1513.858 -2160.047)" fill="#19b6db"/>
      <path id="Trazado_9812" data-name="Trazado 9812" d="M1538.731,2180.317a.8.8,0,1,1-.906-.672A.8.8,0,0,1,1538.731,2180.317Z" transform="translate(-1516.31 -2161.42)" fill="#19b6db"/>
      <path id="Trazado_9813" data-name="Trazado 9813" d="M1535.9,2175.522c-.085,1.665-1.029,2.971-2.109,2.916s-1.888-1.449-1.8-3.115,1.029-2.971,2.109-2.917S1535.982,2173.856,1535.9,2175.522Z" transform="translate(-1515.515 -2160.307)" fill="#19b6db"/>
      <path id="Trazado_9814" data-name="Trazado 9814" d="M1528.032,2168.875a2.049,2.049,0,0,1-2.488-1.387c-.141-.948.745-1.865,1.978-2.048a2.048,2.048,0,0,1,2.488,1.386C1530.151,2167.775,1529.266,2168.693,1528.032,2168.875Z" transform="translate(-1514.522 -2159.231)" fill="#19b6db"/>
      <path id="Trazado_9815" data-name="Trazado 9815" d="M1537.343,2170.446c-.426.621-1.521.611-2.446-.023s-1.328-1.652-.9-2.273,1.521-.611,2.446.023S1537.77,2169.825,1537.343,2170.446Z" transform="translate(-1515.799 -2159.582)" fill="#19b6db"/>
    </g>
  </g>
</svg>
