<svg xmlns="http://www.w3.org/2000/svg" viewBox="0 0 106.01 106.01"><defs><style>.cls-1{isolation:isolate;}.cls-2{fill:#fefcd3;stroke:#fcee21;stroke-miterlimit:10;stroke-width:5px;}.cls-3{fill:#f9b030;}.cls-4{fill:#ffd063;}.cls-5{fill:#fff;opacity:0.4;mix-blend-mode:overlay;}.cls-6{fill:#dfd4c3;mix-blend-mode:multiply;}</style></defs><g class="cls-1"><g id="Capa_2" data-name="Capa 2"><g id="Reglas"><circle class="cls-2" cx="53.01" cy="53.01" r="50.51"/><path class="cls-3" d="M77.52,49.05l14,3s2.89,3.58,0,7l-14,2.07Z"/><path class="cls-4" d="M90.88,58.53c-.52,0-.59-1.25-.59-2.8s.07-2.8.59-2.8,1.29,1.25,1.29,2.8S91.4,58.53,90.88,58.53Z"/><path class="cls-3" d="M44.69,76.19,33.6,85.3S29,85.34,28.14,81l7.12-12.28Z"/><path class="cls-4" d="M29,80.74c.33-.41,1.35.32,2.56,1.28s2.15,1.81,1.83,2.21-1.79.23-3-.74S28.63,81.15,29,80.74Z"/><path class="cls-3" d="M30.11,51.79,18.5,43.35S17.31,38.9,21.33,37L35,40.77Z"/><path class="cls-4" d="M21.74,37.7c.48.21,0,1.39-.6,2.8s-1.2,2.54-1.67,2.33-.67-1.67,0-3.09S21.27,37.49,21.74,37.7Z"/><path class="cls-3" d="M66.83,34.05l6.53-5.88a3.41,3.41,0,0,1,3.46,2.51l-4,7.7Z"/><path class="cls-4" d="M76.32,30.84c-.18.25-.83-.16-1.6-.72s-1.36-1-1.17-1.3,1.08-.19,1.85.37S76.51,30.58,76.32,30.84Z"/><path class="cls-3" d="M31.15,61.59l-8.78.33a3.39,3.39,0,0,1-1.06-4.13l8-3.35Z"/><path class="cls-4" d="M21.79,58c.31-.08.54.66.77,1.58s.38,1.67.08,1.75-1-.55-1.19-1.47S21.48,58.06,21.79,58Z"/><path class="cls-3" d="M76.4,64.06l6.22,6.21a3.39,3.39,0,0,1-2.31,3.58L72.4,70.26Z"/><path class="cls-4" d="M80.13,73.37c-.27-.17.11-.84.63-1.64s1-1.41,1.23-1.24.24,1.07-.27,1.87S80.4,73.54,80.13,73.37Z"/><path class="cls-3" d="M42.74,32.73l-1.29-11s1.91-3,5.12-1.73l5,9.78Z"/><path class="cls-4" d="M46.37,20.58c.13.38-.77.75-1.91,1.13s-2.07.64-2.2.26.6-1.25,1.73-1.64S46.24,20.2,46.37,20.58Z"/><path class="cls-3" d="M65.45,73.14l1.68,14.49s-2.5,4-6.71,2.28L53.85,77.08Z"/><path class="cls-4" d="M60.68,89.1c-.17-.5,1-1,2.51-1.49s2.72-.84,2.88-.34-.78,1.65-2.27,2.15S60.85,89.59,60.68,89.1Z"/><path class="cls-4" d="M70.69,80.53l-2.06-7.35-5.67,3,4.45,6.09A2.94,2.94,0,0,0,70.69,80.53Z"/><path class="cls-4" d="M78.84,35.91,72,39.35l4,5,5.12-5.54A3,3,0,0,0,78.84,35.91Z"/><path class="cls-4" d="M45.74,84.72l3.46-6.8L43,76.27l-.85,7.5A3,3,0,0,0,45.74,84.72Z"/><path class="cls-4" d="M83.39,60.44l-4.75-2.56-1.26,4.36,5.28.72A2.09,2.09,0,0,0,83.39,60.44Z"/><path class="cls-4" d="M53.93,24l-1.55,5.18,4.52.36-.36-5.33A2.09,2.09,0,0,0,53.93,24Z"/><path class="cls-4" d="M31.27,34.06,35,39.24l3.59-4-5.27-3.5A2.47,2.47,0,0,0,31.27,34.06Z"/><path class="cls-4" d="M51,81c-7.78-.21-14-4.35-18.06-10.21-6.55-9.5-7.43-23.52,0-32.75a22.55,22.55,0,0,1,4-3.94,26.07,26.07,0,0,1,4-2.53l.52-.26C53.51,25.43,67.71,30,76,41c6.41,8.45,5.52,18.76-.13,27l-.06.07A31.17,31.17,0,0,1,69,75,29.29,29.29,0,0,1,51,81Z"/><path class="cls-3" d="M42.13,63c-4.49-6.51-5.09-16.11,0-22.44a15.73,15.73,0,0,1,2.77-2.7c8.82-6.69,20.38-3.76,26.79,4.7,5.8,7.65,2.88,17.51-4.77,23.31A20.12,20.12,0,0,1,54.5,70,15.43,15.43,0,0,1,42.13,63Z"/><path class="cls-5" d="M63.78,44.58c-3.07-3.23-5.29-7.4-4.65-9.62a2,2,0,0,1,.51-.89c2-2,7.08.37,11.3,4.62,3.82,3.85,4.73,7.79,3,9.53-.79.79-2.2,1.05-3.92.56A14.91,14.91,0,0,1,63.78,44.58Z"/><path class="cls-3" d="M34.84,44.39s0-.06,0-.08h0Z"/><path class="cls-3" d="M34.73,46.58A.82.82,0,0,0,35,45.5a.27.27,0,0,1,0-.08l0,0a2.76,2.76,0,0,1-.08-.27l0-.15s-.05-.16,0,0,0,0,0-.05,0-.11,0-.16a2.09,2.09,0,0,1,0-.25.23.23,0,0,1,0-.07s0,0,0-.06h0v0h0a2.35,2.35,0,0,1,.14-.52v0s0,0,0,0l0-.07.12-.22a2,2,0,0,1,.16-.24v0l.07-.08.18-.18.12-.11h0l.22-.14.13-.07h0a.81.81,0,0,0,.55-1,.8.8,0,0,0-1-.55,3.83,3.83,0,0,0-2.15,2.24,3.7,3.7,0,0,0,.16,3A.8.8,0,0,0,34.73,46.58Z"/><path class="cls-3" d="M36.66,58.81a.79.79,0,0,0,0-1.11,2.67,2.67,0,0,1-.4-.42l0,0a.57.57,0,0,1-.08-.13,1.35,1.35,0,0,1-.15-.26l-.06-.12,0,0-.09-.29c0-.1,0-.2-.06-.3s0-.1,0,0,0-.13,0-.19a2.51,2.51,0,0,1,.78-2,.79.79,0,0,0,0-1.11.81.81,0,0,0-1.11,0,4.18,4.18,0,0,0-1.24,3.06,4.12,4.12,0,0,0,1.37,2.92A.79.79,0,0,0,36.66,58.81Z"/><path class="cls-3" d="M43.06,72.71a.81.81,0,0,0-.66-.89l-.25,0-.1,0-.25-.11,0,0,0,0-.22-.16-.09-.08,0,0-.07-.07-.07-.09c-.06-.07-.1-.15-.15-.22h0l-.05-.09a2,2,0,0,1-.1-.26s0,0,0-.07v0a2.36,2.36,0,0,1,0-.28s0-.08,0-.12v0s0-.09,0-.1,0-.09,0-.13a2,2,0,0,1,0-.24v0h0l.06-.15a.78.78,0,0,0-1.44-.62,3.4,3.4,0,0,0,.25,3,3.35,3.35,0,0,0,2.35,1.54A.8.8,0,0,0,43.06,72.71Z"/><path class="cls-3" d="M36.72,66.45a.81.81,0,0,0-.28-1.08l-.16-.09,0,0a1.1,1.1,0,0,1-.22-.21l0,0a.83.83,0,0,1-.08-.12,1,1,0,0,1-.12-.23,1.82,1.82,0,0,1-.11-.4,1.93,1.93,0,0,1,0-.34,2,2,0,0,1,0-.24.78.78,0,1,0-1.51-.42,3,3,0,0,0,1.39,3.45A.81.81,0,0,0,36.72,66.45Z"/><path class="cls-3" d="M51.07,74.92A2.85,2.85,0,0,0,53,73.38a.84.84,0,0,0,.08-.6.79.79,0,0,0-1.44-.19,1.86,1.86,0,0,1-.1.2s-.09.12-.11.16l0,0a1.07,1.07,0,0,1-.16.14h0l0,0,0,0h0L51,73.3l-.07,0-.2.06-.08,0h-.37l-.12,0a1.66,1.66,0,0,1-.21-.06l-.05,0a.82.82,0,0,1-.2-.12h0a.24.24,0,0,0-.08-.06.79.79,0,0,0-1.11,0,.81.81,0,0,0,0,1.11A3,3,0,0,0,51.07,74.92Z"/><path class="cls-3" d="M51.21,73.15h0s0,0,0,0l0,0Z"/><path class="cls-3" d="M58.3,76.65Z"/><path class="cls-3" d="M58.41,78.33a3,3,0,0,0,1-.58,2.51,2.51,0,0,0,.63-1,.79.79,0,0,0-.08-.6.81.81,0,0,0-.47-.36.74.74,0,0,0-.6.08.89.89,0,0,0-.36.45l.05-.11c0,.09-.09.17-.14.26l-.11.1a.94.94,0,0,1-.1.1l.06,0-.06,0a1.24,1.24,0,0,1-.2.1,1.57,1.57,0,0,1-.29.08H57.5a1,1,0,0,1-.25-.06l-.14-.08A.79.79,0,0,0,56,77a.8.8,0,0,0,.28,1.08A2.52,2.52,0,0,0,58.41,78.33Z"/><path class="cls-3" d="M69,70a.88.88,0,0,0-.08-.6.82.82,0,0,0-.47-.37.86.86,0,0,0-.61.08.8.8,0,0,0-.36.47,2.41,2.41,0,0,1-.12.48,2.82,2.82,0,0,1-.21.38l-.06.09,0,0h0l-.17.18-.17.15-.08.06a2.64,2.64,0,0,1-.37.2,3.11,3.11,0,0,1-.41.11H65.6a.79.79,0,1,0,0,1.57A3.43,3.43,0,0,0,69,70Z"/><path class="cls-3" d="M67.08,70.45Z"/><path class="cls-3" d="M73.1,66.56a3.28,3.28,0,0,0,1.36-1.35,3.2,3.2,0,0,0,.33-.91,3.42,3.42,0,0,0,0-1.15.77.77,0,0,0-.36-.47.79.79,0,0,0-.6-.08.78.78,0,0,0-.47.36l-.08.19a.65.65,0,0,0,0,.24,3.84,3.84,0,0,1,0,.48,2.32,2.32,0,0,1-.13.45,2.71,2.71,0,0,1-.21.37,1.94,1.94,0,0,1-.32.32,1.89,1.89,0,0,1-.3.19A.79.79,0,0,0,72,66.28.81.81,0,0,0,73.1,66.56Z"/><path class="cls-3" d="M41.85,37.1a.81.81,0,0,0,.55-1s0,0,0-.06a1,1,0,0,1,0-.17.83.83,0,0,1,0-.15l.08-.13.07-.07a.41.41,0,0,1,.11-.07l.15,0H43l.19.05a.78.78,0,0,0,1.1-.91.79.79,0,0,0-.36-.46,2.06,2.06,0,0,0-1.16-.25,2.29,2.29,0,0,0-.59.12,2.56,2.56,0,0,0-.66.39,2.13,2.13,0,0,0-.63,2.17.81.81,0,0,0,.36.47A.79.79,0,0,0,41.85,37.1Z"/><path class="cls-6" d="M51,81c-7.78-.21-14-4.35-18.06-10.21-6.55-9.5-7.43-23.52,0-32.75a22.55,22.55,0,0,1,4-3.94,26.07,26.07,0,0,1,4-2.53,40.09,40.09,0,0,0-.48,19.49C42.27,58.31,47.07,65,53.92,68a30.82,30.82,0,0,0,10.86,2.13,25.19,25.19,0,0,0,7.45-.59A13.42,13.42,0,0,0,75.81,68,31.17,31.17,0,0,1,69,75,29.29,29.29,0,0,1,51,81Z"/></g></g></g></svg>