<svg xmlns="http://www.w3.org/2000/svg" viewBox="0 0 106.01 106.01"><defs><style>.cls-1{isolation:isolate;}.cls-2{fill:#feefd8;stroke:#fbb03b;stroke-miterlimit:10;stroke-width:5px;}.cls-3{fill:#deab20;}.cls-4{fill:#c9a110;}.cls-5{fill:#f5e7b6;mix-blend-mode:multiply;}.cls-6{fill:#fff;opacity:0.4;mix-blend-mode:overlay;}</style></defs><g class="cls-1"><g id="Capa_2" data-name="Capa 2"><g id="Reglas"><circle class="cls-2" cx="53.01" cy="53.01" r="50.51"/><path class="cls-3" d="M76.53,40.56,80.25,38a1.09,1.09,0,0,0,.39-.74,1.11,1.11,0,0,0-1.82-1l-3.73,2.55a1.17,1.17,0,0,0-.39.74,1.14,1.14,0,0,0,.26.83A1.15,1.15,0,0,0,76.53,40.56Z"/><path class="cls-3" d="M72.2,60.85,71.2,55a1.12,1.12,0,0,0-2.2.37l1,5.9a1.12,1.12,0,0,0,2.2-.38Z"/><path class="cls-3" d="M54.12,68.87a1.14,1.14,0,0,0-.27-1.56L49.59,64a1.12,1.12,0,1,0-1.29,1.82l4.26,3.3A1.13,1.13,0,0,0,54.12,68.87Z"/><path class="cls-3" d="M60.18,64.7a1.15,1.15,0,0,0,.14-1.57L56,56.87a1.11,1.11,0,0,0-1.57-.14,1.15,1.15,0,0,0-.14,1.57l4.31,6.26A1.11,1.11,0,0,0,60.18,64.7Z"/><path class="cls-3" d="M39.23,75.69l2.49-8.34a1.14,1.14,0,0,0-.65-1.43,1.12,1.12,0,0,0-1.43.65l-2.49,8.34a1.11,1.11,0,0,0,2.08.78Z"/><path class="cls-3" d="M28.06,68.76l5.35-4.31A1.11,1.11,0,0,0,32,62.74l-5.35,4.31a1.12,1.12,0,0,0-.14,1.57A1.14,1.14,0,0,0,28.06,68.76Z"/><path class="cls-3" d="M33.84,71.43a12.65,12.65,0,0,0,2.87-4.17,1.12,1.12,0,0,0-2.09-.79c-.12.28-.25.56-.39.83a11.51,11.51,0,0,1-1.47,2.06l-.35.36a1.17,1.17,0,0,0-.39.74,1.11,1.11,0,0,0,1.82,1Z"/><path class="cls-3" d="M30.4,56.9A1.14,1.14,0,0,0,29.11,56l-7.28,1.24a1.13,1.13,0,0,0-.91,1.28,1.15,1.15,0,0,0,1.29.92l7.28-1.24A1.14,1.14,0,0,0,30.4,56.9Z"/><path class="cls-3" d="M28.47,50.13a1.22,1.22,0,0,0,.72-.45,1.12,1.12,0,0,0-1.09-1.75l-3.76,1a1.22,1.22,0,0,0-.72.45,1.12,1.12,0,0,0,1.1,1.75Z"/><path class="cls-3" d="M36.9,37.73a10.48,10.48,0,0,0-5-6.59,1.14,1.14,0,0,0-1.55.26A1.13,1.13,0,0,0,30.57,33a9.17,9.17,0,0,1,1.52,1l.16.14,0,0h0l.33.33q.32.33.6.69l.25.33.14.21.06.07.09.16a1,1,0,0,1,.1.17c.08.13.15.27.22.41a7.91,7.91,0,0,1,.37.84,4.11,4.11,0,0,1,.15.42v0c0,.09.05.19.08.29a1.12,1.12,0,0,0,2.2-.37Z"/><path class="cls-3" d="M47.78,39.31a26.14,26.14,0,0,0,3.15-6.13,1.11,1.11,0,1,0-2.08-.79,24.92,24.92,0,0,1-1.3,3l-.08.17,0,0-.18.33c-.13.23-.26.46-.4.69-.29.48-.59,1-.91,1.41a1.12,1.12,0,0,0,.26,1.55A1.14,1.14,0,0,0,47.78,39.31Z"/><path class="cls-3" d="M61.48,42a7.81,7.81,0,0,1-.13-1.27c0,.27,0,0,0-.07v-.37a5.83,5.83,0,0,1,0-.59,10.29,10.29,0,0,1,.14-1.23l.06-.27a1.36,1.36,0,0,1,0-.2c0-.19.1-.39.15-.58A1.14,1.14,0,0,0,61.12,36a1.12,1.12,0,0,0-1.43.65,13.28,13.28,0,0,0-.41,5.74,1.12,1.12,0,1,0,2.2-.37Z"/><path class="cls-3" d="M44.73,69.23a21.53,21.53,0,0,0,7.79-5.14c2-2,3.63-4.59,6-6.32a6.4,6.4,0,0,1,3.72-1.28,29.55,29.55,0,0,1,4.68.53,13.55,13.55,0,0,0,8.39-1.37,11.67,11.67,0,0,0,5.4-6,11.12,11.12,0,0,0-.1-8A9.28,9.28,0,0,0,75.1,36.3,9.83,9.83,0,0,0,73.78,36a9.5,9.5,0,0,0-6.42-.06c-2.88,1-5.32,3.25-8.49,3.31-3,.06-5.79-1.34-8.3-2.77s-5.1-3.1-8-3.92a11.94,11.94,0,0,0-8.54.57c-5.45,2.57-8.37,8.34-8.77,14.15a32,32,0,0,0,.88,9.25,24.91,24.91,0,0,0,3.2,8.26,11.64,11.64,0,0,0,6.87,5A14.77,14.77,0,0,0,44.73,69.23Z"/><path class="cls-4" d="M27.49,53.9a27.51,27.51,0,0,1-.39-6.54c.38-5.73,3.35-10.58,7.74-12.65a10.17,10.17,0,0,1,7.27-.46,28.89,28.89,0,0,1,6.36,3l1.21.7c2.8,1.6,5.86,3.08,9.23,3a13.72,13.72,0,0,0,6.24-2.09,19.41,19.41,0,0,1,2.79-1.32,7.79,7.79,0,0,1,5.24,0l.12,0,.13,0A6.55,6.55,0,0,1,74.5,38a7.56,7.56,0,0,1,4.4,4.34,9.66,9.66,0,0,1,.53,1.91,9.26,9.26,0,0,1-.43,4.8,9.86,9.86,0,0,1-4.59,5,11.79,11.79,0,0,1-7.29,1.17l-1.21-.19a20.67,20.67,0,0,0-3.76-.36,8.26,8.26,0,0,0-4.74,1.64,24.56,24.56,0,0,0-4,4.11c-.71.85-1.38,1.65-2.11,2.37a19.51,19.51,0,0,1-7.12,4.72,12.94,12.94,0,0,1-7.44.44,9.85,9.85,0,0,1-5.81-4.21,23.52,23.52,0,0,1-2.95-7.67C27.76,55.35,27.61,54.61,27.49,53.9Z"/><path class="cls-3" d="M51.58,57.68a6.19,6.19,0,0,0-.46-6.23A6.76,6.76,0,0,0,48.82,49a8,8,0,0,0-4.3-1,7.41,7.41,0,0,1-3.85-.56,4.29,4.29,0,0,1-2-2.59c-.33-1.33-.1-2.72-.59-4a3.29,3.29,0,0,0-3.3-2.11c-3.05.16-4.24,3.2-4.54,5.8a20.19,20.19,0,0,0,1.12,9.74c2,5.16,7.09,9.13,12.81,8.46A9.35,9.35,0,0,0,51.58,57.68Z"/><path class="cls-3" d="M49.37,45.89a3.11,3.11,0,0,0,1-3.13,4.11,4.11,0,0,0-1.61-2.41A5.87,5.87,0,0,0,44.48,39a3.53,3.53,0,0,0-2.69,1.54,3.74,3.74,0,0,0-.49,2.93A4.34,4.34,0,0,0,43.15,46a5.48,5.48,0,0,0,3.26.81A5.08,5.08,0,0,0,49.37,45.89Z"/><path class="cls-3" d="M43.59,41.9h0a.25.25,0,0,1,0-.06A.21.21,0,0,0,43.59,41.9Z"/><path class="cls-3" d="M73.55,50.23a3.11,3.11,0,0,0-.75-3.37,6.29,6.29,0,0,0-1.36-1,6.94,6.94,0,0,0-1.57-.77,3.22,3.22,0,0,0-3.46.81,2.78,2.78,0,0,0,.06,3.4,3.15,3.15,0,0,0,.59,1,5.2,5.2,0,0,0,3.2,1.55A3.11,3.11,0,0,0,73.55,50.23Z"/><path class="cls-3" d="M68.71,48h0v0l.06,0Z"/><path class="cls-3" d="M68.86,47.92l-.08,0,.1,0Z"/><path class="cls-5" d="M52.52,64.09c2-2,3.63-4.59,6-6.32a6.4,6.4,0,0,1,3.72-1.28,29.55,29.55,0,0,1,4.68.53,13.55,13.55,0,0,0,8.39-1.37,11.82,11.82,0,0,0,5.17-5.43,12.52,12.52,0,0,1-3.85,2,11.85,11.85,0,0,1-4.77.5,13.38,13.38,0,0,1-5-1.69c-3.53-1.9-7.22-4.5-11.46-3.66a8.28,8.28,0,0,0-4.87,3.29,19,19,0,0,1-3.86,4.1,11.48,11.48,0,0,1-14.84-1.6,16.35,16.35,0,0,1-2.95-4.8c-.92-2.15-1.58-4.42-2.38-6.62a19.59,19.59,0,0,0-1.18,5.5,32,32,0,0,0,.88,9.25,24.91,24.91,0,0,0,3.2,8.26,11.64,11.64,0,0,0,6.87,5,14.77,14.77,0,0,0,8.48-.48A21.53,21.53,0,0,0,52.52,64.09Z"/><path class="cls-3" d="M72.28,40.21a100.94,100.94,0,0,0,3.4-10A1.15,1.15,0,0,0,75,28.75a1.13,1.13,0,0,0-1.44.65,97.59,97.59,0,0,1-3.4,10A1.12,1.12,0,0,0,72.28,40.21Z"/><path class="cls-3" d="M66.19,40.83a33.72,33.72,0,0,0-2.36-8.69,1.12,1.12,0,0,0-1.48-.54,1.13,1.13,0,0,0-.54,1.48A31,31,0,0,1,64,41.21a1.12,1.12,0,0,0,1.28.91A1.14,1.14,0,0,0,66.19,40.83Z"/><path class="cls-3" d="M30.75,43.89a1.12,1.12,0,0,0,.13-1.57,60.16,60.16,0,0,1-7.12-8.87,1.11,1.11,0,0,0-1.57-.14,1.15,1.15,0,0,0-.14,1.57,59.08,59.08,0,0,0,7.13,8.87A1.14,1.14,0,0,0,30.75,43.89Z"/><path class="cls-3" d="M40.19,36.6a19.37,19.37,0,0,1,.76-2c.14-.3.29-.6.44-.9l.06-.1.13-.24.27-.46A19.49,19.49,0,0,1,43,31.24c.22-.28.45-.56.68-.83s.21-.25.32-.37l.09-.1.19-.2A1.11,1.11,0,0,0,42.85,28a20.54,20.54,0,0,0-4.75,7.78,1.12,1.12,0,0,0,2.09.79Z"/><path class="cls-3" d="M57.69,41.92a14.84,14.84,0,0,0-1.54-6,1.13,1.13,0,0,0-1.48-.54,1.14,1.14,0,0,0-.54,1.48,11.54,11.54,0,0,1,.57,1.31l.15.41a1.89,1.89,0,0,0,.06.18l.18.64a14,14,0,0,1,.4,2.88,1.13,1.13,0,0,0,1.29.91A1.15,1.15,0,0,0,57.69,41.92Z"/><path class="cls-3" d="M84.11,53.61a1.13,1.13,0,0,0-.65-1.44l-6.8-2.32a1.12,1.12,0,0,0-.78,2.09l6.8,2.32A1.14,1.14,0,0,0,84.11,53.61Z"/><path class="cls-6" d="M72.53,48.94a3.17,3.17,0,0,0,2.07-4.88,5.83,5.83,0,0,0-3.68-2.26,5.29,5.29,0,0,0-2.34-.06,2.58,2.58,0,0,0-2.11,2.74A4.46,4.46,0,0,0,67.7,47a5.92,5.92,0,0,0,3,2A3.69,3.69,0,0,0,72.53,48.94Z"/><path class="cls-6" d="M38.56,63.06A2.17,2.17,0,0,0,40,59.72a3.91,3.91,0,0,0-2.51-1.54,3.61,3.61,0,0,0-1.6,0A1.78,1.78,0,0,0,34.41,60a3.16,3.16,0,0,0,.85,1.72,4.16,4.16,0,0,0,2.08,1.34A2.78,2.78,0,0,0,38.56,63.06Z"/><path class="cls-6" d="M37.76,47.54c.61-.78.66-1.91,1.16-2.78a3.08,3.08,0,0,1,3.17-1.49c1.26.23,2.25,1.23,3.49,1.53a2.6,2.6,0,0,0,3.15-1.69c.3-1.43-1-2.69-2.25-3.42C43.57,38,39.08,37,36.09,38.93a7.15,7.15,0,0,0-2.9,5.36,4,4,0,0,0,1.09,3.33,2.47,2.47,0,0,0,3.29.13Z"/></g></g></g></svg>