<svg xmlns="http://www.w3.org/2000/svg" width="374" height="102.879" viewBox="0 0 374 102.879">
  <g id="Grupo_2190" data-name="Grupo 2190" transform="translate(-1376.431 -1013.447)">
    <path id="Trazado_7355" data-name="Trazado 7355" d="M1513.71,1051.386v-9.06c0-5.1-1.121-8.5-6.581-8.5a10.13,10.13,0,0,0-5.391,1.547l-.089.053.254,4.5.246-.252a6.752,6.752,0,0,1,4.485-1.968c2.687,0,2.976,2.64,2.976,3.778v.591h-.657c-4.19,0-9,.82-9,7.214,0,4.1,2.61,6.247,5.186,6.247a5.255,5.255,0,0,0,4.615-2.876,11.313,11.313,0,0,0,.219,2.43l.035.127h3.954l-.02-.19a31.425,31.425,0,0,1-.229-3.643m-4.1-5.314c0,3.922-.994,5.746-3.134,5.746-1.469,0-2.422-1.181-2.422-3.007,0-2.654,1.552-3.736,5.357-3.736h.2Zm-16.168-11.921-.068,1.456s-.039,1.046-.055,1.541c-.835-1.692-2.039-3.322-4.426-3.322-3.955,0-6.227,3.977-6.227,10.916,0,9.719,4.617,10.477,6.032,10.477a4.62,4.62,0,0,0,4.341-3.059v1.359c0,2.955-.484,6.351-4.278,6.351a8.9,8.9,0,0,1-4.874-1.743l-.227-.157-.248,4.836.1.047a14.137,14.137,0,0,0,5.838,1.3c7.019,0,7.92-6.026,7.92-11.278v-15.293l.138-3.424-.164-.008Zm-3.8,17.066c-1.147,0-2.488-1.769-2.488-6.753,0-4.407.885-6.478,2.784-6.514a2.093,2.093,0,0,1,1.6.7c.968,1.013,1.5,3.063,1.5,5.769,0,4.76-1.016,6.794-3.394,6.794m36.171-17.39a4.934,4.934,0,0,0-4.4,3.146c-.019-.554-.05-1.4-.05-1.4l-.067-1.423h-4.112l.022.185a34.052,34.052,0,0,1,.127,3.4v17.48h4.363v-12.245c0-1.757.353-4.7,2.712-4.7,1.552,0,2.154,1.218,2.154,4.344v12.606h4.366v-13.534c0-5.216-1.724-7.859-5.118-7.859m81.4-7.769h-4.172l-2.211,6.134h2.864Zm-146.743.323c-4.462,0-9.229,3.839-9.229,14.619s4.768,14.625,9.229,14.625,9.224-3.844,9.224-14.625-4.766-14.619-9.224-14.619m0,24.958c-2.972,0-4.606-3.672-4.606-10.339s1.634-10.333,4.606-10.333,4.6,3.668,4.6,10.333-1.633,10.339-4.6,10.339m19.953-17.511c-2.455,0-3.692,2.279-4.2,3.595-.02-.669-.05-1.6-.05-1.6l-.066-1.667h-3.98l.016.185a33.335,33.335,0,0,1,.13,3.4v17.48h4.363V1043.7c0-4.587,2.549-4.94,3.33-4.94a3.312,3.312,0,0,1,1.1.19l.208.071v-5.038l-.342-.077Zm107.107-3.244h4.491v-5.249h-4.491Zm-3.165,19.861a5.488,5.488,0,0,1-2.78.974c-2.776,0-4.438-2.5-4.438-6.675,0-4.573,1.389-6.793,4.245-6.793a5.423,5.423,0,0,1,2.758.981l.222.138.251-4.333-.1-.045a9.38,9.38,0,0,0-3.588-.864c-5.184,0-8.284,4.065-8.284,10.88,0,6.782,3.013,10.832,8.05,10.832a9.625,9.625,0,0,0,4.045-.86l.1-.047-.251-4.377Zm3.229,4.775h4.36v-21.068h-4.36Zm15.392-21.393c-2.275,0-7.564,1.055-7.564,10.837,0,9.461,4.739,10.875,7.564,10.875s7.529-1.414,7.529-10.875c0-9.782-5.266-10.837-7.529-10.837m0,17.831c-2.544,0-3.068-3.8-3.068-6.994,0-3.175.524-6.956,3.068-6.956,2.013,0,3.038,2.34,3.038,6.956,0,4.639-1.025,6.994-3.038,6.994m-68.135,3.562h4.363v-21.068h-4.363Zm-.066-24.636h4.5v-5.249h-4.5Zm34.7,20.8v-9.06c0-5.1-1.119-8.5-6.586-8.5a10.14,10.14,0,0,0-5.387,1.547l-.093.053.259,4.5.246-.252a6.747,6.747,0,0,1,4.485-1.968c2.687,0,2.975,2.64,2.975,3.778v.591h-.651c-4.195,0-9,.82-9,7.214,0,4.1,2.6,6.247,5.18,6.247a5.248,5.248,0,0,0,4.612-2.876,12.025,12.025,0,0,0,.225,2.43l.028.127h3.96l-.027-.19a31.565,31.565,0,0,1-.227-3.643m-4.1-5.314c0,3.922-1,5.746-3.137,5.746-1.467,0-2.417-1.181-2.417-3.007,0-2.654,1.547-3.736,5.353-3.736h.2Zm-11.618-7.44v-4.481h-11.314v4.118h6.826c-.282.5-7.053,12.424-7.053,12.424v4.526h11.764V1051.1h-7.149c.273-.494,6.926-12.464,6.926-12.464m68.3-4.805a4.929,4.929,0,0,0-4.391,3.145c-.022-.552-.055-1.392-.055-1.392l-.066-1.428h-4.114l.019.185a33.969,33.969,0,0,1,.13,3.4v17.48h4.364v-12.245c0-1.757.351-4.7,2.71-4.7,1.552,0,2.157,1.218,2.157,4.344v12.606h4.36v-13.534c0-5.216-1.72-7.859-5.115-7.859" transform="translate(42.471 6.748)" fill="#2b85bb"/>
    <path id="Trazado_7356" data-name="Trazado 7356" d="M1545.731,1076.961v-8.576c0-4.84-1.06-8.058-6.236-8.058a9.59,9.59,0,0,0-5.1,1.469l-.089.047.246,4.264.227-.238a6.408,6.408,0,0,1,4.253-1.864c2.543,0,2.822,2.5,2.822,3.579v.561h-.622c-3.973,0-8.525.779-8.525,6.837,0,3.881,2.469,5.918,4.91,5.918a4.979,4.979,0,0,0,4.369-2.728,11.093,11.093,0,0,0,.208,2.3l.03.118h3.75l-.022-.18a28.987,28.987,0,0,1-.216-3.451m-3.882-5.032c0,3.714-.942,5.445-2.971,5.445-1.392,0-2.291-1.119-2.291-2.85,0-2.516,1.468-3.542,5.07-3.542h.191Zm-41.506-11.6a4.672,4.672,0,0,0-4.165,2.983c-.019-.525-.05-1.331-.05-1.331l-.063-1.345h-3.894l.016.179a31.65,31.65,0,0,1,.126,3.224v16.558h4.134v-11.6c0-1.665.331-4.455,2.565-4.455,1.475,0,2.044,1.152,2.044,4.11v11.943h4.135v-12.821c0-4.941-1.633-7.445-4.847-7.445m-37.845,12.809c-.216-.964-4.366-19.483-4.366-19.483h-6.168v26.939h3.885v-21.306c.426,1.839,4.951,21.306,4.951,21.306h3.049s4.777-19.61,5.206-21.357v21.357h3.882v-26.939h-5.984s-4.234,18.524-4.455,19.483m26.47,4.057v-16.561h-4.136v11.411c0,2.118-.428,4.644-2.475,4.644-1.516,0-2.137-1.191-2.137-4.11v-11.944h-4.131v12.821c0,4.94,1.632,7.447,4.847,7.447,2.387,0,3.464-1.687,4.16-3.015.021.521.05,1.367.05,1.367l.066,1.339.143,0h3.748l-.014-.179a31.468,31.468,0,0,1-.122-3.22m36.655-19.939h4.253v-4.974h-4.253Zm-3.715,19.823v-25.4h-4.134v11.355a4.365,4.365,0,0,0-4.019-2.7c-3.542,0-5.652,3.85-5.652,10.306,0,6.427,2.146,10.267,5.741,10.267,1.955,0,3.311-1.032,4.181-3.067.014,1.2.069,2.148.122,2.62l.013.14h3.894l-.03-.182a31.154,31.154,0,0,1-.116-3.333m-7.014.031c-1.941,0-2.661-1.811-2.661-6.667,0-4.253.889-6.319,2.723-6.319,2.452,0,2.817,4.032,2.817,6.434,0,2.99-.5,6.553-2.88,6.553m34.649,3.484h4.13v-28.919h-4.13Zm-23.857,0h4.13v-19.96h-4.13Zm140.469-3.631v-8.576c0-4.84-1.064-8.058-6.238-8.058a9.588,9.588,0,0,0-5.107,1.469l-.088.047.243,4.264.235-.238a6.386,6.386,0,0,1,4.25-1.864c2.544,0,2.814,2.5,2.814,3.579v.561h-.619c-3.966,0-8.523.779-8.523,6.837,0,3.881,2.466,5.918,4.908,5.918a4.989,4.989,0,0,0,4.372-2.722,10.633,10.633,0,0,0,.209,2.3l.033.116h3.747l-.022-.18a29.477,29.477,0,0,1-.213-3.451m-3.891-5.032c0,3.714-.942,5.445-2.968,5.445-1.394,0-2.292-1.119-2.292-2.85,0-2.516,1.467-3.542,5.075-3.542h.185Zm28.422,5.264v-16.561h-4.131v11.411c0,2.118-.428,4.644-2.48,4.644-1.511,0-2.132-1.191-2.132-4.11v-11.944h-4.131v12.821c0,4.94,1.629,7.447,4.842,7.447,2.385,0,3.469-1.684,4.165-3.01.017.522.047,1.373.047,1.373l.066,1.328.139,0h3.756l-.02-.179c-.08-.779-.122-1.834-.122-3.22m-20.723,3.4h4.128v-28.919h-4.128Zm37.566-.182a29.527,29.527,0,0,1-.125-3.333v-25.4h-4.134v11.353a4.358,4.358,0,0,0-4.018-2.7c-3.541,0-5.651,3.85-5.651,10.306,0,6.427,2.147,10.267,5.742,10.267,1.952,0,3.3-1.033,4.182-3.067.016,1.188.069,2.145.122,2.62l.014.14h3.89Zm-7.133-3.3c-1.941,0-2.665-1.811-2.665-6.667,0-4.253.892-6.319,2.724-6.319,2.449,0,2.814,4.032,2.814,6.434,0,2.99-.5,6.553-2.874,6.553m-111.738-16.782c-3.946,0-6.7,4.347-6.7,10.571,0,4.836,1.978,10,7.511,10a10.13,10.13,0,0,0,4.822-1.276l.088-.045-.21-4.168-.227.21a5.424,5.424,0,0,1-4.073,1.489c-2.619,0-3.852-1.616-3.9-5.054h9.207v-1.08c0-8.8-3.541-10.647-6.517-10.647m-2.69,8.429c.033-2.3.745-4.905,2.69-4.905,2.024,0,2.483,2.627,2.5,4.905Zm20.646,11.878h4.131v-29.292h-4.131Zm-27.633-3.557v-25.4h-4.131v11.357a4.365,4.365,0,0,0-4.021-2.7c-3.542,0-5.65,3.85-5.65,10.306,0,6.427,2.145,10.267,5.741,10.267,1.955,0,3.314-1.033,4.179-3.073.016,1.188.074,2.146.119,2.626l.016.14h3.891l-.022-.182a30.26,30.26,0,0,1-.122-3.333m-7.008.031c-1.941,0-2.664-1.811-2.664-6.667,0-4.253.892-6.319,2.721-6.319,2.455,0,2.819,4.032,2.819,6.434,0,2.99-.5,6.553-2.877,6.553m75.046-11.607-2.318-1.6c-1.193-.828-2.217-1.542-2.217-3.45a2.671,2.671,0,0,1,2.844-2.965,8.122,8.122,0,0,1,3.758,1.017l.431.21.2-4.436-.32-.122a11.516,11.516,0,0,0-4.346-.878c-3.457,0-6.945,2.289-6.945,7.4a7.889,7.889,0,0,0,3.588,7.114l2.008,1.373c1.862,1.262,2.742,2.061,2.742,3.907,0,2.721-1.618,3.69-3.129,3.69a7.575,7.575,0,0,1-4.479-1.607l-.224-.177-.234,4.738.066.052a8.465,8.465,0,0,0,5,1.21c4.623,0,7.384-3.057,7.384-8.174,0-3.921-1.34-5.593-3.807-7.3m-20.361,11.459v-8.576c0-4.84-1.06-8.058-6.238-8.058a9.588,9.588,0,0,0-5.1,1.469l-.089.047.243,4.264.235-.238a6.383,6.383,0,0,1,4.253-1.864c2.536,0,2.814,2.5,2.814,3.579v.561h-.621c-3.969,0-8.523.779-8.523,6.837,0,3.881,2.469,5.918,4.905,5.918a5,5,0,0,0,4.377-2.725,10.881,10.881,0,0,0,.207,2.3l.028.116h3.747l-.02-.18a30.247,30.247,0,0,1-.215-3.451m-3.885-5.032c0,3.714-.944,5.445-2.969,5.445-1.389,0-2.293-1.119-2.293-2.85,0-2.516,1.467-3.542,5.074-3.542h.188Z" transform="translate(42.879 21.512)" fill="#2b85bb"/>
    <path id="Trazado_7357" data-name="Trazado 7357" d="M1464.919,1029.253c2.087,2.66,5.722,4.225,7.859,6.89-1.527-7.876-7.207-14.316-13.918-15.848,3.271,2.643,3.977,6.3,6.059,8.958m-80.676,19.974c4.62-10.779,11.521-8.5,14.442-18.77-1.646,3.15-9.184,4.481-12.684,12.559,1.787-4.8.892-12.14,3.913-16.1-9.031,7.142-5.186,18.693-5.67,22.316m8.373,25.855c.828,4.2-1.6,10.259,2.264,16.049-4.013-4.819-12.5-6.042-15.979-13.374,4.333,17.909,15.617,14.217,20.714,18.113-4.192-6.448-.765-10.735-7-20.788m-1.3,11.247c-2.5-10.011,1.938-13.463-1.431-23.072-.353,5.409-3.717,8.05-1.45,17.939-4.005-8.379-10.207-11.5-12-17.246.124,15.713,11.906,18.039,14.882,22.379m18.1,16.782c-3.466-5.143-1.1-8.05-10.845-17.4,2.066,3.411-.063,7.7,6.509,14.374-6.429-4.067-15.305-2.325-19.576-7.757,7.343,15.059,20.255,8.9,23.912,10.779m47.168-3.022c6.571-6.672,4.444-10.963,6.51-14.374-9.746,9.346-7.379,12.253-10.851,17.4,3.664-1.875,16.575,4.28,23.916-10.779-4.272,5.432-13.147,3.69-19.575,7.757m10.194-8.958c3.866-5.789,1.43-11.844,2.264-16.049-6.236,10.052-2.808,14.34-7,20.788,5.1-3.9,16.381-.2,20.714-18.113-3.471,7.332-11.966,8.555-15.975,13.374m-15.573,12.692a45.121,45.121,0,0,0-10.656-1.709,24.286,24.286,0,0,0-9.72,1.765,24.245,24.245,0,0,0-9.717-1.765,45.129,45.129,0,0,0-10.659,1.709c-5.86,1.671-10.93,2.968-15.344.572,4.23,4.026,9.172,5.46,16.31,4.637,5.948-.687,10.74-3.866,16.342-3.827.074,0,.143.008.216.008a30.67,30.67,0,0,0-9.237,7.7l2.707.389s2.842-6.125,9.381-7.718c6.542,1.593,9.386,7.718,9.386,7.718l2.7-.389a30.592,30.592,0,0,0-9.237-7.7c.075,0,.144-.008.223-.008,5.6-.039,10.394,3.14,16.338,3.827,7.141.823,12.079-.611,16.313-4.637-4.418,2.4-9.485,1.1-15.349-.572m-60.916-51.415c-2.419,4.968-6.175,6.11-5.775,16.37-2.027-9.117-6.874-12.507-6.807-18.332-3.372,15.2,5.63,17.006,7.943,23.376-.342-9.13,5.1-10.972,4.639-21.413m3.375-11.742c-.842,1.267-1.436,1.8-3.676,3.783a19.806,19.806,0,0,0-6.536,11.432c.23-5.573-2.98-13.584-.84-19.421-8.277,12.516.47,20.015.778,24.548,2.145-8.726,7.072-8.793,10.275-20.342m84.547,15.214a19.805,19.805,0,0,0-6.536-11.432c-2.242-1.981-2.838-2.516-3.676-3.783,3.2,11.549,8.133,11.617,10.27,20.342.312-4.534,9.06-12.032.782-24.548,2.14,5.837-1.075,13.847-.84,19.421m7.015,8.07c-1.795,5.749-8,8.867-12.005,17.246,2.27-9.889-1.1-12.53-1.447-17.939-3.372,9.608,1.068,13.06-1.431,23.072,2.975-4.339,14.758-6.666,14.883-22.379m-13.852-11.543c-.458,10.441,4.979,12.283,4.639,21.413,2.311-6.37,11.315-8.177,7.942-23.376.063,5.825-4.78,9.215-6.805,18.332.4-10.26-3.353-11.4-5.775-16.37m-74.64-23.154c2.085-2.662,2.794-6.315,6.062-8.958-6.71,1.531-12.392,7.972-13.916,15.848,2.135-2.665,5.77-4.23,7.854-6.89m66.233,1.2c2.925,10.271,9.825,7.991,14.443,18.77-.484-3.623,3.366-15.174-5.666-22.316,3.021,3.965,2.126,11.3,3.911,16.1-3.5-8.078-11.041-9.409-12.689-12.559m-23.426,5.835a21.556,21.556,0,0,0-5.5-1.608c-.008.434-.016.883-.027,1.32a20.339,20.339,0,0,1,5.075,1.5,3.7,3.7,0,0,0,.453-1.209m-1.4-12.715.368-.358-.7-.315-1.847-.042-.481.357-1.089-.1-.01.285a18.326,18.326,0,0,1,1.9.213l.9-.088Zm-3.554,42.633c0-.342-.416-.669-1.032-.98h-.111c0,.274-.028,1.61-.039,2.267.757-.368,1.182-.759,1.182-1.285m-21.377-25.127a6.437,6.437,0,0,1,.154-.724,3,3,0,0,1-.751.083Zm17.658,58.159c20.758,0,37.641-18.093,37.641-40.335,0-20.856-14.857-38.067-33.824-40.125-.014.08-.03.158-.049.232-.073.392-.138.746-.193,1.058a35.355,35.355,0,0,1,21.916,10.994l-4.154,4.452.159-.785-.543-.259-.752-.046.16-.512-.5-1.822-1.032-1.216-3.248-1.836-.277.318-.588.185a10.946,10.946,0,0,1,1.717,5.846q0,.4-.017.792l1.607,2.165-.751.191.5.806-1.422,1.517-.569-1.163a10.507,10.507,0,0,1-1.074,2.27c.105.105.215.208.318.317l-4.371,4.684c-.263-.271-.545-.531-.825-.781-.42.207-.848.4-1.283.582.127.1.251.2.375.306l-.224.243-.51.306-.194.549-.32-.342-.917.331.251.433.638-.182.415.033.028-.238.323-.172.1-.2.571-.169.45-.024c.088.085.176.168.263.254l-1.734,1.861-.13-.2-1.814.326-.4.431-.4.05,1.129-1.154-.408-.219-1.046,1.51.306-.036-.019.557.384.157.077.593-.63-.135-.66.132-1.59-.878s-.088,4.578-.132,6.88c3.755,1.353,7.738,3.308,7.738,8.445a6.459,6.459,0,0,1-2.7,5.416l.011.006a.858.858,0,0,1-.081.058l-.007,0c-.041.031-.082.06-.12.089a19.946,19.946,0,0,1-5.167,2.218c-.011,0-.052,3.593-.052,3.593,2.7,1.438,5.962,3.524,5.662,9.492-.036,1.47-.574,1.875-1.031,2v.006a26.881,26.881,0,0,1-4.866.823c-.01.462-.013.9-.02,1.315a29.257,29.257,0,0,0,18.764-8.879l4.374,4.683a34.629,34.629,0,0,1-50.343.108l4.374-4.684a29.206,29.206,0,0,0,18.5,8.759c-.006-.4-.014-.842-.022-1.312a28.083,28.083,0,0,1-17.613-8.374l1.168-1.253,1.6.2.851-.984,2.231.085.331-.832-.079-.351a21.855,21.855,0,0,0,11.4,4.838c-.011-.511-.019-.956-.025-1.318a20.92,20.92,0,0,1-12.239-6l4.375-4.686a15.362,15.362,0,0,0,3.548,2.547,4.742,4.742,0,0,1,.442-1.229,14.329,14.329,0,0,1-3.125-2.245l4.385-4.7a7.891,7.891,0,0,0,2.345,1.4c-.006-.467-.019-.952-.025-1.414a6.572,6.572,0,0,1-1.45-.916l1.242-1.325c-.439-.143-.875-.29-1.312-.448l-.825.887a7.242,7.242,0,0,1-1.053-1.667,14.579,14.579,0,0,1-2.165-1.245,9.222,9.222,0,0,1-4.057-7.961,10.012,10.012,0,0,1,1.768-6.059l-4.363-4.673a21.019,21.019,0,0,1,11.676-6.158c-.008-.458-.016-.9-.024-1.318a22.209,22.209,0,0,0-12.515,6.55l-.74-.787c-.163.312-.361.712-.585,1.218l.466.5a25.286,25.286,0,0,0-6.181,16.321h-6.191a32.13,32.13,0,0,1,8-21.005l1.968,2.105c.088,0,.18,0,.277-.009a2.9,2.9,0,0,0,1.116-.35l-2.5-2.676a29.345,29.345,0,0,1,4.3-3.686,8.39,8.39,0,0,1,.3-.977,15,15,0,0,1,.947-1.358,30.629,30.629,0,0,0-6.421,5.092l-4.371-4.681a35.316,35.316,0,0,1,21.686-10.867c-.03-.163-.055-.287-.055-.287-.056-.309-.115-.652-.177-1.006-18.916,2.112-33.71,19.3-33.71,40.111,0,22.242,16.887,40.335,37.638,40.335m8.125-27.864v-.034l.009.028-.009.006m18.226-39.38a40.358,40.358,0,0,1,10.063,26.5h-6.183a34.022,34.022,0,0,0-3.23-14.153l.057-.119.428.243.1-.349-1.108-2.077-1.309-1.942-1.538-1.375q-.783-1.058-1.654-2.046Zm-7.879,8.494,1.489.071.353.458-.177.672,2.063,1.38.4-.056,2.641,3.239,1.079-.409a32.772,32.772,0,0,1,2.685,12.656h-6.189a26.1,26.1,0,0,0-.574-5.045l.284-.409.381-2.074-.287-2.235-.748-2.565-1.725-2.7.419.238.213-.229-1.383-1-.1.332,1.386,2.123.786,1.739.558,1.721.177,1.159.288,1.948-.52.045s-.6-1.2-.781-1.692l.277-.441-.528-.812v-.809l-.378-.51-.469.064c-.169-.334-.342-.666-.528-.992l.333.187.093-.1-.18-.417.4-.246-.184-.241-.594.241.216-1-.351-.216-.32.8a24.35,24.35,0,0,0-2.253-3.063Zm-1.237,15.537,1.108-.651,1.135-.188.248-.593.627-.406.246-.566.2-.978c.092.343.177.7.249,1.047l-.6,1.916-.025.647.873-1.245a25.258,25.258,0,0,1,.307,3.488h-5.421l-.129-.5.627-.538.129-.324.278-.22.73-.078.077-.353Zm-7.426-4.562.553-.135-.025-.143-.55-.4.187-1.251.662-.709a16.006,16.006,0,0,1,1.152,1.6l-.235.771-.605-.464-.461.135.231.458h.227l-.254.672-.177-.267Zm2.37,22.01-1.336-.406-.4.161-.756-.622-.712-.275c.351-.27.693-.553,1.019-.853l1.1.831.839.475.418.447Zm-.682-25.566,4.377-4.691a23.234,23.234,0,0,1,2.708,3.894l-.547.16.031,1.049,1.643,1.107a24.517,24.517,0,0,1,1.021,2.964l-.287.45-.591.4-.151.975-.4.238-.336.431-.343-.135-.6-.028.353-.508.249-1.325.4-.268-1.182-1.213-.88.323-.205.891-.555.648-.575-.514-.207-.546.331-.218.185.358.266-.1-.113-.6-.385-.024-.03.243-.249.055-1.358-1.7-.461-.381.174-.2.415-.157-.386-.157s-.481.117-.532.117l.271.365-.69-.016a16.365,16.365,0,0,0-1.361-1.887m2.231,24.946-.594-.632.454-.637.572-1.245-.224-.351.381-.92-.044-.834-.23-.862-.539-.2-.2.489-.318-.1a16.992,16.992,0,0,0,1.292-2.419l.558-.257.307-.451.155.19.373-.486-.3-.409.276-.078.506.218.958.028.575-.325,1.511-.433-.285-.535-.1-.652.811.379.3-.188-.149-.677-1,.4-1.093-.242-.832-1.825h4.734a23.887,23.887,0,0,1-5.971,15.073l-.654-.694.284-.933-.5-2.046Zm.836,12.932.58-1.339-.223-.594.854-.807v-.486l-.73-.489.6-1.292.909-1.268-.909-1.049h-.679l-.421-.732c.362-.323.721-.652,1.068-1l4.377,4.691a29.34,29.34,0,0,1-5.427,4.369m5.449-6.193.484-.577-.456-2.563-.318-.135.194-.434-1.035-.351-.2.92-.1,1.16-.216.212-1.886-2.021a25.228,25.228,0,0,0,6.33-16h6.194a32.111,32.111,0,0,1-8.15,20.689Zm1.706,1.825a33.432,33.432,0,0,0,8.5-21.614h6.188a40.336,40.336,0,0,1-10.322,26.3ZM1415.35,1075q-.675-.746-1.281-1.552l.191-1.674-.657-1.611-.153-2.516-.731-1.527.154-.953-.887-1.811-.771-.411.312-.969-.321-.765.316-.872h.85l.3-.53h1.446l.226.456-.27,1.574-.175.273.536,1.267-.353.21-.249-.337-.1.127.246.751.427.878.2-.02.116-.789-.207-.287-.02-.533-.061-1.1.3-1.944-.295-.527h1.039a17.028,17.028,0,0,0,4.253,10.5Zm-4.087-12.957-.589.98h-1l-.077-.061a24.8,24.8,0,0,1-.32-3.152h1.866l-.445,1.6Zm2.033-4.546.115-1.325.732-.455,1.309.248.2.255a17.343,17.343,0,0,0-.2,2.281h-1.486Zm6.277,4.951.309-.166.807.651-.345.306.9.651-.053-.693.484-.864.5.578.519.8-.932.224.422.908.654-.37-.084-.292.489-.353.285-1.444a8.7,8.7,0,0,0,1.42,2.33l-4.37,4.679a15.611,15.611,0,0,1-3.83-8.794l.89,1.02.843-.011Zm-4.481-19.339,4.371,4.68a16.588,16.588,0,0,0-2.319,3.585l-.309-.022-.615.21-.212-.021-.655.647.832-.141.74-.2c-.044.1-.086.2-.132.3l-.651.431h-.307l-.964.784-.926-.085-1.345,2.684.271.538-.734.867-.11,1.132h-2.765a23.979,23.979,0,0,1,5.828-15.393m-5.65,35.35,1.384.867.293.208-1.008,1.077c-.47-.516-.92-1.058-1.359-1.611Zm-1.383-18.649c.02.644.072,1.282.138,1.916l-.754.183-.158.825-1.579,2.146.039,2.955-1.616.577-.886.011a33.157,33.157,0,0,1-1.383-8.613Zm-6.109,8.57-.365-.075-.343-.411-1.737-.165.541.785-1.61-.329.423-.414-.4-.412-1.154.539-.419.824.162,1.883,1.329,3.428.646,1.074.37.146-1.016-2.054-.216-1.044.227-.26-.14-.575.605.088.931,1.513.235.1-.025-1.1.378.231.081.6.983.279.408-.314.136.105-.012.807.434.569.524.127,1.146,2.077.7.21.211-.975a32.543,32.543,0,0,0,4.266,5.9l-4.372,4.681a40.3,40.3,0,0,1-10.422-26.411h6.188a34.219,34.219,0,0,0,1.307,8.57m2.667-36.5,4.371,4.683a33.488,33.488,0,0,0-8.351,21.935h-6.186a40.355,40.355,0,0,1,10.166-26.617m44.776-2.416-.378-.648-.8-.431-.632.513.809.459.9.7Zm-3.747,18.7.022.516,1.075-.345.326-.7-.742-1.038.394-.635,1,.765.184-.157-.2-.155-.227-.456.411-.255-.4-.564-.936.51-.331.61-.182.55.409.742-.15.351Zm-44.724,29.733.074-.3-.558-1.295-.659-.263Zm25.289-24.911a2.953,2.953,0,0,0,1.779,2.576s0-.191-.008-.5l-.723-.773.383-.743.312-.1c-.025-1.3-.049-2.75-.057-2.95l-.055.006a2.786,2.786,0,0,0-1.632,2.478" transform="translate(0 3.028)" fill="#2b85bb"/>
    <path id="Trazado_7358" data-name="Trazado 7358" d="M1412.593,1059.872a8.255,8.255,0,0,1,4.479,5.264c.326-4.568-2.058-6.547-4.429-7.883l-.05,2.618" transform="translate(20.528 24.868)" fill="#2b85bb"/>
    <path id="Trazado_7359" data-name="Trazado 7359" d="M1430.312,1033.226c0-4.146-2.811-8.744-9.687-10.369a14.328,14.328,0,0,0-2.1-.26c-.012.624-.042,2.055-.042,2.055-.013.452-.042,2.112-.052,2.468a9.826,9.826,0,0,1,1.322.2c4,1.022,5.426,3.48,5.426,5.906,0,3.938-3.142,5.421-7,6.542-.42.124-.848.24-1.282.359-1.169.312-2.377.613-3.565.953q-.639.19-1.267.393c-4.281,1.4-7.958,3.606-7.958,9.271,0,5.611,4.194,7.71,8.292,9.061q-.045-2.422-.088-4.865c-1.809-.908-3.087-2.1-3.087-4.121,0-1.963,1.165-3.151,2.941-4.013a13.408,13.408,0,0,1,1.264-.527c1.021-.375,2.167-.688,3.369-1l1.277-.328c5.771-1.5,12.238-3.435,12.238-11.726" transform="translate(15.711 5.194)" fill="#2b85bb"/>
    <path id="Trazado_7360" data-name="Trazado 7360" d="M1407.6,1060.337c.009,2.267,1.563,3.505,3.123,4.437,0-.381-.063-3.889-.066-3.947.031-.7.666-1.119,1.177-1.38a24.116,24.116,0,0,1,2.477-1.016c.461-.169.858-.339,1.3-.481,3.129-1.008,6.747-2.3,6.747-6.374s-3.1-5.758-6.5-7.016c-.022,1.3-.058,3.2-.08,4.51,1.431.607,2.381,1.339,2.381,2.505,0,1.456-1.458,2.3-2.49,2.726-.428.176-1.085.411-1.264.472-.834.277-1.732.6-2.566.928a12.038,12.038,0,0,0-1.268.586c-1.466.806-2.983,1.986-2.975,4.049" transform="translate(17.693 17.662)" fill="#2b85bb"/>
    <path id="Trazado_7361" data-name="Trazado 7361" d="M1414.593,1023.008a23.646,23.646,0,0,0-3.772,1.649c-1.352.478-3.253.561-5.219,2.855a29.969,29.969,0,0,0-1.8,2.493c-.593.917-.619,2.391-1.055,3.179a2.814,2.814,0,0,0-.481,1.8l.019.035a3.123,3.123,0,0,1-.72,1.433,2.656,2.656,0,0,1-2.549,1.036,2.62,2.62,0,0,0,2.131-.191,18.147,18.147,0,0,0-.474,1.91,9.227,9.227,0,0,1,2.214-3.576c.433.107,1.328.063,2.986-.956,1.875-1.155,4.7-3.041,5.5-4.231a7.481,7.481,0,0,1,3.323-2.687c-.031-1.8-.066-3.4-.1-4.747m-8.194,7.95-.967.226,1.428-2.373,1.359.045Z" transform="translate(12.819 5.428)" fill="#2b85bb"/>
    <path id="Trazado_7362" data-name="Trazado 7362" d="M1412.023,1054.534c-.18.068-.651.287-.947.4-.315.124-.712.292-.712.412,0,.033.3,17.578.3,17.962,0,3.615,1.717,3.637,1.717,0,0-.254.35-19.016.35-19.016s-.415.135-.708.246" transform="translate(19.263 23.184)" fill="#2b85bb"/>
    <path id="Trazado_7363" data-name="Trazado 7363" d="M1410.414,1058.01c.536-.2,1.068-.375,1.564-.541.373-.122.718-.237,1.036-.35.022-1.1.315-16.376.368-19.151a31.505,31.505,0,0,0-3.314,1.022c.041,2.083.315,17.349.345,19.019" transform="translate(19.095 13.92)" fill="#2b85bb"/>
    <path id="Trazado_7364" data-name="Trazado 7364" d="M1412.342,1013.447c-4.824,0-2.776,7.664-2.391,10.163.019.118.388,17.32.466,21.267.73-.207,1.456-.4,2.165-.583.506-.133.991-.263,1.456-.389.074-3.8.43-20.22.441-20.325.289-2.673,2.819-10.134-2.136-10.134" transform="translate(18.597)" fill="#2b85bb"/>
  </g>
</svg>
