<svg xmlns="http://www.w3.org/2000/svg" width="118" height="118" viewBox="0 0 118 118">
  <g id="Grupo_3889" data-name="Grupo 3889" transform="translate(-78 -1313.97)">
    <g id="Grupo_2191" data-name="Grupo 2191" transform="translate(3 1120.192)">
      <g id="Grupo_1173" data-name="Grupo 1173">
        <circle id="Elipse_520" data-name="Elipse 520" cx="59" cy="59" r="59" transform="translate(75 193.778)" fill="#57b8e8"/>
        <circle id="Elipse_521" data-name="Elipse 521" cx="53" cy="53" r="53" transform="translate(81 199.778)" fill="#fff"/>
      </g>
    </g>
    <g id="Grupo_2194" data-name="Grupo 2194" transform="translate(-2719.417 205.396)">
      <path id="Trazado_5522" data-name="Trazado 5522" d="M2878.9,1188.466a1.391,1.391,0,1,0,1.392,1.392,1.391,1.391,0,0,0-1.392-1.392Z" fill="#0b2d4e"/>
      <path id="Trazado_5523" data-name="Trazado 5523" d="M2888.584,1196.193a13.889,13.889,0,0,0-3.938-4.782,1.392,1.392,0,0,0-1.7,2.206,11.129,11.129,0,0,1,3.146,3.818,1.391,1.391,0,0,0,2.489-1.242Z" fill="#0b2d4e"/>
      <g id="Grupo_3338" data-name="Grupo 3338">
        <g id="Grupo_3331" data-name="Grupo 3331">
          <path id="Trazado_5534" data-name="Trazado 5534" d="M2845.726,1138.872a6.024,6.024,0,1,0-5.911,7.187Z" fill="#ffd88e"/>
        </g>
        <g id="Grupo_3332" data-name="Grupo 3332">
          <path id="Trazado_5535" data-name="Trazado 5535" d="M2872.323,1148.343a17.438,17.438,0,0,0-16.76-12.562,17.187,17.187,0,0,0-9.609,31.436,5.127,5.127,0,0,0,5.134-5.1,3.013,3.013,0,0,1-1.1-4.118l1.673-2.9a3.014,3.014,0,1,1,5.221,3.014h0Z" fill="#ffd88e"/>
        </g>
        <g id="Grupo_3333" data-name="Grupo 3333">
          <path id="Trazado_5536" data-name="Trazado 5536" d="M2872.723,1166.59l-2.276-6.02.562-1.123a16.45,16.45,0,0,0,1.314-11.1,15.037,15.037,0,0,0-11.236,5.044l-4.208,4.73a3.014,3.014,0,0,0-5.221-3.014h0l-1.673,2.9a3.014,3.014,0,0,0,1.1,4.118,5.125,5.125,0,0,1-5.012,5.1l-.8-.476-4.431,13.29,14.862,1.523,2.594-7.052,4.538,1.263a4.71,4.71,0,0,0,5.8-3.275l1.242-4.46,1.215.338a1.356,1.356,0,0,0,1.632-1.786Z" fill="#f2b394"/>
        </g>
        <g id="Grupo_3334" data-name="Grupo 3334">
          <path id="Trazado_5537" data-name="Trazado 5537" d="M2876.734,1182.4l.727-1.035a5.981,5.981,0,0,0-.753-7.758l-1.721-1.65-2.943,4.47,2.22-2.22a2.587,2.587,0,1,0-3.6-3.714l-.063.064-.712.718a9.059,9.059,0,0,0-2.623,6.376v4.749Z" fill="#ffd0c7"/>
        </g>
        <g id="Grupo_3335" data-name="Grupo 3335">
          <path id="Trazado_5538" data-name="Trazado 5538" d="M2867.263,1182.4h9.471v20.8h-9.471Z" fill="#ff5c7d"/>
        </g>
        <g id="Grupo_3336" data-name="Grupo 3336">
          <path id="Trazado_5539" data-name="Trazado 5539" d="M2846.588,1178.871a14.763,14.763,0,0,0-14.765,14.763h0v9.567h39.8l-1.488-4.047a33.768,33.768,0,0,0-17.215-18.853,14.758,14.758,0,0,0-6.332-1.427Z" fill="#ff5c7d"/>
        </g>
        <g id="Grupo_3337" data-name="Grupo 3337">
          <path id="Trazado_5540" data-name="Trazado 5540" d="M2876.258,1171.223a4,4,0,0,0-2.506-2.621,2.745,2.745,0,0,0,.286-2.509l-2.058-5.445.287-.571a17.9,17.9,0,0,0,1.433-12.024c-.009-.041-.019-.081-.031-.12a18.587,18.587,0,0,0-6.676-9.709,19.05,19.05,0,0,0-11.43-3.849,18.476,18.476,0,0,0-9.083,2.374,7.43,7.43,0,1,0-8.6,10.46,18.6,18.6,0,0,0,5.751,20.018L2839.709,1179a16.134,16.134,0,0,0-3.618,2.333,1.406,1.406,0,1,0,1.826,2.139,13.359,13.359,0,0,1,14.4-1.905,32.187,32.187,0,0,1,16.5,18.069l1.488,4.047a1.406,1.406,0,1,0,2.64-.97l-1.488-4.047a35.2,35.2,0,0,0-2.783-5.846v-9.02h6.659v19.4a1.406,1.406,0,1,0,2.812,0h0v-20.361l.472-.671a7.347,7.347,0,0,0-.93-9.582Zm-41.06-31.188a4.618,4.618,0,0,1,8.91-1.7,18.7,18.7,0,0,0-5.132,6.243,4.625,4.625,0,0,1-3.778-4.543Zm4.585,12.932a15.8,15.8,0,0,1,15.78-15.78,16.017,16.017,0,0,1,14.835,9.863,16.466,16.466,0,0,0-10.362,5.4l-1.86,2.091a4.42,4.42,0,0,0-7.736-.144l-1.673,2.9a4.427,4.427,0,0,0,.855,5.484,3.723,3.723,0,0,1-3.258,3.008,15.768,15.768,0,0,1-6.581-12.822Zm6.8,24.5a16.139,16.139,0,0,0-3.532.391l3.08-9.237a6.528,6.528,0,0,0,6.359-6.5,1.41,1.41,0,0,0-.7-1.218,1.607,1.607,0,0,1-.593-2.194l0-.006,1.673-2.9a1.608,1.608,0,0,1,2.786,1.608,1.406,1.406,0,0,0,2.268,1.638l4.207-4.73a13.645,13.645,0,0,1,9.032-4.517,15.079,15.079,0,0,1-1.42,9.019l-.563,1.123a1.4,1.4,0,0,0-.058,1.127l2.241,5.928-1.119-.312a1.406,1.406,0,0,0-1.732.978l-.543,1.951h-.29a2.226,2.226,0,0,0-1.454,3.913l.128.111a3.287,3.287,0,0,1-3.152.782l-7.132-1.985a1.406,1.406,0,0,0-.769,2.7l.015,0,1.125.313-1.566,4.256q-.671-.354-1.36-.684a16.28,16.28,0,0,0-6.935-1.562Zm17.827,9.623a35.009,35.009,0,0,0-7.063-5.942l1.815-4.934,3.288.916a6.131,6.131,0,0,0,1.65.226,6.048,6.048,0,0,0,1.767-.267c-.01.186-.015.372-.015.56v11.123q-.694-.861-1.442-1.684Zm4.254-6.1v-3.343a7.6,7.6,0,0,1,2.216-5.386l.712-.718a1.171,1.171,0,0,1,.836-.35h0a1.181,1.181,0,0,1,.835,2.015l-1.179,1.18a1.406,1.406,0,0,0,1.989,1.989l1.179-1.18a4.049,4.049,0,0,0,.477-.577,4.549,4.549,0,0,1,.575,5.933l-.308.437Z"/>
          <path id="Trazado_5541" data-name="Trazado 5541" d="M2831.823,1192.225a1.409,1.409,0,0,0-1.406,1.41v9.567a1.406,1.406,0,1,0,2.812,0h0v-9.572a1.4,1.4,0,0,0-1.4-1.405Z"/>
          <path id="Trazado_5542" data-name="Trazado 5542" d="M2895.385,1170.547h-8.42a1.406,1.406,0,0,0,0,2.812h8.42a1.406,1.406,0,0,0,0-2.812Z"/>
          <path id="Trazado_5543" data-name="Trazado 5543" d="M2884.473,1167.653a1.4,1.4,0,0,0,.705-.191l6.717-3.9a1.406,1.406,0,0,0-1.388-2.446l-.025.015-6.716,3.9a1.407,1.407,0,0,0,.707,2.623Z"/>
          <path id="Trazado_5544" data-name="Trazado 5544" d="M2891.9,1180.346l-6.717-3.9a1.406,1.406,0,0,0-1.412,2.432l6.716,3.9a1.406,1.406,0,1,0,1.438-2.416l-.025-.015Z"/>
          <path id="Trazado_5545" data-name="Trazado 5545" d="M2864.257,1162.207h.763a1.407,1.407,0,1,0,.075-2.813c-.025,0-.05,0-.075,0h-.763a1.407,1.407,0,0,0,0,2.813Z"/>
          <path id="Trazado_5546" data-name="Trazado 5546" d="M2833.18,1186.039a1.407,1.407,0,1,0,1,.412A1.407,1.407,0,0,0,2833.18,1186.039Z"/>
        </g>
      </g>
    </g>
  </g>
</svg>
