<svg xmlns="http://www.w3.org/2000/svg" width="118" height="118" viewBox="0 0 118 118">
  <g id="Grupo_3891" data-name="Grupo 3891" transform="translate(-72 -1620.97)">
    <g id="Grupo_2193" data-name="Grupo 2193" transform="translate(-3 1427.192)">
      <g id="Grupo_1173" data-name="Grupo 1173">
        <circle id="Elipse_520" data-name="Elipse 520" cx="59" cy="59" r="59" transform="translate(75 193.778)" fill="#57b8e8"/>
        <circle id="Elipse_521" data-name="Elipse 521" cx="53" cy="53" r="53" transform="translate(81 199.778)" fill="#fff"/>
      </g>
    </g>
    <g id="Grupo_3366" data-name="Grupo 3366" transform="translate(-2733.355 -2.831)">
      <g id="Grupo_3364" data-name="Grupo 3364">
        <path id="Trazado_5593" data-name="Trazado 5593" d="M2870.087,1662.52a5.974,5.974,0,1,0-11.467,0Z" fill="#ffd88e"/>
        <path id="Trazado_5594" data-name="Trazado 5594" d="M2864.353,1660.836a10.594,10.594,0,0,0-10.594,10.594v8.911a10.594,10.594,0,1,0,21.187.205v-9.116A10.6,10.6,0,0,0,2864.353,1660.836Z" fill="#ffd0c7"/>
        <path id="Trazado_5595" data-name="Trazado 5595" d="M2867.372,1661.275l-1.519,7.65,9.093,3.879v-1.374A10.6,10.6,0,0,0,2867.372,1661.275Z" fill="#ffd88e"/>
        <path id="Trazado_5596" data-name="Trazado 5596" d="M2864.353,1660.836a10.594,10.594,0,0,0-10.594,10.594v1.019h4.045a9.928,9.928,0,0,0,9.929-9.927v-1.131A10.587,10.587,0,0,0,2864.353,1660.836Z" fill="#ffd88e"/>
        <g id="Grupo_3362" data-name="Grupo 3362">
          <path id="Trazado_5597" data-name="Trazado 5597" d="M2858.728,1688.9v3.584a3,3,0,0,1-3,3,21.468,21.468,0,0,0-21.468,21.468h0v1.465h60.187v-1.465a21.469,21.469,0,0,0-21.468-21.468h0a3,3,0,0,1-3-3v-3.607Z" fill="#ff9171"/>
        </g>
        <path id="Trazado_5598" data-name="Trazado 5598" d="M2856.686,1695.887a10.842,10.842,0,0,0,15.333,0h0l.515-.429a3,3,0,0,1-2.556-2.968v-3.607l-11.25.023v3.584a3,3,0,0,1-2.8,2.993Z" fill="#ffd0c7"/>
        <path id="Trazado_5599" data-name="Trazado 5599" d="M2864.353,1690.935a10.592,10.592,0,0,0,10.591-10.591v-.8a9.052,9.052,0,0,1-9.03-.364,2.93,2.93,0,0,0-3.123,0,9.051,9.051,0,0,1-9.029.364v.8a10.591,10.591,0,0,0,10.591,10.591Z" fill="#a0c8ff"/>
        <g id="Grupo_3363" data-name="Grupo 3363">
          <circle id="Elipse_576" data-name="Elipse 576" cx="5.063" cy="5.063" r="5.063" transform="translate(2832.571 1652.049)" fill="#ff9171"/>
          <circle id="Elipse_577" data-name="Elipse 577" cx="5.063" cy="5.063" r="5.063" transform="translate(2886.009 1670.893)" fill="#ff9171"/>
        </g>
      </g>
      <g id="Grupo_3365" data-name="Grupo 3365">
        <path id="Trazado_5600" data-name="Trazado 5600" d="M2844.2,1661.686l-1.107-1.107a6.463,6.463,0,0,0,.857-2.061h1.557a1.406,1.406,0,0,0,0-2.813h-1.562a6.453,6.453,0,0,0-.857-2.061l1.107-1.106a1.406,1.406,0,1,0-1.989-1.989l-1.1,1.106a6.445,6.445,0,0,0-2.061-.856v-1.562a1.406,1.406,0,0,0-2.812,0v1.565a6.441,6.441,0,0,0-2.062.856l-1.106-1.106a1.406,1.406,0,0,0-1.989,1.989h0l1.106,1.106a6.413,6.413,0,0,0-.856,2.061h-1.562a1.406,1.406,0,1,0,0,2.813h1.562a6.413,6.413,0,0,0,.856,2.061l-1.106,1.107a1.406,1.406,0,0,0,1.989,1.989l1.106-1.107a6.407,6.407,0,0,0,2.061.857v1.562a1.407,1.407,0,0,0,2.813,0v-1.562a6.425,6.425,0,0,0,2.061-.857l1.107,1.107a1.406,1.406,0,0,0,1.989-1.989h0Zm-6.563-.918a3.656,3.656,0,1,1,3.656-3.656,3.656,3.656,0,0,1-3.656,3.656Z"/>
        <path id="Trazado_5601" data-name="Trazado 5601" d="M2898.946,1674.549h-1.562a6.439,6.439,0,0,0-.856-2.061l1.106-1.106a1.406,1.406,0,0,0-1.989-1.989h0l-1.106,1.106a6.419,6.419,0,0,0-2.062-.856v-1.563a1.406,1.406,0,0,0-2.812,0v1.563a6.441,6.441,0,0,0-2.062.856l-1.106-1.106a1.406,1.406,0,0,0-1.989,1.989l1.107,1.106a6.409,6.409,0,0,0-.857,2.061H2883.2a1.407,1.407,0,0,0,0,2.813h1.562a6.409,6.409,0,0,0,.857,2.061l-1.106,1.106a1.406,1.406,0,1,0,1.988,1.989l1.107-1.106a6.427,6.427,0,0,0,2.061.856v1.562a1.406,1.406,0,0,0,2.813,0v-1.562a6.445,6.445,0,0,0,2.061-.856l1.106,1.106a1.406,1.406,0,0,0,1.989-1.989l-1.106-1.106a6.439,6.439,0,0,0,.856-2.061h1.562a1.407,1.407,0,0,0,.075-2.813Zm-7.875,5.063a3.657,3.657,0,1,1,3.657-3.657h0a3.661,3.661,0,0,1-3.657,3.657Z"/>
        <path id="Trazado_5602" data-name="Trazado 5602" d="M2872.978,1694.084a1.6,1.6,0,0,1-1.594-1.594v-2.434a11.989,11.989,0,0,0,4.968-9.715v-8.911a11.985,11.985,0,0,0-4.7-9.513,7.38,7.38,0,1,0-14.6,0,11.984,11.984,0,0,0-4.7,9.515v8.911a11.988,11.988,0,0,0,4.968,9.715v2.434a1.6,1.6,0,0,1-1.593,1.594,22.918,22.918,0,0,0-10.823,2.716,1.406,1.406,0,1,0,1.333,2.476,20.1,20.1,0,0,1,9.477-2.384,12.243,12.243,0,0,0,17.287,0,20.085,20.085,0,0,1,20.044,20.062v1.465a1.406,1.406,0,1,0,2.813,0v-1.465a22.9,22.9,0,0,0-22.875-22.875Zm-17.813-20.228h2.639a11.3,11.3,0,0,0,8.075-3.39l7.659,3.267v4.906a7.643,7.643,0,0,1-6.874-.649,4.343,4.343,0,0,0-4.627,0,7.643,7.643,0,0,1-6.874.649Zm18.34-3.195-5.87-2.505a11.242,11.242,0,0,0,1.457-4.594,9.194,9.194,0,0,1,4.412,7.1Zm-9.151-14.393a4.574,4.574,0,0,1,4.538,4.056,11.975,11.975,0,0,0-9.076,0,4.572,4.572,0,0,1,4.538-4.056Zm0,5.974a9.288,9.288,0,0,1,1.979.217v.061a8.532,8.532,0,0,1-8.523,8.523h-2.631a9.2,9.2,0,0,1,9.174-8.8Zm-9.1,19.383a10.463,10.463,0,0,0,8.286-1.259,1.52,1.52,0,0,1,1.618,0,10.465,10.465,0,0,0,8.287,1.259,9.185,9.185,0,0,1-18.191,0Zm3.422,14.134a4.4,4.4,0,0,0,1.455-3.269v-.917a11.969,11.969,0,0,0,8.437,0v.917a4.4,4.4,0,0,0,1.455,3.269,9.434,9.434,0,0,1-11.347,0Z"/>
        <path id="Trazado_5603" data-name="Trazado 5603" d="M2837.427,1705.641a1.406,1.406,0,0,0-1.9.58,22.905,22.905,0,0,0-2.672,10.738v1.465a1.406,1.406,0,1,0,2.812,0v-1.465a20.1,20.1,0,0,1,2.342-9.416A1.408,1.408,0,0,0,2837.427,1705.641Z"/>
        <path id="Trazado_5604" data-name="Trazado 5604" d="M2840.5,1700.424a1.407,1.407,0,1,0,.994.412A1.425,1.425,0,0,0,2840.5,1700.424Z"/>
      </g>
    </g>
  </g>
</svg>
