<svg xmlns="http://www.w3.org/2000/svg" width="81.999" height="73.57" viewBox="0 0 81.999 73.57">
  <g id="Grupo_1211" data-name="Grupo 1211" opacity="0.69">
    <g id="Grupo_1206" data-name="Grupo 1206">
      <g id="Grupo_1205" data-name="Grupo 1205">
        <path id="Trazado_6582" data-name="Trazado 6582" d="M189.693,1210.322l-31.342-54.286a9.642,9.642,0,0,0-16.7,0l-31.342,54.286a9.642,9.642,0,0,0,8.35,14.463h62.684a9.642,9.642,0,0,0,8.351-14.463Zm-4.161,7.24a4.788,4.788,0,0,1-4.19,2.419H118.658a4.838,4.838,0,0,1-4.189-7.257l31.342-54.286a4.837,4.837,0,0,1,8.379,0l31.342,54.286A4.786,4.786,0,0,1,185.532,1217.562Z" transform="translate(-109.001 -1151.215)" fill="#fff"/>
      </g>
    </g>
    <g id="Grupo_1208" data-name="Grupo 1208" transform="translate(38.598 23.974)">
      <g id="Grupo_1207" data-name="Grupo 1207">
        <rect id="Rectángulo_737" data-name="Rectángulo 737" width="4.804" height="24.02" fill="#fff"/>
      </g>
    </g>
    <g id="Grupo_1210" data-name="Grupo 1210" transform="translate(37.797 52.799)">
      <g id="Grupo_1209" data-name="Grupo 1209">
        <path id="Trazado_6583" data-name="Trazado 6583" d="M150,1204.014a3.2,3.2,0,1,0,3.2,3.2A3.206,3.206,0,0,0,150,1204.014Z" transform="translate(-146.798 -1204.014)" fill="#fff"/>
      </g>
    </g>
  </g>
</svg>
