<svg xmlns="http://www.w3.org/2000/svg" width="118" height="118" viewBox="0 0 118 118">
  <g id="Grupo_3892" data-name="Grupo 3892" transform="translate(-109 -3606.97)">
    <g id="Grupo_3804" data-name="Grupo 3804" transform="translate(34 3413.192)">
      <g id="Grupo_1173" data-name="Grupo 1173">
        <circle id="Elipse_520" data-name="Elipse 520" cx="59" cy="59" r="59" transform="translate(75 193.778)" fill="#57b8e8"/>
        <circle id="Elipse_521" data-name="Elipse 521" cx="53" cy="53" r="53" transform="translate(81 199.778)" fill="#fff"/>
      </g>
    </g>
    <g id="Grupo_3811" data-name="Grupo 3811" transform="translate(-1662.516 1487.316)">
      <g id="Grupo_3805" data-name="Grupo 3805" transform="translate(1806.2 2150.292)">
        <path id="Trazado_9816" data-name="Trazado 9816" d="M1817.526,2169.716c2.668-.748,3.793-.04,6.383.638,12.7,3.323,16.733,3.544,28.488,4.943l-.81-7.468c-.238-2.225-.124-2.928.986-4.021,1.755-1.729,4.412-3.06,4.727-8.241-5.717,1.459-6.893,2.367-11.825-.675-14.746-9.091-22.445-1.59-27.517,2.159-4.651-1.693-8.773,1.627-9.44,6.131-.649,4.338-.653,5.772-.653,12.115a19.63,19.63,0,0,1,9.66-5.581Z" transform="translate(-1807.866 -2150.572)" fill="#ffda8f" fill-rule="evenodd"/>
      </g>
      <g id="Grupo_3806" data-name="Grupo 3806" transform="translate(1806.2 2169.116)">
        <path id="Trazado_9817" data-name="Trazado 9817" d="M1830.131,2193.912a6.281,6.281,0,0,1,6.281,6.281,2.324,2.324,0,0,1-2.316,2.319h-7.927a2.327,2.327,0,0,1-2.319-2.319,6.283,6.283,0,0,1,6.28-6.281Zm-5.547,14.929a14.242,14.242,0,0,0,11.1,0c8.374-3.107,15.362-11.757,16.542-19.349a14.148,14.148,0,0,0,.176-2.2v-7.916c-11.756-1.4-15.783-1.62-28.488-4.943-2.59-.678-3.716-1.385-6.383-.638a19.629,19.629,0,0,0-9.66,5.581v7.916a14.685,14.685,0,0,0,.176,2.2c1.184,7.593,8.172,16.242,16.542,19.349Z" transform="translate(-1807.866 -2173.477)" fill="#ffdcd5" fill-rule="evenodd"/>
      </g>
      <g id="Grupo_3807" data-name="Grupo 3807" transform="translate(1799.804 2175.017)">
        <path id="Trazado_9818" data-name="Trazado 9818" d="M1803.585,2180.657c-5.065,0-4.6,10.115,1.146,10.115h1.924a14.675,14.675,0,0,1-.176-2.2v-7.916Z" transform="translate(-1800.083 -2180.657)" fill="#ffdcd5" fill-rule="evenodd"/>
      </g>
      <g id="Grupo_3808" data-name="Grupo 3808" transform="translate(1822.185 2189.551)">
        <path id="Trazado_9819" data-name="Trazado 9819" d="M1829.635,2206.942h7.927a2.324,2.324,0,0,0,2.316-2.319,6.281,6.281,0,1,0-12.562,0,2.327,2.327,0,0,0,2.319,2.319Z" transform="translate(-1827.316 -2198.342)" fill="#ff9eb1" fill-rule="evenodd"/>
      </g>
      <g id="Grupo_3809" data-name="Grupo 3809" transform="translate(1850.556 2175.017)">
        <path id="Trazado_9820" data-name="Trazado 9820" d="M1861.837,2190.771h1.927c5.739,0,6.208-10.115,1.147-10.115h-2.9v7.916A14.148,14.148,0,0,1,1861.837,2190.771Z" transform="translate(-1861.837 -2180.657)" fill="#ffdcd5" fill-rule="evenodd"/>
      </g>
      <g id="Grupo_3810" data-name="Grupo 3810" transform="translate(1798.516 2149)">
        <path id="Trazado_9821" data-name="Trazado 9821" d="M1813.968,2214.543a1.289,1.289,0,0,0-1.824,0l-4.888,4.888a1.29,1.29,0,1,0,1.824,1.824l4.888-4.888A1.289,1.289,0,0,0,1813.968,2214.543Z" transform="translate(-1800.006 -2160.61)"/>
        <path id="Trazado_9822" data-name="Trazado 9822" d="M1809.463,2210.488a1.29,1.29,0,0,0-1.657-.764l-6.188,2.283a1.29,1.29,0,1,0,.892,2.42l6.188-2.283A1.29,1.29,0,0,0,1809.463,2210.488Z" transform="translate(-1798.918 -2159.804)"/>
        <path id="Trazado_9823" data-name="Trazado 9823" d="M1818.588,2218.767a1.289,1.289,0,0,0-1.656.763l-2.283,6.189a1.29,1.29,0,1,0,2.42.893l2.283-6.189A1.289,1.289,0,0,0,1818.588,2218.767Z" transform="translate(-1801.376 -2161.415)"/>
        <path id="Trazado_9824" data-name="Trazado 9824" d="M1856.154,2214.543a1.289,1.289,0,0,0-1.824,1.823l4.888,4.888a1.29,1.29,0,1,0,1.824-1.824Z" transform="translate(-1808.392 -2160.61)"/>
        <path id="Trazado_9825" data-name="Trazado 9825" d="M1866.4,2212.007l-6.193-2.283a1.29,1.29,0,1,0-.892,2.42l6.193,2.283a1.29,1.29,0,0,0,.892-2.42Z" transform="translate(-1809.198 -2159.804)"/>
        <path id="Trazado_9826" data-name="Trazado 9826" d="M1851.936,2219.531a1.29,1.29,0,1,0-2.421.891l2.28,6.189a1.29,1.29,0,1,0,2.42-.892Z" transform="translate(-1807.588 -2161.415)"/>
        <path id="Trazado_9827" data-name="Trazado 9827" d="M1852.627,2209.413a1.289,1.289,0,0,0,1.728-.583l0-.007a1.29,1.29,0,1,0-1.732.59Z" transform="translate(-1808.029 -2159.327)"/>
        <path id="Trazado_9828" data-name="Trazado 9828" d="M1840.353,2200.959a1.29,1.29,0,0,0-1.795-.325,22.522,22.522,0,0,1-5,2.636,12.97,12.97,0,0,1-10.2,0c-7.712-2.863-14.56-11.019-15.706-18.269a1.212,1.212,0,0,0-.02-.135,13.193,13.193,0,0,1-.149-1.934v-7.366a18.1,18.1,0,0,1,8.717-4.888,6.35,6.35,0,0,1,4.3.243c.416.123.887.263,1.413.4a143.855,143.855,0,0,0,24.783,4.522c.867.1,1.778.206,2.739.32v6.77a18.9,18.9,0,0,1-3.258,9.74,1.29,1.29,0,0,0,2.178,1.383,24.184,24.184,0,0,0,3.259-7.636h.863c3.855,0,5.935-3.561,5.935-6.913a6.767,6.767,0,0,0-1.1-3.857,4.386,4.386,0,0,0-3.683-1.924h-1.742l-.685-6.315c-.221-2.068-.083-2.284.608-2.964.266-.262.567-.524.885-.8a10.586,10.586,0,0,0,4.224-8.279,1.289,1.289,0,0,0-1.606-1.328c-.691.177-1.325.347-1.884.5-4.1,1.1-5.076,1.367-8.946-1.019-6.327-3.9-12-5.256-17.335-4.14-4.532.947-7.829,3.467-10.477,5.492l-.621.473a7.866,7.866,0,0,0-6.22.8,9.226,9.226,0,0,0-4.254,6.572,59.286,59.286,0,0,0-.666,11.016h-1.605a4.389,4.389,0,0,0-3.686,1.923,6.768,6.768,0,0,0-1.105,3.858c0,3.351,2.081,6.912,5.938,6.912h.862a25.646,25.646,0,0,0,4.774,9.8,28.537,28.537,0,0,0,12.378,9.462,15.519,15.519,0,0,0,11.993,0,25.1,25.1,0,0,0,5.568-2.935,1.29,1.29,0,0,0,.325-1.795Zm11.666-18.026v-6.626h1.609a1.8,1.8,0,0,1,1.571.823,4.263,4.263,0,0,1,.639,2.378c0,1.742-.894,4.334-3.356,4.334h-.491Q1852.019,2183.382,1852.019,2182.933Zm-43.89-19.841a6.623,6.623,0,0,1,3.022-4.735,5.322,5.322,0,0,1,4.7-.372,1.29,1.29,0,0,0,1.208-.174c.38-.282.768-.578,1.179-.892,5.058-3.867,11.986-9.163,24.892-1.206,4.818,2.971,6.746,2.452,10.97,1.315h0a7.908,7.908,0,0,1-3.1,4.676c-.333.291-.678.592-1,.908-1.556,1.53-1.61,2.78-1.364,5.078l.635,5.858-2.275-.265a141.831,141.831,0,0,1-24.428-4.454c-.486-.127-.916-.255-1.332-.378a11.026,11.026,0,0,0-3.281-.623,8.946,8.946,0,0,0-2.446.37,20.309,20.309,0,0,0-8.016,3.936,50.485,50.485,0,0,1,.635-9.04Zm-3.676,20.75c-2.464,0-3.358-2.591-3.358-4.333a4.252,4.252,0,0,1,.639-2.378,1.806,1.806,0,0,1,1.573-.823h1.6v6.626c0,.3.012.6.03.909Z" transform="translate(-1798.516 -2149)"/>
        <path id="Trazado_9829" data-name="Trazado 9829" d="M1829.357,2207.951h7.926a3.611,3.611,0,0,0,3.605-3.609,7.57,7.57,0,1,0-15.141,0A3.613,3.613,0,0,0,1829.357,2207.951Zm3.961-8.6a5,5,0,0,1,4.99,4.99,1.03,1.03,0,0,1-1.026,1.031h-7.926a1.044,1.044,0,0,1-1.03-1.031,5,5,0,0,1,4.991-4.99Z" transform="translate(-1803.367 -2157.511)"/>
        <path id="Trazado_9830" data-name="Trazado 9830" d="M1849.2,2193.151a1.29,1.29,0,0,0,.6-2.432l-3.262-1.713,3.262-1.713a1.29,1.29,0,0,0-1.2-2.284l-5.437,2.855a1.29,1.29,0,0,0,0,2.284L1848.6,2193A1.29,1.29,0,0,0,1849.2,2193.151Z" transform="translate(-1806.348 -2155.389)"/>
        <path id="Trazado_9831" data-name="Trazado 9831" d="M1817.834,2192.461a1.288,1.288,0,0,0,1.741.542l5.441-2.854a1.29,1.29,0,0,0,0-2.285l-5.441-2.854a1.29,1.29,0,0,0-1.2,2.285l3.264,1.712-3.264,1.713a1.29,1.29,0,0,0-.542,1.741Z" transform="translate(-1801.931 -2155.389)"/>
      </g>
    </g>
  </g>
</svg>
