<svg xmlns="http://www.w3.org/2000/svg" viewBox="0 0 106.01 106.01"><defs><style>.cls-1{isolation:isolate;}.cls-2{fill:#fde9d2;stroke:#f15a24;stroke-miterlimit:10;stroke-width:5px;}.cls-3{fill:#f86446;}.cls-4{fill:#ff896d;}.cls-5{fill:#ff7751;}.cls-6{opacity:0.4;mix-blend-mode:overlay;}.cls-7{fill:#fff;}.cls-8{fill:#dfcfc3;mix-blend-mode:multiply;}</style></defs><g class="cls-1"><g id="Capa_2" data-name="Capa 2"><g id="Reglas"><circle class="cls-2" cx="53.01" cy="53.01" r="50.51"/><path class="cls-3" d="M57.47,30.65c-2.69-5.32,1.67-10.42,1.67-10.42-4.47-2.14-7.35,0-7.35,0,4.65,5.18,1.32,10.08,1.32,10.08Z"/><path class="cls-4" d="M61.76,19.83c0,1.36-2.82,1.9-6.29,1.9s-6.3-.54-6.3-1.9,2.82-3,6.3-3S61.76,18.48,61.76,19.83Z"/><path class="cls-5" d="M60.64,19.72c0,.48-1,.67-2.24.67s-2.24-.19-2.24-.67,1-1.07,2.24-1.07S60.64,19.23,60.64,19.72Z"/><path class="cls-3" d="M72.74,39.57c1.75-5.7,8.43-6.35,8.43-6.35-1.73-4.64-5.3-5.1-5.3-5.1-.23,7-6,8.18-6,8.18Z"/><path class="cls-4" d="M83.33,34.75c-.94,1-3.34-.59-5.85-3S73.32,27,74.26,26s4.11-.21,6.62,2.2S84.27,33.78,83.33,34.75Z"/><path class="cls-5" d="M82.61,33.9c-.33.34-1.19-.21-2.08-1.07s-1.49-1.7-1.15-2,1.46-.08,2.36.78S82.94,33.55,82.61,33.9Z"/><path class="cls-3" d="M32.82,45.24c-6.11,2.35-11.2-3-11.2-3-2.83,4.64-.81,8-.81,8C27,45.78,32,50,32,50Z"/><path class="cls-4" d="M21.48,39.35c1.48.15,1.75,3.29,1.37,7.09s-1.28,6.82-2.76,6.67-3-3.41-2.6-7.21S20,39.2,21.48,39.35Z"/><path class="cls-5" d="M21.23,40.56c.52,0,.62,1.17.48,2.52s-.45,2.43-1,2.38-1.06-1.22-.92-2.57S20.7,40.5,21.23,40.56Z"/><path class="cls-3" d="M55.91,74.87c4.65,4.61,1.88,11.44,1.88,11.44,5.4.68,7.66-2.56,7.66-2.56-6.65-3.77-4.88-10-4.88-10Z"/><path class="cls-4" d="M55.2,87.63c-.47-1.41,2.28-2.95,5.9-4.16s6.75-1.63,7.22-.22-1.89,4.12-5.51,5.33S55.67,89,55.2,87.63Z"/><path class="cls-5" d="M56.4,87.37c-.17-.5.81-1.05,2.1-1.48s2.41-.59,2.57-.08-.67,1.46-2,1.89S56.57,87.87,56.4,87.37Z"/><path class="cls-3" d="M37.85,36.24C33.63,35.07,33,30.19,33,30.19c-3.37,1.37-3.63,4-3.63,4a6,6,0,0,1,6.12,4.26Z"/><path class="cls-4" d="M34.1,28.57c.73.67-.37,2.47-2.08,4.36s-3.4,3.15-4.13,2.48-.25-3,1.47-4.9S33.36,27.91,34.1,28.57Z"/><path class="cls-5" d="M33.48,29.12c.26.24-.13.88-.74,1.55s-1.21,1.12-1.47.89-.09-1.08.52-1.75S33.22,28.89,33.48,29.12Z"/><path class="cls-3" d="M36.6,67.55C35.16,71.68,30.25,72,30.25,72,31.39,75.42,34,75.86,34,75.86A6,6,0,0,1,38.64,70Z"/><path class="cls-4" d="M28.7,70.8c.72-.69,2.44.52,4.21,2.35s2.92,3.6,2.21,4.29-3,0-4.79-1.79S28,71.49,28.7,70.8Z"/><path class="cls-5" d="M29.21,71.45c.26-.25.87.18,1.5.83s1,1.28.79,1.53-1.08,0-1.71-.64S29,71.69,29.21,71.45Z"/><path class="cls-3" d="M72.43,67.06c4.34.46,5.75,5.18,5.75,5.18,3.1-1.91,2.92-4.54,2.92-4.54a6,6,0,0,1-6.73-3.19Z"/><path class="cls-4" d="M77.38,74c-.83-.54,0-2.49,1.34-4.64s2.83-3.66,3.67-3.12.73,2.93-.65,5.07S78.22,74.54,77.38,74Z"/><path class="cls-5" d="M77.9,73.37c-.3-.2,0-.89.48-1.65s1-1.31,1.3-1.12.26,1.05-.23,1.81S78.2,73.56,77.9,73.37Z"/><path class="cls-3" d="M76.65,58C81.49,56.61,85,61,85,61,87.49,57.69,86.19,55,86.19,55c-5,3-8.55-.54-8.55-.54Z"/><path class="cls-4" d="M84.9,63.27c-1.11-.22-1.11-2.64-.54-5.51s1.46-5.12,2.58-4.91,2,2.82,1.47,5.7S86,63.49,84.9,63.27Z"/><path class="cls-5" d="M85.18,62.36c-.4-.07-.39-.94-.19-2s.52-1.82.92-1.74.72,1,.52,2S85.58,62.44,85.18,62.36Z"/><path class="cls-4" d="M32.44,54.28a36.34,36.34,0,0,0-7.11,1.06.81.81,0,0,0,.43,1.56,35,35,0,0,1,6.68-1,.83.83,0,0,0,.81-.81A.8.8,0,0,0,32.44,54.28Z"/><path class="cls-4" d="M35.11,63A.81.81,0,0,0,34,63l-3.41,2.74a.81.81,0,0,0,0,1.14.85.85,0,0,0,1.15,0l3.4-2.74A.8.8,0,0,0,35.11,63Z"/><path class="cls-4" d="M32.85,41l-3.54-1a.81.81,0,0,0-1,.56.82.82,0,0,0,.56,1l3.54,1a.81.81,0,0,0,1-.56A.83.83,0,0,0,32.85,41Z"/><path class="cls-4" d="M45.66,31q-1.45-3.39-2.9-6.78a.81.81,0,0,0-1.4.81l2.91,6.79a.8.8,0,0,0,1.1.28A.82.82,0,0,0,45.66,31Z"/><path class="cls-4" d="M49.49,26.09a.81.81,0,0,0-1.62,0c.1,1.4.2,2.79.29,4.19a.81.81,0,1,0,1.62,0C49.68,28.88,49.58,27.49,49.49,26.09Z"/><path class="cls-4" d="M67.29,26.42a.83.83,0,0,0-1.11.29l-2.64,5.38a.84.84,0,0,0,.29,1.11.82.82,0,0,0,1.11-.29l2.64-5.38A.84.84,0,0,0,67.29,26.42Z"/><path class="cls-4" d="M82.26,43.44a.83.83,0,0,0-1.11-.29,16.79,16.79,0,0,1-4.86,1.79.82.82,0,0,0-.57,1,.84.84,0,0,0,1,.57,19,19,0,0,0,5.25-2A.83.83,0,0,0,82.26,43.44Z"/><path class="cls-4" d="M68.4,77.43l-3.06-5.11a.81.81,0,0,0-1.4.81L67,78.24a.81.81,0,0,0,1.4-.81Z"/><path class="cls-4" d="M49.12,71.76a.83.83,0,0,0-1,.56,35.55,35.55,0,0,1-2.23,7.06.83.83,0,0,0,.29,1.11.81.81,0,0,0,1.1-.29,37.43,37.43,0,0,0,2.4-7.45A.82.82,0,0,0,49.12,71.76Z"/><path class="cls-4" d="M44.91,72.4a.83.83,0,0,0-1,.57,59,59,0,0,1-2.72,5.67.8.8,0,0,0,1.39.81,61,61,0,0,0,2.89-6A.82.82,0,0,0,44.91,72.4Z"/><path class="cls-5" d="M79.52,52.47C79.52,65.8,66.24,78,52.91,78c-8.5,0-15.54-5.82-19.53-13.49a31.26,31.26,0,0,1-3.55-14.19C29.83,37,39.94,29,53.28,29a28,28,0,0,1,20.93,9.53A21.3,21.3,0,0,1,79.52,52.47Z"/><path class="cls-4" d="M71.73,50c1.51,9.22-6.29,19.16-15.5,20.67S38.65,63.35,37.14,54.13s4.58-15.87,13.79-17.38S70.21,40.76,71.73,50Z"/><g class="cls-6"><path class="cls-7" d="M52.84,40.75c1.2,4.14-1.82,9.13-6,10.33s-8.46-2.38-9.66-6.52,1.22-7.53,5.37-8.73S51.64,36.61,52.84,40.75Z"/><path class="cls-7" d="M63.69,46.62c-2.82,1.63-7,.32-8.66-2.5s.2-6.63,3-8.27,5.75-.47,7.38,2.34S66.51,45,63.69,46.62Z"/><path class="cls-7" d="M41.1,61.31a4.5,4.5,0,0,1-5.76-1.66c-1.08-1.87.14-4.41,2-5.49s3.82-.32,4.9,1.55A4.13,4.13,0,0,1,41.1,61.31Z"/></g><path class="cls-8" d="M79.52,52.47C79.52,65.8,66.24,78,52.91,78c-8.5,0-15.54-5.82-19.53-13.49l.3.09c6.66,2.06,13.85,2.82,20.64,1.19S67.42,60,70.78,53.88c2.55-4.64,3.26-10,3.43-15.32A21.3,21.3,0,0,1,79.52,52.47Z"/></g></g></g></svg>