<svg xmlns="http://www.w3.org/2000/svg" viewBox="0 0 106.01 106.01"><defs><style>.cls-1{isolation:isolate;}.cls-2{fill:#fbd2d3;stroke:#ed1c24;stroke-miterlimit:10;stroke-width:5px;}.cls-3{fill:#d73b50;}.cls-4{fill:#bd2d46;}.cls-5{fill:#dfcfc3;mix-blend-mode:multiply;}.cls-6{opacity:0.4;mix-blend-mode:overlay;}.cls-7{fill:#fff;}</style></defs><g class="cls-1"><g id="Capa_2" data-name="Capa 2"><g id="Reglas"><circle class="cls-2" cx="53.01" cy="53.01" r="50.51"/><path class="cls-3" d="M22.84,51.67a.51.51,0,0,1-.47-.3l-2-4.11a.53.53,0,0,1,.95-.45l2,4.11a.52.52,0,0,1-.25.7A.59.59,0,0,1,22.84,51.67Z"/><path class="cls-3" d="M28.79,52.7a.48.48,0,0,1-.26-.07.52.52,0,0,1-.2-.71l1.39-2.51a.52.52,0,1,1,.91.5l-1.39,2.52A.51.51,0,0,1,28.79,52.7Z"/><path class="cls-3" d="M34.64,56.78h-.07a.52.52,0,0,1-.45-.59l.47-3.92a.51.51,0,0,1,.58-.45.52.52,0,0,1,.46.58l-.48,3.92A.51.51,0,0,1,34.64,56.78Z"/><path class="cls-3" d="M42,57.09a.45.45,0,0,1-.2,0l-1.92-.78a.52.52,0,0,1,.39-1l1.92.78a.52.52,0,0,1,.29.68A.51.51,0,0,1,42,57.09Z"/><path class="cls-3" d="M39.49,50.71a.51.51,0,0,1-.2,0,9.26,9.26,0,0,1-3-2A.52.52,0,0,1,37,47.9a8.29,8.29,0,0,0,2.68,1.81.52.52,0,0,1,.29.68A.53.53,0,0,1,39.49,50.71Z"/><path class="cls-3" d="M41.24,48a.52.52,0,0,1-.51-.41L40,44.73a.52.52,0,0,1,1-.24l.69,2.87a.53.53,0,0,1-.39.63Z"/><path class="cls-3" d="M47.41,52.26a.52.52,0,0,1-.52-.52V49.13a.52.52,0,0,1,.52-.53.53.53,0,0,1,.53.53v2.61A.52.52,0,0,1,47.41,52.26Z"/><path class="cls-3" d="M39.06,38.65a5,5,0,0,1-.67,0,.52.52,0,0,1-.46-.58.54.54,0,0,1,.59-.46,4.5,4.5,0,0,0,2.4-.36.52.52,0,0,1,.69.26.52.52,0,0,1-.26.69A5.48,5.48,0,0,1,39.06,38.65Z"/><path class="cls-3" d="M38.56,34.17a3.88,3.88,0,0,1-2.32-.78.53.53,0,0,1-.09-.74.51.51,0,0,1,.73-.09,2.8,2.8,0,0,0,1.92.55.54.54,0,0,1,.57.47.53.53,0,0,1-.48.57Z"/><path class="cls-3" d="M39.19,26.32a.53.53,0,0,1-.45-.25L37.27,23.6a.53.53,0,0,1,.19-.72.52.52,0,0,1,.71.19l1.47,2.46a.53.53,0,0,1-.18.72A.54.54,0,0,1,39.19,26.32Z"/><path class="cls-3" d="M41.75,20.68h0a.51.51,0,0,1-.51-.53l.05-2.81a.51.51,0,0,1,.52-.51h0a.52.52,0,0,1,.52.53l-.06,2.81A.51.51,0,0,1,41.75,20.68Z"/><path class="cls-3" d="M45.93,22.34a.52.52,0,0,1-.4-.86,9.15,9.15,0,0,1,2.56-2,.54.54,0,0,1,.71.22.53.53,0,0,1-.22.71,7.81,7.81,0,0,0-2.26,1.78A.51.51,0,0,1,45.93,22.34Z"/><path class="cls-3" d="M47.53,30.67a.54.54,0,0,1-.46-.27.52.52,0,0,1,.21-.71L48.59,29a.52.52,0,0,1,.5.92l-1.31.71A.45.45,0,0,1,47.53,30.67Z"/><path class="cls-3" d="M47.74,38.47a.51.51,0,0,1-.39-.18.52.52,0,0,1,0-.74l1.37-1.18a.53.53,0,0,1,.69.8l-1.38,1.18A.52.52,0,0,1,47.74,38.47Z"/><path class="cls-3" d="M52.52,46.64a.34.34,0,0,1-.14,0A.52.52,0,0,1,52,46l.56-2a.52.52,0,0,1,1,.28l-.55,2A.51.51,0,0,1,52.52,46.64Z"/><path class="cls-3" d="M58.89,40a.52.52,0,0,1-.51-.42L57.64,36a.53.53,0,1,1,1-.21l.74,3.58A.53.53,0,0,1,59,40Z"/><path class="cls-3" d="M62.37,31.41h0a.54.54,0,0,1-.51-.53l0-2.82a.53.53,0,0,1,.53-.51h0a.52.52,0,0,1,.52.53l0,2.81A.53.53,0,0,1,62.37,31.41Z"/><path class="cls-3" d="M67.68,29.25h-.07a.52.52,0,0,1-.45-.59,6,6,0,0,1,1.28-2.94.53.53,0,0,1,.74-.08.53.53,0,0,1,.08.74A4.89,4.89,0,0,0,68.2,28.8.53.53,0,0,1,67.68,29.25Z"/><path class="cls-3" d="M72.7,33.17a.5.5,0,0,1-.5-.37.51.51,0,0,1,.35-.65l3.55-1a.53.53,0,0,1,.65.35.52.52,0,0,1-.36.65l-3.54,1A.39.39,0,0,1,72.7,33.17Z"/><path class="cls-3" d="M73.7,39.24a.47.47,0,0,1-.16,0l-2.6-.81a.52.52,0,0,1-.35-.65.53.53,0,0,1,.66-.35l2.6.81a.53.53,0,0,1,.35.66A.53.53,0,0,1,73.7,39.24Z"/><path class="cls-3" d="M63.62,44.09a.53.53,0,0,1-.52-.5.52.52,0,0,1,.5-.54l2-.09a.52.52,0,1,1,.05,1l-2,.09Z"/><path class="cls-3" d="M65.6,49.27a.52.52,0,0,1-.35-.91l2.31-2.07a.51.51,0,0,1,.74,0,.52.52,0,0,1,0,.73L66,49.13A.54.54,0,0,1,65.6,49.27Z"/><path class="cls-3" d="M73.49,50.87a.52.52,0,0,1-.29-1l1.5-1a.52.52,0,0,1,.72.15.53.53,0,0,1-.14.73l-1.5,1A.51.51,0,0,1,73.49,50.87Z"/><path class="cls-3" d="M78.46,55.68a.63.63,0,0,1-.19,0l-2.81-1.14a.52.52,0,0,1-.29-.68.54.54,0,0,1,.68-.29l2.81,1.14a.52.52,0,0,1,.29.68A.53.53,0,0,1,78.46,55.68Z"/><path class="cls-3" d="M76.42,60.22a.63.63,0,0,1-.22,0l-2.92-1.34a.53.53,0,0,1-.26-.7.53.53,0,0,1,.7-.25l2.92,1.34a.52.52,0,0,1-.22,1Z"/><path class="cls-3" d="M75.33,68.47a.53.53,0,0,1-.25-1l3.19-1.72a.52.52,0,0,1,.5.92l-3.2,1.72A.44.44,0,0,1,75.33,68.47Z"/><path class="cls-3" d="M85.13,70.28a.52.52,0,0,1-.15-1l3-.92a.53.53,0,0,1,.3,1l-3,.91Z"/><path class="cls-3" d="M85.08,82.73a.53.53,0,0,1-.48-.32l-1.06-2.48a.52.52,0,0,1,1-.41L85.56,82a.52.52,0,0,1-.27.69A.78.78,0,0,1,85.08,82.73Z"/><path class="cls-3" d="M73.34,81.42l-.12,0a.51.51,0,0,1-.39-.62l.71-3a.52.52,0,0,1,1,.24l-.71,3A.52.52,0,0,1,73.34,81.42Z"/><path class="cls-3" d="M66.23,73h0a.53.53,0,0,1-.47-.57L66,69.35a.52.52,0,0,1,.56-.48.53.53,0,0,1,.48.57l-.26,3.07A.52.52,0,0,1,66.23,73Z"/><path class="cls-3" d="M58.79,67.11a.52.52,0,0,1-.52-.51L58.14,63a.53.53,0,0,1,.51-.54.51.51,0,0,1,.54.5l.13,3.6a.53.53,0,0,1-.51.54Z"/><path class="cls-3" d="M53.82,70.84a.53.53,0,0,1-.4-.18,4.83,4.83,0,0,1-1.18-3.31.54.54,0,0,1,.54-.51.53.53,0,0,1,.51.55A3.73,3.73,0,0,0,54.21,70a.52.52,0,0,1-.05.74A.55.55,0,0,1,53.82,70.84Z"/><path class="cls-3" d="M51.79,78.42a.5.5,0,0,1-.36-.14,6.05,6.05,0,0,1-1.79-3.37.51.51,0,0,1,.43-.6.52.52,0,0,1,.6.42,5,5,0,0,0,1.48,2.79.53.53,0,0,1,0,.74A.52.52,0,0,1,51.79,78.42Z"/><path class="cls-3" d="M40.86,89.19a.55.55,0,0,1-.34-.13.53.53,0,0,1-.06-.74,6.1,6.1,0,0,0,1.38-2.87.52.52,0,0,1,.6-.43.53.53,0,0,1,.43.61A7.2,7.2,0,0,1,41.26,89,.54.54,0,0,1,40.86,89.19Z"/><path class="cls-3" d="M35.18,80.52a.57.57,0,0,1-.18,0l-2.29-.85a.53.53,0,0,1,.37-1l2.28.86a.52.52,0,0,1-.18,1Z"/><path class="cls-3" d="M40.76,73a.52.52,0,0,1-.29-.09l-1.57-1a.52.52,0,0,1,.57-.88l1.58,1a.52.52,0,0,1-.29,1Z"/><path class="cls-3" d="M44.69,66.1a.51.51,0,0,1-.43-.23.53.53,0,0,1,.14-.73l2.05-1.4a.52.52,0,0,1,.72.14.51.51,0,0,1-.13.72L45,66A.49.49,0,0,1,44.69,66.1Z"/><path class="cls-3" d="M36.47,64.45a.6.6,0,0,1-.29-.08.53.53,0,0,1-.15-.73l1.41-2.17a.52.52,0,1,1,.88.57l-1.41,2.17A.51.51,0,0,1,36.47,64.45Z"/><path class="cls-3" d="M26.28,66.51a.54.54,0,0,1-.37-.16.53.53,0,0,1,0-.74,5.35,5.35,0,0,0,1.4-2.37.53.53,0,0,1,1,.29,6.55,6.55,0,0,1-1.67,2.82A.49.49,0,0,1,26.28,66.51Z"/><path class="cls-3" d="M17.4,61.2a.52.52,0,0,1-.52-.52.51.51,0,0,1,.51-.53l3.08,0a.54.54,0,0,1,.53.51.52.52,0,0,1-.52.53l-3.07.06Z"/><path class="cls-3" d="M86.87,70c-2.55-2.07-5.8-2.27-8.93-2.57-2.64-.24-6.07-.9-6.86-3.91a2.69,2.69,0,0,1,1.12-2.8,18.3,18.3,0,0,0,3.29-2.92,6.41,6.41,0,0,0-.23-7.26,5.79,5.79,0,0,0-3.54-2.32c-1.73-.35-3.45,0-5.19-.08-1.13,0-2.55-.35-3-1.55a3.75,3.75,0,0,1,.85-3.29,12.14,12.14,0,0,1,3.75-2.66,15,15,0,0,0,4-2.89,6.83,6.83,0,0,0,1.91-4.24,5,5,0,0,0-1.63-3.83,6.86,6.86,0,0,0-7.83-.83c-2.89,1.54-4.5,4.59-5.63,7.53s-1.83,6.43-4.42,8.34a3.08,3.08,0,0,1-3.43.42,5.2,5.2,0,0,1-2.21-3.24,30.91,30.91,0,0,1-.69-5.43l-.51-5.7c-.17-2-.35-4-.53-6a8.59,8.59,0,0,0-1.12-4.12,3.21,3.21,0,0,0-3.75-1.36c-1.57.57-2.55,2.16-3.2,3.61a15.55,15.55,0,0,0-.92,9.66,20.41,20.41,0,0,0,4.47,8.66,27.48,27.48,0,0,0,3.5,3.49A28.16,28.16,0,0,1,50,48.15a7.87,7.87,0,0,1,.8,1.18,1.2,1.2,0,0,0,.16.52c.46.87-.46,1.85-1.37,2-1.49.25-2.86-.79-3.83-1.79-1.14-1.14-2-2.61-3.61-3.21A3.13,3.13,0,0,0,38,48.52a4.17,4.17,0,0,0,1.26,4.11c.78.78,2.41,1.5,2.52,2.72s-1.23,2-2.33,2.17A7,7,0,0,1,35,56.09c-2.8-1.81-5-4.51-8.3-5.53-2.84-.89-6.51-.25-8,2.62a7.16,7.16,0,0,0,1.4,8c2.28,2.39,5.89,3,9.05,2.76,3.55-.28,7-1.59,10.53-1.66,2.69-.06,6.13.69,7.28,3.47s-1.73,4.62-4,5.47c-2.9,1.11-6.12,2.1-7.51,5.16a7.37,7.37,0,0,0,1.41,8.36A7.52,7.52,0,0,0,45.26,86C48,84.7,49.7,81.7,50.48,78.85c.93-3.41.76-7.08,2-10.4.93-2.4,2.88-4.8,5.67-4.76,3.12.05,5.68,2.69,7.42,5C69.6,74,72.9,81.25,80.39,82a8,8,0,0,0,7.89-3.92A6.35,6.35,0,0,0,86.87,70Z"/><path class="cls-4" d="M26.91,52.88a1,1,0,0,0,0,2.08A1,1,0,0,0,26.91,52.88Z"/><path class="cls-4" d="M30,60.25a1,1,0,0,0,0,2.08A1,1,0,0,0,30,60.25Z"/><path class="cls-4" d="M33.18,56.71a1,1,0,0,0,0,2.07A1,1,0,0,0,33.18,56.71Z"/><path class="cls-4" d="M48.19,54a1,1,0,0,0,0,2.07A1,1,0,0,0,48.19,54Z"/><path class="cls-4" d="M48.06,58.21a1,1,0,0,0,0,2.07A1,1,0,0,0,48.06,58.21Z"/><path class="cls-4" d="M55.29,54.66a1,1,0,0,0,0,2.07A1,1,0,0,0,55.29,54.66Z"/><path class="cls-4" d="M41.92,30.37a1,1,0,0,0,0,2.08A1,1,0,0,0,41.92,30.37Z"/><path class="cls-4" d="M44.24,27.64a1,1,0,0,0,0,2.08A1,1,0,0,0,44.24,27.64Z"/><path class="cls-4" d="M61.16,36.65a1,1,0,0,0,0,2.07A1,1,0,0,0,61.16,36.65Z"/><path class="cls-4" d="M64.43,39.24a1,1,0,0,0,0,2.07A1,1,0,0,0,64.43,39.24Z"/><path class="cls-4" d="M65.52,34.33a1,1,0,0,0,0,2.07A1,1,0,0,0,65.52,34.33Z"/><path class="cls-4" d="M68.93,56.71a1,1,0,0,0,0,2.07A1,1,0,0,0,68.93,56.71Z"/><path class="cls-4" d="M65.11,60.12a1,1,0,0,0,0,2.07A1,1,0,0,0,65.11,60.12Z"/><path class="cls-4" d="M68.52,63.53a1,1,0,0,0,0,2.07A1,1,0,0,0,68.52,63.53Z"/><path class="cls-4" d="M64.29,50.7a1,1,0,0,0,0,2.08A1,1,0,0,0,64.29,50.7Z"/><path class="cls-4" d="M80.4,76.08a1,1,0,0,0,0,2.08A1,1,0,0,0,80.4,76.08Z"/><path class="cls-4" d="M84.63,73.9a1,1,0,0,0,0,2.07A1,1,0,0,0,84.63,73.9Z"/><path class="cls-4" d="M46.56,79.63a1,1,0,0,0,0,2.08A1,1,0,0,0,46.56,79.63Z"/><path class="cls-4" d="M40.89,79.16a.89.89,0,0,0-.12-.38l-.17-.21a1,1,0,0,0-.46-.27l-.27,0a1,1,0,0,0-.52.15l-.28.13a.84.84,0,0,0-.29.27.78.78,0,0,0-.18.35.75.75,0,0,0,0,.42.66.66,0,0,0,.12.38l.16.21a1,1,0,0,0,.46.27l.28,0a1.07,1.07,0,0,0,.52-.14l.27-.14a.84.84,0,0,0,.29-.27.71.71,0,0,0,.19-.35A.86.86,0,0,0,40.89,79.16Z"/><path class="cls-4" d="M46.15,72.81a1,1,0,0,0,0,2.07A1,1,0,0,0,46.15,72.81Z"/><path class="cls-4" d="M50.38,56.13a.52.52,0,0,0,0,1A.52.52,0,0,0,50.38,56.13Z"/><path class="cls-4" d="M52.42,54.22a.52.52,0,0,0,0,1A.52.52,0,0,0,52.42,54.22Z"/><path class="cls-4" d="M44.51,34.3a.52.52,0,0,0,0,1A.52.52,0,0,0,44.51,34.3Z"/><path class="cls-4" d="M44.78,31.57a.52.52,0,0,0,0,1A.52.52,0,0,0,44.78,31.57Z"/><path class="cls-4" d="M40.82,25.29a.52.52,0,0,0,0,1A.52.52,0,0,0,40.82,25.29Z"/><path class="cls-4" d="M61.66,41.94a.55.55,0,0,0-.23-.31l-.13-.05a.61.61,0,0,0-.27,0l-.55.14a.31.31,0,0,0-.18.09.35.35,0,0,0-.13.14.36.36,0,0,0-.06.2.28.28,0,0,0,0,.2.49.49,0,0,0,.23.31l.13.06a.62.62,0,0,0,.27,0l.55-.14a.38.38,0,0,0,.18-.09.47.47,0,0,0,.13-.15.33.33,0,0,0,.06-.19A.3.3,0,0,0,61.66,41.94Z"/><path class="cls-4" d="M69.48,36.48a.52.52,0,0,0,0,1A.52.52,0,0,0,69.48,36.48Z"/><path class="cls-4" d="M66.48,32.25a.52.52,0,0,0,0,1A.52.52,0,0,0,66.48,32.25Z"/><path class="cls-4" d="M70.84,51.22a.52.52,0,0,0,0,1A.52.52,0,0,0,70.84,51.22Z"/><path class="cls-4" d="M64.7,56.54a.52.52,0,0,0,0,1A.52.52,0,0,0,64.7,56.54Z"/><path class="cls-4" d="M27.32,59.82a.52.52,0,0,0,0,1A.52.52,0,0,0,27.32,59.82Z"/><path class="cls-4" d="M29.91,56.41a.52.52,0,0,0,0,1A.52.52,0,0,0,29.91,56.41Z"/><path class="cls-4" d="M22.81,57.63a.52.52,0,0,0,0,1A.52.52,0,0,0,22.81,57.63Z"/><path class="cls-4" d="M40.69,75.92a.52.52,0,0,0,0,1A.52.52,0,0,0,40.69,75.92Z"/><path class="cls-4" d="M44.64,77.83a.52.52,0,0,0,0,1A.52.52,0,0,0,44.64,77.83Z"/><path class="cls-4" d="M78.21,76.05a.52.52,0,0,0,0,1A.52.52,0,0,0,78.21,76.05Z"/><path class="cls-4" d="M79.44,73.05a.52.52,0,0,0,0,1A.52.52,0,0,0,79.44,73.05Z"/><path class="cls-4" d="M74,71.69a.52.52,0,0,0,0,1A.52.52,0,0,0,74,71.69Z"/><path class="cls-4" d="M79.3,70.32a.52.52,0,0,0,0,1A.52.52,0,0,0,79.3,70.32Z"/><path class="cls-5" d="M86.87,70c-2.55-2.07-5.8-2.27-8.93-2.57-2.64-.24-6.07-.9-6.86-3.91a2.69,2.69,0,0,1,1.12-2.8,18.3,18.3,0,0,0,3.29-2.92,6.41,6.41,0,0,0-.23-7.26,5.79,5.79,0,0,0-3.54-2.32c-1.73-.35-3.45,0-5.19-.08-1.13,0-2.55-.35-3-1.55a3.75,3.75,0,0,1,.85-3.29,12.14,12.14,0,0,1,3.75-2.66,15,15,0,0,0,4-2.89,6.83,6.83,0,0,0,1.91-4.24,5,5,0,0,0-1.63-3.83,6.4,6.4,0,0,0-3.12-1.55c0,.12,0,.24.06.37a9.06,9.06,0,0,1-2.1,6.2,28.23,28.23,0,0,1-5.66,5.14c-2.1,1.59-4.53,3.18-5.8,5.57A5.2,5.2,0,0,0,57,52c1.68,1.42,3.86,1.86,5.64,3.08a3.76,3.76,0,0,1,1.77,2.28,1.37,1.37,0,0,1-.93,1.41c-2,.78-4.16-.56-6.05-1.18a6.23,6.23,0,0,0-7.21,1.92,10.62,10.62,0,0,0-1.53,2.95,10,10,0,0,0-6.82-3,42,42,0,0,0-7,.65,12.43,12.43,0,0,1-6.29-.46A13.12,13.12,0,0,1,24.5,56.4a20.65,20.65,0,0,0-4.29-3.79c-.28-.16-.56-.3-.85-.44a5.1,5.1,0,0,0-.68,1,7.16,7.16,0,0,0,1.4,8c2.28,2.39,5.89,3,9.05,2.76,3.55-.28,7-1.59,10.53-1.66,2.69-.06,6.13.69,7.28,3.47s-1.73,4.62-4,5.47c-2.9,1.11-6.12,2.1-7.51,5.16a7.37,7.37,0,0,0,1.41,8.36A7.52,7.52,0,0,0,45.26,86C48,84.7,49.7,81.7,50.48,78.85c.93-3.41.76-7.08,2-10.4.93-2.4,2.88-4.8,5.67-4.76,3.12.05,5.68,2.69,7.42,5C69.6,74,72.9,81.25,80.39,82a8,8,0,0,0,7.89-3.92A6.35,6.35,0,0,0,86.87,70Z"/><g class="cls-6"><path class="cls-7" d="M67.46,29.69a1.31,1.31,0,0,0-1.36,0,12,12,0,0,0-1.12.6,12.31,12.31,0,0,0-2.26,1.75,5.53,5.53,0,0,0-1,1.16c-.38.54-.8,1.23-.51,1.83a.9.9,0,0,0,1.15.44,2.86,2.86,0,0,0,1-.74,16.06,16.06,0,0,1,1.72-1.68c.63-.47,1.4-.7,2-1.2S68.26,30.3,67.46,29.69Z"/><path class="cls-7" d="M44.42,34.23a7.78,7.78,0,0,1-1-4.93,16.52,16.52,0,0,1,.52-2.79A21.62,21.62,0,0,0,44.54,24a2.25,2.25,0,0,0-.75-2.17,1.51,1.51,0,0,0-1.74-.12l-.15.12h0a2.55,2.55,0,0,0-.75,1.23,15.59,15.59,0,0,0-.77,12.12A9.58,9.58,0,0,0,42.48,39a1.9,1.9,0,0,0,3.06-.44C46.4,37,45.22,35.47,44.42,34.23Z"/><path class="cls-7" d="M32.09,55.52c-1.27-.72-2.59-1.37-3.9-2a9.51,9.51,0,0,0-3.63-1.83c-2.06-.4-4.83.68-4.74,3.15a2.64,2.64,0,0,0,1.4,2.31c1.17.57,2.55.06,3.78,0a12.65,12.65,0,0,1,4.32.51c1,.31,2.24,1.1,3.27.38S33,56,32.09,55.52Z"/><path class="cls-7" d="M48,70.6c-.7-.42-1.45.22-2,.57l-2.49,1.52a14.36,14.36,0,0,0-4.88,2.75c-1.67,1.64-2.78,4.92-.57,6.63a2.6,2.6,0,0,0,3.38-.33c1.08-1,1.4-2.41,2.2-3.56,1.5-2.14,4.67-3.12,5-6.05A1.57,1.57,0,0,0,48,70.6Z"/><path class="cls-7" d="M84.48,71.35a6.9,6.9,0,0,0-4-1.72,16,16,0,0,0-3.17-.21l-1.06-.21c-1.18-.23-2.66-.78-3.87-.48A1.56,1.56,0,0,0,71.24,71c.54,1.17,1.89,1.34,3,1.64a23.67,23.67,0,0,1,4.26,1.58,10.22,10.22,0,0,0,3.76,1.47,3,3,0,0,0,2.66-1.22A2.61,2.61,0,0,0,84.48,71.35Z"/></g></g></g></g></svg>