<svg xmlns="http://www.w3.org/2000/svg" width="118" height="118" viewBox="0 0 118 118">
  <g id="Grupo_3888" data-name="Grupo 3888" transform="translate(-204 -1160.97)">
    <g id="Grupo_1181" data-name="Grupo 1181" transform="translate(129 967.192)">
      <g id="Grupo_1173" data-name="Grupo 1173">
        <circle id="Elipse_520" data-name="Elipse 520" cx="59" cy="59" r="59" transform="translate(75 193.778)" fill="#57b8e8"/>
        <circle id="Elipse_521" data-name="Elipse 521" cx="53" cy="53" r="53" transform="translate(81 199.778)" fill="#fff"/>
      </g>
    </g>
    <g id="Grupo_2200" data-name="Grupo 2200" transform="translate(-1222.714 -95.165)">
      <circle id="Elipse_553" data-name="Elipse 553" cx="2.69" cy="2.69" r="2.69" transform="translate(1475.548 1298.905)" fill="#b7eabc"/>
      <circle id="Elipse_554" data-name="Elipse 554" cx="15.065" cy="15.065" r="15.065" transform="translate(1463.079 1309.091)" fill="#ff9171"/>
      <g id="Grupo_2195" data-name="Grupo 2195" transform="translate(1470.654 1316.161)">
        <circle id="Elipse_555" data-name="Elipse 555" cx="2.841" cy="2.841" r="2.841" fill="#b7eabc"/>
      </g>
      <g id="Grupo_2196" data-name="Grupo 2196" transform="translate(1482.363 1321.311)">
        <circle id="Elipse_556" data-name="Elipse 556" cx="2.841" cy="2.841" r="2.841" fill="#b7eabc"/>
      </g>
      <g id="Grupo_2197" data-name="Grupo 2197" transform="translate(1472 1327.434)">
        <circle id="Elipse_557" data-name="Elipse 557" cx="2.842" cy="2.842" r="2.842" fill="#b7eabc"/>
      </g>
      <circle id="Elipse_558" data-name="Elipse 558" cx="4.842" cy="4.842" r="4.842" transform="translate(1507.995 1305.314)" fill="#ff9171"/>
      <circle id="Elipse_559" data-name="Elipse 559" cx="4.842" cy="4.842" r="4.842" transform="translate(1487.345 1284.619)" fill="#ff9171"/>
      <g id="Grupo_2198" data-name="Grupo 2198" transform="translate(1453.059 1304.934)">
        <circle id="Elipse_560" data-name="Elipse 560" cx="2.69" cy="2.69" r="2.69" transform="translate(22.071 38.925)" fill="#b7eabc"/>
        <circle id="Elipse_561" data-name="Elipse 561" cx="2.69" cy="2.69" r="2.69" transform="translate(44.142 16.855)" fill="#b7eabc"/>
        <circle id="Elipse_562" data-name="Elipse 562" cx="2.69" cy="2.69" r="2.69" transform="translate(0 16.855)" fill="#b7eabc"/>
        <circle id="Elipse_563" data-name="Elipse 563" cx="2.69" cy="2.69" r="2.69" transform="translate(37.677 32.461)" fill="#b7eabc"/>
        <circle id="Elipse_564" data-name="Elipse 564" cx="2.69" cy="2.69" r="2.69" transform="translate(6.464 1.248)" fill="#b7eabc"/>
        <circle id="Elipse_565" data-name="Elipse 565" cx="2.69" cy="2.69" r="2.69" transform="translate(38.925)" fill="#b7eabc"/>
        <circle id="Elipse_566" data-name="Elipse 566" cx="2.69" cy="2.69" r="2.69" transform="translate(6.464 32.461)" fill="#b7eabc"/>
      </g>
      <g id="Grupo_2199" data-name="Grupo 2199" transform="translate(1451.714 1280.584)">
        <path id="Trazado_7365" data-name="Trazado 7365" d="M1480.961,1325.411a4.186,4.186,0,1,0-4.186,4.186A4.191,4.191,0,0,0,1480.961,1325.411Zm-5.682,0a1.5,1.5,0,1,1,1.5,1.5A1.5,1.5,0,0,1,1475.279,1325.411Z" transform="translate(-1455.005 -1286.99)"/>
        <path id="Trazado_7366" data-name="Trazado 7366" d="M1490.686,1327.343a4.186,4.186,0,1,0,4.186,4.187A4.191,4.191,0,0,0,1490.686,1327.343Zm0,5.682a1.5,1.5,0,1,1,1.5-1.5A1.5,1.5,0,0,1,1490.686,1333.025Z" transform="translate(-1457.197 -1287.954)"/>
        <path id="Trazado_7367" data-name="Trazado 7367" d="M1478.359,1342.976a4.186,4.186,0,1,0-4.186-4.186A4.191,4.191,0,0,0,1478.359,1342.976Zm0-5.682a1.5,1.5,0,1,1-1.5,1.5A1.5,1.5,0,0,1,1478.359,1337.294Z" transform="translate(-1455.254 -1289.099)"/>
        <path id="Trazado_7368" data-name="Trazado 7368" d="M1497.233,1319.134a1.343,1.343,0,1,0-.394.951A1.356,1.356,0,0,0,1497.233,1319.134Z" transform="translate(-1458.522 -1286.498)"/>
        <path id="Trazado_7369" data-name="Trazado 7369" d="M1529.937,1312.581h-1.494a6.158,6.158,0,0,0-.819-1.971l1.058-1.058a1.345,1.345,0,0,0-1.9-1.9l-1.058,1.058a6.137,6.137,0,0,0-1.972-.819v-1.494a1.345,1.345,0,1,0-2.69,0v1.494a6.123,6.123,0,0,0-1.971.819l-1.059-1.058a1.345,1.345,0,0,0-1.9,1.9l1.058,1.058a6.156,6.156,0,0,0-.819,1.972h-1.493a1.345,1.345,0,1,0,0,2.69h1.493a6.156,6.156,0,0,0,.819,1.972l-1.058,1.058a1.345,1.345,0,0,0,1.9,1.9l1.059-1.058a6.135,6.135,0,0,0,1.971.819v1.494a1.345,1.345,0,1,0,2.69,0v-1.494a6.142,6.142,0,0,0,1.972-.819l1.058,1.058a1.345,1.345,0,0,0,1.9-1.9l-1.059-1.058a6.134,6.134,0,0,0,.82-1.972h1.494a1.345,1.345,0,1,0,0-2.69Zm-7.532,4.843a3.5,3.5,0,1,1,3.5-3.5A3.5,3.5,0,0,1,1522.405,1317.424Z" transform="translate(-1461.282 -1284.371)"/>
        <path id="Trazado_7370" data-name="Trazado 7370" d="M1490.46,1290.806h1.494a6.141,6.141,0,0,0,.819,1.972l-1.058,1.058a1.345,1.345,0,1,0,1.9,1.9l1.058-1.058a6.15,6.15,0,0,0,1.972.819v1.494a1.345,1.345,0,1,0,2.69,0V1295.5a6.134,6.134,0,0,0,1.972-.819l1.058,1.058a1.345,1.345,0,0,0,1.9-1.9l-1.058-1.058a6.138,6.138,0,0,0,.82-1.972h1.494a1.345,1.345,0,1,0,0-2.69h-1.494a6.159,6.159,0,0,0-.82-1.972l1.058-1.058a1.345,1.345,0,1,0-1.9-1.9l-1.057,1.058a6.14,6.14,0,0,0-1.972-.82v-1.494a1.345,1.345,0,0,0-2.69,0v1.494a6.157,6.157,0,0,0-1.972.82l-1.058-1.058a1.345,1.345,0,0,0-1.9,1.9l1.057,1.057a6.159,6.159,0,0,0-.819,1.972h-1.494a1.345,1.345,0,1,0,0,2.69Zm7.532-4.842a3.5,3.5,0,1,1-3.5,3.5A3.5,3.5,0,0,1,1497.992,1285.964Z" transform="translate(-1457.503 -1280.584)"/>
        <path id="Trazado_7371" data-name="Trazado 7371" d="M1499.891,1322.8a4.042,4.042,0,0,0-3.8,2.691h-1.913a16.283,16.283,0,0,0-1.117-4.758,1.345,1.345,0,0,0-2.5,1,13.708,13.708,0,1,1-7.64-7.639,1.345,1.345,0,0,0,1-2.5,16.285,16.285,0,0,0-4.756-1.116v-1.913a4.036,4.036,0,1,0-2.69,0v1.913a16.337,16.337,0,0,0-9.263,3.845l-1.359-1.359a4.036,4.036,0,1,0-1.9,1.9l1.359,1.359a16.331,16.331,0,0,0-3.845,9.263h-1.913a4.035,4.035,0,1,0,0,2.69h1.913a16.331,16.331,0,0,0,3.845,9.263l-1.359,1.358a4.039,4.039,0,1,0,1.9,1.9l1.359-1.359a16.338,16.338,0,0,0,9.263,3.845v1.912a4.035,4.035,0,1,0,2.69,0v-1.912a16.338,16.338,0,0,0,9.263-3.845l1.358,1.359a4.037,4.037,0,1,0,1.9-1.9l-1.359-1.358a16.337,16.337,0,0,0,3.844-9.263h1.913a4.035,4.035,0,1,0,3.8-5.38Zm-22.071-19.38a1.345,1.345,0,1,1-1.344,1.344A1.347,1.347,0,0,1,1477.82,1303.416Zm-16.951,7.809a1.345,1.345,0,1,1,1.344,1.345A1.346,1.346,0,0,1,1460.869,1311.225Zm-5.12,16.952a1.345,1.345,0,1,1,1.345-1.345A1.346,1.346,0,0,1,1455.749,1328.176Zm6.464,15.606a1.345,1.345,0,1,1,1.345-1.344A1.346,1.346,0,0,1,1462.214,1343.783Zm15.606,6.464a1.345,1.345,0,1,1,1.345-1.345A1.346,1.346,0,0,1,1477.82,1350.247Zm16.952-7.809a1.345,1.345,0,1,1-1.345-1.345A1.347,1.347,0,0,1,1494.772,1342.438Zm5.119-14.262a1.345,1.345,0,1,1,1.345-1.345A1.346,1.346,0,0,1,1499.891,1328.176Z" transform="translate(-1451.714 -1282.937)"/>
        <path id="Trazado_7372" data-name="Trazado 7372" d="M1502.825,1307.034a4.035,4.035,0,1,0,4.035,4.035A4.04,4.04,0,0,0,1502.825,1307.034Zm0,5.38a1.345,1.345,0,1,1,1.344-1.345A1.347,1.347,0,0,1,1502.825,1312.414Z" transform="translate(-1459.138 -1284.755)"/>
      </g>
    </g>
  </g>
</svg>
