<svg xmlns="http://www.w3.org/2000/svg" width="118" height="118" viewBox="0 0 118 118">
  <g id="Grupo_3890" data-name="Grupo 3890" transform="translate(-86 -1469.97)">
    <g id="Grupo_2192" data-name="Grupo 2192" transform="translate(11 1276.192)">
      <g id="Grupo_1173" data-name="Grupo 1173">
        <circle id="Elipse_520" data-name="Elipse 520" cx="59" cy="59" r="59" transform="translate(75 193.778)" fill="#57b8e8"/>
        <circle id="Elipse_521" data-name="Elipse 521" cx="53" cy="53" r="53" transform="translate(81 199.778)" fill="#fff"/>
      </g>
    </g>
    <g id="Grupo_2202" data-name="Grupo 2202" transform="translate(-1643.965 91.231)">
      <g id="Filled">
        <path id="Trazado_7373" data-name="Trazado 7373" d="M1805.239,1469.87v-24.532a7.871,7.871,0,0,0-7.871-7.871h-8.4v-4.854h-10.758v4.854h-8.4a7.871,7.871,0,0,0-7.872,7.871v24.532Z" fill="#ffe4c2"/>
        <path id="Trazado_7374" data-name="Trazado 7374" d="M1761.948,1465.934h43.291v3.936h-43.291Z" fill="#f2d1a5"/>
        <path id="Trazado_7375" data-name="Trazado 7375" d="M1792.406,1407.3a12.529,12.529,0,0,0-5.276-3.053l-1.4.356-.806-.782a12.948,12.948,0,0,0-1.328-.069,12.293,12.293,0,0,0-12.463,12.114v1.747a12.292,12.292,0,0,0,12.463,12.114,12.677,12.677,0,0,0,1.328-.069c.384-.038.764-.095,1.137-.168a12.544,12.544,0,0,0,6.347-3.311,11.906,11.906,0,0,0,3.65-8.566v-1.747a11.906,11.906,0,0,0-3.65-8.566Z" fill="#616161"/>
        <path id="Trazado_7376" data-name="Trazado 7376" d="M1792.252,1417.268V1426a8.658,8.658,0,1,1-17.316,0v-7.021a13.765,13.765,0,0,0,3.45.365c3.869,0,7.21-1.778,8.778-5.359A9.594,9.594,0,0,0,1792.252,1417.268Z" fill="#ffe4c2"/>
        <path id="Trazado_7377" data-name="Trazado 7377" d="M1783.463,1454.206c0-4.652-.159-11.361-2.706-11.361-2.767,0-7.133,5.431-7.133,11.361,0,6.941,2.2,7.889,5.227,6.4C1781.679,1459.221,1783.463,1458.858,1783.463,1454.206Z" fill="#f88fa4"/>
        <path id="Trazado_7378" data-name="Trazado 7378" d="M1783.463,1454.206c0-4.652.158-11.361,2.7-11.361,2.768,0,7.134,5.431,7.134,11.361,0,6.941-2.2,7.889-5.227,6.4C1785.246,1459.221,1783.463,1458.858,1783.463,1454.206Z" fill="#f88fa4"/>
        <path id="Trazado_7379" data-name="Trazado 7379" d="M1778.851,1456.672c-2.649,1.3-4.659.74-5.125-4.052a12.663,12.663,0,0,0-.1,1.586c0,6.941,2.2,7.889,5.227,6.4,2.829-1.387,4.612-1.75,4.612-6.4,0-.91-.006-1.9-.035-2.9-.258,3.68-1.975,4.092-4.577,5.368Z" fill="#f05475"/>
        <path id="Trazado_7380" data-name="Trazado 7380" d="M1788.075,1456.672c-2.6-1.276-4.319-1.688-4.577-5.368-.029,1-.035,1.992-.035,2.9,0,4.652,1.783,5.015,4.612,6.4,3.031,1.487,5.227.539,5.227-6.4a12.458,12.458,0,0,0-.1-1.586c-.465,4.792-2.476,5.351-5.124,4.052Z" fill="#f05475"/>
        <path id="Trazado_7381" data-name="Trazado 7381" d="M1812.586,1415.821a14.434,14.434,0,0,0-12.9,20.9l-3.891,7.566,9.162-1.788a14.431,14.431,0,1,0,7.63-26.68Z" fill="#f88fa4"/>
        <path id="Trazado_7382" data-name="Trazado 7382" d="M1812.586,1440.747a14.357,14.357,0,0,1-7.63-2.182l-6.912,1.349-2.25,4.375,9.162-1.788a14.431,14.431,0,0,0,22.06-12.249,14.5,14.5,0,0,0-.134-1.968A14.432,14.432,0,0,1,1812.586,1440.747Z" fill="#f05475"/>
        <circle id="Elipse_567" data-name="Elipse 567" cx="6.559" cy="6.559" r="6.559" transform="translate(1806.026 1423.693)" fill="#9ce3bf"/>
        <path id="Trazado_7383" data-name="Trazado 7383" d="M1812.586,1432.875a6.569,6.569,0,0,1-6.257-4.591,6.559,6.559,0,1,0,12.514,0A6.571,6.571,0,0,1,1812.586,1432.875Z" fill="#87bcc4"/>
      </g>
      <g id="Grupo_2201" data-name="Grupo 2201">
        <path id="Trazado_7384" data-name="Trazado 7384" d="M1812.127,1426.71h1.967v1.968h-1.967Z" fill="#fff"/>
        <path id="Trazado_7385" data-name="Trazado 7385" d="M1808.847,1429.4h1.968v1.968h-1.968Z" fill="#fff"/>
        <path id="Trazado_7386" data-name="Trazado 7386" d="M1814.094,1430.645h1.968v1.968h-1.968Z" fill="#fff"/>
        <path id="Trazado_7387" data-name="Trazado 7387" d="M1777.428,1466.524h1.968v1.968h-1.968Z" fill="#fff"/>
      </g>
      <g id="Outline">
        <path id="Trazado_7388" data-name="Trazado 7388" d="M1760.965,1461.043h1.967v8.827h-1.967Z"/>
        <path id="Trazado_7389" data-name="Trazado 7389" d="M1779.2,1438.451v-3.825a9.561,9.561,0,0,0,8.79,0v3.825h7.412v-1.968h-5.445v-3.207a9.7,9.7,0,0,0,3.255-6.615,13.331,13.331,0,0,0,3.829-9.4v-1.4a12.842,12.842,0,0,0-3.948-9.271,13.557,13.557,0,0,0-5.691-3.294l-.256-.073-1.127.286-.656-.636-.338-.035a13.614,13.614,0,0,0-1.43-.074,13.29,13.29,0,0,0-13.447,13.1v1.4a13.326,13.326,0,0,0,3.83,9.4,9.7,9.7,0,0,0,3.254,6.615v3.207h-7.411a8.865,8.865,0,0,0-8.855,8.855v13.737h1.967v-13.737a6.9,6.9,0,0,1,6.888-6.887Zm-5.247-20.744v5.788a11.382,11.382,0,0,1-1.837-6.231v-1.4a11.322,11.322,0,0,1,11.479-11.13c.3,0,.6.012.893.034l.951.921,1.67-.424a11.582,11.582,0,0,1,4.613,2.739,10.892,10.892,0,0,1,3.352,7.86v1.4a11.381,11.381,0,0,1-1.837,6.231v-7l-.747-.186a8.565,8.565,0,0,1-4.563-2.951l-1.018-1.244-.645,1.472c-1.327,3.032-4.2,4.77-7.877,4.77a12.7,12.7,0,0,1-3.2-.333Zm1.968,8.292v-5.824a17.485,17.485,0,0,0,2.466.153,10.135,10.135,0,0,0,9-4.658,10.423,10.423,0,0,0,3.878,2.337V1426a7.674,7.674,0,1,1-15.348,0Z"/>
        <path id="Trazado_7390" data-name="Trazado 7390" d="M1804.256,1454.127h1.967v15.743h-1.967Z"/>
        <path id="Trazado_7391" data-name="Trazado 7391" d="M1804.256,1446.519h1.967v5.641h-1.967Z"/>
        <path id="Trazado_7392" data-name="Trazado 7392" d="M1771.2,1464.557h2.427v-1.968H1771.2V1448.88h-1.968v20.99h1.968v-1.378h4.263v-1.968H1771.2Z"/>
        <path id="Trazado_7393" data-name="Trazado 7393" d="M1795.991,1448.88h1.968v20.99h-1.968Z"/>
        <path id="Trazado_7394" data-name="Trazado 7394" d="M1786.168,1441.862c-1.31,0-2.158.944-2.7,2.445-.548-1.5-1.4-2.445-2.706-2.445-1.726,0-3.75,1.452-5.416,3.884a15.381,15.381,0,0,0-2.7,8.46c0,4.131.743,6.519,2.339,7.514a3.176,3.176,0,0,0,1.713.472,5.988,5.988,0,0,0,2.592-.7c.261-.128.513-.247.755-.361a3.6,3.6,0,0,1,6.848,0c.242.114.494.233.755.361a5.984,5.984,0,0,0,2.592.7,3.176,3.176,0,0,0,1.713-.472c1.595-.995,2.339-3.383,2.339-7.514a15.388,15.388,0,0,0-2.7-8.46c-1.666-2.432-3.691-3.884-5.417-3.884Zm-6.971,17.489c-.25.118-.51.241-.779.374-1.084.531-1.891.641-2.4.325-.528-.329-1.412-1.525-1.412-5.844,0-5.573,4.124-10.376,6.149-10.376.389,0,.973.813,1.336,3.105a50.151,50.151,0,0,1,.386,7.271C1782.479,1457.8,1781.518,1458.253,1779.2,1459.351Zm11.709.7c-.507.316-1.314.206-2.4-.325-.269-.133-.53-.256-.78-.374-2.321-1.1-3.281-1.552-3.281-5.145a50.138,50.138,0,0,1,.385-7.271c.364-2.292.947-3.105,1.336-3.105,2.025,0,6.15,4.8,6.15,10.376,0,4.319-.885,5.515-1.412,5.844Z"/>
        <path id="Trazado_7395" data-name="Trazado 7395" d="M1812.586,1416.805a13.469,13.469,0,0,1,11.754,6.911l1.719-.958a15.418,15.418,0,0,0-28.559,4.316l1.926.4A13.5,13.5,0,0,1,1812.586,1416.805Z"/>
        <path id="Trazado_7396" data-name="Trazado 7396" d="M1826.954,1424.659l-1.834.714a13.449,13.449,0,0,1-19.643,16.293l-.329-.2-7.551,1.473,3.192-6.206-.225-.447a13.316,13.316,0,0,1-1.425-6.029c0-.32.012-.644.034-.961l-1.963-.138c-.025.363-.038.732-.038,1.1a15.245,15.245,0,0,0,1.414,6.456l-4.6,8.935,10.78-2.1a15.42,15.42,0,0,0,22.183-18.88Z"/>
        <path id="Trazado_7397" data-name="Trazado 7397" d="M1823.081,1431.236v-1.968h-3.018a7.5,7.5,0,0,0-1.5-3.6l2.136-2.136-1.391-1.392-2.136,2.136a7.509,7.509,0,0,0-3.605-1.5v-3.018H1811.6v3.018a7.5,7.5,0,0,0-3.605,1.5l-2.137-2.136-1.391,1.392,2.136,2.136a7.5,7.5,0,0,0-1.5,3.6h-3.018v1.968h3.018a7.513,7.513,0,0,0,1.5,3.6l-2.136,2.136,1.391,1.391,2.137-2.136a7.5,7.5,0,0,0,3.605,1.5v3.018h1.968v-3.018a7.5,7.5,0,0,0,3.605-1.5l2.136,2.136,1.391-1.391-2.136-2.136a7.5,7.5,0,0,0,1.5-3.6Zm-10.495,4.591a5.576,5.576,0,1,1,5.575-5.575A5.582,5.582,0,0,1,1812.586,1435.827Z"/>
      </g>
    </g>
  </g>
</svg>
