<svg xmlns="http://www.w3.org/2000/svg" width="426.976" height="307.405" viewBox="0 0 426.976 307.405">
  <g id="Grupo_2168" data-name="Grupo 2168" transform="translate(-1379.621 -623.488)">
    <g id="Grupo_2106" data-name="Grupo 2106" transform="translate(1384.056 650.543)" opacity="0.15">
      <path id="Trazado_7159" data-name="Trazado 7159" d="M1393.635,688.308c.088-.1-.036-.37-.308-.733-.11-.147-.246-.309-.4-.48.259-1.658,2.392-3.645,4.27-5.094a14.394,14.394,0,0,0,4.442,2.114c.7,1.762-.228,4.549-.564,5.449-.673-.067-1.164-.025-1.19.121-.034.194.753.5,1.757.675s1.847.168,1.881-.026c.017-.1-.171-.22-.488-.342-.127-.048-.28-.1-.444-.143-.542-1.251.161-3.631.828-5.351a14.418,14.418,0,0,0,4.377-.024c1.286,1.963,1.545,5.144,1.6,6.274-.861.27-1.44.578-1.4.771.058.256,1.181.214,2.506-.091s2.353-.76,2.293-1.015c-.029-.128-.324-.181-.778-.165-.183.007-.393.025-.62.055-1.189-1.13-1.617-3.912-1.748-6.251a14.405,14.405,0,0,0,3.825-1.792c.317-.209.618-.432.912-.661a10.173,10.173,0,0,1,3.677,3.414c-.438.515-.683.942-.577,1.047.138.138.835-.335,1.554-1.06s1.19-1.422,1.051-1.56c-.069-.069-.278.014-.559.206-.114.078-.239.173-.373.283-1.218-.245-2.617-1.872-3.638-3.315a14.309,14.309,0,0,0,2.9-3.963,15.506,15.506,0,0,1,5.352,2.2c-.267.862-.345,1.514-.161,1.587.243.1.848-.849,1.353-2.112s.716-2.367.473-2.464c-.121-.048-.333.164-.578.546-.1.155-.2.338-.31.543-1.442.3-3.628-.668-5.5-1.754a14.473,14.473,0,0,0,.833-6.067,11.957,11.957,0,0,1,4.126-.676c.173.654.384,1.1.531,1.072.194-.036.2-.878.016-1.882s-.491-1.788-.684-1.753c-.1.018-.146.237-.149.578,0,.137.006.294.02.466-.763.734-2.423,1.005-3.991,1.079a14.31,14.31,0,0,0-1.866-5.15,16.936,16.936,0,0,1,4.314-2.613c.556.71,1.047,1.146,1.213,1.036.218-.145-.214-1.182-.966-2.316s-1.536-1.937-1.755-1.792c-.108.072-.055.367.119.786.071.169.163.36.27.564-.514,1.208-2.191,2.329-3.938,3.213a14.3,14.3,0,0,0-4.617-4.075,17.251,17.251,0,0,1,2.493-4.189c.826.361,1.465.51,1.559.335.123-.23-.75-.937-1.95-1.578s-2.273-.973-2.4-.742c-.062.115.126.35.479.635.142.115.314.239.506.367.119,1.278-.777,3.01-1.86,4.59a14.462,14.462,0,0,0-6.531-1.217,12.763,12.763,0,0,1-.113-3.766c.668-.1,1.134-.261,1.123-.411-.014-.2-.85-.3-1.868-.223s-1.831.291-1.818.486c.008.1.22.171.558.212.137.016.295.027.466.031a6.319,6.319,0,0,1,.65,3.755,14.3,14.3,0,0,0-5.278,1.708,16.706,16.706,0,0,1-2.186-4.667c.767-.474,1.254-.914,1.163-1.091-.119-.232-1.2.082-2.408.7s-2.094,1.314-1.975,1.547c.06.116.359.1.8-.031.175-.052.374-.121.588-.205,1.188.668,2.145,2.571,2.838,4.479a14.319,14.319,0,0,0-4.245,4.551,11.56,11.56,0,0,1-3.761-2.267c.3-.607.432-1.081.3-1.157-.168-.1-.727.531-1.247,1.409s-.8,1.671-.636,1.77c.084.05.266-.082.492-.338.09-.1.189-.228.29-.364,1.135-.057,2.7.969,3.987,2.024a14.459,14.459,0,0,0-1.346,4.835,15.264,15.264,0,0,1-5.868-.8c.048-.9-.036-1.552-.233-1.578-.26-.035-.615,1.031-.794,2.379s-.113,2.47.146,2.5c.129.017.283-.24.426-.671.058-.173.114-.377.167-.6,1.394-.678,3.929-.2,6.092.442a14.3,14.3,0,0,0,1.116,5.287c-1.173,1.4-3.718,2.148-4.593,2.371-.329-.591-.643-.97-.779-.908-.178.081.021.9.446,1.828s.914,1.614,1.094,1.532c.089-.041.083-.266,0-.6-.033-.134-.078-.285-.135-.447.7-1.118,2.911-1.88,4.677-2.32.174.312.358.622.559.925a14.458,14.458,0,0,0,2.167,2.563c-.863,2.194-3.36,4.243-4.266,4.935-.713-.553-1.3-.854-1.43-.707-.175.193.5,1.092,1.5,2.008S1393.459,688.5,1393.635,688.308Z" transform="translate(-1384.2 -651.423)" fill="#0f92bf"/>
      <path id="Trazado_7160" data-name="Trazado 7160" d="M1417.457,676.1a.529.529,0,1,1-.733-.149A.53.53,0,0,1,1417.457,676.1Z" transform="translate(-1385.218 -652.193)" fill="#19b6db"/>
      <path id="Trazado_7161" data-name="Trazado 7161" d="M1410.279,660.786a.758.758,0,1,1,1.051.213A.757.757,0,0,1,1410.279,660.786Z" transform="translate(-1385.018 -651.681)" fill="#19b6db"/>
      <path id="Trazado_7162" data-name="Trazado 7162" d="M1396.458,665.363c-.526-.8.808-2.605,2.979-4.043s4.358-1.959,4.885-1.165-.808,2.605-2.979,4.043S1396.985,666.158,1396.458,665.363Z" transform="translate(-1384.583 -651.686)" fill="#19b6db"/>
      <path id="Trazado_7163" data-name="Trazado 7163" d="M1411.608,669.012c-2.469-2.191-3.732-4.8-2.822-5.822s3.646-.078,6.115,2.112,3.732,4.8,2.822,5.822S1414.075,671.2,1411.608,669.012Z" transform="translate(-1384.965 -651.781)" fill="#19b6db"/>
      <path id="Trazado_7164" data-name="Trazado 7164" d="M1392.883,670.878a1.137,1.137,0,1,1,1.575.321A1.138,1.138,0,0,1,1392.883,670.878Z" transform="translate(-1384.468 -651.98)" fill="#19b6db"/>
      <path id="Trazado_7165" data-name="Trazado 7165" d="M1397.887,674.4c-.9-2.2-.467-4.457.961-5.038s3.311.731,4.208,2.933.467,4.457-.961,5.039S1398.784,676.6,1397.887,674.4Z" transform="translate(-1384.617 -651.984)" fill="#19b6db"/>
      <path id="Trazado_7166" data-name="Trazado 7166" d="M1410.482,677.687c1.481-.981,3.294-.852,4.048.288s.166,2.858-1.315,3.839-3.294.852-4.049-.287S1409,678.668,1410.482,677.687Z" transform="translate(-1384.976 -652.23)" fill="#19b6db"/>
      <path id="Trazado_7167" data-name="Trazado 7167" d="M1399.066,681.044c.174-1.059,1.594-1.707,3.171-1.447s2.713,1.33,2.538,2.389-1.6,1.707-3.172,1.447S1398.891,682.1,1399.066,681.044Z" transform="translate(-1384.668 -652.309)" fill="#19b6db"/>
    </g>
    <g id="Grupo_2107" data-name="Grupo 2107" transform="translate(1752.038 650.49)" opacity="0.1">
      <path id="Trazado_7168" data-name="Trazado 7168" d="M1776.6,700.045c.116-.128-.049-.488-.407-.968-.146-.194-.324-.408-.528-.633.341-2.188,3.156-4.81,5.635-6.723a18.976,18.976,0,0,0,5.862,2.79c.919,2.325-.3,6-.745,7.19-.888-.088-1.536-.033-1.571.161-.046.255.993.653,2.318.889s2.437.222,2.482-.033c.023-.128-.225-.291-.645-.452-.168-.064-.368-.127-.584-.188-.717-1.652.212-4.792,1.092-7.062a19.031,19.031,0,0,0,5.776-.032c1.7,2.591,2.038,6.787,2.106,8.279-1.136.357-1.9.763-1.842,1.018.078.337,1.558.283,3.308-.12s3.1-1,3.026-1.339c-.039-.168-.428-.238-1.027-.217-.242.009-.518.034-.818.073-1.57-1.491-2.133-5.162-2.306-8.249a18.978,18.978,0,0,0,5.048-2.365c.417-.276.815-.57,1.2-.873,2.2.889,4.194,3.555,4.853,4.505-.577.68-.9,1.244-.762,1.382.184.183,1.1-.444,2.052-1.4s1.57-1.877,1.387-2.06c-.092-.091-.367.019-.739.273-.15.1-.316.228-.491.372-1.609-.323-3.453-2.47-4.8-4.375a18.871,18.871,0,0,0,3.827-5.23,20.485,20.485,0,0,1,7.063,2.9c-.353,1.137-.455,2-.212,2.094.321.128,1.12-1.12,1.785-2.787s.945-3.122.625-3.251c-.161-.064-.441.217-.763.721-.131.2-.269.447-.409.717-1.9.393-4.788-.88-7.265-2.314a19.088,19.088,0,0,0,1.1-8.007,15.788,15.788,0,0,1,5.444-.891c.23.863.508,1.45.7,1.414.255-.046.263-1.158.019-2.483s-.647-2.359-.9-2.313c-.128.023-.194.313-.2.762,0,.181.008.389.027.616-1.006.969-3.2,1.326-5.267,1.424a18.9,18.9,0,0,0-2.463-6.8,22.368,22.368,0,0,1,5.693-3.448c.732.938,1.381,1.512,1.6,1.367.289-.19-.282-1.558-1.274-3.055s-2.028-2.556-2.316-2.365c-.143.095-.073.485.158,1.038.093.224.213.475.355.744-.678,1.593-2.89,3.074-5.2,4.24a18.9,18.9,0,0,0-6.093-5.376,22.751,22.751,0,0,1,3.29-5.528c1.09.477,1.934.674,2.057.443.163-.3-.989-1.237-2.573-2.082s-3-1.284-3.161-.979c-.081.152.166.461.631.838.188.153.414.317.667.485.157,1.686-1.026,3.973-2.455,6.056a19.1,19.1,0,0,0-8.618-1.606,16.772,16.772,0,0,1-.15-4.97c.882-.134,1.5-.346,1.483-.541-.018-.259-1.122-.39-2.466-.294s-2.417.383-2.4.641c.009.13.29.227.735.28.18.022.388.036.615.042.792,1.029.945,3.018.857,4.955a18.889,18.889,0,0,0-6.965,2.255,22.053,22.053,0,0,1-2.884-6.16c1.012-.625,1.655-1.206,1.535-1.438-.158-.307-1.58.108-3.177.928s-2.764,1.734-2.606,2.041c.078.154.474.127,1.048-.042.232-.068.495-.159.776-.27,1.569.881,2.832,3.393,3.746,5.911a18.9,18.9,0,0,0-5.6,6.006,15.226,15.226,0,0,1-4.963-2.991c.393-.8.568-1.428.4-1.527-.223-.132-.96.7-1.646,1.859s-1.062,2.2-.84,2.337c.111.066.352-.109.649-.445.119-.135.249-.3.383-.481,1.5-.076,3.562,1.278,5.261,2.671a19.1,19.1,0,0,0-1.776,6.379,20.112,20.112,0,0,1-7.743-1.062c.064-1.188-.048-2.047-.307-2.081-.343-.046-.812,1.361-1.048,3.14s-.15,3.259.192,3.3c.171.022.374-.318.564-.885.077-.229.151-.5.22-.792,1.839-.894,5.185-.264,8.039.584a18.88,18.88,0,0,0,1.472,6.977c-1.548,1.849-4.906,2.835-6.061,3.128-.434-.78-.848-1.28-1.026-1.2-.235.108.028,1.187.59,2.412s1.206,2.13,1.441,2.021c.118-.053.111-.351,0-.787-.042-.175-.1-.375-.176-.59.917-1.474,3.841-2.48,6.17-3.061.231.413.474.821.739,1.221a19.023,19.023,0,0,0,2.859,3.381c-1.14,2.9-4.435,5.6-5.63,6.512-.94-.729-1.71-1.126-1.887-.934-.232.256.656,1.442,1.984,2.65S1776.372,700.3,1776.6,700.045Z" transform="translate(-1764.153 -651.369)" fill="#0f92bf"/>
      <path id="Trazado_7169" data-name="Trazado 7169" d="M1808.041,683.93a.7.7,0,1,1-.968-.2A.7.7,0,0,1,1808.041,683.93Z" transform="translate(-1765.496 -652.385)" fill="#19b6db"/>
      <path id="Trazado_7170" data-name="Trazado 7170" d="M1798.569,663.725a1,1,0,1,1,1.386.282A1,1,0,0,1,1798.569,663.725Z" transform="translate(-1765.232 -651.709)" fill="#19b6db"/>
      <path id="Trazado_7171" data-name="Trazado 7171" d="M1780.33,669.765c-.694-1.049,1.065-3.437,3.931-5.336s5.752-2.585,6.446-1.536-1.065,3.437-3.93,5.335S1781.025,670.813,1780.33,669.765Z" transform="translate(-1764.658 -651.716)" fill="#19b6db"/>
      <path id="Trazado_7172" data-name="Trazado 7172" d="M1800.321,674.58c-3.257-2.891-4.924-6.33-3.724-7.682s4.812-.1,8.07,2.787,4.925,6.331,3.725,7.683S1803.578,677.472,1800.321,674.58Z" transform="translate(-1765.163 -651.841)" fill="#19b6db"/>
      <path id="Trazado_7173" data-name="Trazado 7173" d="M1775.611,677.042a1.5,1.5,0,1,1,2.079.422A1.5,1.5,0,0,1,1775.611,677.042Z" transform="translate(-1764.506 -652.104)" fill="#19b6db"/>
      <path id="Trazado_7174" data-name="Trazado 7174" d="M1782.215,681.695c-1.184-2.905-.616-5.882,1.268-6.65s4.37.966,5.553,3.87.616,5.883-1.268,6.65S1783.4,684.6,1782.215,681.695Z" transform="translate(-1764.703 -652.109)" fill="#19b6db"/>
      <path id="Trazado_7175" data-name="Trazado 7175" d="M1798.835,686.028c1.955-1.294,4.348-1.124,5.343.38s.218,3.772-1.736,5.066-4.347,1.125-5.343-.379S1796.881,687.323,1798.835,686.028Z" transform="translate(-1765.177 -652.433)" fill="#19b6db"/>
      <path id="Trazado_7176" data-name="Trazado 7176" d="M1783.771,690.459c.231-1.4,2.1-2.253,4.185-1.91s3.581,1.755,3.35,3.152-2.1,2.253-4.185,1.909S1783.541,691.857,1783.771,690.459Z" transform="translate(-1764.771 -652.538)" fill="#19b6db"/>
    </g>
    <g id="Grupo_2108" data-name="Grupo 2108" transform="translate(1379.621 834.865)" opacity="0.2">
      <path id="Trazado_7177" data-name="Trazado 7177" d="M1408.01,849.235c-.089.038-.091.258-.023.584.027.133.067.283.116.445-.688,1.022-2.726,1.68-4.426,2.06a10.564,10.564,0,0,0-2.3-2.789c.085-1.39,1.568-2.956,2.072-3.449.427.254.766.379.829.289.083-.117-.346-.563-.959-.995s-1.176-.687-1.259-.569c-.042.059.045.2.218.381.07.072.156.151.251.232-.029,1-1.238,2.366-2.217,3.3a10.592,10.592,0,0,0-2.919-1.346,10.319,10.319,0,0,1,.891-4.67c.657.087,1.138.063,1.169-.079.04-.188-.719-.509-1.7-.72s-1.8-.227-1.841-.039c-.02.094.159.222.466.352.124.052.269.106.43.157.439,1.122-.143,3.1-.783,4.7a10.6,10.6,0,0,0-3.1,0c-.276.042-.546.1-.813.157a7.469,7.469,0,0,1-1.384-3.417c.451-.206.748-.414.71-.516-.049-.136-.661-.037-1.365.221s-1.234.575-1.185.711c.024.068.19.076.437.037.1-.016.213-.041.335-.073.735.542,1.158,2.06,1.388,3.338a10.494,10.494,0,0,0-3.163,1.734,11.426,11.426,0,0,1-2.875-3.13c.447-.49.7-.9.6-1.005-.132-.14-.829.3-1.557.984s-1.214,1.351-1.082,1.492c.066.07.273-.006.555-.183.114-.073.241-.162.375-.265,1.052.251,2.206,1.574,3.117,2.88a10.625,10.625,0,0,0-2.443,3.777,8.8,8.8,0,0,1-2.955-.835c.088-.489.086-.851-.019-.878-.139-.037-.407.522-.6,1.246s-.229,1.342-.09,1.379c.07.018.172-.112.279-.338.043-.091.088-.2.132-.317a5,5,0,0,1,2.991.525,10.517,10.517,0,0,0-.361,4.008,12.445,12.445,0,0,1-3.684.4c-.147-.645-.339-1.088-.483-1.066-.19.028-.226.852-.078,1.841s.419,1.767.609,1.738c.095-.015.151-.228.166-.561.006-.135,0-.289,0-.459a6.2,6.2,0,0,1,3.62-.911,10.511,10.511,0,0,0,1.8,4.147,12.671,12.671,0,0,1-2.962,2.011c-.438-.5-.816-.8-.933-.709-.154.115.206.857.806,1.657s1.209,1.355,1.363,1.24c.077-.058.025-.272-.121-.571-.059-.122-.134-.258-.222-.4a6.067,6.067,0,0,1,2.666-2.474,10.606,10.606,0,0,0,3.966,2.843,9.346,9.346,0,0,1-1.1,2.541c-.476-.141-.836-.179-.875-.078-.051.135.474.462,1.174.73s1.308.377,1.361.243c.025-.068-.093-.183-.305-.315-.086-.053-.187-.109-.3-.167a4.641,4.641,0,0,1,.737-2.7,10.51,10.51,0,0,0,4.043.506,12.3,12.3,0,0,1,0,3.786c-.658.076-1.119.218-1.114.363.007.192.822.318,1.821.282s1.8-.223,1.795-.415c0-.1-.208-.175-.539-.227-.133-.02-.287-.036-.454-.047-.583-.815-.628-2.379-.494-3.863a10.516,10.516,0,0,0,4.24-1.706,8.474,8.474,0,0,1,1.8,2.678c-.387.312-.624.585-.562.676.08.119.649-.127,1.268-.549s1.056-.861.974-.98c-.04-.059-.2-.027-.432.072-.092.04-.2.093-.306.153a5.378,5.378,0,0,1-2.022-2.588,10.65,10.65,0,0,0,2.4-2.8,11.2,11.2,0,0,1,3.653,2.361c-.313.585-.459,1.044-.336,1.122.162.1.73-.495,1.269-1.336s.844-1.608.683-1.711c-.081-.052-.263.072-.493.314-.093.1-.193.215-.3.347-1.138.016-2.677-1.09-3.915-2.19a10.53,10.53,0,0,0,.9-3.865,7.218,7.218,0,0,1,3.793-.147c.035.5.126.845.235.846.144,0,.265-.605.271-1.355s-.106-1.358-.25-1.359c-.072,0-.138.151-.188.4-.019.1-.037.213-.049.339-.811.527-2.522.345-3.833.088-.019-.262-.044-.526-.084-.79a10.568,10.568,0,0,0-.643-2.379,10.242,10.242,0,0,1,4.374-1.955c.3.59.6.972.73.916.178-.075.01-.881-.375-1.8S1408.187,849.162,1408.01,849.235Z" transform="translate(-1379.621 -841.742)" fill="#0f92bf"/>
      <path id="Trazado_7178" data-name="Trazado 7178" d="M1389.1,851.053a.389.389,0,1,1,.442.327A.39.39,0,0,1,1389.1,851.053Z" transform="translate(-1379.92 -842.021)" fill="#19b6db"/>
      <path id="Trazado_7179" data-name="Trazado 7179" d="M1389.1,863.46a.557.557,0,1,1-.633-.469A.557.557,0,0,1,1389.1,863.46Z" transform="translate(-1379.885 -842.411)" fill="#19b6db"/>
      <path id="Trazado_7180" data-name="Trazado 7180" d="M1399.574,864.61c.1.692-1.348,1.482-3.241,1.763s-3.509-.053-3.611-.746,1.347-1.482,3.24-1.763S1399.471,863.917,1399.574,864.61Z" transform="translate(-1380.034 -842.435)" fill="#19b6db"/>
      <path id="Trazado_7181" data-name="Trazado 7181" d="M1391.651,856.643c.961,2.226.99,4.353.066,4.751s-2.451-1.083-3.411-3.308-.989-4.353-.065-4.751S1390.691,854.418,1391.651,856.643Z" transform="translate(-1379.872 -842.105)" fill="#19b6db"/>
      <path id="Trazado_7182" data-name="Trazado 7182" d="M1403.8,862.14a.835.835,0,1,1-.948-.7A.835.835,0,0,1,1403.8,862.14Z" transform="translate(-1380.331 -842.362)" fill="#19b6db"/>
      <path id="Trazado_7183" data-name="Trazado 7183" d="M1401.516,858.078c-.088,1.743-1.077,3.11-2.207,3.053s-1.976-1.518-1.887-3.261,1.077-3.111,2.207-3.053S1401.6,856.335,1401.516,858.078Z" transform="translate(-1380.182 -842.153)" fill="#19b6db"/>
      <path id="Trazado_7184" data-name="Trazado 7184" d="M1394.136,852.047a2.145,2.145,0,0,1-2.6-1.452c-.147-.993.78-1.953,2.07-2.144a2.145,2.145,0,0,1,2.6,1.451C1396.354,850.894,1395.427,851.855,1394.136,852.047Z" transform="translate(-1379.996 -841.952)" fill="#19b6db"/>
      <path id="Trazado_7185" data-name="Trazado 7185" d="M1402.784,853.388c-.446.651-1.592.639-2.56-.024s-1.391-1.729-.945-2.38,1.592-.639,2.561.025S1403.231,852.738,1402.784,853.388Z" transform="translate(-1380.235 -842.018)" fill="#19b6db"/>
    </g>
    <g id="Grupo_2109" data-name="Grupo 2109" transform="translate(1508.454 679.255)" opacity="0.25">
      <path id="Trazado_7186" data-name="Trazado 7186" d="M1532.514,686.314c-.062.025-.064.18-.016.409.019.092.047.2.081.31-.481.716-1.908,1.177-3.1,1.442a7.4,7.4,0,0,0-1.608-1.953,4.679,4.679,0,0,1,1.45-2.413c.3.177.536.265.581.2.058-.082-.242-.394-.671-.7s-.823-.48-.881-.4c-.029.041.031.14.153.265.048.05.108.107.174.164-.019.7-.866,1.655-1.551,2.311a7.444,7.444,0,0,0-2.044-.942,7.239,7.239,0,0,1,.624-3.269c.459.062.8.045.817-.055.029-.132-.5-.356-1.187-.5s-1.261-.159-1.289-.027c-.015.066.111.155.326.246.086.037.188.074.3.11.308.784-.1,2.173-.548,3.29a7.412,7.412,0,0,0-2.171,0c-.193.029-.382.067-.569.109a5.228,5.228,0,0,1-.969-2.39c.316-.145.523-.291.5-.362-.035-.095-.462-.025-.955.155s-.864.4-.829.5c.018.047.133.054.306.026.07-.012.149-.028.234-.05a4.131,4.131,0,0,1,.971,2.336,7.365,7.365,0,0,0-2.214,1.214,7.981,7.981,0,0,1-2.012-2.191c.313-.343.491-.63.421-.7-.092-.1-.58.21-1.09.689s-.848.946-.756,1.044c.046.049.191,0,.388-.128.079-.05.169-.113.262-.185a4.882,4.882,0,0,1,2.181,2.015,7.432,7.432,0,0,0-1.709,2.643,6.141,6.141,0,0,1-2.069-.584c.062-.342.06-.6-.014-.615-.1-.025-.285.365-.417.873s-.161.939-.063.966c.048.013.12-.078.195-.236.031-.064.062-.139.093-.222a3.494,3.494,0,0,1,2.093.367,7.344,7.344,0,0,0-.253,2.8,8.717,8.717,0,0,1-2.578.277c-.1-.452-.238-.761-.339-.747-.133.019-.158.6-.055,1.288s.295,1.237.427,1.216c.067-.01.106-.159.116-.391,0-.095,0-.2,0-.321a4.345,4.345,0,0,1,2.534-.638,7.338,7.338,0,0,0,1.262,2.9,8.861,8.861,0,0,1-2.073,1.407c-.306-.349-.571-.557-.653-.5-.108.08.144.6.564,1.159s.847.948.954.868c.054-.041.017-.19-.084-.4-.042-.085-.094-.18-.155-.282a4.243,4.243,0,0,1,1.865-1.731,7.442,7.442,0,0,0,2.776,1.989,6.529,6.529,0,0,1-.768,1.778c-.333-.1-.585-.125-.612-.053-.036.094.331.323.821.51s.916.263.952.169c.018-.047-.065-.128-.213-.22-.06-.038-.132-.077-.21-.116a3.249,3.249,0,0,1,.515-1.89,7.358,7.358,0,0,0,2.83.354,8.594,8.594,0,0,1,0,2.649c-.461.053-.783.152-.78.255,0,.134.575.222,1.274.2s1.261-.155,1.256-.29c0-.067-.146-.123-.377-.159-.093-.014-.2-.025-.319-.032a4.507,4.507,0,0,1-.346-2.7,7.367,7.367,0,0,0,2.969-1.194,5.926,5.926,0,0,1,1.257,1.875c-.271.217-.437.409-.393.473.056.083.454-.089.887-.384s.739-.6.682-.686c-.028-.042-.141-.019-.3.05-.064.027-.137.065-.214.107a3.761,3.761,0,0,1-1.416-1.811,7.436,7.436,0,0,0,1.68-1.957,7.836,7.836,0,0,1,2.557,1.652c-.219.41-.322.731-.235.785.113.073.51-.346.888-.935s.591-1.125.477-1.2c-.056-.036-.184.05-.345.22-.065.068-.136.15-.208.243a5.138,5.138,0,0,1-2.74-1.533,7.357,7.357,0,0,0,.632-2.705,5.053,5.053,0,0,1,2.655-.1c.024.347.088.592.165.593.1,0,.186-.424.19-.949s-.074-.95-.175-.951c-.05,0-.1.106-.131.278-.013.069-.026.149-.035.237a4.392,4.392,0,0,1-2.683.061c-.014-.184-.032-.368-.059-.553a7.433,7.433,0,0,0-.45-1.665,7.163,7.163,0,0,1,3.061-1.367c.211.413.417.68.511.64.124-.051.007-.617-.262-1.262S1532.638,686.262,1532.514,686.314Z" transform="translate(-1512.645 -681.069)" fill="#0f92bf"/>
      <path id="Trazado_7187" data-name="Trazado 7187" d="M1519.276,687.586a.272.272,0,1,1,.309.229A.272.272,0,0,1,1519.276,687.586Z" transform="translate(-1512.854 -681.264)" fill="#19b6db"/>
      <path id="Trazado_7188" data-name="Trazado 7188" d="M1519.277,696.269a.39.39,0,1,1-.443-.328A.389.389,0,0,1,1519.277,696.269Z" transform="translate(-1512.829 -681.537)" fill="#19b6db"/>
      <path id="Trazado_7189" data-name="Trazado 7189" d="M1526.609,697.074c.073.485-.943,1.037-2.267,1.234s-2.456-.038-2.528-.522.943-1.037,2.267-1.234S1526.537,696.59,1526.609,697.074Z" transform="translate(-1512.934 -681.554)" fill="#19b6db"/>
      <path id="Trazado_7190" data-name="Trazado 7190" d="M1521.065,691.5c.671,1.558.693,3.047.046,3.326s-1.715-.758-2.387-2.316-.692-3.047-.046-3.326S1520.393,689.941,1521.065,691.5Z" transform="translate(-1512.82 -681.323)" fill="#19b6db"/>
      <path id="Trazado_7191" data-name="Trazado 7191" d="M1529.566,695.346a.585.585,0,1,1-.664-.493A.585.585,0,0,1,1529.566,695.346Z" transform="translate(-1513.141 -681.503)" fill="#19b6db"/>
      <path id="Trazado_7192" data-name="Trazado 7192" d="M1527.969,692.5c-.062,1.22-.753,2.176-1.545,2.136s-1.383-1.062-1.321-2.283.753-2.176,1.545-2.137S1528.031,691.282,1527.969,692.5Z" transform="translate(-1513.037 -681.357)" fill="#19b6db"/>
      <path id="Trazado_7193" data-name="Trazado 7193" d="M1522.8,688.281a1.5,1.5,0,0,1-1.822-1.016c-.1-.694.545-1.367,1.449-1.5a1.5,1.5,0,0,1,1.822,1.016C1524.356,687.476,1523.707,688.148,1522.8,688.281Z" transform="translate(-1512.907 -681.216)" fill="#19b6db"/>
      <path id="Trazado_7194" data-name="Trazado 7194" d="M1528.856,689.22c-.312.455-1.114.447-1.792-.017s-.973-1.211-.661-1.666,1.114-.447,1.791.017S1529.169,688.765,1528.856,689.22Z" transform="translate(-1513.074 -681.262)" fill="#19b6db"/>
    </g>
    <g id="Grupo_2110" data-name="Grupo 2110" transform="translate(1530.333 768.212)" opacity="0.3">
      <path id="Trazado_7195" data-name="Trazado 7195" d="M1549.525,776.692c-.045.018-.046.13-.012.293.015.067.034.142.059.224a4.014,4.014,0,0,1-2.228,1.037,5.322,5.322,0,0,0-1.156-1.4,3.351,3.351,0,0,1,1.043-1.736c.215.128.385.19.417.145s-.174-.284-.482-.5-.593-.346-.634-.287c-.02.03.023.1.11.192.035.036.078.076.126.117-.015.5-.623,1.19-1.116,1.662a5.345,5.345,0,0,0-1.47-.678,5.191,5.191,0,0,1,.449-2.351c.33.044.572.032.588-.04.02-.095-.362-.257-.854-.362s-.907-.114-.927-.019c-.01.047.08.111.235.176.062.027.135.053.216.079a3.92,3.92,0,0,1-.394,2.367,5.314,5.314,0,0,0-1.562,0c-.138.02-.274.047-.409.078a3.776,3.776,0,0,1-.7-1.72c.228-.1.377-.208.358-.26-.025-.069-.332-.019-.687.11s-.622.29-.6.358c.013.034.095.039.22.018a1.64,1.64,0,0,0,.168-.037,2.976,2.976,0,0,1,.7,1.68,5.287,5.287,0,0,0-1.592.873,5.722,5.722,0,0,1-1.448-1.576c.225-.246.353-.452.3-.506-.066-.071-.416.151-.783.495s-.611.681-.544.752c.033.035.137,0,.279-.093.057-.036.121-.081.189-.133a3.5,3.5,0,0,1,1.569,1.45,5.346,5.346,0,0,0-1.23,1.9,4.418,4.418,0,0,1-1.487-.42c.044-.246.043-.428-.011-.443-.07-.018-.2.262-.3.628s-.116.676-.047.694c.036.01.086-.056.14-.171.022-.045.045-.1.067-.159a2.508,2.508,0,0,1,1.506.264,5.288,5.288,0,0,0-.183,2.016,6.25,6.25,0,0,1-1.854.2c-.074-.324-.171-.547-.243-.537-.1.014-.113.429-.04.926s.211.89.307.875c.047-.007.076-.114.083-.282,0-.068,0-.146,0-.231a3.126,3.126,0,0,1,1.822-.459,5.3,5.3,0,0,0,.907,2.088,6.375,6.375,0,0,1-1.49,1.012c-.221-.251-.412-.4-.47-.356-.078.057.1.431.406.834s.608.682.686.624c.039-.029.013-.137-.061-.288-.029-.061-.068-.13-.111-.2a3.048,3.048,0,0,1,1.342-1.245,5.344,5.344,0,0,0,2,1.431,4.765,4.765,0,0,1-.552,1.278c-.24-.071-.421-.09-.441-.039-.026.068.238.232.591.367s.659.19.685.123c.013-.034-.046-.092-.154-.159a1.576,1.576,0,0,0-.151-.083,2.341,2.341,0,0,1,.371-1.359,5.307,5.307,0,0,0,2.036.255,6.2,6.2,0,0,1,0,1.9c-.331.039-.563.109-.561.183,0,.1.415.16.917.141s.907-.111.9-.208c0-.048-.106-.088-.271-.114-.067-.01-.144-.017-.229-.023a3.239,3.239,0,0,1-.249-1.945,5.3,5.3,0,0,0,2.135-.858,4.25,4.25,0,0,1,.9,1.348c-.195.156-.314.294-.283.34s.327-.064.638-.276.532-.434.491-.494c-.02-.03-.1-.014-.218.036-.046.02-.1.047-.154.077a2.7,2.7,0,0,1-1.018-1.3,5.358,5.358,0,0,0,1.209-1.408,5.642,5.642,0,0,1,1.838,1.188c-.157.294-.231.526-.169.566.081.052.367-.249.638-.673s.425-.809.344-.861c-.041-.026-.133.036-.248.158-.047.049-.1.108-.15.174a3.691,3.691,0,0,1-1.971-1.1,5.28,5.28,0,0,0,.455-1.946,3.632,3.632,0,0,1,1.909-.074c.018.249.064.425.119.426.072,0,.134-.305.137-.682s-.053-.684-.126-.685c-.037,0-.07.076-.095.2-.01.049-.018.108-.025.17a3.152,3.152,0,0,1-1.929.044c-.01-.132-.022-.264-.043-.4a5.36,5.36,0,0,0-.323-1.2,5.145,5.145,0,0,1,2.2-.984c.152.3.3.489.368.461.089-.038,0-.444-.189-.909S1549.614,776.655,1549.525,776.692Z" transform="translate(-1535.236 -772.92)" fill="#0f92bf"/>
      <path id="Trazado_7196" data-name="Trazado 7196" d="M1540.005,777.607a.2.2,0,1,1,.222.165A.2.2,0,0,1,1540.005,777.607Z" transform="translate(-1535.386 -773.061)" fill="#19b6db"/>
      <path id="Trazado_7197" data-name="Trazado 7197" d="M1540.006,783.852a.281.281,0,1,1-.319-.236A.282.282,0,0,1,1540.006,783.852Z" transform="translate(-1535.369 -773.257)" fill="#19b6db"/>
      <path id="Trazado_7198" data-name="Trazado 7198" d="M1545.279,784.431c.052.349-.678.746-1.631.887s-1.766-.027-1.818-.376.679-.746,1.631-.887S1545.227,784.083,1545.279,784.431Z" transform="translate(-1535.444 -773.269)" fill="#19b6db"/>
      <path id="Trazado_7199" data-name="Trazado 7199" d="M1541.291,780.421c.483,1.12.5,2.192.033,2.392s-1.233-.545-1.716-1.666-.5-2.191-.033-2.391S1540.808,779.3,1541.291,780.421Z" transform="translate(-1535.362 -773.103)" fill="#19b6db"/>
      <path id="Trazado_7200" data-name="Trazado 7200" d="M1547.406,783.188a.421.421,0,1,1-.478-.354A.421.421,0,0,1,1547.406,783.188Z" transform="translate(-1535.593 -773.232)" fill="#19b6db"/>
      <path id="Trazado_7201" data-name="Trazado 7201" d="M1546.257,781.144c-.045.878-.542,1.565-1.111,1.536s-.995-.763-.95-1.642.542-1.565,1.111-1.536S1546.3,780.265,1546.257,781.144Z" transform="translate(-1535.518 -773.127)" fill="#19b6db"/>
      <path id="Trazado_7202" data-name="Trazado 7202" d="M1542.542,778.108a1.08,1.08,0,0,1-1.31-.731c-.075-.5.392-.983,1.042-1.079a1.079,1.079,0,0,1,1.31.73C1543.659,777.527,1543.192,778.011,1542.542,778.108Z" transform="translate(-1535.425 -773.026)" fill="#19b6db"/>
      <path id="Trazado_7203" data-name="Trazado 7203" d="M1546.9,778.783c-.225.327-.8.322-1.289-.013s-.7-.87-.475-1.2.8-.323,1.289.012S1547.119,778.455,1546.9,778.783Z" transform="translate(-1535.545 -773.059)" fill="#19b6db"/>
    </g>
    <g id="Grupo_2167" data-name="Grupo 2167" transform="translate(1428.413 623.488)">
      <g id="Grupo_2158" data-name="Grupo 2158" transform="translate(0 68.163)">
        <path id="Trazado_7204" data-name="Trazado 7204" d="M1484.522,766.062a37.18,37.18,0,0,0,.468,7.275c1.068,6.308,1.523,12.171,1.841,13.384,6.072,4.178,10.812,14.76,18.156,22.962,2.519,2.53,4.94,4.615,7.291,6.78a27.181,27.181,0,0,1,4.692,5.922c1.266,2.165,3.874,6.469,2.054,6.276-1.84-.192-7.148-4.1-8.923-6.258-1.555-1.892-2.926-4.373-4.208-5.683-4.339-4.424-7.666-5.405-13.558-10.492-6.265-5.405-12.79-12.313-14.73-18.272a4.224,4.224,0,0,1-.445-1.316c-.525-3.692-2.144-11.8-2.942-20.579Z" transform="translate(-1431.393 -696.142)" fill="#f7c9b2"/>
        <g id="Grupo_2111" data-name="Grupo 2111" transform="translate(0 72.616)">
          <rect id="Rectángulo_776" data-name="Rectángulo 776" width="4.107" height="90.664" transform="translate(63.434 162.784) rotate(-180)" fill="#d7d8d9"/>
          <rect id="Rectángulo_777" data-name="Rectángulo 777" width="3.661" height="90.664" transform="translate(11.132 162.784) rotate(-180)" fill="#d7d8d9"/>
          <path id="Trazado_7205" data-name="Trazado 7205" d="M1430,768.846h17.34l8.913,69.748h-17.34Z" transform="translate(-1430 -768.846)" fill="#d7d8d9"/>
          <path id="Trazado_7206" data-name="Trazado 7206" d="M1433.721,768.846l8.906,69.748h-3.713L1430,768.846Z" transform="translate(-1430 -768.846)" fill="#d7d8d9" opacity="0.3" style="mix-blend-mode: multiply;isolation: isolate"/>
          <rect id="Rectángulo_778" data-name="Rectángulo 778" width="55.535" height="11.816" transform="translate(63.434 81.234) rotate(-180)" fill="#d7d8d9"/>
          <rect id="Rectángulo_779" data-name="Rectángulo 779" width="55.535" height="0.829" transform="translate(63.434 77.406) rotate(-180)" fill="#d7d8d9" opacity="0.3" style="mix-blend-mode: multiply;isolation: isolate"/>
          <rect id="Rectángulo_780" data-name="Rectángulo 780" width="55.535" height="2.862" transform="translate(63.434 129.781) rotate(-180)" fill="#d7d8d9"/>
          <rect id="Rectángulo_781" data-name="Rectángulo 781" width="55.535" height="2.862" transform="translate(63.434 136.694) rotate(-180)" fill="#d7d8d9"/>
          <rect id="Rectángulo_782" data-name="Rectángulo 782" width="55.535" height="2.743" transform="translate(63.434 74.863) rotate(-180)" fill="#d7d8d9" opacity="0.3" style="mix-blend-mode: multiply;isolation: isolate"/>
          <rect id="Rectángulo_783" data-name="Rectángulo 783" width="63.497" height="6.174" transform="translate(67.414 72.12) rotate(-180)" fill="#38324d"/>
        </g>
        <path id="Trazado_7207" data-name="Trazado 7207" d="M1470.222,727.738a8.569,8.569,0,0,1,2.532.684c-.343-3.412-1.094-6.873-1.67-7.345-.933-.8.833-.981.833-.981l1.464-1.677a13.069,13.069,0,0,1,2.773,3.606l-.68-3.405,1.353-6.04a42.712,42.712,0,0,0,1.434,6.308c.7,1.683,1.312,2.084.494,5-.535,1.9.941,3.252,1.6,4.512s.817,3.891.376,6.411a17.129,17.129,0,0,0,.435,6.68c.591,1.754,2.108,4.051-.127,6.976s2.42,7.851.134,10.084a1.753,1.753,0,0,0-.505.818c.115.464.242.917.364,1.367.974,1.428,3.472,2.751,3.729,3.869.382,1.654-2.215,2.509-2.055,5.513.126,2.278,1.252,2.478-2.532,8.24v0a15.072,15.072,0,0,1-1.915,2.628,9.34,9.34,0,0,0,1.714-3.487l-.145-.6a9.248,9.248,0,0,1-.447.918c1.149-3.308-2.672-4.508-2.219-6.222a12.36,12.36,0,0,0,.394-2.888c-1.978-1.773-4.461-4.152-4.36-7.709-1.264-.532-2.322-1.092-1.516-2.863,1.368-3.04,1.463-2.969.572-5.947-.911-2.969-.357-3.085.512-5.375a3.591,3.591,0,0,0,.115-.668,5.653,5.653,0,0,1-3.475.829c-4.717-.454-9.006-6.777-8.553-11.5A8.6,8.6,0,0,1,1470.222,727.738Z" transform="translate(-1430.971 -694.457)" fill="#45383c"/>
        <g id="Grupo_2112" data-name="Grupo 2112" transform="translate(9.61 14.197)">
          <path id="Trazado_7208" data-name="Trazado 7208" d="M1462.888,783.764a9.372,9.372,0,0,0,1.339.536c.227.059.394.1.643.17a3.024,3.024,0,0,1-2.754-.717c.3.074.606.152.981.249A2.829,2.829,0,0,1,1462.888,783.764Z" transform="translate(-1440.621 -710.897)" fill="#45383c"/>
          <path id="Trazado_7209" data-name="Trazado 7209" d="M1444.073,722.154c1.929-4.334.635-8.144.372-13.627l3.869,13.01,1.821,1.467s.915.42.978,1.06l2.933,3.182a59.332,59.332,0,0,1-.9,9.277c-.807,3.639,1.245,5.791,2.368,8.527s.32,3.627-.625,6.452a4.41,4.41,0,0,0,.635,3.721,52.638,52.638,0,0,1,4.14,5.032c.874.246,1.67.469,1.807,1.052.267,1.2,2.018,5.8.873,8.839a46.348,46.348,0,0,1-1.044,6.007c-.413,3.04.156,4.5.884,5.24a9.026,9.026,0,0,1-1.434-.87,3.733,3.733,0,0,0,.661.859c-3.111-.752-2.568-.461-5.17-2.613-3.189-2.631-4.561-5.646-3.193-9.3s-1.149-5.4-4.668-9.2-6.2-7.174-4.055-11.311,1.208-2.78-2.817-9.939C1437.49,731.84,1442.136,726.488,1444.073,722.154Z" transform="translate(-1439.922 -708.527)" fill="#45383c"/>
        </g>
        <g id="Grupo_2117" data-name="Grupo 2117" transform="translate(6.321 35.953)">
          <g id="Grupo_2114" data-name="Grupo 2114" transform="translate(1.626)">
            <g id="Grupo_2113" data-name="Grupo 2113">
              <path id="Trazado_7210" data-name="Trazado 7210" d="M1438.2,748.452c1.629-3.111,3.978-5.263,5.951-5.653,2.7-.539,3.182-.063,6.092-1.375s3.521-10.434,3.521-10.434l11.927,1.145s-1.2,7.857,1.4,9.7,2.7,2.141,5.248,3.185,6.806,3.479,7.092,8.745c.23,4.219,5.4,10.348,5.4,10.348l-24.888-2.4C1452.847,756.462,1445.754,752.99,1438.2,748.452Z" transform="translate(-1438.205 -730.99)" fill="#f7c9b2"/>
            </g>
          </g>
          <g id="Grupo_2116" data-name="Grupo 2116" transform="translate(0 11.054)">
            <g id="Grupo_2115" data-name="Grupo 2115">
              <path id="Trazado_7211" data-name="Trazado 7211" d="M1481.428,808.443s-4.783-17.251,3.342-29c4.68-6.769,1.078-12.1.011-14.976-30.81-11.2-35.084-17.961-36.849-22.067-2.914.059-8.765,1.371-11.021,5.754-2,3.9,4.416,14.481,4.416,14.481l16.1-1.029Z" transform="translate(-1436.526 -742.404)" fill="#e64663"/>
            </g>
          </g>
        </g>
        <g id="Grupo_2119" data-name="Grupo 2119" transform="translate(8.82 57.967)">
          <g id="Grupo_2118" data-name="Grupo 2118">
            <path id="Trazado_7212" data-name="Trazado 7212" d="M1449.652,753.721l21.484,12.832,13.726,11.259c-5.162,17.466-2.9,37.731-2.9,41.533-15.819,7.233-33.085-2.989-33.085-2.989l1.892-12.091c2.249-6.657-1.294-23.28-5.594-32.063-2.651-5.412-.223-8.266-.722-10.734-.267.111-.55.227-.829.342-.118-1.644-4.545-2.283-4.516-3.921C1442.969,757.55,1446.161,755.227,1449.652,753.721Z" transform="translate(-1439.107 -753.721)" fill="#df4033"/>
          </g>
        </g>
        <g id="Grupo_2121" data-name="Grupo 2121" transform="translate(38.798 48.334)">
          <g id="Grupo_2120" data-name="Grupo 2120">
            <path id="Trazado_7213" data-name="Trazado 7213" d="M1470.234,743.774a65.2,65.2,0,0,0,7.716,3.3c2.4.71,2.015,3.583,4.059,7.943a96.419,96.419,0,0,1,3.828,9.493L1470.06,760.1C1472.093,757.166,1471.766,747.461,1470.234,743.774Z" transform="translate(-1470.06 -743.774)" fill="#e64663"/>
          </g>
        </g>
        <g id="Grupo_2123" data-name="Grupo 2123" transform="translate(27.219)">
          <g id="Grupo_2122" data-name="Grupo 2122">
            <path id="Trazado_7214" data-name="Trazado 7214" d="M1476.809,711.773s.4-5.922-1.429-9.771c-2.129-4.494-7.023-9.442-15.53-7.818C1451.324,695.778,1476.809,711.773,1476.809,711.773Z" transform="translate(-1458.105 -693.868)" fill="#45383c"/>
          </g>
        </g>
        <g id="Grupo_2125" data-name="Grupo 2125" transform="translate(38.863 22.996)">
          <g id="Grupo_2124" data-name="Grupo 2124">
            <path id="Trazado_7215" data-name="Trazado 7215" d="M1476.106,718.533a2.161,2.161,0,0,1-.52,3.033l-2.03,1.427a2.151,2.151,0,0,1-3.022-.52h0a2.178,2.178,0,0,1,.517-3.048l2.021-1.416a2.178,2.178,0,0,1,3.033.524Z" transform="translate(-1470.127 -717.612)" fill="#df4033"/>
          </g>
        </g>
        <g id="Grupo_2127" data-name="Grupo 2127" transform="translate(13.047 0.461)">
          <g id="Grupo_2126" data-name="Grupo 2126">
            <path id="Trazado_7216" data-name="Trazado 7216" d="M1472.852,703.859c-3.5-6.244-9.3-11.884-18.554-8.5-9.744,3.573-12.027,13.635-10.3,19.1a30.693,30.693,0,0,0,4.658,9.483c.754.953,6.309,2.221,8.414,5.238C1459.184,732.218,1472.852,703.859,1472.852,703.859Z" transform="translate(-1443.471 -694.344)" fill="#45383c"/>
          </g>
        </g>
        <g id="Grupo_2131" data-name="Grupo 2131" transform="translate(22.02 28.626)">
          <g id="Grupo_2128" data-name="Grupo 2128">
            <path id="Trazado_7217" data-name="Trazado 7217" d="M1466.645,733.175l-.591-.416a.2.2,0,0,1,.011-.051.1.1,0,0,1,0-.03c0-.038.008-.075.012-.1,0-.011,0-.021.011-.025a.353.353,0,0,0,0-.056.159.159,0,0,1,.007-.045l-.573-.059-12.715-8.963a.365.365,0,0,1-.078.064c.6,1.944,2.464,8.98.3,14.176,3.17-.278,9.251-1.59,12.563-3.46a10.375,10.375,0,0,0,1.669-.427A3.862,3.862,0,0,1,1466.645,733.175Z" transform="translate(-1452.736 -723.425)" fill="#f7c9b2"/>
          </g>
          <g id="Grupo_2129" data-name="Grupo 2129">
            <path id="Trazado_7218" data-name="Trazado 7218" d="M1466.645,733.175l-.591-.416a.2.2,0,0,1,.011-.051.1.1,0,0,1,0-.03c0-.038.008-.075.012-.1,0-.011,0-.021.011-.025a.353.353,0,0,0,0-.056.159.159,0,0,1,.007-.045l-.573-.059-12.715-8.963a.365.365,0,0,1-.078.064c.6,1.944,2.464,8.98.3,14.176,3.17-.278,9.251-1.59,12.563-3.46a10.375,10.375,0,0,0,1.669-.427A3.862,3.862,0,0,1,1466.645,733.175Z" transform="translate(-1452.736 -723.425)" fill="#f5b39a"/>
          </g>
          <g id="Grupo_2130" data-name="Grupo 2130" transform="translate(14.529 10.174)">
            <path id="Trazado_7219" data-name="Trazado 7219" d="M1468.2,733.93s-.19.081-.461.178C1468.266,734.495,1468.2,733.93,1468.2,733.93Z" transform="translate(-1467.738 -733.93)" fill="#f7c9b2"/>
          </g>
        </g>
        <g id="Grupo_2133" data-name="Grupo 2133" transform="translate(18.154 7.951)">
          <g id="Grupo_2132" data-name="Grupo 2132">
            <path id="Trazado_7220" data-name="Trazado 7220" d="M1454.081,725.326c1.265,1.737,2.4,4.29,6.344,5.852,3.939,1.591,10.02,3.4,11.656,2.915,1.614-.492,3.012-.394,4.237-5.254s2.477-7.312,1.371-11.566-2.016-13.326-8.2-14.926c-4.569-1.206-10.537,1.794-12.839,6.2-2.318,4.422-2.008,5.708-1.563,11.462,0,0-3.908-2.9-5.061-2.725s-1.894,1.181-.573,3.29,1.77,1.561,2.2,2.716.913,2.283,1.624,2.531C1454.174,726.109,1454.081,725.326,1454.081,725.326Z" transform="translate(-1448.745 -702.078)" fill="#f7c9b2"/>
          </g>
        </g>
        <g id="Grupo_2135" data-name="Grupo 2135" transform="translate(17.365 6.756)">
          <g id="Grupo_2134" data-name="Grupo 2134">
            <path id="Trazado_7221" data-name="Trazado 7221" d="M1466.306,700.844s-2.287,14.287-10.814,19.613l-7.562-9.506,6.208-9.5Z" transform="translate(-1447.93 -700.844)" fill="#45383c"/>
          </g>
        </g>
        <g id="Grupo_2137" data-name="Grupo 2137" transform="translate(34.081 1.68)">
          <g id="Grupo_2136" data-name="Grupo 2136">
            <path id="Trazado_7222" data-name="Trazado 7222" d="M1465.19,701.766s6.985,5.3,11.595,5.87c0,0-3.218-9.651-10.108-12.033Z" transform="translate(-1465.19 -695.603)" fill="#45383c"/>
          </g>
        </g>
        <g id="Grupo_2146" data-name="Grupo 2146" transform="translate(21.826 108.789)">
          <g id="Grupo_2139" data-name="Grupo 2139">
            <g id="Grupo_2138" data-name="Grupo 2138">
              <path id="Trazado_7223" data-name="Trazado 7223" d="M1456.721,806.2c-1.311.855-14.024,25.428,12.526,31.007,27.438,5.761,40.723,9.906,40.723,9.906s-5.64,12.968,3.047,41.525c1.272,4.178,2.863,11.014,1.874,15.239a76.4,76.4,0,0,0,10.244,2.409s.085-55.683-.354-68.474c-.215-6.334-7.516-7.887-18.722-14.224C1494.764,817.2,1456.721,806.2,1456.721,806.2Z" transform="translate(-1452.536 -806.196)" fill="#1f4e60"/>
            </g>
          </g>
          <g id="Grupo_2140" data-name="Grupo 2140" transform="translate(60.869 86.032)">
            <path id="Trazado_7224" data-name="Trazado 7224" d="M1527.32,895.027c-.224,11.724,2.9,26.632,7.724,31.059l.39,7.479-19.841-14.8-.208-4.658s3.089-10.006.654-18.786c0,0,5.739.309,7.434.249C1526.844,895.455,1527.32,895.027,1527.32,895.027Z" transform="translate(-1515.385 -895.027)" fill="#f7c9b2"/>
          </g>
          <g id="Grupo_2141" data-name="Grupo 2141" transform="translate(60.869 86.032)">
            <path id="Trazado_7225" data-name="Trazado 7225" d="M1527.32,895.027c-.224,11.724,2.9,26.632,7.724,31.059l.39,7.479-19.841-14.8-.208-4.658s3.089-10.006.654-18.786c0,0,5.739.309,7.434.249C1526.844,895.455,1527.32,895.027,1527.32,895.027Z" transform="translate(-1515.385 -895.027)" fill="#f5b39a"/>
          </g>
          <g id="Grupo_2143" data-name="Grupo 2143" transform="translate(58.77 105.112)">
            <g id="Grupo_2142" data-name="Grupo 2142">
              <path id="Trazado_7226" data-name="Trazado 7226" d="M1515.317,914.727a10.215,10.215,0,0,0-1.766,8.654,34.038,34.038,0,0,1,1.282,10.641l2.323.012.1-11.154s4.91,4.935,6.156,7.66-.03,3.55,11.957,3.646c5.891.048,11.437-1.458,10.3-3.561-.758-1.378-8.49-3.044-10.69-3.918C1534.975,926.706,1527.5,929.71,1515.317,914.727Z" transform="translate(-1513.218 -914.727)" fill="#df4033"/>
            </g>
          </g>
          <g id="Grupo_2145" data-name="Grupo 2145" transform="translate(58.77 105.112)">
            <g id="Grupo_2144" data-name="Grupo 2144">
              <path id="Trazado_7227" data-name="Trazado 7227" d="M1515.317,914.727a10.215,10.215,0,0,0-1.766,8.654,34.038,34.038,0,0,1,1.282,10.641l2.323.012.1-11.154s4.91,4.935,6.156,7.66-.03,3.55,11.957,3.646c5.891.048,11.437-1.458,10.3-3.561-.758-1.378-8.49-3.044-10.69-3.918C1534.975,926.706,1527.5,929.71,1515.317,914.727Z" transform="translate(-1513.218 -914.727)" fill="#38324d"/>
            </g>
          </g>
        </g>
        <g id="Grupo_2148" data-name="Grupo 2148" transform="translate(16.497 102.523)">
          <g id="Grupo_2147" data-name="Grupo 2147">
            <path id="Trazado_7228" data-name="Trazado 7228" d="M1454.6,799.726c-1.315.855-19.937,34.526,6.613,40.109,27.438,5.762,40.718,9.906,40.718,9.906s-5.635,12.968,3.052,41.529c1.268,4.17,2.862,11.014,1.874,15.235a76.648,76.648,0,0,0,10.24,2.412s.085-55.686-.354-68.476c-.215-6.334-7.519-7.891-18.722-14.221-11.292-6.385-17.365-10.622-17.365-10.622Z" transform="translate(-1447.034 -799.726)" fill="#235670"/>
          </g>
        </g>
        <g id="Grupo_2150" data-name="Grupo 2150" transform="translate(13.374 58.551)">
          <g id="Grupo_2149" data-name="Grupo 2149">
            <path id="Trazado_7229" data-name="Trazado 7229" d="M1443.809,768.954a27.34,27.34,0,0,0,6.82-14.63l20.655,12.248,13.73,11.259c-7.3,4.468.673,32.954,2.327,36.556-15.819,7.237-40.411.9-40.411.9l3.985-11c2.249-6.657-1.294-23.28-5.594-32.063C1444.742,771.035,1444.262,769.969,1443.809,768.954Z" transform="translate(-1443.809 -754.324)" fill="#e64663"/>
          </g>
        </g>
        <g id="Grupo_2151" data-name="Grupo 2151" transform="translate(74.837 197.654)">
          <path id="Trazado_7230" data-name="Trazado 7230" d="M1519.2,897.952c-.22,11.727,2.906,26.635,7.728,31.063l.39,7.478-19.842-14.8-.208-4.657s3.086-10.006.655-18.789c0,0,5.738.312,7.43.253C1518.727,898.383,1519.2,897.952,1519.2,897.952Z" transform="translate(-1507.271 -897.952)" fill="#f7c9b2"/>
        </g>
        <g id="Grupo_2152" data-name="Grupo 2152" transform="translate(42.287 118.395)" opacity="0.75">
          <path id="Trazado_7231" data-name="Trazado 7231" d="M1515.189,834.739c-2.613-2.959-7.758-3.163-16.325-8-11.292-6.385-12.913-10.622-12.913-10.622-.293,2.345-12.288,3.542-12.288,3.542,6.538,2.565,16.819,4.6,19.547,7.419S1508.327,838.972,1515.189,834.739Z" transform="translate(-1473.663 -816.114)" fill="#1f4e60"/>
        </g>
        <g id="Grupo_2154" data-name="Grupo 2154" transform="translate(72.738 216.737)">
          <g id="Grupo_2153" data-name="Grupo 2153">
            <path id="Trazado_7232" data-name="Trazado 7232" d="M1507.2,917.655a10.219,10.219,0,0,0-1.765,8.654,34.135,34.135,0,0,1,1.282,10.641l2.323.012.093-11.154s4.914,4.935,6.155,7.657-.025,3.549,11.962,3.649c5.891.048,11.433-1.457,10.3-3.56-.762-1.383-8.49-3.045-10.69-3.918C1526.862,929.635,1519.391,932.639,1507.2,917.655Z" transform="translate(-1505.104 -917.655)" fill="#38324d"/>
          </g>
        </g>
        <g id="Grupo_2155" data-name="Grupo 2155" transform="translate(16.495 66.245)">
          <path id="Trazado_7233" data-name="Trazado 7233" d="M1487.443,814.636a83.827,83.827,0,0,1-3.506-12.556c-6.165-2.974-17.923-12.106-19.543-14.894-2.943-5.085-9.9-24.918-9.9-24.918-1.788,3.826-6.193,6.714-6.193,6.714l2.394,20.427c1.122,6.044,1.438,11.817.319,15.125l-3.985,11S1471.624,821.873,1487.443,814.636Z" transform="translate(-1447.032 -762.268)" fill="#d1466b"/>
        </g>
        <path id="Trazado_7234" data-name="Trazado 7234" d="M1438.2,751.78l14.05,3.483c.651,5.653.636,12.756,3.446,20.179,2.617,6.917,4.439,13.467,5.07,14.771,7.817,3.386,15.552,14.332,25.71,22,3.42,2.308,6.631,4.133,9.78,6.066a31.475,31.475,0,0,1,6.642,5.672c1.918,2.174,5.836,6.475,3.729,6.661-2.131.193-9.022-3.059-11.515-5.112-2.186-1.8-4.293-4.307-6.041-5.508-5.906-4.051-9.9-4.423-17.715-8.88-8.311-4.735-17.251-11.117-20.777-17.444a4.863,4.863,0,0,1-.8-1.394C1447.516,785.764,1439.555,767.071,1438.2,751.78Z" transform="translate(-1430.259 -695.692)" fill="#f7c9b2"/>
        <g id="Grupo_2157" data-name="Grupo 2157" transform="translate(6.113 53.277)">
          <g id="Grupo_2156" data-name="Grupo 2156">
            <path id="Trazado_7235" data-name="Trazado 7235" d="M1457.756,779.5l-12.132,4.122s-5.457-16.96-7.66-23.624c-2.748-8.311-1.239-11.121-1.239-11.121l11.117,2.194,4.91,1.52Z" transform="translate(-1436.312 -748.878)" fill="#e64663"/>
          </g>
        </g>
      </g>
      <g id="Grupo_1135" data-name="Grupo 1135" transform="translate(211.234)">
        <path id="Trazado_6202" data-name="Trazado 6202" d="M1660.807,689.308a5.288,5.288,0,0,1,7.208,1.992l0,.006.07.122,2.543,4.5c.432.742.878,1.476,1.315,2.212l1.318,2.205,1.365,2.163c.46.716.892,1.45,1.374,2.148l1.408,2.111c.461.709.953,1.391,1.436,2.076s.958,1.378,1.458,2.042l1.491,1.994c.5.659,1.019,1.291,1.526,1.937s1.036,1.249,1.552,1.873l.038.045c.236-.367.471-.742.7-1.132a44.668,44.668,0,0,0,3.743-8.688,75.749,75.749,0,0,0,2.421-9.944c.3-1.71.558-3.437.759-5.159.1-.862.19-1.72.262-2.565.037-.422.069-.843.094-1.249l.034-.6.01-.276v-.171h0v-.024a14.085,14.085,0,0,1,.187-1.649,12.672,12.672,0,0,1,24.967,4.355c-.008.047-.016.094-.025.14l-.055.3-.052.3-.047.243-.094.453-.191.859c-.127.558-.26,1.115-.394,1.653-.272,1.087-.558,2.154-.856,3.213q-.9,3.177-1.98,6.292a97.464,97.464,0,0,1-5.2,12.324c-1.033,2.026-2.167,4.039-3.427,6.019a56.862,56.862,0,0,1-4.236,5.836q-1.182,1.422-2.511,2.787c-.881.908-1.831,1.79-2.833,2.637A34.455,34.455,0,0,1,1693,735.1a33.592,33.592,0,0,1-3.556,2.074l-.78.392a8.379,8.379,0,0,1-9.386-1.306l-.187-.17-.093-.087-.047-.042-.025-.027-.195-.2-.192-.2c-.067-.068-.127-.133-.173-.187l-.611-.687-.535-.649c-.18-.218-.357-.434-.513-.641-.317-.419-.655-.843-.95-1.257l-.886-1.245c-.288-.415-.557-.826-.83-1.24s-.558-.825-.8-1.239c-.507-.826-1.041-1.647-1.508-2.477s-.975-1.649-1.411-2.482-.906-1.656-1.339-2.488l-1.262-2.5c-.423-.83-.8-1.673-1.2-2.506s-.8-1.672-1.156-2.51l-1.107-2.518c-.379-.835-.7-1.687-1.056-2.529l-1.034-2.527-.971-2.542c-.321-.846-.651-1.69-.963-2.538l-1.809-5.1A5.3,5.3,0,0,1,1660.807,689.308Z" transform="translate(-1648.422 -625.104)" fill="#fff"/>
        <path id="Trazado_6203" data-name="Trazado 6203" d="M1664.757,705.261c4.358,6.735,7.931,14.836,14.793,19.442a11.46,11.46,0,0,0,8.932,1.651c3.894-.859,6.566-4.257,7.746-7.88,1.463-4.488.535-9.154.885-13.735a76.517,76.517,0,0,1,2.307-8.578,48.876,48.876,0,0,0,2.254-11.65,7.71,7.71,0,0,0-3.921-6.949,12.669,12.669,0,0,1,20.305,12.216l-.054.3-.052.3-.048.243-.093.453-.191.859c-.128.558-.26,1.115-.4,1.653-.272,1.087-.557,2.154-.856,3.214q-.9,3.177-1.98,6.291a97.4,97.4,0,0,1-5.2,12.324c-1.033,2.027-2.167,4.039-3.427,6.02a57.289,57.289,0,0,1-4.236,5.835q-1.184,1.422-2.512,2.787c-.881.909-1.831,1.79-2.832,2.637a34.678,34.678,0,0,1-3.188,2.412,33.5,33.5,0,0,1-3.556,2.075l-.781.392a8.378,8.378,0,0,1-9.385-1.305l-.188-.17-.092-.087-.047-.042-.025-.027-.194-.2-.192-.2c-.067-.068-.128-.133-.174-.187l-.611-.687-.535-.649c-.179-.217-.356-.434-.513-.641-.316-.419-.654-.843-.949-1.257l-.886-1.245c-.288-.414-.558-.826-.831-1.24s-.557-.825-.8-1.239c-.507-.825-1.041-1.647-1.508-2.477s-.975-1.649-1.411-2.482-.907-1.656-1.338-2.488l-1.262-2.5c-.424-.83-.8-1.673-1.2-2.506s-.8-1.672-1.155-2.51l-1.108-2.518c-.379-.835-.7-1.687-1.056-2.529l-1.034-2.527-.97-2.541c-.321-.847-.651-1.69-.964-2.538l-1.809-5.1a5.28,5.28,0,0,1-.223-2.7A72.115,72.115,0,0,0,1664.757,705.261Z" transform="translate(-1648.421 -625.106)" fill="#5999a8" opacity="0.1" style="isolation: isolate"/>
        <path id="Trazado_6204" data-name="Trazado 6204" d="M1693.777,932.272a41.938,41.938,0,0,0,9-6.213l11.092.127s4.162,9.462,1.56,12.882h-25.3S1689.467,934.2,1693.777,932.272Z" transform="translate(-1649.429 -633.02)" fill="#28a2db"/>
        <path id="Trazado_6205" data-name="Trazado 6205" d="M1709.758,934.053a8.079,8.079,0,0,0,.164-7.916l4.43.05s4.162,9.462,1.561,12.882h-10.725A16.782,16.782,0,0,0,1709.758,934.053Z" transform="translate(-1649.904 -633.023)" fill="#42727d" opacity="0.2" style="isolation: isolate"/>
        <path id="Trazado_6206" data-name="Trazado 6206" d="M1735.209,932.271a22.6,22.6,0,0,0,7.54-6.23l12.555.144s4.163,9.462,1.561,12.882h-25.306S1730.9,934.2,1735.209,932.271Z" transform="translate(-1650.734 -633.02)" fill="#28a2db"/>
        <path id="Trazado_6207" data-name="Trazado 6207" d="M1750.843,932.065a8.774,8.774,0,0,0-.668-5.941l5.595.064s4.163,9.462,1.56,12.882h-10.88A12.468,12.468,0,0,0,1750.843,932.065Z" transform="translate(-1651.204 -633.022)" fill="#42727d" opacity="0.2" style="isolation: isolate"/>
        <path id="Trazado_6208" data-name="Trazado 6208" d="M1743.171,676.846c9.706,4.176,12.313,14.467,11,23.41l-11.191,48.45-38.634,2.781s-7.5-40.732-7.7-47.357-2.426-14.767-.755-19.343C1702.765,665.943,1725.066,669.059,1743.171,676.846Z" transform="translate(-1649.592 -624.977)" fill="#fff"/>
        <path id="Trazado_6209" data-name="Trazado 6209" d="M1725.893,797.118c-2.956,8.249-10.49,65.531-8.714,102.942.722,15.229-3.22,21.349-3.22,21.349l-11.092-.127s-6.318-.027-9.081-40.941a523.428,523.428,0,0,1,3.568-100.973C1704.351,761.748,1725.893,797.118,1725.893,797.118Z" transform="translate(-1649.514 -628.244)" fill="#fff"/>
        <path id="Trazado_6210" data-name="Trazado 6210" d="M1742.712,748.881c13.137,22.965,9.872,49.134,9.506,51.737-.243,13.778-1.345,27.778-1.245,40.487.17,21.595,5.374,41.956,5.574,59.657.176,15.762-2.417,19.648-2.417,19.648l-11.688-.144c-10.126-9.617-20.883-88.392-24.12-113.8-12.721,1.845-24.149,3.409-24.149,3.409s3.97-53.275,10.145-62.418C1712,736.052,1742.712,748.881,1742.712,748.881Z" transform="translate(-1649.557 -627.245)" fill="#fff"/>
        <path id="Trazado_6211" data-name="Trazado 6211" d="M1723.589,744.9c6.612-9.512,9.205-21.451,9.81-32.264a40.793,40.793,0,0,0,12.066-9.921c3.047-3.791,5.844-7.889,6.02-12.939a12.155,12.155,0,0,0-1.868-6.521,27.3,27.3,0,0,0-1.627-2.193q-.366-.478-.733-.949c-.078-.122-.141-.223-.173-.267a11.282,11.282,0,0,0-1.684-1.864c8.207,4.625,10.4,14.153,9.178,22.511l-11.185,48.445-34.974,11.689C1710.319,759.6,1722.333,746.707,1723.589,744.9Z" transform="translate(-1650.006 -625.205)" fill="#5999a8" opacity="0.1" style="isolation: isolate"/>
        <path id="Trazado_6212" data-name="Trazado 6212" d="M1704.7,920.212a8.185,8.185,0,0,0,4.769-2.287,7.831,7.831,0,0,0,2.136-3.67,104.979,104.979,0,0,0,1.616-19.826c-1.652-42.062,7.185-93.666,7.95-95.025q.471-.835.971-1.652c-.771,10.306-1.033,20.651-1.07,30.991-2.54,21.665-4.671,50.232-3.636,72.045.721,15.229-3.22,21.35-3.22,21.35l-11.092-.128s-.88,0-2.127-2.135A8.942,8.942,0,0,0,1704.7,920.212Z" transform="translate(-1649.772 -628.978)" fill="#5999a8" opacity="0.1" style="isolation: isolate"/>
        <path id="Trazado_6213" data-name="Trazado 6213" d="M1747.559,773.468c-1.8-6.326-5.223-13.154-11.467-15.892a22.829,22.829,0,0,0,5.421-9.5c1.584.585,2.521.974,2.521.974,13.137,22.965,9.873,49.134,9.506,51.737-.243,13.778-1.344,27.778-1.245,40.487.169,21.595,5.374,41.956,5.574,59.657.176,15.762-2.417,19.648-2.417,19.648l-11.688-.144c-2.178-2.068-4.383-7.336-6.539-14.583a8.541,8.541,0,0,0,8.641,2.9c3.656-.833,5.921-4.484,6.1-8.019.4-7.995-1.115-15.909-2.229-23.8a88.986,88.986,0,0,1-.815-11.817c.028-3.585.195-7.171.366-10.751.887-18.357,2.206-36.746,1.53-55.133C1750.5,790.656,1749.922,781.758,1747.559,773.468Z" transform="translate(-1650.878 -627.413)" fill="#5999a8" opacity="0.1" style="isolation: isolate"/>
        <path id="Trazado_6214" data-name="Trazado 6214" d="M1719.014,623.488c9.822.028,19.611,1.972,20.1,20.815.6,23.119-8.9,31.666-8.9,31.666s-7.569,4.27-19.667-2.4c-5.625-3.1-6.437-28.546-6.062-33.666C1705.154,630.678,1705.4,623.448,1719.014,623.488Z" transform="translate(-1649.88 -623.488)" fill="#fff"/>
        <path id="Trazado_6215" data-name="Trazado 6215" d="M1706.087,641.9a31.947,31.947,0,0,0,7.023-1.15c1.149-.046,2.3-.1,3.441-.189a33.343,33.343,0,0,0,8.543-1.359,11.4,11.4,0,0,0,5.64-3.8c1.692-2.193,2.683-5.52,1.6-8.241-.075-.19-.151-.372-.23-.557,3.983,2.765,6.754,7.991,7.01,17.792.6,23.12-8.9,31.667-8.9,31.667s-7.568,4.269-19.666-2.4c-5.106-2.816-6.243-24.034-6.132-31.758C1704.969,641.928,1705.53,641.928,1706.087,641.9Z" transform="translate(-1649.88 -623.586)" fill="#5999a8" opacity="0.1" style="isolation: isolate"/>
        <path id="Trazado_6216" data-name="Trazado 6216" d="M1726.436,642.009s2.8,6.313,1.209,12.34-4.746,13.378-10.685,13.858-9.943-6.065-10.528-10.164.128-16.164.128-16.164C1712.546,634,1726.436,642.009,1726.436,642.009Z" transform="translate(-1649.936 -623.958)" fill="#d69674"/>
        <path id="Trazado_6217" data-name="Trazado 6217" d="M1727.64,654.746s-2.149,14.938-12.432,13.8-9.066-14.535-9.066-14.535S1709.749,646.826,1727.64,654.746Z" transform="translate(-1649.933 -624.355)" fill="#17b0c7"/>
        <g id="Grupo_1129" data-name="Grupo 1129" transform="translate(53.28 119.924)">
          <path id="Trazado_6218" data-name="Trazado 6218" d="M1744.149,747.313l.987,2.365c-6.214,2.6-13.443,3.434-20.167,3.434a97.326,97.326,0,0,1-21.85-2.523l.214-2.588C1703.578,748.063,1727.927,754.1,1744.149,747.313Z" transform="translate(-1703.119 -747.313)" fill="#00a0a6"/>
        </g>
        <g id="Grupo_1130" data-name="Grupo 1130" transform="translate(56.841 45.866)">
          <path id="Trazado_6219" data-name="Trazado 6219" d="M1734.72,671.433l1.048,2.341a35.118,35.118,0,0,1-14.48,3.251,29.8,29.8,0,0,1-14.492-3.648,9.067,9.067,0,0,0,.758-2.531C1709.781,672.19,1720.5,677.821,1734.72,671.433Z" transform="translate(-1706.796 -670.846)" fill="#00a0a6"/>
        </g>
        <g id="Grupo_1131" data-name="Grupo 1131" transform="translate(58.41 49.381)">
          <path id="Trazado_6220" data-name="Trazado 6220" d="M1709.213,704.51c.315-17.813,4.459-29.542,4.633-30.035l2.408.867c-.041.111-4.174,11.817-4.482,29.207-.038,2.193-.141,5.086-.259,8.436-.716,20.31-2.951,58.209,4.634,74.091h-1.293c-7.854-16.449-6.625-53.653-5.9-74.181C1709.074,709.563,1709.174,706.68,1709.213,704.51Z" transform="translate(-1708.416 -674.475)" fill="#00a0a6"/>
        </g>
        <path id="Trazado_6221" data-name="Trazado 6221" d="M1699.475,764.426c1.337-1.129,36.222-23,36.267-23.109-.02.026-4.176-37.891-5.128-44.873a12.025,12.025,0,0,1,22.066-8.385c2.718,4.369,1.942,10.453,2.023,15.369.126,7.68.054,31.28-.148,38.96-.173,6.494-4.935,10.8-9.042,14-11.229,8.754-29.7,15.2-43.831,16.142C1696.918,772.85,1695.85,767.477,1699.475,764.426Z" transform="translate(-1649.656 -625.343)" fill="#fff"/>
        <path id="Trazado_6222" data-name="Trazado 6222" d="M1717.85,766.939a50.3,50.3,0,0,0,12.769-6.072c3.469-2.325,6.562-5.164,9.848-7.735a40.37,40.37,0,0,0,8.828-8.75,14.533,14.533,0,0,0,2.5-7.737c.087-2.18,1.9-38.379-.51-50.315a11.707,11.707,0,0,1,1.432,1.855c2.718,4.369,1.942,10.453,2.023,15.369.126,7.68.055,31.28-.148,38.96-.172,6.494-4.936,10.8-9.042,14-11.228,8.754-29.7,15.2-43.831,16.142a4.2,4.2,0,0,1-3.121-.9,7.248,7.248,0,0,0,1.69-.289C1702.817,770.7,1715.215,767.771,1717.85,766.939Z" transform="translate(-1649.697 -625.468)" fill="#5999a8" opacity="0.1" style="isolation: isolate"/>
        <g id="Grupo_1133" data-name="Grupo 1133" transform="translate(52.557 13.364)">
          <path id="Trazado_6223" data-name="Trazado 6223" d="M1729.294,670.63s-6.588,5.992-15.465,5.343-8.94-4.943-8.94-4.943l-1.337-29.692,28.282.286Z" transform="translate(-1702.41 -637.415)" fill="#fff" opacity="0.3" style="isolation: isolate"/>
          <g id="Grupo_1132" data-name="Grupo 1132" transform="translate(0.505 3.288)">
            <path id="Trazado_6224" data-name="Trazado 6224" d="M1703.53,640.682h.007l28.282.285a.638.638,0,0,1,.631.646.443.443,0,0,1,0,.05l-2.537,29.006a.641.641,0,0,1-.206.418,23.412,23.412,0,0,1-14.526,5.559c-.464,0-.936-.016-1.413-.051-9.354-.685-9.532-5.372-9.534-5.551l-1.338-29.692a.64.64,0,0,1,.612-.668h.023Zm1.979,30.313c0,.038.26,3.732,8.348,4.323,7.681.564,13.69-4.094,14.8-5.017l2.452-28.056-26.916-.272Z" transform="translate(-1702.894 -640.682)" fill="#fff"/>
          </g>
          <path id="Trazado_6225" data-name="Trazado 6225" d="M1707.634,650.791c-.568,4.989-1.361,9.953-2.045,14.928q-.354,2.57-.707,5.141l-1.331-29.522,5.032.05C1708.276,644.524,1707.989,647.661,1707.634,650.791Z" transform="translate(-1702.41 -637.415)" fill="#fff" opacity="0.5" style="isolation: isolate"/>
          <path id="Trazado_6226" data-name="Trazado 6226" d="M1727.087,641.577l5.351.054-2.539,29.006a23.589,23.589,0,0,1-6.917,4.03q.579-4.223,1.163-8.442C1725.293,658.031,1726.35,649.819,1727.087,641.577Z" transform="translate(-1703.022 -637.422)" fill="#fff" opacity="0.5" style="isolation: isolate"/>
          <path id="Trazado_6227" data-name="Trazado 6227" d="M1738.4,637.287l.485,3.852s-20.322,1.792-36.507.808l.126-4.125S1717.959,637.924,1738.4,637.287Z" transform="translate(-1702.373 -637.287)" fill="#c0e1e3"/>
        </g>
        <path id="Trazado_6228" data-name="Trazado 6228" d="M1685.264,769.9h11.043l1.761,3.047c1.918,9.821-8.83,7.692-8.83,7.692l-4.5,3.962-4.264-1.574a67.775,67.775,0,0,1-1.279-7.092C1679.195,774.53,1685.264,769.9,1685.264,769.9Z" transform="translate(-1649.085 -628.101)" fill="#28a2db"/>
        <path id="Trazado_6229" data-name="Trazado 6229" d="M1686.859,778.775c.076-.305.157-.609.236-.913l.019-.071c.048-.053.095-.1.137-.148a.6.6,0,0,1,.054-.031c.091-.034.181-.066.269-.09,1.47-.4,2.993-.493,4.487-.754a15.6,15.6,0,0,0,5.491-2.073,8.886,8.886,0,0,0,.892-.64c1.033,8.7-8.982,6.718-8.982,6.718l-3.156,2.778a7.6,7.6,0,0,0,.484-2.614Q1686.791,779.852,1686.859,778.775Z" transform="translate(-1649.31 -628.232)" fill="#42727d" opacity="0.2" style="isolation: isolate"/>
        <path id="Trazado_6230" data-name="Trazado 6230" d="M1701.466,770.711a5.381,5.381,0,0,1,0,4.51l-2.834.462-8.043-5.852,8.341-1.978A5.046,5.046,0,0,1,1701.466,770.711Z" transform="translate(-1649.444 -628.036)" fill="#28a2db"/>
        <g id="Grupo_1134" data-name="Grupo 1134" transform="translate(0 35.399)">
          <path id="Trazado_6231" data-name="Trazado 6231" d="M1654.213,672.393a4.153,4.153,0,0,1-1.987-1.4c-.558-.934-.082-1.441-.082-1.441s4.406-.508,5.808.234c1.337.707,5.115,5.575,5.326,6,1.385,2.825,2.015,12.426,2.015,12.426l.988,2.293.248.557a4.381,4.381,0,0,1-1.6,5.462l-.059.04a4.371,4.371,0,0,1-6.6-2.494l-.558-2.015a12.407,12.407,0,0,1-3.426-3.637c-.315-.969-2.108-5.81-2.108-5.81s1.292-2.1,2.1-3.132a52.547,52.547,0,0,1,4.089-3.861l-1.644-2.731Z" transform="translate(-1648.227 -660.333)" fill="#28a2db"/>
          <path id="Trazado_6232" data-name="Trazado 6232" d="M1655.526,686.062a9.792,9.792,0,0,0,4.188,2.552,8.587,8.587,0,0,0,3.968.252,11.651,11.651,0,0,0,1.608-.317v.055l.988,2.293.247.557a4.38,4.38,0,0,1-1.6,5.462l-.059.04a4.371,4.371,0,0,1-6.6-2.494l-.557-2.015a12.414,12.414,0,0,1-3.425-3.637c-.315-.97-2.108-5.81-2.108-5.81s.368-.6.834-1.315A11.331,11.331,0,0,0,1655.526,686.062Z" transform="translate(-1648.234 -660.721)" fill="#42727d" opacity="0.2" style="isolation: isolate"/>
          <path id="Trazado_6233" data-name="Trazado 6233" d="M1649.662,671.977c.047-.052,2.118-.139,2.351-.141s3.9,1.3,3.9,1.3l2.909,2.738-1.95,3.169-4-3.937-1.709-.558s-1.672-.43-1.939-1.214A1.283,1.283,0,0,1,1649.662,671.977Z" transform="translate(-1648.14 -660.41)" fill="#28a2db"/>
          <path id="Trazado_6234" data-name="Trazado 6234" d="M1649.179,675.07c.26-.073,3.355-.147,3.355-.147l2.588,1.729,1.13,2.287-2.1.713-2.583-2.229s-1.878,0-2.411-.092a1.153,1.153,0,0,1-1.042-1.253c0-.028.006-.056.011-.084C1648.336,675.025,1648.918,675.149,1649.179,675.07Z" transform="translate(-1648.106 -660.508)" fill="#28a2db"/>
          <path id="Trazado_6235" data-name="Trazado 6235" d="M1649.883,678.367a4.249,4.249,0,0,1,1.979.111,16.109,16.109,0,0,1,2.421,1.827l-2.229,2.585a21.819,21.819,0,0,0-1.189-2.106c-.286-.335-1.459-.249-1.858-.558a1.267,1.267,0,0,1-.539-1.512A5.661,5.661,0,0,1,1649.883,678.367Z" transform="translate(-1648.115 -660.614)" fill="#28a2db"/>
          <path id="Trazado_6236" data-name="Trazado 6236" d="M1657.732,663l-.808,18.142a2.018,2.018,0,0,1-4.031-.179l.809-18.143Z" transform="translate(-1648.257 -660.126)" fill="#c0e1e3"/>
          <path id="Trazado_6237" data-name="Trazado 6237" d="M1654,660.039l3.8.2a.509.509,0,0,1,.492.528v.006l-.086,1.945a.511.511,0,0,1-.533.49h0l-3.862-.206a.512.512,0,0,1-.482-.535l.145-1.935A.511.511,0,0,1,1654,660.039Z" transform="translate(-1648.27 -660.039)" fill="#00a0a6"/>
          <path id="Trazado_6238" data-name="Trazado 6238" d="M1656.478,668.869,1656,681.278a1.054,1.054,0,0,1-1.054,1.012h-.049a1.062,1.062,0,0,1-1.01-1.105l.487-12.519Q1655.423,668.771,1656.478,668.869Z" transform="translate(-1648.288 -660.311)" fill="#be1622"/>
          <path id="Trazado_6239" data-name="Trazado 6239" d="M1655.81,675.03c.2.216,4.755,4.267,5,4.348s.8,2.068,1.587,3.127a8.3,8.3,0,0,1,.941,3.445c.446,2.433-6.264-1.236-6.366-2.071a32.932,32.932,0,0,0-.393-3.8,11.453,11.453,0,0,0-2.581-2.532,2.856,2.856,0,0,1-.78-3.354C1653.895,673.359,1655.61,674.814,1655.81,675.03Z" transform="translate(-1648.259 -660.477)" fill="#28a2db"/>
        </g>
      </g>
      <path id="Trazado_7236" data-name="Trazado 7236" d="M1474.045,730.788l-.077.013c-1.963.3-5.285-1.534-6.156-5.619a.222.222,0,0,1,.127-.221,18.777,18.777,0,0,1,8.848-2.71c.188,0,.319.1.292.227a.392.392,0,0,1-.39.232c-.308,0-.648.022-1.011.06-.022.527-.141,3.508-.1,6.277A1.683,1.683,0,0,1,1474.045,730.788Z" transform="translate(-1431.191 -626.599)" fill="#231f20"/>
      <g id="Grupo_2162" data-name="Grupo 2162" transform="translate(41.504 5.834)">
        <g id="Grupo_2159" data-name="Grupo 2159" transform="translate(21.892)">
          <g id="Grupo_1143" data-name="Grupo 1143">
            <g id="Grupo_1142" data-name="Grupo 1142">
              <path id="Trazado_6240" data-name="Trazado 6240" d="M1584.24,711.309c-.129.178-.288.386-.424.557l-.227.279-.571.681c-.487.576-1.187,1.384-2.086,2.387-1.8,2.007-4.38,4.787-7.65,7.985a139.4,139.4,0,0,1-11.872,10.42c-2.326,1.8-4.829,3.6-7.545,5.3a62.52,62.52,0,0,1-8.88,4.688,44.251,44.251,0,0,1-5.1,1.8c-.89.256-1.816.474-2.75.667l-.044.009c-.471.11-.151.032-.264.059l-.065.009-.128.017-.066.009-.2.034-.419.07-.209.028c-.065.009-.149.021-.191.023l-.305.028c-.205.017-.409.032-.6.038a15.756,15.756,0,0,1-2.16-.052,17.685,17.685,0,0,1-1.845-.265c-.577-.109-1.1-.24-1.611-.378a27.292,27.292,0,0,1-2.74-.93,41.774,41.774,0,0,1-4.45-2.118c-2.667-1.462-4.966-2.951-7.075-4.381s-4.025-2.8-5.774-4.075c-3.492-2.549-6.316-4.687-8.3-6.177l-3.105-2.339,0,0a5.341,5.341,0,0,1,5.551-9.067l3.5,1.712c2.22,1.084,5.388,2.642,9.154,4.416,1.879.88,3.923,1.823,6.043,2.728s4.349,1.8,6.508,2.479a23.718,23.718,0,0,0,3.045.769,8.506,8.506,0,0,0,1.214.125,1.182,1.182,0,0,0,.642-.1c.027-.032.011-.067-.081-.095a.747.747,0,0,0-.078-.017l-.046,0a.342.342,0,0,0-.063,0l-.08.007c-.054.006-.107.012-.16.02l-.068.012.061-.021.126-.041.062-.019c-.089.016.251-.066-.2.04l.02-.007c.415-.166.839-.336,1.273-.543a26.616,26.616,0,0,0,2.687-1.457,44.317,44.317,0,0,0,5.484-4.064c1.8-1.537,3.534-3.206,5.174-4.909a118.254,118.254,0,0,0,8.556-10.056c2.379-3.114,4.246-5.816,5.5-7.7.625-.942,1.1-1.681,1.4-2.167l.328-.537c.073-.124.064-.117.079-.14l.433-.6.014-.017a12.7,12.7,0,1,1,20.579,14.888Z" transform="translate(-1495.458 -631.453)" fill="#fff"/>
              <path id="Trazado_6241" data-name="Trazado 6241" d="M1584.228,711.309c-.129.179-.289.387-.425.558l-.227.279-.569.681c-.488.575-1.188,1.384-2.086,2.387-1.8,2.007-4.379,4.787-7.65,7.985a139.553,139.553,0,0,1-11.872,10.42c-2.326,1.8-4.829,3.6-7.546,5.3a62.444,62.444,0,0,1-8.879,4.688,44.025,44.025,0,0,1-5.1,1.8c-.89.256-1.815.474-2.75.667l-.043.009c-.471.11-.151.032-.264.059l-.066.008-.127.018-.066.009-.2.034-.418.07-.21.028c-.064.009-.148.021-.19.023l-.306.028c-.2.017-.409.032-.6.038a15.63,15.63,0,0,1-2.161-.053,17.428,17.428,0,0,1-1.844-.264c-.578-.109-1.1-.241-1.612-.379a27.024,27.024,0,0,1-2.739-.929,41.764,41.764,0,0,1-4.451-2.118c-2.666-1.462-4.967-2.951-7.074-4.381s-4.025-2.8-5.775-4.075c-3.491-2.549-6.314-4.688-8.3-6.177l-3.106-2.339,0,0a5.313,5.313,0,0,1-2.1-3.958c4.291,2.879,8.817,5.431,13.216,8.1,5.7,3.458,11.313,6.749,17.836,8.321,13.722,3.306,26.856-6.557,34.4-17.205,4.976-7.026,8.582-15.013,14.69-21.2,1.4-1.419,1.906-4.352,1.641-6.228a8.415,8.415,0,0,0-.595-2.074,12.7,12.7,0,0,1,7.578,19.87Z" transform="translate(-1495.458 -631.462)" fill="#5999a8" opacity="0.1" style="isolation: isolate"/>
              <path id="Trazado_6242" data-name="Trazado 6242" d="M1589.824,926.029s4.14,9.431,1.554,12.839H1566.2s-.655-4.85,3.632-6.775a41.7,41.7,0,0,0,8.958-6.193Z" transform="translate(-1497.686 -638.849)" fill="#28a2db"/>
              <path id="Trazado_6243" data-name="Trazado 6243" d="M1566.175,939.051c.827.109,1.638.192,2.443.231H1566.2S1566.187,939.2,1566.175,939.051Z" transform="translate(-1497.686 -639.264)" fill="#42727d" opacity="0.2" style="isolation: isolate"/>
              <path id="Trazado_6244" data-name="Trazado 6244" d="M1589.966,926.032s4.14,9.431,1.554,12.839h-20.864a13.665,13.665,0,0,0,3.783-.732,19.029,19.029,0,0,0,7.362-4.609,24.6,24.6,0,0,0,5.018-7.536Z" transform="translate(-1497.827 -638.852)" fill="#42727d" opacity="0.2" style="isolation: isolate"/>
              <path id="Trazado_6245" data-name="Trazado 6245" d="M1631.043,926.029s4.14,9.431,1.555,12.839h-25.182s-.653-4.85,3.633-6.775a22.488,22.488,0,0,0,7.5-6.211Z" transform="translate(-1498.984 -638.849)" fill="#28a2db"/>
              <path id="Trazado_6246" data-name="Trazado 6246" d="M1631.535,926.033s4.14,9.431,1.555,12.839h-10.1c.349-.3.682-.607,1.015-.926a18.392,18.392,0,0,0,5.622-11.937Z" transform="translate(-1499.476 -638.853)" fill="#42727d" opacity="0.2" style="isolation: isolate"/>
              <path id="Trazado_6247" data-name="Trazado 6247" d="M1626.773,694.291l-5.541,58.093-44.619,2.333a77.979,77.979,0,0,0-4.887-14.061c-2.536-5.64-2.35-20.279-3.314-26.816s-4.1-14.34-2.976-19.065c4.626-19.458,33.422-21.736,47.394-18.99C1621.116,677.414,1627.042,685.283,1626.773,694.291Z" transform="translate(-1497.655 -630.939)" fill="#fff"/>
              <path id="Trazado_6248" data-name="Trazado 6248" d="M1605.681,674.918c-1.484,5.86-8.975,12.189-25.835,10.913a30.929,30.929,0,0,1-4.207-1.02c-.423-.135-.841-.281-1.256-.434a7.968,7.968,0,0,0-1.685-.854C1581.172,676.346,1595.034,674.369,1605.681,674.918Z" transform="translate(-1497.892 -630.939)" fill="#5999a8" opacity="0.1" style="isolation: isolate"/>
              <path id="Trazado_6249" data-name="Trazado 6249" d="M1620.43,749.429c11.861,22.609,8.789,51.789,8.789,51.789-2.737,1.469-58.994,9.01-58.994,9.01s.412-46.005,6.552-55.122C1584.434,743.746,1620.426,749.435,1620.43,749.429Z" transform="translate(-1497.814 -633.245)" fill="#fff"/>
              <path id="Trazado_6250" data-name="Trazado 6250" d="M1601.8,797.554c-2.939,8.225-6.14,68.78-8.669,102.618-1.134,15.156-3.2,21.284-3.2,21.284l-11.036-.128s-7.98.057-9.033-40.811c-1.209-46.87,1.36-94.052,1.36-94.052C1578.186,768.9,1601.8,797.556,1601.8,797.554Z" transform="translate(-1497.792 -634.277)" fill="#fff"/>
              <path id="Trazado_6251" data-name="Trazado 6251" d="M1627.065,692.467a19.447,19.447,0,0,1,.076,2.378l-5.541,58.093-44.619,2.332s-.129-.6-.414-1.658c5.941,1.695,12.237-.443,16.659-4.943a37.124,37.124,0,0,0,8.317-14.724c3.225-10.26,3.122-21.116,2.3-31.805q1.37-.241,2.752-.609a64.747,64.747,0,0,0,11.5-4.611C1621.094,695.46,1624.04,693.888,1627.065,692.467Z" transform="translate(-1498.014 -631.495)" fill="#5999a8" opacity="0.1" style="isolation: isolate"/>
              <path id="Trazado_6252" data-name="Trazado 6252" d="M1601.14,797.183c.493.555.765.888.765.888-2.939,8.225-6.14,68.78-8.669,102.618-1.134,15.156-3.206,21.284-3.206,21.284L1579,921.845s-3.744.025-6.442-13.08a7.928,7.928,0,0,0,7.314-2.254,49.687,49.687,0,0,0,11.245-22.238,105.12,105.12,0,0,0,2.135-24.516c-.093-7.607-.634-15.209-.759-22.821-.144-8.833,1.254-17.455,2.287-26.2.445-3.747.887-7.654.972-11.55h.073A8.4,8.4,0,0,0,1601.14,797.183Z" transform="translate(-1497.887 -634.794)" fill="#5999a8" opacity="0.1" style="isolation: isolate"/>
              <path id="Trazado_6253" data-name="Trazado 6253" d="M1633.026,901.789c.174,15.711-2.4,19.586-2.4,19.586l-11.628-.145c-12.036-11.453-24.968-121.289-24.968-121.289l35.34-21.752c3.67,21.824.782,41.248.956,63.2C1630.492,862.914,1632.831,884.142,1633.026,901.789Z" transform="translate(-1498.564 -634.196)" fill="#fff"/>
              <path id="Trazado_6254" data-name="Trazado 6254" d="M1601.688,648.083c5.446,22.4-1.928,27.542-1.928,27.542s-7.465,11.155-20.633,7.213c-6.123-1.833-12.264-26.452-12.976-31.517-1.284-9.132-.211-18.3,13.033-21.133C1588.735,628.143,1597.243,629.833,1601.688,648.083Z" transform="translate(-1497.672 -629.511)" fill="#fff"/>
              <path id="Trazado_6255" data-name="Trazado 6255" d="M1601.687,648.122c5.446,22.4-1.928,27.542-1.928,27.542s-7.465,11.155-20.633,7.213c-6.123-1.833-12.264-26.452-12.976-31.517a37.916,37.916,0,0,1-.41-5.362c.159.036.317.078.48.11a18.568,18.568,0,0,0,9.725-.842,33.316,33.316,0,0,0,7.54-3.626c2.209-1.486,4.971-3.521,6.122-6.054a9.989,9.989,0,0,0,1.087-4.905C1595.3,632.7,1599.153,637.723,1601.687,648.122Z" transform="translate(-1497.672 -629.548)" fill="#5999a8" opacity="0.1" style="isolation: isolate"/>
              <path id="Trazado_6256" data-name="Trazado 6256" d="M1587.866,648.856s4.051,5.558,3.776,11.766-1.8,14.035-7.474,15.759-10.944-3.808-12.374-7.678-3.276-15.78-3.276-15.78C1572.682,643.988,1587.866,648.856,1587.866,648.856Z" transform="translate(-1497.76 -630.079)" fill="#d69674"/>
              <path id="Trazado_6257" data-name="Trazado 6257" d="M1591.71,661.04s1.053,15.009-9.185,16.067-11.875-12.245-11.875-12.245S1576.327,659.5,1591.71,661.04Z" transform="translate(-1497.827 -630.496)" fill="#17b0c7"/>
              <path id="Trazado_6258" data-name="Trazado 6258" d="M1593.993,781.27c.191.1.379.195.567.3a6.48,6.48,0,0,1-1.111-.535l.136.048C1593.723,781.142,1593.862,781.2,1593.993,781.27Z" transform="translate(-1498.545 -634.285)" fill="#5999a8" opacity="0.1" style="isolation: isolate"/>
              <g id="Grupo_1136" data-name="Grupo 1136" transform="translate(116.745 121.508)">
                <path id="Trazado_6259" data-name="Trazado 6259" d="M1633.718,901.061c.174,15.711-2.4,19.586-2.4,19.586l-11.628-.145a19.3,19.3,0,0,1-3.684-6.323c4.694.019,8.487-3.509,10.153-7.956,1.39-3.714,1.027-8.144.612-12.014-.376-3.521-.787-6.953-.874-10.495-.285-11.477-.292-22.965.348-34.428.609-10.943.8-65.275-.9-72.145a54.393,54.393,0,0,0-8.251-18.424,16,16,0,0,0,7.252-3.744,88.954,88.954,0,0,1,5.715,22.485h0c3.67,21.824.782,41.248.956,63.2C1631.184,862.182,1633.523,883.41,1633.718,901.061Z" transform="translate(-1616.001 -754.972)" fill="#5999a8" opacity="0.1" style="isolation: isolate"/>
              </g>
              <g id="Grupo_1137" data-name="Grupo 1137" transform="translate(77.357 117.577)">
                <path id="Trazado_6260" data-name="Trazado 6260" d="M1622.032,750.913l1.247,2.222c-7.733,4.36-18.881,5.51-28.485,5.51a136.344,136.344,0,0,1-19.462-1.423l.4-2.524C1576.04,754.747,1606.795,759.5,1622.032,750.913Z" transform="translate(-1575.332 -750.913)" fill="#00a0a6"/>
              </g>
              <g id="Grupo_1138" data-name="Grupo 1138" transform="translate(76.643 41.286)">
                <path id="Trazado_6261" data-name="Trazado 6261" d="M1603.133,672.14l1.127,2.634c-7.4,6.477-14.849,7.5-20.255,7.816-.736.045-1.444.062-2.12.062a26.132,26.132,0,0,1-7.145-.74l-.146-2.665A30.972,30.972,0,0,0,1603.133,672.14Z" transform="translate(-1574.594 -672.14)" fill="#00a0a6"/>
              </g>
              <g id="Grupo_1139" data-name="Grupo 1139" transform="translate(82.233 49.839)">
                <path id="Trazado_6262" data-name="Trazado 6262" d="M1584.181,721.012c1.634,20.192,4.13,58.5,12.471,73.983h-.626c-9.657-15.378-12.731-53.368-14.383-73.777-.267-3.319-.5-6.185-.712-8.337a108.97,108.97,0,0,1,1.444-31.91l2.481.57a108.56,108.56,0,0,0-1.389,31.088C1583.682,714.806,1583.915,717.683,1584.181,721.012Z" transform="translate(-1580.367 -680.972)" fill="#00a0a6"/>
              </g>
              <path id="Trazado_6263" data-name="Trazado 6263" d="M1629.938,722.173c.031,2.995-.017,6.124-.223,9.4-.093,1.625-.258,3.317-.455,5.028l-.19,1.423-.1.712-.1.555-.1.556-.051.275-.026.138-.006.035c0-.027-.045.351-.03.215l-.019.1c-.106.527-.216,1.05-.35,1.579a27.682,27.682,0,0,1-2.354,6.226,26.208,26.208,0,0,1-3.792,5.4,29.043,29.043,0,0,1-4.521,4,37.118,37.118,0,0,1-4.571,2.788,61.739,61.739,0,0,1-8.394,3.5c-2.6.89-4.986,1.6-7.158,2.237l-5.841,1.695c-1.713.507-3.186.955-4.388,1.333s-2.143.69-2.756.894l-1,.345-.017.006a5.331,5.331,0,0,1-4.246-9.741l.949-.514c.665-.351,1.6-.843,2.8-1.452s2.665-1.332,4.331-2.135l5.52-2.646c1.986-.958,4.1-1.99,6.193-3.121a46.73,46.73,0,0,0,5.946-3.717,15.452,15.452,0,0,0,4.013-4.2,8.853,8.853,0,0,0,1.2-4.346c.01-.2.01-.415.01-.627v-.039c.019-.16-.025.2-.019.145v-.035l0-.14.011-.279.022-.556.019-.555-.015-.4-.021-.8c-.042-1.25-.1-2.514-.223-3.821-.219-2.592-.562-5.231-.969-7.8-.811-5.152-1.841-10.035-2.81-14.209s-1.877-7.645-2.533-10.046c-.333-1.2-.6-2.134-.778-2.758s-.275-.93-.267-.9c-.017-.074-.034-.148-.049-.223a12.692,12.692,0,0,1,24.843-5.212c.008.034.07.454.172,1.2s.243,1.817.409,3.175c.328,2.718.755,6.568,1.14,11.233S1629.879,716.2,1629.938,722.173Z" transform="translate(-1498.009 -631.114)" fill="#fff"/>
              <path id="Trazado_6264" data-name="Trazado 6264" d="M1629.953,722.25c.031,2.994-.016,6.124-.223,9.4-.093,1.626-.258,3.317-.455,5.028l-.19,1.423-.1.712-.1.556-.1.555-.051.276-.025.138-.007.034c0-.026-.045.352-.03.216l-.019.1c-.106.526-.216,1.049-.35,1.578a27.71,27.71,0,0,1-2.354,6.227,26.2,26.2,0,0,1-3.792,5.4,28.992,28.992,0,0,1-4.521,4,37.006,37.006,0,0,1-4.571,2.789,62.015,62.015,0,0,1-8.393,3.5c-2.6.889-4.987,1.6-7.159,2.236l-5.841,1.695c-1.713.507-3.186.955-4.387,1.333s-2.144.691-2.757.894l-1,.346-.017.006a5.309,5.309,0,0,1-6.6-2.923,22.317,22.317,0,0,0,3.268-.111c2.868.937,20.43-5.865,23.128-7.6a32.713,32.713,0,0,0,15.333-12.993,48,48,0,0,0,6.378-18.8,106.224,106.224,0,0,0,.784-21.509c-.456-7.366-1.463-14.7-2.644-21.979a5.412,5.412,0,0,0-.706-1.829,12.691,12.691,0,0,1,5,7.621c.008.033.07.454.172,1.2s.243,1.817.409,3.176c.328,2.718.755,6.567,1.14,11.232S1629.894,716.282,1629.953,722.25Z" transform="translate(-1498.024 -631.195)" fill="#5999a8" opacity="0.1" style="isolation: isolate"/>
              <g id="Grupo_1141" data-name="Grupo 1141" transform="translate(66.082 11.456)">
                <path id="Trazado_6265" data-name="Trazado 6265" d="M1593.011,647.222l3.632,28.8s-5.144,7.228-13.911,8.47-9.735-2.925-9.735-2.925l-7.552-28.644Z" transform="translate(-1563.745 -641.525)" fill="#fff" opacity="0.3" style="isolation: isolate"/>
                <g id="Grupo_1140" data-name="Grupo 1140" transform="translate(1.062 5.058)">
                  <path id="Trazado_6266" data-name="Trazado 6266" d="M1597.245,675.917a.632.632,0,0,1-.111.45c-.217.3-5.405,7.467-14.34,8.733a22.279,22.279,0,0,1-3.12.237c-6.394,0-7.285-3.483-7.324-3.651l-7.543-28.627-.008-.031a.639.639,0,0,1,.494-.756l27.56-5.7a.438.438,0,0,1,.051-.009.636.636,0,0,1,.709.554Zm-14.63,7.918c7.607-1.079,12.453-6.879,13.341-8.012l-3.513-27.853-26.228,5.422,7.375,27.987a3.065,3.065,0,0,0,1.415,1.625c1.135.711,3.377,1.432,7.615.832Z" transform="translate(-1564.787 -646.562)" fill="#fff"/>
                </g>
                <path id="Trazado_6267" data-name="Trazado 6267" d="M1572.554,676.393q.2,2.579.393,5.157l-7.5-28.48,4.9-1.014c.362,3.118.743,6.236,1.055,9.359C1571.9,666.4,1572.173,671.4,1572.554,676.393Z" transform="translate(-1563.745 -641.678)" fill="#fff" opacity="0.5" style="isolation: isolate"/>
                <path id="Trazado_6268" data-name="Trazado 6268" d="M1593.732,647.224l3.632,28.8a23.52,23.52,0,0,1-5.878,5.387q-.327-4.235-.645-8.471c-.615-8.224-1.313-16.446-2.326-24.634Z" transform="translate(-1564.472 -641.525)" fill="#fff" opacity="0.5" style="isolation: isolate"/>
                <path id="Trazado_6269" data-name="Trazado 6269" d="M1599.415,641.34l1.281,3.65s-20.317,6.242-36.261,8.7l-.745-4.042S1579.677,646.277,1599.415,641.34Z" transform="translate(-1563.69 -641.34)" fill="#c0e1e3"/>
              </g>
            </g>
          </g>
          <path id="Trazado_6273" data-name="Trazado 6273" d="M1580.718,772.894a51.665,51.665,0,0,1-6.506,4.627c-2.486,1.3-13.667-5.683-13.667-5.683s2.917-5.844,4.505-6.345,12.284,0,12.284,0S1582.253,767.881,1580.718,772.894Z" transform="translate(-1497.509 -633.789)" fill="#28a2db"/>
        </g>
        <g id="Grupo_2161" data-name="Grupo 2161" transform="translate(0 77.687)">
          <path id="Trazado_7237" data-name="Trazado 7237" d="M1498.323,728.258l-1.9-4.2,6.539-8.107,4.483,2.954Z" transform="translate(-1473.596 -709.922)" fill="#24a5ba"/>
          <g id="Grupo_2160" data-name="Grupo 2160">
            <path id="Trazado_7238" data-name="Trazado 7238" d="M1490.366,719.416c-3.325,1.546-6.338,2.228-6.247,5.124a28.486,28.486,0,0,1,6.325-.5c3.683.093,4.525,2.229,9.69-.72s3.574-7.705-.65-10.922c-2.3-1.753-4.066-2.923-5.653-2.116a1.932,1.932,0,0,0-2.438-.223c-2.414,1.466-12.944,9.329-12.944,9.329a3.959,3.959,0,0,0,1.336,1.121l-2.88,1.456s.763,2.146,3.359,1.2,10.23-5.764,10.23-5.764h0A1.151,1.151,0,0,1,1490.366,719.416Z" transform="translate(-1472.981 -709.726)" fill="#28a2db"/>
            <path id="Trazado_7239" data-name="Trazado 7239" d="M1473.664,728.312a.713.713,0,0,1-.435-1.335l20.412-11.01a.713.713,0,1,1,.677,1.255l-20.411,11.01A.7.7,0,0,1,1473.664,728.312Z" transform="translate(-1472.854 -709.92)" fill="#f9f9f9"/>
          </g>
        </g>
      </g>
      <g id="Grupo_2166" data-name="Grupo 2166" transform="translate(150.857 142.941)">
        <path id="Trazado_7240" data-name="Trazado 7240" d="M1718.592,936.4a2.27,2.27,0,0,1-2.256-2.034L1702.4,800.907a2.27,2.27,0,0,1,4.515-.472L1720.852,933.9a2.27,2.27,0,0,1-2.022,2.493A1.979,1.979,0,0,1,1718.592,936.4Z" transform="translate(-1589.438 -771.94)" fill="#493215"/>
        <rect id="Rectángulo_784" data-name="Rectángulo 784" width="37.16" height="9.29" transform="translate(84.854 16.207)" fill="#e64663"/>
        <path id="Trazado_7241" data-name="Trazado 7241" d="M1629.807,936.4a1.981,1.981,0,0,1-.238-.013,2.27,2.27,0,0,1-2.022-2.493l13.933-133.462a2.27,2.27,0,0,1,4.515.472L1632.063,934.37A2.27,2.27,0,0,1,1629.807,936.4Z" transform="translate(-1587.08 -771.94)" fill="#493215"/>
        <rect id="Rectángulo_785" data-name="Rectángulo 785" width="167.778" height="6.928" transform="translate(0 24.475)" fill="#493215"/>
        <path id="Trazado_7242" data-name="Trazado 7242" d="M1707.066,858.844h-68.183a2.27,2.27,0,0,1,0-4.539h68.183a2.27,2.27,0,1,1,0,4.539Z" transform="translate(-1587.366 -773.701)" fill="#493215"/>
        <rect id="Rectángulo_786" data-name="Rectángulo 786" width="36.136" height="14.605" transform="translate(43.726 9.938)" fill="#24a5ba"/>
        <g id="Grupo_2163" data-name="Grupo 2163" transform="translate(44.403 10.707)">
          <path id="Trazado_7243" data-name="Trazado 7243" d="M1637.974,793.272a3.63,3.63,0,0,1-3.625-3.625V782.89h-2.36a.378.378,0,0,1,0-.756h2.739a.378.378,0,0,1,.378.379v7.134a2.868,2.868,0,0,0,5.736,0,.379.379,0,0,1,.757,0A3.63,3.63,0,0,1,1637.974,793.272Z" transform="translate(-1631.611 -782.134)" fill="#231f20"/>
          <path id="Trazado_7244" data-name="Trazado 7244" d="M1649.266,793.272a3.63,3.63,0,0,1-3.625-3.625V782.89h-4.12a.378.378,0,1,1,0-.756h4.5a.379.379,0,0,1,.379.379v7.134a2.868,2.868,0,0,0,5.736,0,.379.379,0,1,1,.757,0A3.63,3.63,0,0,1,1649.266,793.272Z" transform="translate(-1631.911 -782.134)" fill="#231f20"/>
          <path id="Trazado_7245" data-name="Trazado 7245" d="M1660.689,793.272a3.629,3.629,0,0,1-3.624-3.625V782.89h-4.2a.378.378,0,1,1,0-.756h4.573a.379.379,0,0,1,.379.379v7.134a2.868,2.868,0,0,0,5.736,0v-7.134a.379.379,0,0,1,.379-.379h2.626a.378.378,0,0,1,0,.756h-2.248v6.756A3.63,3.63,0,0,1,1660.689,793.272Z" transform="translate(-1632.269 -782.134)" fill="#231f20"/>
        </g>
        <path id="Trazado_7246" data-name="Trazado 7246" d="M1638.1,791.745h0a2.447,2.447,0,0,1-2.447-2.446V771.079h4.894V789.3A2.446,2.446,0,0,1,1638.1,791.745Z" transform="translate(-1587.336 -771.079)" fill="#f9f9f9"/>
        <path id="Trazado_7247" data-name="Trazado 7247" d="M1649.45,791.745h0A2.447,2.447,0,0,1,1647,789.3V771.079h4.894V789.3A2.446,2.446,0,0,1,1649.45,791.745Z" transform="translate(-1587.693 -771.079)" fill="#f9f9f9"/>
        <path id="Trazado_7248" data-name="Trazado 7248" d="M1665.9,795.542h-33.916a.378.378,0,0,1,0-.756H1665.9a.378.378,0,0,1,0,.756Z" transform="translate(-1587.208 -771.826)" fill="#231f20"/>
        <g id="Grupo_2164" data-name="Grupo 2164" transform="translate(49.157 6.099)">
          <path id="Trazado_7249" data-name="Trazado 7249" d="M1638.129,790.964h0a1.608,1.608,0,0,1-1.609-1.609V777.376h3.217v11.979A1.609,1.609,0,0,1,1638.129,790.964Z" transform="translate(-1636.52 -777.376)" fill="#f7a69d"/>
        </g>
        <g id="Grupo_2165" data-name="Grupo 2165" transform="translate(60.129 3.708)">
          <path id="Trazado_7250" data-name="Trazado 7250" d="M1649.458,790.886h0a1.609,1.609,0,0,1-1.609-1.609v-14.37h3.217v14.37A1.608,1.608,0,0,1,1649.458,790.886Z" transform="translate(-1647.849 -774.908)" fill="#a5a5a5"/>
        </g>
      </g>
    </g>
  </g>
</svg>
